G04 EAGLE Gerber RS-274X export*
G75*
%MOMM*%
%FSLAX34Y34*%
%LPD*%
%INTop Copper*%
%IPPOS*%
%AMOC8*
5,1,8,0,0,1.08239X$1,22.5*%
G01*
%ADD10C,1.137919*%
%ADD11C,1.564638*%
%ADD12C,1.422400*%
%ADD13C,1.879600*%
%ADD14C,2.540000*%
%ADD15C,1.676400*%
%ADD16C,0.152400*%

G36*
X1229126Y2036D02*
X1229126Y2036D01*
X1229145Y2034D01*
X1229247Y2056D01*
X1229349Y2072D01*
X1229366Y2082D01*
X1229386Y2086D01*
X1229475Y2139D01*
X1229566Y2188D01*
X1229580Y2202D01*
X1229597Y2212D01*
X1229664Y2291D01*
X1229736Y2366D01*
X1229744Y2384D01*
X1229757Y2399D01*
X1229796Y2495D01*
X1229839Y2589D01*
X1229841Y2609D01*
X1229849Y2627D01*
X1229867Y2794D01*
X1229867Y530606D01*
X1229864Y530626D01*
X1229866Y530645D01*
X1229844Y530747D01*
X1229828Y530849D01*
X1229818Y530866D01*
X1229814Y530886D01*
X1229761Y530975D01*
X1229712Y531066D01*
X1229698Y531080D01*
X1229688Y531097D01*
X1229609Y531164D01*
X1229534Y531236D01*
X1229516Y531244D01*
X1229501Y531257D01*
X1229405Y531296D01*
X1229311Y531339D01*
X1229291Y531341D01*
X1229273Y531349D01*
X1229106Y531367D01*
X548894Y531367D01*
X548874Y531364D01*
X548855Y531366D01*
X548753Y531344D01*
X548651Y531328D01*
X548634Y531318D01*
X548614Y531314D01*
X548525Y531261D01*
X548434Y531212D01*
X548420Y531198D01*
X548403Y531188D01*
X548336Y531109D01*
X548264Y531034D01*
X548256Y531016D01*
X548243Y531001D01*
X548204Y530905D01*
X548161Y530811D01*
X548159Y530791D01*
X548151Y530773D01*
X548133Y530606D01*
X548133Y307594D01*
X548136Y307574D01*
X548134Y307555D01*
X548156Y307453D01*
X548172Y307351D01*
X548182Y307334D01*
X548186Y307314D01*
X548239Y307225D01*
X548288Y307134D01*
X548302Y307120D01*
X548312Y307103D01*
X548391Y307036D01*
X548466Y306964D01*
X548484Y306956D01*
X548499Y306943D01*
X548595Y306904D01*
X548689Y306861D01*
X548709Y306859D01*
X548727Y306851D01*
X548894Y306833D01*
X661242Y306833D01*
X662433Y305642D01*
X662433Y2794D01*
X662436Y2774D01*
X662434Y2755D01*
X662456Y2653D01*
X662472Y2551D01*
X662482Y2534D01*
X662486Y2514D01*
X662539Y2425D01*
X662588Y2334D01*
X662602Y2320D01*
X662612Y2303D01*
X662691Y2236D01*
X662766Y2164D01*
X662784Y2156D01*
X662799Y2143D01*
X662895Y2104D01*
X662989Y2061D01*
X663009Y2059D01*
X663027Y2051D01*
X663194Y2033D01*
X1229106Y2033D01*
X1229126Y2036D01*
G37*
%LPC*%
G36*
X1094777Y269049D02*
X1094777Y269049D01*
X1090856Y270673D01*
X1087854Y273674D01*
X1086230Y277595D01*
X1086230Y281608D01*
X1086216Y281698D01*
X1086208Y281789D01*
X1086196Y281819D01*
X1086191Y281851D01*
X1086148Y281932D01*
X1086112Y282015D01*
X1086086Y282048D01*
X1086075Y282068D01*
X1086052Y282090D01*
X1086007Y282146D01*
X1080007Y288146D01*
X1080007Y370445D01*
X1079993Y370535D01*
X1079985Y370626D01*
X1079973Y370655D01*
X1079968Y370687D01*
X1079925Y370768D01*
X1079889Y370852D01*
X1079863Y370884D01*
X1079852Y370905D01*
X1079829Y370927D01*
X1079784Y370983D01*
X1048902Y401865D01*
X1048828Y401918D01*
X1048759Y401978D01*
X1048729Y401990D01*
X1048702Y402009D01*
X1048615Y402035D01*
X1048531Y402070D01*
X1048490Y402074D01*
X1048467Y402081D01*
X1048435Y402080D01*
X1048364Y402088D01*
X980342Y402088D01*
X980271Y402077D01*
X980199Y402075D01*
X980150Y402057D01*
X980099Y402048D01*
X980035Y402015D01*
X979968Y401990D01*
X979927Y401958D01*
X979881Y401933D01*
X979832Y401881D01*
X979776Y401837D01*
X979748Y401793D01*
X979712Y401755D01*
X979682Y401690D01*
X979643Y401630D01*
X979630Y401579D01*
X979608Y401532D01*
X979601Y401461D01*
X979583Y401391D01*
X979587Y401339D01*
X979581Y401287D01*
X979597Y401217D01*
X979602Y401146D01*
X979623Y401098D01*
X979634Y401047D01*
X979670Y400985D01*
X979698Y400920D01*
X979743Y400864D01*
X979760Y400836D01*
X979778Y400821D01*
X979803Y400789D01*
X982119Y398473D01*
X983743Y394552D01*
X983743Y390308D01*
X982119Y386387D01*
X979117Y383385D01*
X975196Y381761D01*
X970952Y381761D01*
X967031Y383385D01*
X964029Y386387D01*
X962405Y390308D01*
X962405Y394552D01*
X964029Y398473D01*
X967031Y401475D01*
X970952Y403099D01*
X975232Y403099D01*
X975303Y403110D01*
X975375Y403112D01*
X975424Y403130D01*
X975475Y403138D01*
X975539Y403172D01*
X975606Y403197D01*
X975647Y403229D01*
X975693Y403254D01*
X975742Y403306D01*
X975798Y403350D01*
X975826Y403394D01*
X975862Y403432D01*
X975892Y403497D01*
X975931Y403557D01*
X975944Y403608D01*
X975966Y403655D01*
X975973Y403726D01*
X975991Y403796D01*
X975987Y403848D01*
X975993Y403899D01*
X975977Y403970D01*
X975972Y404041D01*
X975951Y404089D01*
X975940Y404140D01*
X975904Y404201D01*
X975876Y404267D01*
X975831Y404323D01*
X975814Y404351D01*
X975796Y404366D01*
X975771Y404398D01*
X971192Y408977D01*
X969778Y410391D01*
X969778Y424775D01*
X982392Y437389D01*
X1186260Y437389D01*
X1194278Y429371D01*
X1194336Y429329D01*
X1194388Y429280D01*
X1194435Y429258D01*
X1194477Y429227D01*
X1194546Y429206D01*
X1194611Y429176D01*
X1194663Y429170D01*
X1194713Y429155D01*
X1194784Y429157D01*
X1194855Y429149D01*
X1194906Y429160D01*
X1194958Y429161D01*
X1195026Y429186D01*
X1195096Y429201D01*
X1195141Y429228D01*
X1195189Y429246D01*
X1195245Y429291D01*
X1195307Y429327D01*
X1195341Y429367D01*
X1195381Y429400D01*
X1195420Y429460D01*
X1195467Y429514D01*
X1195486Y429563D01*
X1195514Y429607D01*
X1195532Y429676D01*
X1195559Y429743D01*
X1195567Y429814D01*
X1195575Y429845D01*
X1195573Y429868D01*
X1195577Y429909D01*
X1195577Y441057D01*
X1195563Y441147D01*
X1195555Y441238D01*
X1195543Y441267D01*
X1195538Y441299D01*
X1195495Y441380D01*
X1195459Y441464D01*
X1195433Y441496D01*
X1195422Y441517D01*
X1195399Y441539D01*
X1195354Y441595D01*
X1169305Y467644D01*
X1169231Y467697D01*
X1169162Y467757D01*
X1169131Y467769D01*
X1169105Y467788D01*
X1169018Y467815D01*
X1168933Y467849D01*
X1168892Y467853D01*
X1168870Y467860D01*
X1168838Y467859D01*
X1168767Y467867D01*
X923910Y467867D01*
X923795Y467848D01*
X923679Y467831D01*
X923673Y467829D01*
X923667Y467828D01*
X923564Y467773D01*
X923460Y467720D01*
X923455Y467715D01*
X923450Y467712D01*
X923370Y467628D01*
X923287Y467544D01*
X923284Y467538D01*
X923280Y467534D01*
X923273Y467517D01*
X923207Y467397D01*
X922109Y464749D01*
X919551Y462191D01*
X916209Y460806D01*
X912591Y460806D01*
X909249Y462191D01*
X906691Y464749D01*
X905593Y467397D01*
X905532Y467497D01*
X905472Y467597D01*
X905467Y467601D01*
X905464Y467606D01*
X905374Y467681D01*
X905285Y467757D01*
X905279Y467759D01*
X905274Y467763D01*
X905166Y467805D01*
X905057Y467849D01*
X905049Y467850D01*
X905045Y467851D01*
X905026Y467852D01*
X904890Y467867D01*
X888125Y467867D01*
X888035Y467853D01*
X887944Y467845D01*
X887915Y467833D01*
X887883Y467828D01*
X887802Y467785D01*
X887718Y467749D01*
X887686Y467723D01*
X887665Y467712D01*
X887643Y467689D01*
X887587Y467644D01*
X881813Y461870D01*
X881745Y461776D01*
X881675Y461681D01*
X881673Y461675D01*
X881669Y461670D01*
X881635Y461559D01*
X881599Y461448D01*
X881599Y461441D01*
X881597Y461435D01*
X881600Y461319D01*
X881601Y461202D01*
X881603Y461194D01*
X881603Y461189D01*
X881610Y461172D01*
X881648Y461041D01*
X882244Y459600D01*
X882244Y456832D01*
X881185Y454273D01*
X879227Y452315D01*
X876668Y451256D01*
X873900Y451256D01*
X871341Y452315D01*
X869383Y454273D01*
X868787Y455713D01*
X868725Y455813D01*
X868665Y455913D01*
X868661Y455917D01*
X868657Y455922D01*
X868567Y455997D01*
X868478Y456073D01*
X868473Y456075D01*
X868468Y456079D01*
X868359Y456121D01*
X868250Y456165D01*
X868243Y456166D01*
X868238Y456167D01*
X868220Y456168D01*
X868084Y456183D01*
X846268Y456183D01*
X846153Y456164D01*
X846037Y456147D01*
X846031Y456145D01*
X846025Y456144D01*
X845922Y456089D01*
X845817Y456036D01*
X845813Y456031D01*
X845808Y456028D01*
X845728Y455944D01*
X845645Y455860D01*
X845642Y455854D01*
X845638Y455850D01*
X845630Y455833D01*
X845564Y455713D01*
X844863Y454019D01*
X842905Y452061D01*
X840346Y451002D01*
X837578Y451002D01*
X835019Y452061D01*
X833061Y454019D01*
X832254Y455967D01*
X832193Y456067D01*
X832133Y456167D01*
X832128Y456171D01*
X832125Y456176D01*
X832035Y456251D01*
X831946Y456327D01*
X831940Y456329D01*
X831935Y456333D01*
X831827Y456375D01*
X831718Y456419D01*
X831710Y456420D01*
X831706Y456421D01*
X831687Y456422D01*
X831551Y456437D01*
X794092Y456437D01*
X793978Y456418D01*
X793862Y456401D01*
X793856Y456399D01*
X793850Y456398D01*
X793747Y456343D01*
X793642Y456290D01*
X793638Y456285D01*
X793632Y456282D01*
X793552Y456198D01*
X793470Y456114D01*
X793466Y456108D01*
X793463Y456104D01*
X793455Y456087D01*
X793389Y455967D01*
X792793Y454527D01*
X790835Y452569D01*
X788276Y451510D01*
X785508Y451510D01*
X782949Y452569D01*
X780991Y454527D01*
X779932Y457086D01*
X779932Y459854D01*
X780991Y462413D01*
X782949Y464371D01*
X785508Y465430D01*
X788276Y465430D01*
X790835Y464371D01*
X792793Y462413D01*
X793389Y460973D01*
X793451Y460873D01*
X793511Y460773D01*
X793515Y460769D01*
X793519Y460764D01*
X793609Y460689D01*
X793698Y460613D01*
X793703Y460611D01*
X793708Y460607D01*
X793817Y460565D01*
X793926Y460521D01*
X793933Y460520D01*
X793938Y460519D01*
X793956Y460518D01*
X794092Y460503D01*
X831972Y460503D01*
X832087Y460522D01*
X832203Y460539D01*
X832209Y460541D01*
X832215Y460542D01*
X832317Y460597D01*
X832422Y460650D01*
X832427Y460655D01*
X832432Y460658D01*
X832512Y460742D01*
X832594Y460826D01*
X832598Y460832D01*
X832601Y460836D01*
X832609Y460853D01*
X832675Y460973D01*
X833061Y461905D01*
X835019Y463863D01*
X837578Y464922D01*
X840346Y464922D01*
X842905Y463863D01*
X844863Y461905D01*
X845354Y460719D01*
X845416Y460619D01*
X845475Y460519D01*
X845480Y460515D01*
X845484Y460510D01*
X845573Y460435D01*
X845662Y460359D01*
X845668Y460357D01*
X845673Y460353D01*
X845781Y460311D01*
X845891Y460267D01*
X845898Y460266D01*
X845903Y460265D01*
X845921Y460264D01*
X846057Y460249D01*
X868084Y460249D01*
X868198Y460268D01*
X868314Y460285D01*
X868320Y460287D01*
X868326Y460288D01*
X868429Y460343D01*
X868534Y460396D01*
X868538Y460401D01*
X868544Y460404D01*
X868624Y460488D01*
X868706Y460572D01*
X868710Y460578D01*
X868713Y460582D01*
X868721Y460599D01*
X868787Y460719D01*
X869383Y462159D01*
X871341Y464117D01*
X873900Y465176D01*
X876668Y465176D01*
X878109Y464580D01*
X878222Y464553D01*
X878336Y464525D01*
X878342Y464525D01*
X878348Y464524D01*
X878465Y464535D01*
X878581Y464544D01*
X878587Y464546D01*
X878593Y464547D01*
X878700Y464595D01*
X878807Y464640D01*
X878813Y464645D01*
X878818Y464647D01*
X878831Y464659D01*
X878938Y464745D01*
X884712Y470519D01*
X886126Y471933D01*
X904890Y471933D01*
X905005Y471952D01*
X905121Y471969D01*
X905127Y471971D01*
X905133Y471972D01*
X905236Y472027D01*
X905340Y472080D01*
X905345Y472085D01*
X905350Y472088D01*
X905430Y472172D01*
X905513Y472256D01*
X905516Y472262D01*
X905520Y472266D01*
X905527Y472283D01*
X905593Y472403D01*
X906691Y475051D01*
X909249Y477609D01*
X912591Y478994D01*
X916209Y478994D01*
X919551Y477609D01*
X922109Y475051D01*
X923207Y472403D01*
X923268Y472303D01*
X923328Y472203D01*
X923333Y472199D01*
X923336Y472194D01*
X923426Y472119D01*
X923515Y472043D01*
X923521Y472041D01*
X923526Y472037D01*
X923634Y471995D01*
X923743Y471951D01*
X923751Y471950D01*
X923755Y471949D01*
X923774Y471948D01*
X923910Y471933D01*
X1170766Y471933D01*
X1199643Y443056D01*
X1199643Y386000D01*
X1185162Y371519D01*
X1185094Y371425D01*
X1185024Y371330D01*
X1185022Y371324D01*
X1185018Y371319D01*
X1184984Y371208D01*
X1184947Y371096D01*
X1184947Y371090D01*
X1184946Y371084D01*
X1184949Y370967D01*
X1184950Y370850D01*
X1184952Y370843D01*
X1184952Y370838D01*
X1184958Y370821D01*
X1184996Y370689D01*
X1185927Y368443D01*
X1185927Y365109D01*
X1184651Y362028D01*
X1182292Y359669D01*
X1179211Y358393D01*
X1175877Y358393D01*
X1172796Y359669D01*
X1170437Y362028D01*
X1169507Y364273D01*
X1169445Y364373D01*
X1169386Y364473D01*
X1169381Y364477D01*
X1169378Y364482D01*
X1169287Y364557D01*
X1169199Y364633D01*
X1169193Y364635D01*
X1169188Y364639D01*
X1169080Y364681D01*
X1168971Y364725D01*
X1168963Y364726D01*
X1168959Y364727D01*
X1168940Y364728D01*
X1168804Y364743D01*
X1168033Y364743D01*
X1167943Y364729D01*
X1167852Y364721D01*
X1167823Y364709D01*
X1167791Y364704D01*
X1167710Y364661D01*
X1167626Y364625D01*
X1167594Y364599D01*
X1167573Y364588D01*
X1167551Y364565D01*
X1167495Y364520D01*
X1150336Y347361D01*
X1150283Y347287D01*
X1150223Y347218D01*
X1150211Y347187D01*
X1150192Y347161D01*
X1150165Y347074D01*
X1150131Y346989D01*
X1150127Y346948D01*
X1150120Y346926D01*
X1150121Y346894D01*
X1150113Y346823D01*
X1150113Y317895D01*
X1150127Y317805D01*
X1150135Y317714D01*
X1150147Y317685D01*
X1150152Y317653D01*
X1150195Y317572D01*
X1150231Y317488D01*
X1150257Y317456D01*
X1150268Y317435D01*
X1150291Y317413D01*
X1150336Y317357D01*
X1169781Y297912D01*
X1169855Y297859D01*
X1169924Y297799D01*
X1169955Y297787D01*
X1169981Y297768D01*
X1170068Y297741D01*
X1170153Y297707D01*
X1170194Y297703D01*
X1170216Y297696D01*
X1170248Y297697D01*
X1170319Y297689D01*
X1177948Y297689D01*
X1178063Y297708D01*
X1178179Y297725D01*
X1178184Y297727D01*
X1178191Y297728D01*
X1178293Y297783D01*
X1178398Y297836D01*
X1178403Y297841D01*
X1178408Y297844D01*
X1178488Y297928D01*
X1178570Y298012D01*
X1178574Y298018D01*
X1178577Y298022D01*
X1178585Y298039D01*
X1178651Y298159D01*
X1179581Y300404D01*
X1181940Y302763D01*
X1185021Y304039D01*
X1188355Y304039D01*
X1191436Y302763D01*
X1193795Y300404D01*
X1195071Y297323D01*
X1195071Y293989D01*
X1193795Y290908D01*
X1191436Y288549D01*
X1188355Y287273D01*
X1185021Y287273D01*
X1181940Y288549D01*
X1179581Y290908D01*
X1178651Y293153D01*
X1178590Y293253D01*
X1178530Y293353D01*
X1178525Y293357D01*
X1178522Y293362D01*
X1178432Y293437D01*
X1178343Y293513D01*
X1178337Y293515D01*
X1178332Y293519D01*
X1178224Y293561D01*
X1178115Y293605D01*
X1178107Y293606D01*
X1178103Y293607D01*
X1178084Y293608D01*
X1177948Y293623D01*
X1168320Y293623D01*
X1147969Y313974D01*
X1147895Y314027D01*
X1147826Y314087D01*
X1147795Y314099D01*
X1147769Y314118D01*
X1147682Y314145D01*
X1147597Y314179D01*
X1147556Y314183D01*
X1147534Y314190D01*
X1147502Y314189D01*
X1147431Y314197D01*
X1136688Y314197D01*
X1136574Y314178D01*
X1136457Y314161D01*
X1136452Y314159D01*
X1136446Y314158D01*
X1136343Y314103D01*
X1136238Y314050D01*
X1136234Y314045D01*
X1136228Y314042D01*
X1136148Y313958D01*
X1136066Y313874D01*
X1136062Y313868D01*
X1136059Y313864D01*
X1136051Y313847D01*
X1135985Y313727D01*
X1134519Y310187D01*
X1131517Y307185D01*
X1127596Y305561D01*
X1123352Y305561D01*
X1119431Y307185D01*
X1116429Y310187D01*
X1114805Y314108D01*
X1114805Y318352D01*
X1116429Y322273D01*
X1119431Y325275D01*
X1123352Y326899D01*
X1127596Y326899D01*
X1131517Y325275D01*
X1134519Y322273D01*
X1135985Y318733D01*
X1136047Y318633D01*
X1136107Y318533D01*
X1136111Y318529D01*
X1136115Y318524D01*
X1136205Y318449D01*
X1136294Y318373D01*
X1136299Y318371D01*
X1136304Y318367D01*
X1136413Y318325D01*
X1136522Y318281D01*
X1136529Y318280D01*
X1136534Y318279D01*
X1136552Y318278D01*
X1136688Y318263D01*
X1145286Y318263D01*
X1145306Y318266D01*
X1145325Y318264D01*
X1145427Y318286D01*
X1145529Y318302D01*
X1145546Y318312D01*
X1145566Y318316D01*
X1145655Y318369D01*
X1145746Y318418D01*
X1145760Y318432D01*
X1145777Y318442D01*
X1145844Y318521D01*
X1145916Y318596D01*
X1145924Y318614D01*
X1145937Y318629D01*
X1145976Y318725D01*
X1146019Y318819D01*
X1146021Y318839D01*
X1146029Y318857D01*
X1146047Y319024D01*
X1146047Y348822D01*
X1166034Y368809D01*
X1168804Y368809D01*
X1168919Y368828D01*
X1169035Y368845D01*
X1169041Y368847D01*
X1169047Y368848D01*
X1169149Y368903D01*
X1169254Y368956D01*
X1169259Y368961D01*
X1169264Y368964D01*
X1169344Y369048D01*
X1169426Y369132D01*
X1169430Y369138D01*
X1169433Y369142D01*
X1169441Y369159D01*
X1169507Y369279D01*
X1170437Y371524D01*
X1172796Y373883D01*
X1175877Y375159D01*
X1179211Y375159D01*
X1181457Y374228D01*
X1181571Y374202D01*
X1181684Y374173D01*
X1181691Y374174D01*
X1181697Y374172D01*
X1181813Y374183D01*
X1181930Y374192D01*
X1181935Y374195D01*
X1181942Y374195D01*
X1182049Y374243D01*
X1182156Y374289D01*
X1182162Y374293D01*
X1182166Y374295D01*
X1182180Y374308D01*
X1182287Y374394D01*
X1195354Y387461D01*
X1195398Y387522D01*
X1195433Y387558D01*
X1195439Y387572D01*
X1195467Y387604D01*
X1195479Y387635D01*
X1195498Y387661D01*
X1195525Y387748D01*
X1195559Y387833D01*
X1195563Y387874D01*
X1195570Y387896D01*
X1195569Y387928D01*
X1195577Y387999D01*
X1195577Y395845D01*
X1195566Y395915D01*
X1195564Y395987D01*
X1195546Y396036D01*
X1195538Y396087D01*
X1195504Y396151D01*
X1195479Y396218D01*
X1195447Y396259D01*
X1195422Y396305D01*
X1195370Y396354D01*
X1195326Y396410D01*
X1195282Y396438D01*
X1195244Y396474D01*
X1195179Y396504D01*
X1195119Y396543D01*
X1195068Y396556D01*
X1195021Y396578D01*
X1194950Y396586D01*
X1194880Y396603D01*
X1194828Y396599D01*
X1194777Y396605D01*
X1194706Y396590D01*
X1194635Y396584D01*
X1194587Y396564D01*
X1194536Y396553D01*
X1194475Y396516D01*
X1194409Y396488D01*
X1194353Y396443D01*
X1194325Y396427D01*
X1194310Y396409D01*
X1194278Y396383D01*
X1188038Y390143D01*
X1186284Y390143D01*
X1186169Y390124D01*
X1186053Y390107D01*
X1186047Y390105D01*
X1186041Y390104D01*
X1185939Y390049D01*
X1185834Y389996D01*
X1185829Y389991D01*
X1185824Y389988D01*
X1185744Y389904D01*
X1185662Y389820D01*
X1185658Y389814D01*
X1185655Y389810D01*
X1185647Y389793D01*
X1185581Y389673D01*
X1184651Y387428D01*
X1182292Y385069D01*
X1179211Y383793D01*
X1175877Y383793D01*
X1172796Y385069D01*
X1170437Y387428D01*
X1169161Y390509D01*
X1169161Y393843D01*
X1170437Y396924D01*
X1172796Y399283D01*
X1175877Y400559D01*
X1179211Y400559D01*
X1182292Y399283D01*
X1184651Y396924D01*
X1185509Y394852D01*
X1185533Y394813D01*
X1185549Y394770D01*
X1185597Y394709D01*
X1185639Y394643D01*
X1185674Y394614D01*
X1185703Y394578D01*
X1185768Y394536D01*
X1185828Y394486D01*
X1185871Y394470D01*
X1185909Y394445D01*
X1185985Y394426D01*
X1186058Y394398D01*
X1186103Y394396D01*
X1186148Y394385D01*
X1186226Y394391D01*
X1186303Y394388D01*
X1186348Y394401D01*
X1186393Y394404D01*
X1186465Y394435D01*
X1186540Y394456D01*
X1186577Y394482D01*
X1186620Y394500D01*
X1186726Y394586D01*
X1186742Y394596D01*
X1186745Y394601D01*
X1186750Y394605D01*
X1191290Y399145D01*
X1191343Y399219D01*
X1191403Y399288D01*
X1191415Y399319D01*
X1191434Y399345D01*
X1191461Y399432D01*
X1191495Y399517D01*
X1191499Y399558D01*
X1191506Y399580D01*
X1191505Y399612D01*
X1191513Y399683D01*
X1191513Y426071D01*
X1191511Y426082D01*
X1191512Y426088D01*
X1191505Y426123D01*
X1191499Y426161D01*
X1191491Y426252D01*
X1191479Y426281D01*
X1191474Y426313D01*
X1191431Y426394D01*
X1191395Y426478D01*
X1191369Y426510D01*
X1191358Y426531D01*
X1191335Y426553D01*
X1191290Y426609D01*
X1184799Y433100D01*
X1184725Y433153D01*
X1184656Y433213D01*
X1184625Y433225D01*
X1184599Y433244D01*
X1184512Y433271D01*
X1184427Y433305D01*
X1184386Y433309D01*
X1184364Y433316D01*
X1184332Y433315D01*
X1184261Y433323D01*
X984391Y433323D01*
X984301Y433309D01*
X984210Y433301D01*
X984181Y433289D01*
X984149Y433284D01*
X984068Y433241D01*
X983984Y433205D01*
X983952Y433179D01*
X983931Y433168D01*
X983909Y433145D01*
X983853Y433100D01*
X978846Y428093D01*
X978802Y428032D01*
X978771Y428000D01*
X978764Y427984D01*
X978727Y427939D01*
X978718Y427915D01*
X978703Y427894D01*
X978674Y427801D01*
X978639Y427710D01*
X978638Y427684D01*
X978630Y427659D01*
X978633Y427561D01*
X978629Y427464D01*
X978636Y427439D01*
X978637Y427413D01*
X978670Y427321D01*
X978697Y427228D01*
X978712Y427206D01*
X978721Y427182D01*
X978782Y427106D01*
X978837Y427026D01*
X978858Y427010D01*
X978875Y426990D01*
X978957Y426937D01*
X979035Y426879D01*
X979060Y426871D01*
X979082Y426857D01*
X979176Y426833D01*
X979269Y426803D01*
X979295Y426803D01*
X979320Y426797D01*
X979417Y426804D01*
X979515Y426805D01*
X979546Y426814D01*
X979565Y426816D01*
X979596Y426829D01*
X979676Y426852D01*
X983652Y428499D01*
X987896Y428499D01*
X991817Y426875D01*
X994819Y423873D01*
X996443Y419952D01*
X996443Y415708D01*
X994819Y411787D01*
X991817Y408785D01*
X988999Y407618D01*
X988916Y407567D01*
X988830Y407521D01*
X988812Y407502D01*
X988790Y407489D01*
X988728Y407413D01*
X988661Y407343D01*
X988650Y407319D01*
X988633Y407299D01*
X988598Y407208D01*
X988557Y407120D01*
X988554Y407094D01*
X988545Y407069D01*
X988541Y406972D01*
X988530Y406875D01*
X988536Y406850D01*
X988535Y406824D01*
X988562Y406730D01*
X988582Y406635D01*
X988596Y406613D01*
X988603Y406587D01*
X988659Y406507D01*
X988709Y406424D01*
X988728Y406407D01*
X988743Y406385D01*
X988822Y406327D01*
X988896Y406264D01*
X988920Y406254D01*
X988941Y406239D01*
X989033Y406208D01*
X989124Y406172D01*
X989156Y406168D01*
X989175Y406162D01*
X989208Y406163D01*
X989290Y406154D01*
X1007658Y406154D01*
X1007754Y406169D01*
X1007851Y406178D01*
X1007875Y406189D01*
X1007900Y406193D01*
X1007986Y406239D01*
X1008075Y406278D01*
X1008095Y406296D01*
X1008118Y406308D01*
X1008185Y406379D01*
X1008256Y406445D01*
X1008269Y406468D01*
X1008287Y406487D01*
X1008328Y406575D01*
X1008375Y406660D01*
X1008380Y406686D01*
X1008391Y406710D01*
X1008401Y406806D01*
X1008419Y406902D01*
X1008415Y406928D01*
X1008418Y406954D01*
X1008397Y407049D01*
X1008383Y407146D01*
X1008371Y407169D01*
X1008366Y407195D01*
X1008316Y407278D01*
X1008271Y407365D01*
X1008253Y407383D01*
X1008239Y407406D01*
X1008165Y407469D01*
X1008096Y407537D01*
X1008067Y407553D01*
X1008052Y407566D01*
X1008022Y407578D01*
X1007949Y407618D01*
X1005131Y408785D01*
X1002129Y411787D01*
X1000505Y415708D01*
X1000505Y419952D01*
X1002129Y423873D01*
X1005131Y426875D01*
X1009052Y428499D01*
X1013296Y428499D01*
X1017217Y426875D01*
X1020219Y423873D01*
X1021843Y419952D01*
X1021843Y415708D01*
X1020219Y411787D01*
X1017217Y408785D01*
X1014399Y407618D01*
X1014316Y407567D01*
X1014230Y407521D01*
X1014212Y407502D01*
X1014190Y407489D01*
X1014128Y407413D01*
X1014061Y407343D01*
X1014050Y407319D01*
X1014033Y407299D01*
X1013998Y407208D01*
X1013957Y407120D01*
X1013954Y407094D01*
X1013945Y407069D01*
X1013941Y406972D01*
X1013930Y406875D01*
X1013936Y406850D01*
X1013935Y406824D01*
X1013962Y406730D01*
X1013982Y406635D01*
X1013996Y406613D01*
X1014003Y406587D01*
X1014059Y406507D01*
X1014109Y406424D01*
X1014128Y406407D01*
X1014143Y406385D01*
X1014222Y406327D01*
X1014296Y406264D01*
X1014320Y406254D01*
X1014341Y406239D01*
X1014433Y406208D01*
X1014524Y406172D01*
X1014556Y406168D01*
X1014575Y406162D01*
X1014608Y406163D01*
X1014690Y406154D01*
X1033058Y406154D01*
X1033154Y406169D01*
X1033251Y406178D01*
X1033275Y406189D01*
X1033300Y406193D01*
X1033386Y406239D01*
X1033475Y406278D01*
X1033495Y406296D01*
X1033518Y406308D01*
X1033585Y406379D01*
X1033656Y406445D01*
X1033669Y406468D01*
X1033687Y406487D01*
X1033728Y406575D01*
X1033775Y406660D01*
X1033780Y406686D01*
X1033791Y406710D01*
X1033801Y406806D01*
X1033819Y406902D01*
X1033815Y406928D01*
X1033818Y406954D01*
X1033797Y407049D01*
X1033783Y407146D01*
X1033771Y407169D01*
X1033766Y407195D01*
X1033716Y407278D01*
X1033671Y407365D01*
X1033653Y407383D01*
X1033639Y407406D01*
X1033565Y407469D01*
X1033496Y407537D01*
X1033467Y407553D01*
X1033452Y407566D01*
X1033422Y407578D01*
X1033349Y407618D01*
X1030531Y408785D01*
X1027529Y411787D01*
X1025905Y415708D01*
X1025905Y419952D01*
X1027529Y423873D01*
X1030531Y426875D01*
X1034452Y428499D01*
X1038696Y428499D01*
X1042617Y426875D01*
X1045619Y423873D01*
X1047243Y419952D01*
X1047243Y415708D01*
X1045619Y411787D01*
X1042617Y408785D01*
X1039799Y407618D01*
X1039716Y407567D01*
X1039630Y407521D01*
X1039612Y407502D01*
X1039590Y407489D01*
X1039528Y407413D01*
X1039461Y407343D01*
X1039450Y407319D01*
X1039433Y407299D01*
X1039398Y407208D01*
X1039357Y407120D01*
X1039354Y407094D01*
X1039345Y407069D01*
X1039341Y406972D01*
X1039330Y406875D01*
X1039336Y406850D01*
X1039335Y406824D01*
X1039362Y406730D01*
X1039382Y406635D01*
X1039396Y406613D01*
X1039403Y406587D01*
X1039459Y406507D01*
X1039509Y406424D01*
X1039528Y406407D01*
X1039543Y406385D01*
X1039622Y406327D01*
X1039696Y406264D01*
X1039720Y406254D01*
X1039741Y406239D01*
X1039833Y406208D01*
X1039924Y406172D01*
X1039956Y406168D01*
X1039975Y406162D01*
X1040008Y406163D01*
X1040090Y406154D01*
X1050363Y406154D01*
X1084073Y372444D01*
X1084073Y290146D01*
X1084088Y290056D01*
X1084095Y289965D01*
X1084107Y289935D01*
X1084112Y289903D01*
X1084155Y289823D01*
X1084191Y289739D01*
X1084217Y289706D01*
X1084228Y289686D01*
X1084251Y289664D01*
X1084296Y289608D01*
X1087460Y286443D01*
X1087476Y286431D01*
X1087489Y286416D01*
X1087576Y286360D01*
X1087660Y286300D01*
X1087679Y286294D01*
X1087696Y286283D01*
X1087796Y286258D01*
X1087895Y286227D01*
X1087915Y286228D01*
X1087934Y286223D01*
X1088037Y286231D01*
X1088141Y286234D01*
X1088160Y286240D01*
X1088179Y286242D01*
X1088274Y286282D01*
X1088372Y286318D01*
X1088387Y286330D01*
X1088406Y286338D01*
X1088537Y286443D01*
X1090856Y288762D01*
X1094777Y290386D01*
X1099021Y290386D01*
X1102942Y288762D01*
X1105944Y285761D01*
X1107568Y281840D01*
X1107568Y277595D01*
X1105944Y273674D01*
X1102942Y270673D01*
X1099021Y269049D01*
X1094777Y269049D01*
G37*
%LPD*%
%LPC*%
G36*
X879776Y53847D02*
X879776Y53847D01*
X850645Y82978D01*
X850645Y281766D01*
X852059Y283180D01*
X860627Y291748D01*
X860695Y291842D01*
X860765Y291937D01*
X860767Y291943D01*
X860771Y291948D01*
X860805Y292059D01*
X860841Y292170D01*
X860841Y292177D01*
X860843Y292183D01*
X860840Y292299D01*
X860839Y292416D01*
X860837Y292424D01*
X860837Y292429D01*
X860830Y292446D01*
X860792Y292577D01*
X860196Y294018D01*
X860196Y296786D01*
X861255Y299345D01*
X863213Y301303D01*
X864653Y301899D01*
X864753Y301961D01*
X864853Y302021D01*
X864857Y302025D01*
X864862Y302029D01*
X864937Y302119D01*
X865013Y302208D01*
X865015Y302213D01*
X865019Y302218D01*
X865061Y302327D01*
X865105Y302436D01*
X865106Y302443D01*
X865107Y302448D01*
X865108Y302466D01*
X865123Y302602D01*
X865123Y332058D01*
X883124Y350059D01*
X919130Y350059D01*
X919221Y350073D01*
X919311Y350080D01*
X919341Y350093D01*
X919373Y350098D01*
X919454Y350141D01*
X919538Y350177D01*
X919570Y350202D01*
X919591Y350213D01*
X919613Y350237D01*
X919669Y350281D01*
X929670Y360283D01*
X929723Y360357D01*
X929783Y360426D01*
X929795Y360457D01*
X929814Y360483D01*
X929841Y360570D01*
X929875Y360655D01*
X929879Y360696D01*
X929886Y360718D01*
X929885Y360750D01*
X929893Y360821D01*
X929893Y401433D01*
X929879Y401523D01*
X929871Y401614D01*
X929859Y401643D01*
X929854Y401675D01*
X929811Y401756D01*
X929775Y401840D01*
X929749Y401872D01*
X929738Y401893D01*
X929715Y401915D01*
X929670Y401971D01*
X919369Y412272D01*
X919295Y412325D01*
X919226Y412385D01*
X919195Y412397D01*
X919169Y412416D01*
X919082Y412443D01*
X918997Y412477D01*
X918956Y412481D01*
X918934Y412488D01*
X918902Y412487D01*
X918831Y412495D01*
X887109Y412495D01*
X887019Y412481D01*
X886928Y412473D01*
X886899Y412461D01*
X886867Y412456D01*
X886786Y412413D01*
X886702Y412377D01*
X886670Y412351D01*
X886649Y412340D01*
X886627Y412317D01*
X886571Y412272D01*
X877540Y403241D01*
X877487Y403167D01*
X877427Y403098D01*
X877415Y403067D01*
X877396Y403041D01*
X877369Y402954D01*
X877335Y402869D01*
X877331Y402828D01*
X877324Y402806D01*
X877325Y402774D01*
X877317Y402703D01*
X877317Y389216D01*
X877336Y389100D01*
X877353Y388986D01*
X877355Y388980D01*
X877356Y388974D01*
X877411Y388871D01*
X877464Y388766D01*
X877469Y388762D01*
X877472Y388756D01*
X877556Y388676D01*
X877640Y388594D01*
X877646Y388590D01*
X877650Y388587D01*
X877667Y388579D01*
X877787Y388513D01*
X879227Y387917D01*
X881185Y385959D01*
X882244Y383400D01*
X882244Y380632D01*
X881185Y378073D01*
X879227Y376115D01*
X876668Y375056D01*
X874308Y375056D01*
X874218Y375041D01*
X874127Y375034D01*
X874097Y375021D01*
X874065Y375016D01*
X873984Y374973D01*
X873900Y374938D01*
X873868Y374912D01*
X873848Y374901D01*
X873838Y374891D01*
X873837Y374890D01*
X873823Y374876D01*
X873769Y374833D01*
X862156Y363219D01*
X827706Y363219D01*
X814069Y376856D01*
X814069Y395845D01*
X814055Y395935D01*
X814047Y396026D01*
X814035Y396055D01*
X814030Y396087D01*
X813987Y396168D01*
X813951Y396252D01*
X813925Y396284D01*
X813914Y396305D01*
X813891Y396327D01*
X813846Y396383D01*
X804815Y405414D01*
X804741Y405467D01*
X804672Y405527D01*
X804641Y405539D01*
X804615Y405558D01*
X804528Y405585D01*
X804443Y405619D01*
X804402Y405623D01*
X804380Y405630D01*
X804348Y405629D01*
X804277Y405637D01*
X794092Y405637D01*
X793978Y405618D01*
X793862Y405601D01*
X793856Y405599D01*
X793850Y405598D01*
X793747Y405543D01*
X793642Y405490D01*
X793638Y405485D01*
X793632Y405482D01*
X793552Y405398D01*
X793470Y405314D01*
X793466Y405308D01*
X793463Y405304D01*
X793455Y405287D01*
X793389Y405167D01*
X792793Y403727D01*
X790835Y401769D01*
X788276Y400710D01*
X785508Y400710D01*
X782949Y401769D01*
X780991Y403727D01*
X779932Y406286D01*
X779932Y409054D01*
X780991Y411613D01*
X782949Y413571D01*
X785508Y414630D01*
X788276Y414630D01*
X790835Y413571D01*
X792793Y411613D01*
X793389Y410173D01*
X793451Y410073D01*
X793511Y409973D01*
X793515Y409969D01*
X793519Y409964D01*
X793609Y409889D01*
X793698Y409813D01*
X793703Y409811D01*
X793708Y409807D01*
X793817Y409765D01*
X793926Y409721D01*
X793933Y409720D01*
X793938Y409719D01*
X793956Y409718D01*
X794092Y409703D01*
X806276Y409703D01*
X818135Y397844D01*
X818135Y378855D01*
X818141Y378820D01*
X818140Y378812D01*
X818149Y378771D01*
X818149Y378765D01*
X818157Y378674D01*
X818169Y378645D01*
X818174Y378613D01*
X818189Y378585D01*
X818192Y378572D01*
X818221Y378523D01*
X818253Y378448D01*
X818279Y378416D01*
X818290Y378395D01*
X818308Y378378D01*
X818318Y378361D01*
X818333Y378347D01*
X818358Y378317D01*
X829167Y367508D01*
X829241Y367455D01*
X829310Y367395D01*
X829341Y367383D01*
X829367Y367364D01*
X829454Y367337D01*
X829539Y367303D01*
X829580Y367299D01*
X829602Y367292D01*
X829634Y367293D01*
X829705Y367285D01*
X860157Y367285D01*
X860247Y367299D01*
X860338Y367307D01*
X860367Y367319D01*
X860399Y367324D01*
X860480Y367367D01*
X860564Y367403D01*
X860596Y367429D01*
X860617Y367440D01*
X860639Y367463D01*
X860695Y367508D01*
X869784Y376596D01*
X869795Y376613D01*
X869811Y376625D01*
X869867Y376712D01*
X869927Y376796D01*
X869933Y376815D01*
X869944Y376832D01*
X869969Y376932D01*
X870000Y377031D01*
X869999Y377051D01*
X870004Y377070D01*
X869996Y377173D01*
X869993Y377277D01*
X869986Y377296D01*
X869985Y377316D01*
X869944Y377411D01*
X869909Y377508D01*
X869896Y377524D01*
X869888Y377542D01*
X869784Y377673D01*
X869383Y378073D01*
X868324Y380632D01*
X868324Y383400D01*
X869383Y385959D01*
X871341Y387917D01*
X872781Y388513D01*
X872881Y388575D01*
X872981Y388635D01*
X872985Y388639D01*
X872990Y388643D01*
X873065Y388733D01*
X873141Y388822D01*
X873143Y388827D01*
X873147Y388832D01*
X873189Y388941D01*
X873233Y389050D01*
X873234Y389057D01*
X873235Y389062D01*
X873236Y389080D01*
X873251Y389216D01*
X873251Y404702D01*
X885110Y416561D01*
X920830Y416561D01*
X933959Y403432D01*
X933959Y358822D01*
X921130Y345993D01*
X885123Y345993D01*
X885033Y345978D01*
X884942Y345971D01*
X884912Y345959D01*
X884880Y345953D01*
X884800Y345911D01*
X884716Y345875D01*
X884684Y345849D01*
X884663Y345838D01*
X884641Y345815D01*
X884585Y345770D01*
X869412Y330597D01*
X869359Y330523D01*
X869299Y330454D01*
X869287Y330423D01*
X869268Y330397D01*
X869241Y330310D01*
X869207Y330225D01*
X869203Y330184D01*
X869196Y330162D01*
X869197Y330130D01*
X869189Y330059D01*
X869189Y302602D01*
X869208Y302486D01*
X869225Y302372D01*
X869227Y302366D01*
X869228Y302360D01*
X869283Y302257D01*
X869336Y302152D01*
X869341Y302148D01*
X869344Y302142D01*
X869428Y302062D01*
X869512Y301980D01*
X869518Y301976D01*
X869522Y301973D01*
X869539Y301965D01*
X869659Y301899D01*
X871099Y301303D01*
X873057Y299345D01*
X874116Y296786D01*
X874116Y294018D01*
X873057Y291459D01*
X871099Y289501D01*
X868540Y288442D01*
X865772Y288442D01*
X864331Y289038D01*
X864218Y289065D01*
X864104Y289093D01*
X864098Y289093D01*
X864092Y289094D01*
X863975Y289083D01*
X863859Y289074D01*
X863853Y289072D01*
X863847Y289071D01*
X863740Y289023D01*
X863633Y288978D01*
X863627Y288973D01*
X863622Y288971D01*
X863609Y288959D01*
X863502Y288873D01*
X854934Y280305D01*
X854881Y280231D01*
X854821Y280162D01*
X854809Y280131D01*
X854790Y280105D01*
X854763Y280018D01*
X854729Y279933D01*
X854725Y279892D01*
X854718Y279870D01*
X854719Y279838D01*
X854711Y279767D01*
X854711Y84977D01*
X854712Y84970D01*
X854712Y84969D01*
X854713Y84965D01*
X854725Y84887D01*
X854733Y84796D01*
X854745Y84767D01*
X854750Y84735D01*
X854793Y84654D01*
X854829Y84570D01*
X854855Y84538D01*
X854866Y84517D01*
X854889Y84495D01*
X854934Y84439D01*
X881237Y58136D01*
X881311Y58083D01*
X881380Y58023D01*
X881411Y58011D01*
X881437Y57992D01*
X881524Y57965D01*
X881609Y57931D01*
X881650Y57927D01*
X881672Y57920D01*
X881704Y57921D01*
X881775Y57913D01*
X1150733Y57913D01*
X1150823Y57927D01*
X1150914Y57935D01*
X1150943Y57947D01*
X1150975Y57952D01*
X1151056Y57995D01*
X1151140Y58031D01*
X1151172Y58057D01*
X1151193Y58068D01*
X1151215Y58091D01*
X1151271Y58136D01*
X1174018Y80883D01*
X1174071Y80957D01*
X1174131Y81026D01*
X1174143Y81057D01*
X1174162Y81083D01*
X1174189Y81170D01*
X1174223Y81255D01*
X1174227Y81296D01*
X1174234Y81318D01*
X1174233Y81350D01*
X1174241Y81421D01*
X1174241Y100664D01*
X1175655Y102078D01*
X1194143Y120566D01*
X1194154Y120582D01*
X1194170Y120594D01*
X1194226Y120681D01*
X1194286Y120765D01*
X1194292Y120784D01*
X1194303Y120801D01*
X1194328Y120902D01*
X1194359Y121000D01*
X1194358Y121020D01*
X1194363Y121040D01*
X1194355Y121143D01*
X1194352Y121246D01*
X1194346Y121265D01*
X1194344Y121285D01*
X1194304Y121380D01*
X1194268Y121477D01*
X1194255Y121493D01*
X1194248Y121511D01*
X1194143Y121642D01*
X1193491Y122294D01*
X1192021Y125842D01*
X1192021Y129682D01*
X1193491Y133230D01*
X1196206Y135945D01*
X1199754Y137415D01*
X1203594Y137415D01*
X1207142Y135945D01*
X1209857Y133230D01*
X1211327Y129682D01*
X1211327Y125842D01*
X1209857Y122294D01*
X1207142Y119579D01*
X1203594Y118109D01*
X1199754Y118109D01*
X1198585Y118594D01*
X1198471Y118620D01*
X1198358Y118649D01*
X1198351Y118648D01*
X1198345Y118650D01*
X1198229Y118639D01*
X1198113Y118630D01*
X1198107Y118627D01*
X1198100Y118627D01*
X1197993Y118579D01*
X1197886Y118533D01*
X1197880Y118529D01*
X1197876Y118527D01*
X1197862Y118514D01*
X1197755Y118429D01*
X1178530Y99203D01*
X1178477Y99129D01*
X1178417Y99060D01*
X1178405Y99029D01*
X1178386Y99003D01*
X1178359Y98916D01*
X1178325Y98831D01*
X1178321Y98790D01*
X1178314Y98768D01*
X1178315Y98736D01*
X1178307Y98665D01*
X1178307Y79422D01*
X1152732Y53847D01*
X879776Y53847D01*
G37*
%LPD*%
%LPC*%
G36*
X967406Y68325D02*
X967406Y68325D01*
X940053Y95678D01*
X940053Y143676D01*
X940034Y143790D01*
X940017Y143906D01*
X940015Y143912D01*
X940014Y143918D01*
X939959Y144021D01*
X939906Y144126D01*
X939901Y144130D01*
X939898Y144136D01*
X939814Y144216D01*
X939730Y144298D01*
X939724Y144302D01*
X939720Y144305D01*
X939703Y144313D01*
X939583Y144379D01*
X938143Y144975D01*
X936185Y146933D01*
X935126Y149492D01*
X935126Y152260D01*
X936185Y154819D01*
X938143Y156777D01*
X939583Y157373D01*
X939683Y157435D01*
X939783Y157495D01*
X939787Y157499D01*
X939792Y157503D01*
X939867Y157593D01*
X939943Y157682D01*
X939945Y157687D01*
X939949Y157692D01*
X939991Y157801D01*
X940020Y157872D01*
X940025Y157884D01*
X940025Y157886D01*
X940035Y157910D01*
X940036Y157917D01*
X940037Y157922D01*
X940038Y157940D01*
X940053Y158076D01*
X940053Y251286D01*
X956230Y267463D01*
X961860Y267463D01*
X961974Y267482D01*
X962091Y267499D01*
X962096Y267501D01*
X962102Y267502D01*
X962205Y267557D01*
X962310Y267610D01*
X962314Y267615D01*
X962320Y267618D01*
X962400Y267702D01*
X962482Y267786D01*
X962486Y267792D01*
X962489Y267796D01*
X962497Y267813D01*
X962563Y267933D01*
X964029Y271473D01*
X967031Y274475D01*
X970952Y276099D01*
X975196Y276099D01*
X979117Y274475D01*
X982119Y271473D01*
X983743Y267552D01*
X983743Y263308D01*
X982119Y259387D01*
X979117Y256385D01*
X975196Y254761D01*
X970952Y254761D01*
X967031Y256385D01*
X964029Y259387D01*
X962563Y262927D01*
X962502Y263026D01*
X962441Y263127D01*
X962437Y263131D01*
X962433Y263136D01*
X962343Y263211D01*
X962254Y263287D01*
X962249Y263289D01*
X962244Y263293D01*
X962135Y263335D01*
X962026Y263379D01*
X962019Y263380D01*
X962014Y263381D01*
X961996Y263382D01*
X961860Y263397D01*
X958229Y263397D01*
X958139Y263383D01*
X958048Y263375D01*
X958019Y263363D01*
X957987Y263358D01*
X957906Y263315D01*
X957822Y263279D01*
X957790Y263253D01*
X957769Y263242D01*
X957747Y263219D01*
X957691Y263174D01*
X944342Y249825D01*
X944289Y249751D01*
X944229Y249682D01*
X944217Y249651D01*
X944198Y249625D01*
X944171Y249538D01*
X944137Y249453D01*
X944133Y249412D01*
X944126Y249390D01*
X944127Y249358D01*
X944119Y249287D01*
X944119Y158076D01*
X944121Y158062D01*
X944120Y158049D01*
X944133Y157986D01*
X944138Y157960D01*
X944155Y157846D01*
X944157Y157840D01*
X944158Y157834D01*
X944213Y157731D01*
X944266Y157626D01*
X944271Y157622D01*
X944274Y157616D01*
X944358Y157536D01*
X944442Y157454D01*
X944448Y157450D01*
X944452Y157447D01*
X944469Y157439D01*
X944589Y157373D01*
X946029Y156777D01*
X947987Y154819D01*
X949046Y152260D01*
X949046Y149492D01*
X947987Y146933D01*
X946029Y144975D01*
X944589Y144379D01*
X944489Y144317D01*
X944389Y144257D01*
X944385Y144253D01*
X944380Y144249D01*
X944305Y144159D01*
X944229Y144070D01*
X944227Y144065D01*
X944223Y144060D01*
X944181Y143951D01*
X944137Y143842D01*
X944136Y143835D01*
X944135Y143830D01*
X944134Y143812D01*
X944119Y143676D01*
X944119Y97677D01*
X944133Y97587D01*
X944141Y97496D01*
X944153Y97467D01*
X944158Y97435D01*
X944201Y97354D01*
X944237Y97270D01*
X944263Y97238D01*
X944274Y97217D01*
X944297Y97195D01*
X944342Y97139D01*
X968867Y72614D01*
X968941Y72561D01*
X969010Y72501D01*
X969041Y72489D01*
X969067Y72470D01*
X969154Y72443D01*
X969239Y72409D01*
X969280Y72405D01*
X969302Y72398D01*
X969334Y72399D01*
X969405Y72391D01*
X1137525Y72391D01*
X1137615Y72405D01*
X1137706Y72413D01*
X1137735Y72425D01*
X1137767Y72430D01*
X1137848Y72473D01*
X1137932Y72509D01*
X1137964Y72535D01*
X1137985Y72546D01*
X1138007Y72569D01*
X1138063Y72614D01*
X1152936Y87487D01*
X1152989Y87561D01*
X1153049Y87630D01*
X1153061Y87661D01*
X1153080Y87687D01*
X1153107Y87774D01*
X1153141Y87859D01*
X1153145Y87900D01*
X1153152Y87922D01*
X1153151Y87954D01*
X1153159Y88025D01*
X1153159Y136478D01*
X1166643Y149962D01*
X1166688Y150025D01*
X1166711Y150048D01*
X1166720Y150068D01*
X1166781Y150150D01*
X1166783Y150156D01*
X1166786Y150161D01*
X1166820Y150271D01*
X1166857Y150384D01*
X1166857Y150391D01*
X1166859Y150396D01*
X1166856Y150513D01*
X1166855Y150630D01*
X1166853Y150637D01*
X1166852Y150642D01*
X1166846Y150660D01*
X1166808Y150791D01*
X1166621Y151242D01*
X1166621Y155082D01*
X1168091Y158630D01*
X1170806Y161345D01*
X1174354Y162815D01*
X1178194Y162815D01*
X1181742Y161345D01*
X1184457Y158630D01*
X1185685Y155665D01*
X1185747Y155565D01*
X1185807Y155465D01*
X1185812Y155461D01*
X1185815Y155456D01*
X1185905Y155381D01*
X1185994Y155305D01*
X1186000Y155303D01*
X1186005Y155299D01*
X1186113Y155257D01*
X1186222Y155213D01*
X1186230Y155212D01*
X1186234Y155211D01*
X1186252Y155210D01*
X1186389Y155195D01*
X1191559Y155195D01*
X1191674Y155214D01*
X1191790Y155231D01*
X1191796Y155233D01*
X1191802Y155234D01*
X1191905Y155289D01*
X1192009Y155342D01*
X1192014Y155347D01*
X1192019Y155350D01*
X1192099Y155434D01*
X1192182Y155518D01*
X1192185Y155524D01*
X1192189Y155528D01*
X1192197Y155545D01*
X1192263Y155665D01*
X1193491Y158630D01*
X1196206Y161345D01*
X1199754Y162815D01*
X1203594Y162815D01*
X1207142Y161345D01*
X1208810Y159677D01*
X1208826Y159666D01*
X1208838Y159650D01*
X1208926Y159594D01*
X1209010Y159534D01*
X1209029Y159528D01*
X1209045Y159517D01*
X1209146Y159492D01*
X1209245Y159461D01*
X1209265Y159462D01*
X1209284Y159457D01*
X1209387Y159465D01*
X1209491Y159468D01*
X1209509Y159474D01*
X1209529Y159476D01*
X1209624Y159516D01*
X1209722Y159552D01*
X1209737Y159565D01*
X1209755Y159572D01*
X1209886Y159677D01*
X1213642Y163433D01*
X1213695Y163507D01*
X1213755Y163576D01*
X1213767Y163607D01*
X1213786Y163633D01*
X1213813Y163720D01*
X1213847Y163805D01*
X1213851Y163846D01*
X1213858Y163868D01*
X1213857Y163900D01*
X1213865Y163971D01*
X1213865Y193915D01*
X1213851Y194005D01*
X1213843Y194096D01*
X1213831Y194125D01*
X1213826Y194157D01*
X1213783Y194238D01*
X1213747Y194322D01*
X1213721Y194354D01*
X1213710Y194375D01*
X1213687Y194397D01*
X1213642Y194453D01*
X1210267Y197828D01*
X1210251Y197839D01*
X1210239Y197855D01*
X1210152Y197911D01*
X1210068Y197971D01*
X1210049Y197977D01*
X1210032Y197988D01*
X1209931Y198013D01*
X1209833Y198044D01*
X1209813Y198043D01*
X1209793Y198048D01*
X1209690Y198040D01*
X1209587Y198037D01*
X1209568Y198031D01*
X1209548Y198029D01*
X1209453Y197989D01*
X1209356Y197953D01*
X1209340Y197940D01*
X1209322Y197933D01*
X1209191Y197828D01*
X1207142Y195779D01*
X1203594Y194309D01*
X1199754Y194309D01*
X1196206Y195779D01*
X1193491Y198494D01*
X1192021Y202042D01*
X1192021Y205882D01*
X1193491Y209430D01*
X1196206Y212145D01*
X1199754Y213615D01*
X1203594Y213615D01*
X1207142Y212145D01*
X1209857Y209430D01*
X1211327Y205882D01*
X1211327Y202833D01*
X1211341Y202743D01*
X1211349Y202652D01*
X1211361Y202623D01*
X1211366Y202591D01*
X1211409Y202510D01*
X1211445Y202426D01*
X1211471Y202394D01*
X1211482Y202373D01*
X1211505Y202351D01*
X1211550Y202295D01*
X1217931Y195914D01*
X1217931Y161972D01*
X1211550Y155591D01*
X1211497Y155517D01*
X1211437Y155448D01*
X1211425Y155417D01*
X1211406Y155391D01*
X1211379Y155304D01*
X1211372Y155285D01*
X1211355Y155249D01*
X1211354Y155241D01*
X1211345Y155219D01*
X1211341Y155178D01*
X1211334Y155156D01*
X1211335Y155124D01*
X1211327Y155053D01*
X1211327Y151242D01*
X1209857Y147694D01*
X1207142Y144979D01*
X1203594Y143509D01*
X1199754Y143509D01*
X1196206Y144979D01*
X1193491Y147694D01*
X1192263Y150659D01*
X1192201Y150759D01*
X1192141Y150859D01*
X1192136Y150863D01*
X1192133Y150868D01*
X1192043Y150943D01*
X1191954Y151019D01*
X1191948Y151021D01*
X1191943Y151025D01*
X1191835Y151067D01*
X1191726Y151111D01*
X1191718Y151112D01*
X1191714Y151113D01*
X1191696Y151114D01*
X1191559Y151129D01*
X1186389Y151129D01*
X1186274Y151110D01*
X1186158Y151093D01*
X1186152Y151091D01*
X1186146Y151090D01*
X1186043Y151035D01*
X1185939Y150982D01*
X1185934Y150977D01*
X1185929Y150974D01*
X1185849Y150890D01*
X1185766Y150806D01*
X1185763Y150800D01*
X1185759Y150796D01*
X1185751Y150779D01*
X1185685Y150659D01*
X1184457Y147694D01*
X1181742Y144979D01*
X1178194Y143509D01*
X1174354Y143509D01*
X1170806Y144979D01*
X1169646Y146139D01*
X1169630Y146150D01*
X1169618Y146166D01*
X1169530Y146222D01*
X1169446Y146282D01*
X1169427Y146288D01*
X1169411Y146299D01*
X1169310Y146324D01*
X1169211Y146355D01*
X1169191Y146354D01*
X1169172Y146359D01*
X1169069Y146351D01*
X1168965Y146348D01*
X1168947Y146342D01*
X1168927Y146340D01*
X1168832Y146300D01*
X1168734Y146264D01*
X1168719Y146251D01*
X1168701Y146244D01*
X1168570Y146139D01*
X1157448Y135017D01*
X1157404Y134956D01*
X1157368Y134918D01*
X1157362Y134904D01*
X1157335Y134874D01*
X1157323Y134843D01*
X1157304Y134817D01*
X1157277Y134730D01*
X1157243Y134645D01*
X1157239Y134604D01*
X1157232Y134582D01*
X1157233Y134550D01*
X1157225Y134479D01*
X1157225Y86026D01*
X1139524Y68325D01*
X967406Y68325D01*
G37*
%LPD*%
%LPC*%
G36*
X747633Y163067D02*
X747633Y163067D01*
X744552Y164343D01*
X742193Y166702D01*
X741263Y168947D01*
X741201Y169047D01*
X741142Y169147D01*
X741137Y169151D01*
X741134Y169156D01*
X741043Y169231D01*
X740955Y169307D01*
X740949Y169309D01*
X740944Y169313D01*
X740836Y169355D01*
X740727Y169399D01*
X740719Y169400D01*
X740715Y169401D01*
X740696Y169402D01*
X740560Y169417D01*
X713406Y169417D01*
X696467Y186356D01*
X696467Y352665D01*
X696453Y352755D01*
X696445Y352846D01*
X696433Y352875D01*
X696428Y352907D01*
X696385Y352988D01*
X696349Y353072D01*
X696323Y353104D01*
X696312Y353125D01*
X696289Y353147D01*
X696244Y353203D01*
X670703Y378744D01*
X670629Y378797D01*
X670560Y378857D01*
X670529Y378869D01*
X670503Y378888D01*
X670416Y378915D01*
X670331Y378949D01*
X670290Y378953D01*
X670268Y378960D01*
X670236Y378959D01*
X670165Y378967D01*
X618340Y378967D01*
X618225Y378948D01*
X618109Y378931D01*
X618103Y378929D01*
X618097Y378928D01*
X617995Y378873D01*
X617890Y378820D01*
X617885Y378815D01*
X617880Y378812D01*
X617800Y378728D01*
X617718Y378644D01*
X617714Y378638D01*
X617711Y378634D01*
X617703Y378617D01*
X617637Y378497D01*
X616707Y376252D01*
X614348Y373893D01*
X611267Y372617D01*
X607933Y372617D01*
X604852Y373893D01*
X602493Y376252D01*
X601217Y379333D01*
X601217Y382667D01*
X602493Y385748D01*
X604042Y387297D01*
X604095Y387371D01*
X604155Y387441D01*
X604167Y387471D01*
X604186Y387497D01*
X604213Y387584D01*
X604247Y387669D01*
X604251Y387710D01*
X604258Y387732D01*
X604257Y387764D01*
X604265Y387836D01*
X604265Y423584D01*
X604246Y423698D01*
X604229Y423814D01*
X604227Y423820D01*
X604226Y423826D01*
X604171Y423929D01*
X604118Y424034D01*
X604113Y424038D01*
X604110Y424044D01*
X604026Y424124D01*
X603942Y424206D01*
X603936Y424210D01*
X603932Y424213D01*
X603915Y424221D01*
X603795Y424287D01*
X602355Y424883D01*
X600397Y426841D01*
X599338Y429400D01*
X599338Y432168D01*
X600397Y434727D01*
X602355Y436685D01*
X604914Y437744D01*
X607682Y437744D01*
X610241Y436685D01*
X612199Y434727D01*
X612795Y433287D01*
X612857Y433187D01*
X612917Y433087D01*
X612921Y433083D01*
X612925Y433078D01*
X613015Y433003D01*
X613104Y432927D01*
X613109Y432925D01*
X613114Y432921D01*
X613223Y432879D01*
X613332Y432835D01*
X613339Y432834D01*
X613344Y432833D01*
X613362Y432832D01*
X613498Y432817D01*
X624158Y432817D01*
X642413Y414562D01*
X642507Y414494D01*
X642602Y414424D01*
X642608Y414422D01*
X642613Y414418D01*
X642723Y414384D01*
X642835Y414348D01*
X642842Y414348D01*
X642848Y414346D01*
X642964Y414349D01*
X643081Y414350D01*
X643089Y414352D01*
X643094Y414352D01*
X643111Y414359D01*
X643242Y414397D01*
X645891Y415494D01*
X649509Y415494D01*
X652851Y414109D01*
X655409Y411551D01*
X655980Y410173D01*
X656042Y410073D01*
X656102Y409973D01*
X656107Y409969D01*
X656110Y409964D01*
X656201Y409889D01*
X656289Y409813D01*
X656295Y409811D01*
X656300Y409807D01*
X656408Y409765D01*
X656517Y409721D01*
X656525Y409720D01*
X656529Y409719D01*
X656547Y409718D01*
X656684Y409703D01*
X703492Y409703D01*
X703606Y409722D01*
X703722Y409739D01*
X703728Y409741D01*
X703734Y409742D01*
X703837Y409797D01*
X703942Y409850D01*
X703946Y409855D01*
X703952Y409858D01*
X704032Y409942D01*
X704114Y410026D01*
X704118Y410032D01*
X704121Y410036D01*
X704129Y410053D01*
X704195Y410173D01*
X704791Y411613D01*
X706749Y413571D01*
X709308Y414630D01*
X712076Y414630D01*
X714635Y413571D01*
X716593Y411613D01*
X717652Y409054D01*
X717652Y406286D01*
X716593Y403727D01*
X714635Y401769D01*
X712076Y400710D01*
X709308Y400710D01*
X706749Y401769D01*
X704791Y403727D01*
X704195Y405167D01*
X704133Y405267D01*
X704073Y405367D01*
X704069Y405371D01*
X704065Y405376D01*
X703975Y405451D01*
X703886Y405527D01*
X703881Y405529D01*
X703876Y405533D01*
X703767Y405575D01*
X703658Y405619D01*
X703651Y405620D01*
X703646Y405621D01*
X703628Y405622D01*
X703492Y405637D01*
X657555Y405637D01*
X657535Y405634D01*
X657516Y405636D01*
X657414Y405614D01*
X657312Y405598D01*
X657295Y405588D01*
X657275Y405584D01*
X657186Y405531D01*
X657095Y405482D01*
X657081Y405468D01*
X657064Y405458D01*
X656997Y405379D01*
X656926Y405304D01*
X656917Y405286D01*
X656904Y405271D01*
X656866Y405175D01*
X656822Y405081D01*
X656820Y405061D01*
X656812Y405043D01*
X656794Y404876D01*
X656794Y404591D01*
X655409Y401249D01*
X652851Y398691D01*
X649509Y397306D01*
X645891Y397306D01*
X642549Y398691D01*
X639991Y401249D01*
X638606Y404591D01*
X638606Y408209D01*
X639703Y410858D01*
X639730Y410971D01*
X639758Y411085D01*
X639758Y411091D01*
X639759Y411097D01*
X639748Y411214D01*
X639739Y411330D01*
X639737Y411336D01*
X639736Y411342D01*
X639688Y411449D01*
X639643Y411556D01*
X639638Y411562D01*
X639636Y411567D01*
X639624Y411580D01*
X639538Y411687D01*
X622697Y428528D01*
X622623Y428581D01*
X622554Y428641D01*
X622523Y428653D01*
X622497Y428672D01*
X622410Y428699D01*
X622325Y428733D01*
X622284Y428737D01*
X622262Y428744D01*
X622230Y428743D01*
X622159Y428751D01*
X613498Y428751D01*
X613384Y428732D01*
X613268Y428715D01*
X613262Y428713D01*
X613256Y428712D01*
X613153Y428657D01*
X613048Y428604D01*
X613044Y428599D01*
X613038Y428596D01*
X612958Y428512D01*
X612876Y428428D01*
X612872Y428422D01*
X612869Y428418D01*
X612861Y428401D01*
X612795Y428281D01*
X612199Y426841D01*
X610241Y424883D01*
X608801Y424287D01*
X608701Y424225D01*
X608601Y424165D01*
X608597Y424161D01*
X608592Y424157D01*
X608517Y424067D01*
X608441Y423978D01*
X608439Y423973D01*
X608435Y423968D01*
X608393Y423859D01*
X608349Y423750D01*
X608348Y423743D01*
X608347Y423738D01*
X608346Y423720D01*
X608331Y423584D01*
X608331Y390144D01*
X608334Y390124D01*
X608332Y390105D01*
X608354Y390003D01*
X608370Y389901D01*
X608380Y389884D01*
X608384Y389864D01*
X608437Y389775D01*
X608486Y389684D01*
X608500Y389670D01*
X608510Y389653D01*
X608589Y389586D01*
X608664Y389514D01*
X608682Y389506D01*
X608697Y389493D01*
X608793Y389454D01*
X608887Y389411D01*
X608907Y389409D01*
X608925Y389401D01*
X609092Y389383D01*
X611267Y389383D01*
X614348Y388107D01*
X616707Y385748D01*
X617637Y383503D01*
X617699Y383403D01*
X617758Y383303D01*
X617763Y383299D01*
X617766Y383294D01*
X617857Y383219D01*
X617945Y383143D01*
X617951Y383141D01*
X617956Y383137D01*
X618064Y383095D01*
X618173Y383051D01*
X618181Y383050D01*
X618185Y383049D01*
X618204Y383048D01*
X618340Y383033D01*
X672164Y383033D01*
X700533Y354664D01*
X700533Y188355D01*
X700547Y188265D01*
X700555Y188174D01*
X700567Y188145D01*
X700572Y188113D01*
X700615Y188032D01*
X700651Y187948D01*
X700677Y187916D01*
X700688Y187895D01*
X700711Y187873D01*
X700756Y187817D01*
X714867Y173706D01*
X714941Y173653D01*
X715010Y173593D01*
X715041Y173581D01*
X715067Y173562D01*
X715154Y173535D01*
X715239Y173501D01*
X715280Y173497D01*
X715302Y173490D01*
X715334Y173491D01*
X715405Y173483D01*
X740560Y173483D01*
X740675Y173502D01*
X740791Y173519D01*
X740797Y173521D01*
X740803Y173522D01*
X740905Y173577D01*
X741010Y173630D01*
X741015Y173635D01*
X741020Y173638D01*
X741100Y173722D01*
X741182Y173806D01*
X741186Y173812D01*
X741189Y173816D01*
X741197Y173833D01*
X741263Y173953D01*
X742193Y176198D01*
X744552Y178557D01*
X747633Y179833D01*
X750967Y179833D01*
X754048Y178557D01*
X756407Y176198D01*
X757683Y173117D01*
X757683Y169783D01*
X756407Y166702D01*
X754048Y164343D01*
X750967Y163067D01*
X747633Y163067D01*
G37*
%LPD*%
%LPC*%
G36*
X1092086Y77368D02*
X1092086Y77368D01*
X1089527Y78427D01*
X1087569Y80385D01*
X1086510Y82944D01*
X1086510Y85712D01*
X1087106Y87153D01*
X1087133Y87266D01*
X1087161Y87380D01*
X1087161Y87386D01*
X1087162Y87392D01*
X1087151Y87509D01*
X1087142Y87625D01*
X1087140Y87631D01*
X1087139Y87637D01*
X1087091Y87744D01*
X1087046Y87851D01*
X1087041Y87857D01*
X1087039Y87862D01*
X1087027Y87875D01*
X1086941Y87982D01*
X1079499Y95424D01*
X1079499Y205312D01*
X1098216Y224029D01*
X1118950Y224029D01*
X1118982Y223997D01*
X1119076Y223930D01*
X1119170Y223859D01*
X1119176Y223857D01*
X1119181Y223854D01*
X1119292Y223820D01*
X1119404Y223783D01*
X1119410Y223783D01*
X1119416Y223781D01*
X1119533Y223784D01*
X1119650Y223785D01*
X1119657Y223788D01*
X1119662Y223788D01*
X1119680Y223794D01*
X1119811Y223832D01*
X1123352Y225299D01*
X1127596Y225299D01*
X1131517Y223675D01*
X1134519Y220673D01*
X1136143Y216752D01*
X1136143Y212508D01*
X1134519Y208587D01*
X1131517Y205585D01*
X1127596Y203961D01*
X1123352Y203961D01*
X1119431Y205585D01*
X1116429Y208587D01*
X1114805Y212508D01*
X1114805Y216752D01*
X1115699Y218911D01*
X1115710Y218955D01*
X1115729Y218997D01*
X1115738Y219074D01*
X1115756Y219150D01*
X1115751Y219196D01*
X1115756Y219241D01*
X1115740Y219318D01*
X1115732Y219395D01*
X1115714Y219437D01*
X1115704Y219482D01*
X1115664Y219549D01*
X1115632Y219620D01*
X1115601Y219654D01*
X1115578Y219693D01*
X1115519Y219744D01*
X1115466Y219801D01*
X1115426Y219823D01*
X1115391Y219853D01*
X1115319Y219882D01*
X1115251Y219919D01*
X1115205Y219928D01*
X1115163Y219945D01*
X1115027Y219960D01*
X1115008Y219963D01*
X1115004Y219962D01*
X1114996Y219963D01*
X1100215Y219963D01*
X1100125Y219949D01*
X1100034Y219941D01*
X1100005Y219929D01*
X1099973Y219924D01*
X1099892Y219881D01*
X1099808Y219845D01*
X1099776Y219819D01*
X1099755Y219808D01*
X1099733Y219785D01*
X1099677Y219740D01*
X1090947Y211010D01*
X1090890Y210931D01*
X1090828Y210856D01*
X1090818Y210831D01*
X1090803Y210810D01*
X1090775Y210717D01*
X1090740Y210626D01*
X1090738Y210600D01*
X1090731Y210575D01*
X1090733Y210478D01*
X1090729Y210380D01*
X1090736Y210355D01*
X1090737Y210329D01*
X1090771Y210238D01*
X1090798Y210144D01*
X1090813Y210123D01*
X1090822Y210098D01*
X1090882Y210022D01*
X1090938Y209942D01*
X1090959Y209927D01*
X1090975Y209906D01*
X1091057Y209854D01*
X1091135Y209795D01*
X1091160Y209787D01*
X1091182Y209773D01*
X1091277Y209749D01*
X1091369Y209719D01*
X1091395Y209719D01*
X1091421Y209713D01*
X1091518Y209721D01*
X1091615Y209722D01*
X1091647Y209731D01*
X1091666Y209732D01*
X1091696Y209745D01*
X1091776Y209768D01*
X1094777Y211011D01*
X1099021Y211011D01*
X1102942Y209387D01*
X1105944Y206386D01*
X1107568Y202465D01*
X1107568Y198220D01*
X1105944Y194299D01*
X1102942Y191298D01*
X1099021Y189674D01*
X1094777Y189674D01*
X1090856Y191298D01*
X1087854Y194299D01*
X1086230Y198220D01*
X1086230Y202465D01*
X1087473Y205465D01*
X1087495Y205560D01*
X1087524Y205653D01*
X1087523Y205679D01*
X1087529Y205705D01*
X1087520Y205802D01*
X1087518Y205899D01*
X1087509Y205924D01*
X1087506Y205950D01*
X1087467Y206038D01*
X1087433Y206130D01*
X1087417Y206150D01*
X1087406Y206174D01*
X1087340Y206246D01*
X1087280Y206322D01*
X1087258Y206336D01*
X1087240Y206355D01*
X1087154Y206402D01*
X1087073Y206455D01*
X1087047Y206461D01*
X1087024Y206474D01*
X1086928Y206491D01*
X1086834Y206515D01*
X1086808Y206513D01*
X1086782Y206518D01*
X1086686Y206504D01*
X1086589Y206496D01*
X1086565Y206486D01*
X1086539Y206482D01*
X1086452Y206438D01*
X1086363Y206400D01*
X1086337Y206379D01*
X1086320Y206370D01*
X1086296Y206347D01*
X1086232Y206295D01*
X1083788Y203851D01*
X1083735Y203777D01*
X1083675Y203708D01*
X1083663Y203677D01*
X1083644Y203651D01*
X1083617Y203564D01*
X1083583Y203479D01*
X1083579Y203438D01*
X1083572Y203416D01*
X1083573Y203384D01*
X1083565Y203313D01*
X1083565Y97423D01*
X1083579Y97333D01*
X1083587Y97242D01*
X1083599Y97213D01*
X1083604Y97181D01*
X1083647Y97100D01*
X1083683Y97016D01*
X1083709Y96984D01*
X1083720Y96963D01*
X1083743Y96941D01*
X1083788Y96885D01*
X1089816Y90857D01*
X1089910Y90789D01*
X1090005Y90719D01*
X1090011Y90717D01*
X1090016Y90713D01*
X1090127Y90679D01*
X1090238Y90643D01*
X1090245Y90643D01*
X1090251Y90641D01*
X1090367Y90644D01*
X1090484Y90645D01*
X1090492Y90647D01*
X1090497Y90647D01*
X1090514Y90654D01*
X1090645Y90692D01*
X1092086Y91288D01*
X1094854Y91288D01*
X1097413Y90229D01*
X1099371Y88271D01*
X1099967Y86831D01*
X1100029Y86731D01*
X1100089Y86631D01*
X1100093Y86627D01*
X1100097Y86622D01*
X1100187Y86547D01*
X1100276Y86471D01*
X1100281Y86469D01*
X1100286Y86465D01*
X1100395Y86423D01*
X1100504Y86379D01*
X1100511Y86378D01*
X1100516Y86377D01*
X1100534Y86376D01*
X1100670Y86361D01*
X1136268Y86361D01*
X1136358Y86375D01*
X1136449Y86383D01*
X1136479Y86395D01*
X1136511Y86400D01*
X1136592Y86443D01*
X1136676Y86479D01*
X1136708Y86505D01*
X1136728Y86516D01*
X1136751Y86539D01*
X1136807Y86584D01*
X1143284Y93061D01*
X1143337Y93135D01*
X1143397Y93205D01*
X1143409Y93235D01*
X1143428Y93261D01*
X1143455Y93348D01*
X1143489Y93433D01*
X1143493Y93474D01*
X1143500Y93496D01*
X1143499Y93528D01*
X1143507Y93600D01*
X1143507Y156544D01*
X1144921Y157958D01*
X1166398Y179435D01*
X1166451Y179509D01*
X1166511Y179578D01*
X1166523Y179609D01*
X1166542Y179635D01*
X1166569Y179722D01*
X1166603Y179807D01*
X1166607Y179848D01*
X1166614Y179870D01*
X1166613Y179902D01*
X1166621Y179973D01*
X1166621Y180482D01*
X1168091Y184030D01*
X1170806Y186745D01*
X1174354Y188215D01*
X1178194Y188215D01*
X1181742Y186745D01*
X1184457Y184030D01*
X1185685Y181065D01*
X1185747Y180965D01*
X1185807Y180865D01*
X1185812Y180861D01*
X1185815Y180856D01*
X1185905Y180781D01*
X1185994Y180705D01*
X1186000Y180703D01*
X1186005Y180699D01*
X1186113Y180657D01*
X1186222Y180613D01*
X1186230Y180612D01*
X1186234Y180611D01*
X1186252Y180610D01*
X1186389Y180595D01*
X1191559Y180595D01*
X1191674Y180614D01*
X1191790Y180631D01*
X1191796Y180633D01*
X1191802Y180634D01*
X1191905Y180689D01*
X1192009Y180742D01*
X1192014Y180747D01*
X1192019Y180750D01*
X1192099Y180834D01*
X1192182Y180918D01*
X1192185Y180924D01*
X1192189Y180928D01*
X1192197Y180945D01*
X1192263Y181065D01*
X1193491Y184030D01*
X1196206Y186745D01*
X1199754Y188215D01*
X1203594Y188215D01*
X1207142Y186745D01*
X1209857Y184030D01*
X1211327Y180482D01*
X1211327Y176642D01*
X1209857Y173094D01*
X1207142Y170379D01*
X1203594Y168909D01*
X1199754Y168909D01*
X1196206Y170379D01*
X1193491Y173094D01*
X1192263Y176059D01*
X1192201Y176159D01*
X1192141Y176259D01*
X1192136Y176263D01*
X1192133Y176268D01*
X1192043Y176343D01*
X1191954Y176419D01*
X1191948Y176421D01*
X1191943Y176425D01*
X1191835Y176467D01*
X1191726Y176511D01*
X1191718Y176512D01*
X1191714Y176513D01*
X1191696Y176514D01*
X1191559Y176529D01*
X1186389Y176529D01*
X1186274Y176510D01*
X1186158Y176493D01*
X1186152Y176491D01*
X1186146Y176490D01*
X1186043Y176435D01*
X1185939Y176382D01*
X1185934Y176377D01*
X1185929Y176374D01*
X1185849Y176290D01*
X1185766Y176206D01*
X1185763Y176200D01*
X1185759Y176196D01*
X1185751Y176179D01*
X1185685Y176059D01*
X1184457Y173094D01*
X1181742Y170379D01*
X1178194Y168909D01*
X1174354Y168909D01*
X1170806Y170379D01*
X1168091Y173094D01*
X1167858Y173657D01*
X1167834Y173696D01*
X1167818Y173739D01*
X1167769Y173799D01*
X1167728Y173866D01*
X1167693Y173895D01*
X1167664Y173931D01*
X1167599Y173973D01*
X1167539Y174022D01*
X1167496Y174039D01*
X1167457Y174064D01*
X1167382Y174083D01*
X1167309Y174111D01*
X1167263Y174113D01*
X1167219Y174124D01*
X1167141Y174118D01*
X1167063Y174121D01*
X1167019Y174108D01*
X1166974Y174105D01*
X1166902Y174074D01*
X1166827Y174053D01*
X1166789Y174026D01*
X1166747Y174008D01*
X1166641Y173923D01*
X1166625Y173912D01*
X1166622Y173908D01*
X1166616Y173904D01*
X1147796Y155083D01*
X1147743Y155009D01*
X1147683Y154940D01*
X1147671Y154909D01*
X1147652Y154883D01*
X1147625Y154796D01*
X1147591Y154711D01*
X1147587Y154670D01*
X1147580Y154648D01*
X1147581Y154616D01*
X1147573Y154545D01*
X1147573Y91600D01*
X1138268Y82295D01*
X1100670Y82295D01*
X1100556Y82276D01*
X1100440Y82259D01*
X1100434Y82257D01*
X1100428Y82256D01*
X1100325Y82201D01*
X1100220Y82148D01*
X1100216Y82143D01*
X1100210Y82140D01*
X1100130Y82056D01*
X1100048Y81972D01*
X1100044Y81966D01*
X1100041Y81962D01*
X1100033Y81945D01*
X1099967Y81825D01*
X1099371Y80385D01*
X1097413Y78427D01*
X1094854Y77368D01*
X1092086Y77368D01*
G37*
%LPD*%
%LPC*%
G36*
X885872Y60705D02*
X885872Y60705D01*
X864107Y82470D01*
X864107Y143570D01*
X864088Y143685D01*
X864071Y143801D01*
X864069Y143807D01*
X864068Y143813D01*
X864013Y143916D01*
X863960Y144021D01*
X863955Y144025D01*
X863952Y144030D01*
X863868Y144110D01*
X863784Y144193D01*
X863778Y144196D01*
X863774Y144200D01*
X863757Y144208D01*
X863637Y144274D01*
X861943Y144975D01*
X859985Y146933D01*
X858926Y149492D01*
X858926Y152260D01*
X859985Y154819D01*
X861943Y156777D01*
X863383Y157373D01*
X863483Y157435D01*
X863583Y157495D01*
X863587Y157499D01*
X863592Y157503D01*
X863667Y157593D01*
X863743Y157682D01*
X863745Y157687D01*
X863749Y157692D01*
X863791Y157801D01*
X863820Y157872D01*
X863825Y157884D01*
X863825Y157886D01*
X863835Y157910D01*
X863836Y157917D01*
X863837Y157922D01*
X863838Y157940D01*
X863853Y158076D01*
X863853Y177880D01*
X865267Y179294D01*
X879931Y193958D01*
X879999Y194052D01*
X880069Y194147D01*
X880071Y194153D01*
X880075Y194158D01*
X880109Y194268D01*
X880145Y194380D01*
X880145Y194387D01*
X880147Y194393D01*
X880144Y194509D01*
X880143Y194626D01*
X880141Y194634D01*
X880141Y194639D01*
X880134Y194656D01*
X880096Y194787D01*
X879500Y196228D01*
X879500Y198996D01*
X880559Y201555D01*
X882517Y203513D01*
X885076Y204572D01*
X887844Y204572D01*
X890403Y203513D01*
X892361Y201555D01*
X893420Y198996D01*
X893420Y196228D01*
X892361Y193669D01*
X890403Y191711D01*
X887844Y190652D01*
X885076Y190652D01*
X883635Y191248D01*
X883522Y191275D01*
X883408Y191303D01*
X883402Y191303D01*
X883396Y191304D01*
X883279Y191293D01*
X883163Y191284D01*
X883157Y191282D01*
X883151Y191281D01*
X883044Y191233D01*
X882937Y191188D01*
X882931Y191183D01*
X882926Y191181D01*
X882913Y191169D01*
X882806Y191083D01*
X868142Y176419D01*
X868089Y176345D01*
X868029Y176276D01*
X868017Y176245D01*
X867998Y176219D01*
X867971Y176132D01*
X867937Y176047D01*
X867933Y176006D01*
X867926Y175984D01*
X867927Y175952D01*
X867919Y175881D01*
X867919Y158076D01*
X867921Y158062D01*
X867920Y158049D01*
X867933Y157986D01*
X867938Y157960D01*
X867955Y157846D01*
X867957Y157840D01*
X867958Y157834D01*
X868013Y157731D01*
X868066Y157626D01*
X868071Y157622D01*
X868074Y157616D01*
X868158Y157536D01*
X868242Y157454D01*
X868248Y157450D01*
X868252Y157447D01*
X868269Y157439D01*
X868389Y157373D01*
X869829Y156777D01*
X871787Y154819D01*
X872846Y152260D01*
X872846Y149492D01*
X871787Y146933D01*
X869829Y144975D01*
X868643Y144484D01*
X868543Y144423D01*
X868443Y144363D01*
X868439Y144358D01*
X868434Y144354D01*
X868359Y144265D01*
X868283Y144176D01*
X868281Y144170D01*
X868277Y144165D01*
X868235Y144057D01*
X868191Y143947D01*
X868190Y143940D01*
X868189Y143935D01*
X868188Y143917D01*
X868173Y143781D01*
X868173Y84469D01*
X868187Y84379D01*
X868195Y84288D01*
X868207Y84259D01*
X868212Y84227D01*
X868255Y84146D01*
X868291Y84062D01*
X868317Y84030D01*
X868328Y84009D01*
X868351Y83987D01*
X868396Y83931D01*
X887333Y64994D01*
X887407Y64941D01*
X887476Y64881D01*
X887507Y64869D01*
X887533Y64850D01*
X887620Y64823D01*
X887705Y64789D01*
X887746Y64785D01*
X887768Y64778D01*
X887800Y64779D01*
X887871Y64771D01*
X1143367Y64771D01*
X1143457Y64785D01*
X1143548Y64793D01*
X1143577Y64805D01*
X1143609Y64810D01*
X1143690Y64853D01*
X1143774Y64889D01*
X1143806Y64915D01*
X1143827Y64926D01*
X1143849Y64949D01*
X1143905Y64994D01*
X1167160Y88249D01*
X1167213Y88323D01*
X1167273Y88392D01*
X1167285Y88423D01*
X1167304Y88449D01*
X1167331Y88536D01*
X1167365Y88621D01*
X1167369Y88662D01*
X1167376Y88684D01*
X1167375Y88716D01*
X1167383Y88787D01*
X1167383Y121746D01*
X1167684Y122047D01*
X1167752Y122141D01*
X1167822Y122236D01*
X1167824Y122242D01*
X1167828Y122247D01*
X1167862Y122358D01*
X1167899Y122470D01*
X1167899Y122476D01*
X1167900Y122482D01*
X1167897Y122599D01*
X1167896Y122716D01*
X1167894Y122723D01*
X1167894Y122728D01*
X1167888Y122745D01*
X1167849Y122877D01*
X1166621Y125842D01*
X1166621Y129682D01*
X1168091Y133230D01*
X1170806Y135945D01*
X1174354Y137415D01*
X1178194Y137415D01*
X1181742Y135945D01*
X1184457Y133230D01*
X1185927Y129682D01*
X1185927Y125842D01*
X1184457Y122294D01*
X1181742Y119579D01*
X1178194Y118109D01*
X1174354Y118109D01*
X1172501Y118877D01*
X1172457Y118887D01*
X1172415Y118906D01*
X1172338Y118915D01*
X1172262Y118933D01*
X1172216Y118929D01*
X1172171Y118934D01*
X1172094Y118917D01*
X1172017Y118910D01*
X1171975Y118891D01*
X1171930Y118881D01*
X1171863Y118841D01*
X1171792Y118810D01*
X1171758Y118779D01*
X1171719Y118755D01*
X1171668Y118696D01*
X1171611Y118643D01*
X1171589Y118603D01*
X1171559Y118568D01*
X1171530Y118496D01*
X1171493Y118428D01*
X1171484Y118383D01*
X1171467Y118340D01*
X1171452Y118204D01*
X1171449Y118186D01*
X1171450Y118181D01*
X1171449Y118173D01*
X1171449Y86788D01*
X1145366Y60705D01*
X885872Y60705D01*
G37*
%LPD*%
%LPC*%
G36*
X747633Y124967D02*
X747633Y124967D01*
X744552Y126243D01*
X742193Y128602D01*
X741263Y130847D01*
X741201Y130947D01*
X741142Y131047D01*
X741137Y131051D01*
X741134Y131056D01*
X741043Y131131D01*
X740955Y131207D01*
X740949Y131209D01*
X740944Y131213D01*
X740836Y131255D01*
X740727Y131299D01*
X740719Y131300D01*
X740715Y131301D01*
X740696Y131302D01*
X740560Y131317D01*
X695626Y131317D01*
X680465Y146478D01*
X680465Y332599D01*
X680451Y332689D01*
X680443Y332780D01*
X680431Y332809D01*
X680426Y332841D01*
X680383Y332922D01*
X680347Y333006D01*
X680321Y333038D01*
X680310Y333059D01*
X680287Y333081D01*
X680242Y333137D01*
X660035Y353344D01*
X659961Y353397D01*
X659892Y353457D01*
X659861Y353469D01*
X659835Y353488D01*
X659748Y353515D01*
X659663Y353549D01*
X659622Y353553D01*
X659600Y353560D01*
X659568Y353559D01*
X659497Y353567D01*
X618340Y353567D01*
X618225Y353548D01*
X618109Y353531D01*
X618103Y353529D01*
X618097Y353528D01*
X617995Y353473D01*
X617890Y353420D01*
X617885Y353415D01*
X617880Y353412D01*
X617800Y353328D01*
X617718Y353244D01*
X617714Y353238D01*
X617711Y353234D01*
X617703Y353217D01*
X617637Y353097D01*
X616707Y350852D01*
X614348Y348493D01*
X611267Y347217D01*
X607933Y347217D01*
X604852Y348493D01*
X602493Y350852D01*
X601563Y353097D01*
X601501Y353197D01*
X601442Y353297D01*
X601437Y353301D01*
X601434Y353306D01*
X601343Y353381D01*
X601255Y353457D01*
X601249Y353459D01*
X601244Y353463D01*
X601136Y353505D01*
X601027Y353549D01*
X601019Y353550D01*
X601015Y353551D01*
X600996Y353552D01*
X600860Y353567D01*
X582342Y353567D01*
X569467Y366442D01*
X569467Y411900D01*
X569449Y412013D01*
X569431Y412130D01*
X569429Y412136D01*
X569428Y412142D01*
X569373Y412245D01*
X569320Y412350D01*
X569315Y412354D01*
X569312Y412360D01*
X569228Y412440D01*
X569144Y412522D01*
X569138Y412526D01*
X569134Y412529D01*
X569117Y412537D01*
X568997Y412603D01*
X567557Y413199D01*
X565599Y415157D01*
X564540Y417716D01*
X564540Y420484D01*
X565599Y423043D01*
X567557Y425001D01*
X570116Y426060D01*
X572884Y426060D01*
X575443Y425001D01*
X577401Y423043D01*
X578460Y420484D01*
X578460Y417716D01*
X577401Y415157D01*
X575443Y413199D01*
X574003Y412603D01*
X573903Y412541D01*
X573803Y412481D01*
X573799Y412477D01*
X573794Y412473D01*
X573718Y412382D01*
X573643Y412294D01*
X573641Y412289D01*
X573637Y412284D01*
X573595Y412175D01*
X573551Y412066D01*
X573550Y412059D01*
X573549Y412054D01*
X573548Y412036D01*
X573533Y411900D01*
X573533Y368441D01*
X573547Y368351D01*
X573555Y368260D01*
X573567Y368231D01*
X573572Y368199D01*
X573615Y368118D01*
X573651Y368034D01*
X573677Y368002D01*
X573688Y367981D01*
X573711Y367959D01*
X573756Y367903D01*
X583803Y357856D01*
X583877Y357803D01*
X583946Y357743D01*
X583977Y357731D01*
X584003Y357712D01*
X584090Y357685D01*
X584175Y357651D01*
X584216Y357647D01*
X584238Y357640D01*
X584270Y357641D01*
X584341Y357633D01*
X600860Y357633D01*
X600975Y357652D01*
X601091Y357669D01*
X601097Y357671D01*
X601103Y357672D01*
X601205Y357727D01*
X601310Y357780D01*
X601315Y357785D01*
X601320Y357788D01*
X601400Y357872D01*
X601482Y357956D01*
X601486Y357962D01*
X601489Y357966D01*
X601497Y357983D01*
X601563Y358103D01*
X602493Y360348D01*
X604852Y362707D01*
X607933Y363983D01*
X611267Y363983D01*
X614348Y362707D01*
X616707Y360348D01*
X617637Y358103D01*
X617699Y358003D01*
X617758Y357903D01*
X617763Y357899D01*
X617766Y357894D01*
X617857Y357819D01*
X617945Y357743D01*
X617951Y357741D01*
X617956Y357737D01*
X618064Y357695D01*
X618173Y357651D01*
X618181Y357650D01*
X618185Y357649D01*
X618204Y357648D01*
X618340Y357633D01*
X661496Y357633D01*
X684531Y334598D01*
X684531Y148477D01*
X684545Y148387D01*
X684553Y148296D01*
X684565Y148267D01*
X684570Y148235D01*
X684613Y148154D01*
X684649Y148070D01*
X684675Y148038D01*
X684686Y148017D01*
X684709Y147995D01*
X684754Y147939D01*
X697087Y135606D01*
X697161Y135553D01*
X697230Y135493D01*
X697261Y135481D01*
X697287Y135462D01*
X697374Y135435D01*
X697459Y135401D01*
X697500Y135397D01*
X697522Y135390D01*
X697554Y135391D01*
X697625Y135383D01*
X740560Y135383D01*
X740675Y135402D01*
X740791Y135419D01*
X740797Y135421D01*
X740803Y135422D01*
X740905Y135477D01*
X741010Y135530D01*
X741015Y135535D01*
X741020Y135538D01*
X741100Y135622D01*
X741182Y135706D01*
X741186Y135712D01*
X741189Y135716D01*
X741197Y135733D01*
X741263Y135853D01*
X742193Y138098D01*
X744552Y140457D01*
X747633Y141733D01*
X750967Y141733D01*
X754048Y140457D01*
X756407Y138098D01*
X757683Y135017D01*
X757683Y131683D01*
X756407Y128602D01*
X754048Y126243D01*
X750967Y124967D01*
X747633Y124967D01*
G37*
%LPD*%
%LPC*%
G36*
X823833Y194817D02*
X823833Y194817D01*
X820752Y196093D01*
X818393Y198452D01*
X817117Y201533D01*
X817117Y204867D01*
X818393Y207948D01*
X820752Y210307D01*
X822997Y211237D01*
X823097Y211298D01*
X823197Y211358D01*
X823201Y211363D01*
X823206Y211366D01*
X823281Y211456D01*
X823357Y211545D01*
X823359Y211551D01*
X823363Y211556D01*
X823405Y211664D01*
X823449Y211773D01*
X823450Y211781D01*
X823451Y211785D01*
X823452Y211804D01*
X823467Y211940D01*
X823467Y217283D01*
X823453Y217373D01*
X823445Y217464D01*
X823433Y217493D01*
X823428Y217525D01*
X823385Y217606D01*
X823349Y217690D01*
X823323Y217722D01*
X823312Y217743D01*
X823289Y217765D01*
X823244Y217821D01*
X799083Y241982D01*
X799083Y292721D01*
X799069Y292811D01*
X799061Y292902D01*
X799049Y292931D01*
X799044Y292963D01*
X799001Y293044D01*
X798965Y293128D01*
X798939Y293160D01*
X798928Y293181D01*
X798905Y293203D01*
X798860Y293259D01*
X773177Y318942D01*
X773083Y319010D01*
X772988Y319080D01*
X772982Y319082D01*
X772977Y319086D01*
X772866Y319120D01*
X772755Y319156D01*
X772748Y319156D01*
X772742Y319158D01*
X772626Y319155D01*
X772509Y319154D01*
X772501Y319152D01*
X772496Y319152D01*
X772479Y319145D01*
X772347Y319107D01*
X772145Y319023D01*
X766587Y319023D01*
X761452Y321150D01*
X757522Y325080D01*
X755395Y330215D01*
X755395Y335773D01*
X757522Y340908D01*
X761452Y344838D01*
X766587Y346965D01*
X772145Y346965D01*
X777280Y344838D01*
X781210Y340908D01*
X783340Y335766D01*
X783338Y335749D01*
X783360Y335647D01*
X783376Y335545D01*
X783386Y335528D01*
X783390Y335508D01*
X783443Y335419D01*
X783492Y335328D01*
X783506Y335314D01*
X783516Y335297D01*
X783595Y335230D01*
X783670Y335158D01*
X783688Y335150D01*
X783703Y335137D01*
X783799Y335098D01*
X783893Y335055D01*
X783913Y335053D01*
X783931Y335045D01*
X784098Y335027D01*
X826883Y335027D01*
X826973Y335041D01*
X827064Y335049D01*
X827093Y335061D01*
X827125Y335066D01*
X827206Y335109D01*
X827290Y335145D01*
X827322Y335171D01*
X827343Y335182D01*
X827365Y335205D01*
X827421Y335250D01*
X849804Y357633D01*
X900543Y357633D01*
X900633Y357647D01*
X900724Y357655D01*
X900753Y357667D01*
X900785Y357672D01*
X900866Y357715D01*
X900950Y357751D01*
X900982Y357777D01*
X901003Y357788D01*
X901025Y357811D01*
X901081Y357856D01*
X906238Y363013D01*
X906306Y363107D01*
X906376Y363202D01*
X906378Y363208D01*
X906382Y363213D01*
X906416Y363323D01*
X906452Y363435D01*
X906452Y363442D01*
X906454Y363448D01*
X906451Y363564D01*
X906450Y363681D01*
X906448Y363689D01*
X906448Y363694D01*
X906441Y363711D01*
X906403Y363842D01*
X905306Y366491D01*
X905306Y370109D01*
X906691Y373451D01*
X909249Y376009D01*
X912591Y377394D01*
X916209Y377394D01*
X919551Y376009D01*
X922109Y373451D01*
X923494Y370109D01*
X923494Y366491D01*
X922109Y363149D01*
X919551Y360591D01*
X916209Y359206D01*
X912591Y359206D01*
X909942Y360303D01*
X909829Y360330D01*
X909715Y360358D01*
X909709Y360358D01*
X909703Y360359D01*
X909586Y360348D01*
X909470Y360339D01*
X909464Y360337D01*
X909458Y360336D01*
X909351Y360288D01*
X909244Y360243D01*
X909238Y360238D01*
X909233Y360236D01*
X909220Y360224D01*
X909113Y360138D01*
X902542Y353567D01*
X851803Y353567D01*
X851713Y353553D01*
X851622Y353545D01*
X851593Y353533D01*
X851561Y353528D01*
X851480Y353485D01*
X851396Y353449D01*
X851364Y353423D01*
X851343Y353412D01*
X851321Y353389D01*
X851265Y353344D01*
X828882Y330961D01*
X784098Y330961D01*
X784078Y330958D01*
X784059Y330960D01*
X783957Y330938D01*
X783855Y330922D01*
X783838Y330912D01*
X783818Y330908D01*
X783729Y330855D01*
X783638Y330806D01*
X783624Y330792D01*
X783607Y330782D01*
X783540Y330703D01*
X783468Y330628D01*
X783460Y330610D01*
X783447Y330595D01*
X783408Y330499D01*
X783365Y330405D01*
X783363Y330385D01*
X783355Y330367D01*
X783339Y330221D01*
X781210Y325080D01*
X777537Y321408D01*
X777526Y321392D01*
X777510Y321379D01*
X777454Y321292D01*
X777394Y321208D01*
X777388Y321189D01*
X777377Y321172D01*
X777352Y321072D01*
X777322Y320973D01*
X777322Y320953D01*
X777317Y320934D01*
X777325Y320831D01*
X777328Y320727D01*
X777335Y320708D01*
X777336Y320689D01*
X777377Y320594D01*
X777412Y320496D01*
X777425Y320480D01*
X777433Y320462D01*
X777537Y320331D01*
X801735Y296134D01*
X803149Y294720D01*
X803149Y243981D01*
X803163Y243891D01*
X803171Y243800D01*
X803183Y243771D01*
X803188Y243739D01*
X803231Y243658D01*
X803267Y243574D01*
X803293Y243542D01*
X803304Y243521D01*
X803327Y243499D01*
X803372Y243443D01*
X825611Y221204D01*
X825685Y221151D01*
X825754Y221091D01*
X825785Y221079D01*
X825811Y221060D01*
X825898Y221033D01*
X825983Y220999D01*
X826024Y220995D01*
X826046Y220988D01*
X826078Y220989D01*
X826149Y220981D01*
X826342Y220981D01*
X827533Y219790D01*
X827533Y211940D01*
X827552Y211825D01*
X827569Y211709D01*
X827571Y211704D01*
X827572Y211697D01*
X827627Y211595D01*
X827680Y211490D01*
X827685Y211485D01*
X827688Y211480D01*
X827772Y211400D01*
X827856Y211318D01*
X827862Y211314D01*
X827866Y211311D01*
X827883Y211303D01*
X828003Y211237D01*
X830248Y210307D01*
X832607Y207948D01*
X833883Y204867D01*
X833883Y201533D01*
X832607Y198452D01*
X830248Y196093D01*
X827167Y194817D01*
X823833Y194817D01*
G37*
%LPD*%
%LPC*%
G36*
X1094777Y294449D02*
X1094777Y294449D01*
X1090856Y296073D01*
X1087854Y299074D01*
X1086230Y302995D01*
X1086230Y307240D01*
X1087854Y311161D01*
X1090856Y314162D01*
X1094396Y315629D01*
X1094496Y315690D01*
X1094596Y315750D01*
X1094600Y315755D01*
X1094605Y315758D01*
X1094680Y315848D01*
X1094756Y315937D01*
X1094758Y315943D01*
X1094762Y315948D01*
X1094804Y316056D01*
X1094848Y316165D01*
X1094849Y316173D01*
X1094850Y316177D01*
X1094851Y316196D01*
X1094866Y316332D01*
X1094866Y384763D01*
X1096280Y386177D01*
X1116233Y406130D01*
X1116290Y406209D01*
X1116352Y406284D01*
X1116361Y406308D01*
X1116377Y406330D01*
X1116405Y406423D01*
X1116440Y406514D01*
X1116441Y406540D01*
X1116449Y406565D01*
X1116447Y406662D01*
X1116451Y406759D01*
X1116443Y406784D01*
X1116443Y406811D01*
X1116409Y406902D01*
X1116382Y406996D01*
X1116367Y407017D01*
X1116358Y407042D01*
X1116297Y407118D01*
X1116242Y407198D01*
X1116221Y407213D01*
X1116205Y407234D01*
X1116122Y407286D01*
X1116044Y407344D01*
X1116020Y407352D01*
X1115998Y407367D01*
X1115903Y407390D01*
X1115811Y407421D01*
X1115784Y407420D01*
X1115759Y407427D01*
X1115662Y407419D01*
X1115565Y407418D01*
X1115533Y407409D01*
X1115514Y407408D01*
X1115484Y407395D01*
X1115404Y407371D01*
X1114896Y407161D01*
X1110652Y407161D01*
X1106731Y408785D01*
X1103729Y411787D01*
X1102105Y415708D01*
X1102105Y419952D01*
X1103729Y423873D01*
X1106731Y426875D01*
X1110652Y428499D01*
X1114896Y428499D01*
X1118817Y426875D01*
X1121819Y423873D01*
X1123443Y419952D01*
X1123443Y415708D01*
X1121819Y411787D01*
X1119764Y409732D01*
X1119722Y409674D01*
X1119673Y409622D01*
X1119651Y409575D01*
X1119621Y409533D01*
X1119600Y409464D01*
X1119569Y409399D01*
X1119564Y409347D01*
X1119548Y409297D01*
X1119550Y409226D01*
X1119542Y409155D01*
X1119553Y409104D01*
X1119555Y409052D01*
X1119579Y408984D01*
X1119594Y408914D01*
X1119621Y408869D01*
X1119639Y408821D01*
X1119684Y408765D01*
X1119721Y408703D01*
X1119760Y408669D01*
X1119793Y408629D01*
X1119853Y408590D01*
X1119908Y408543D01*
X1119956Y408524D01*
X1120000Y408496D01*
X1120069Y408478D01*
X1120136Y408451D01*
X1120207Y408443D01*
X1120238Y408435D01*
X1120261Y408437D01*
X1120302Y408433D01*
X1125079Y408433D01*
X1125169Y408447D01*
X1125260Y408455D01*
X1125289Y408467D01*
X1125321Y408472D01*
X1125402Y408515D01*
X1125486Y408551D01*
X1125518Y408577D01*
X1125539Y408588D01*
X1125561Y408611D01*
X1125617Y408656D01*
X1136570Y419609D01*
X1168804Y419609D01*
X1168919Y419628D01*
X1169035Y419645D01*
X1169040Y419647D01*
X1169047Y419648D01*
X1169149Y419703D01*
X1169254Y419756D01*
X1169259Y419761D01*
X1169264Y419764D01*
X1169344Y419848D01*
X1169426Y419932D01*
X1169430Y419938D01*
X1169433Y419942D01*
X1169441Y419959D01*
X1169507Y420079D01*
X1170437Y422324D01*
X1172796Y424683D01*
X1175877Y425959D01*
X1179211Y425959D01*
X1182292Y424683D01*
X1184651Y422324D01*
X1185927Y419243D01*
X1185927Y415909D01*
X1184651Y412828D01*
X1182292Y410469D01*
X1179211Y409193D01*
X1175877Y409193D01*
X1172796Y410469D01*
X1170437Y412828D01*
X1169507Y415073D01*
X1169446Y415173D01*
X1169386Y415273D01*
X1169381Y415277D01*
X1169378Y415282D01*
X1169288Y415357D01*
X1169199Y415433D01*
X1169193Y415435D01*
X1169188Y415439D01*
X1169080Y415481D01*
X1168971Y415525D01*
X1168963Y415526D01*
X1168959Y415527D01*
X1168940Y415528D01*
X1168804Y415543D01*
X1138569Y415543D01*
X1138479Y415529D01*
X1138388Y415521D01*
X1138359Y415509D01*
X1138327Y415504D01*
X1138246Y415461D01*
X1138162Y415425D01*
X1138130Y415399D01*
X1138109Y415388D01*
X1138087Y415365D01*
X1138031Y415320D01*
X1128492Y405781D01*
X1127109Y404398D01*
X1127067Y404340D01*
X1127018Y404288D01*
X1126996Y404241D01*
X1126965Y404199D01*
X1126944Y404130D01*
X1126914Y404065D01*
X1126908Y404013D01*
X1126893Y403963D01*
X1126895Y403892D01*
X1126887Y403821D01*
X1126898Y403770D01*
X1126899Y403718D01*
X1126924Y403650D01*
X1126939Y403580D01*
X1126966Y403535D01*
X1126984Y403487D01*
X1127029Y403431D01*
X1127065Y403369D01*
X1127105Y403335D01*
X1127138Y403295D01*
X1127198Y403256D01*
X1127252Y403209D01*
X1127301Y403190D01*
X1127345Y403162D01*
X1127414Y403144D01*
X1127481Y403117D01*
X1127552Y403109D01*
X1127583Y403101D01*
X1127589Y403102D01*
X1131517Y401475D01*
X1134519Y398473D01*
X1136143Y394552D01*
X1136143Y390308D01*
X1134519Y386387D01*
X1131517Y383385D01*
X1127596Y381761D01*
X1123352Y381761D01*
X1119431Y383385D01*
X1116429Y386387D01*
X1114805Y390308D01*
X1114805Y394552D01*
X1116452Y398528D01*
X1116475Y398623D01*
X1116503Y398716D01*
X1116502Y398742D01*
X1116508Y398768D01*
X1116499Y398865D01*
X1116497Y398962D01*
X1116488Y398987D01*
X1116485Y399013D01*
X1116446Y399101D01*
X1116412Y399193D01*
X1116396Y399214D01*
X1116385Y399237D01*
X1116320Y399309D01*
X1116259Y399385D01*
X1116237Y399399D01*
X1116219Y399419D01*
X1116134Y399466D01*
X1116052Y399518D01*
X1116026Y399525D01*
X1116003Y399537D01*
X1115907Y399554D01*
X1115813Y399578D01*
X1115787Y399576D01*
X1115761Y399581D01*
X1115665Y399567D01*
X1115568Y399559D01*
X1115544Y399549D01*
X1115518Y399545D01*
X1115431Y399501D01*
X1115342Y399463D01*
X1115316Y399442D01*
X1115299Y399434D01*
X1115276Y399410D01*
X1115211Y399358D01*
X1099155Y383302D01*
X1099102Y383228D01*
X1099042Y383159D01*
X1099030Y383128D01*
X1099011Y383102D01*
X1098984Y383015D01*
X1098950Y382930D01*
X1098946Y382889D01*
X1098939Y382867D01*
X1098940Y382835D01*
X1098932Y382764D01*
X1098932Y316332D01*
X1098951Y316217D01*
X1098968Y316101D01*
X1098970Y316095D01*
X1098971Y316089D01*
X1099026Y315987D01*
X1099079Y315882D01*
X1099084Y315877D01*
X1099087Y315872D01*
X1099171Y315792D01*
X1099255Y315709D01*
X1099261Y315706D01*
X1099265Y315702D01*
X1099282Y315695D01*
X1099402Y315629D01*
X1102942Y314162D01*
X1105944Y311161D01*
X1107568Y307240D01*
X1107568Y302995D01*
X1105944Y299074D01*
X1102942Y296073D01*
X1099021Y294449D01*
X1094777Y294449D01*
G37*
%LPD*%
%LPC*%
G36*
X872093Y16509D02*
X872093Y16509D01*
X869012Y17785D01*
X866653Y20144D01*
X865377Y23225D01*
X865377Y26559D01*
X866653Y29640D01*
X869012Y31999D01*
X871003Y32824D01*
X871103Y32885D01*
X871203Y32945D01*
X871207Y32950D01*
X871212Y32953D01*
X871287Y33043D01*
X871363Y33132D01*
X871365Y33138D01*
X871369Y33143D01*
X871411Y33251D01*
X871455Y33360D01*
X871456Y33368D01*
X871457Y33372D01*
X871458Y33391D01*
X871473Y33527D01*
X871473Y44022D01*
X878760Y51309D01*
X1158607Y51309D01*
X1158697Y51323D01*
X1158788Y51331D01*
X1158817Y51343D01*
X1158849Y51348D01*
X1158930Y51391D01*
X1159014Y51427D01*
X1159046Y51453D01*
X1159067Y51464D01*
X1159089Y51487D01*
X1159145Y51532D01*
X1196596Y88983D01*
X1196664Y89077D01*
X1196734Y89172D01*
X1196736Y89178D01*
X1196740Y89183D01*
X1196774Y89294D01*
X1196811Y89406D01*
X1196811Y89412D01*
X1196812Y89418D01*
X1196809Y89535D01*
X1196808Y89652D01*
X1196806Y89659D01*
X1196806Y89664D01*
X1196800Y89681D01*
X1196762Y89813D01*
X1195831Y92059D01*
X1195831Y95393D01*
X1197107Y98474D01*
X1199466Y100833D01*
X1202547Y102109D01*
X1205881Y102109D01*
X1208962Y100833D01*
X1211321Y98474D01*
X1212597Y95393D01*
X1212597Y92059D01*
X1211321Y88978D01*
X1208962Y86619D01*
X1205881Y85343D01*
X1202547Y85343D01*
X1200301Y86274D01*
X1200187Y86300D01*
X1200074Y86329D01*
X1200067Y86328D01*
X1200061Y86330D01*
X1199945Y86319D01*
X1199828Y86310D01*
X1199823Y86307D01*
X1199816Y86307D01*
X1199709Y86259D01*
X1199602Y86213D01*
X1199596Y86209D01*
X1199592Y86207D01*
X1199578Y86194D01*
X1199471Y86108D01*
X1162020Y48657D01*
X1160606Y47243D01*
X880759Y47243D01*
X880669Y47229D01*
X880578Y47221D01*
X880549Y47209D01*
X880517Y47204D01*
X880436Y47161D01*
X880352Y47125D01*
X880320Y47099D01*
X880299Y47088D01*
X880277Y47065D01*
X880221Y47020D01*
X875762Y42561D01*
X875709Y42487D01*
X875649Y42418D01*
X875637Y42387D01*
X875618Y42361D01*
X875591Y42274D01*
X875557Y42189D01*
X875553Y42148D01*
X875546Y42126D01*
X875547Y42094D01*
X875539Y42023D01*
X875539Y33737D01*
X875558Y33622D01*
X875575Y33506D01*
X875577Y33501D01*
X875578Y33495D01*
X875633Y33392D01*
X875686Y33287D01*
X875691Y33283D01*
X875694Y33277D01*
X875778Y33197D01*
X875862Y33115D01*
X875868Y33111D01*
X875872Y33108D01*
X875889Y33100D01*
X876009Y33034D01*
X878508Y31999D01*
X880867Y29640D01*
X882143Y26559D01*
X882143Y23225D01*
X880867Y20144D01*
X878508Y17785D01*
X875427Y16509D01*
X872093Y16509D01*
G37*
%LPD*%
%LPC*%
G36*
X843962Y484377D02*
X843962Y484377D01*
X842548Y485791D01*
X830325Y498014D01*
X830325Y498752D01*
X830306Y498867D01*
X830289Y498983D01*
X830287Y498989D01*
X830286Y498995D01*
X830231Y499097D01*
X830178Y499202D01*
X830173Y499207D01*
X830170Y499212D01*
X830086Y499292D01*
X830002Y499374D01*
X829996Y499378D01*
X829992Y499381D01*
X829975Y499389D01*
X829855Y499455D01*
X827610Y500385D01*
X825251Y502744D01*
X823975Y505825D01*
X823975Y509159D01*
X825251Y512240D01*
X827610Y514599D01*
X830691Y515875D01*
X834025Y515875D01*
X837106Y514599D01*
X839465Y512240D01*
X840741Y509159D01*
X840741Y505825D01*
X839465Y502744D01*
X837106Y500385D01*
X835753Y499825D01*
X835714Y499801D01*
X835670Y499785D01*
X835622Y499746D01*
X835602Y499735D01*
X835593Y499726D01*
X835544Y499695D01*
X835514Y499660D01*
X835478Y499631D01*
X835436Y499566D01*
X835387Y499506D01*
X835370Y499463D01*
X835345Y499424D01*
X835326Y499349D01*
X835299Y499276D01*
X835297Y499230D01*
X835285Y499186D01*
X835291Y499108D01*
X835288Y499030D01*
X835301Y498986D01*
X835304Y498940D01*
X835335Y498869D01*
X835357Y498794D01*
X835383Y498756D01*
X835401Y498714D01*
X835486Y498607D01*
X835497Y498592D01*
X835501Y498589D01*
X835506Y498583D01*
X845423Y488666D01*
X845497Y488613D01*
X845566Y488553D01*
X845597Y488541D01*
X845623Y488522D01*
X845710Y488495D01*
X845795Y488461D01*
X845836Y488457D01*
X845858Y488450D01*
X845890Y488451D01*
X845961Y488443D01*
X1120507Y488443D01*
X1120597Y488457D01*
X1120688Y488465D01*
X1120717Y488477D01*
X1120749Y488482D01*
X1120830Y488525D01*
X1120914Y488561D01*
X1120946Y488587D01*
X1120967Y488598D01*
X1120989Y488621D01*
X1121045Y488666D01*
X1127536Y495157D01*
X1127589Y495231D01*
X1127649Y495300D01*
X1127661Y495331D01*
X1127680Y495357D01*
X1127707Y495444D01*
X1127741Y495529D01*
X1127745Y495570D01*
X1127752Y495592D01*
X1127751Y495624D01*
X1127759Y495695D01*
X1127759Y497586D01*
X1127756Y497606D01*
X1127758Y497625D01*
X1127736Y497727D01*
X1127720Y497829D01*
X1127710Y497846D01*
X1127706Y497866D01*
X1127653Y497955D01*
X1127604Y498046D01*
X1127590Y498060D01*
X1127580Y498077D01*
X1127501Y498144D01*
X1127426Y498216D01*
X1127408Y498224D01*
X1127393Y498237D01*
X1127297Y498276D01*
X1127203Y498319D01*
X1127183Y498321D01*
X1127165Y498329D01*
X1126998Y498347D01*
X1126855Y498347D01*
X1123774Y499623D01*
X1121415Y501982D01*
X1120139Y505063D01*
X1120139Y508397D01*
X1121415Y511478D01*
X1123774Y513837D01*
X1126855Y515113D01*
X1130189Y515113D01*
X1133270Y513837D01*
X1135629Y511478D01*
X1136905Y508397D01*
X1136905Y505063D01*
X1135629Y501982D01*
X1133270Y499623D01*
X1132295Y499219D01*
X1132195Y499158D01*
X1132095Y499098D01*
X1132091Y499093D01*
X1132086Y499090D01*
X1132011Y499000D01*
X1131935Y498911D01*
X1131933Y498905D01*
X1131929Y498900D01*
X1131887Y498792D01*
X1131843Y498683D01*
X1131842Y498675D01*
X1131841Y498671D01*
X1131840Y498652D01*
X1131825Y498516D01*
X1131825Y493696D01*
X1130411Y492282D01*
X1123920Y485791D01*
X1122506Y484377D01*
X843962Y484377D01*
G37*
%LPD*%
%LPC*%
G36*
X823833Y93217D02*
X823833Y93217D01*
X820752Y94493D01*
X818393Y96852D01*
X817463Y99097D01*
X817401Y99197D01*
X817342Y99297D01*
X817337Y99301D01*
X817334Y99306D01*
X817243Y99381D01*
X817155Y99457D01*
X817149Y99459D01*
X817144Y99463D01*
X817036Y99505D01*
X816927Y99549D01*
X816919Y99550D01*
X816915Y99551D01*
X816896Y99552D01*
X816760Y99567D01*
X799258Y99567D01*
X785367Y113458D01*
X785367Y189343D01*
X785353Y189433D01*
X785345Y189524D01*
X785333Y189553D01*
X785328Y189585D01*
X785285Y189666D01*
X785249Y189750D01*
X785223Y189782D01*
X785212Y189803D01*
X785189Y189825D01*
X785144Y189881D01*
X767731Y207294D01*
X767657Y207347D01*
X767588Y207407D01*
X767557Y207419D01*
X767531Y207438D01*
X767444Y207465D01*
X767359Y207499D01*
X767318Y207503D01*
X767296Y207510D01*
X767264Y207509D01*
X767193Y207517D01*
X758040Y207517D01*
X757925Y207498D01*
X757809Y207481D01*
X757803Y207479D01*
X757797Y207478D01*
X757695Y207423D01*
X757590Y207370D01*
X757585Y207365D01*
X757580Y207362D01*
X757500Y207278D01*
X757418Y207194D01*
X757414Y207188D01*
X757411Y207184D01*
X757403Y207167D01*
X757337Y207047D01*
X756407Y204802D01*
X754048Y202443D01*
X750967Y201167D01*
X747633Y201167D01*
X744552Y202443D01*
X742193Y204802D01*
X740917Y207883D01*
X740917Y211217D01*
X742193Y214298D01*
X744552Y216657D01*
X747633Y217933D01*
X750967Y217933D01*
X754048Y216657D01*
X756407Y214298D01*
X757337Y212053D01*
X757399Y211952D01*
X757458Y211853D01*
X757463Y211849D01*
X757466Y211844D01*
X757557Y211769D01*
X757645Y211693D01*
X757651Y211691D01*
X757656Y211687D01*
X757764Y211645D01*
X757873Y211601D01*
X757881Y211600D01*
X757885Y211599D01*
X757904Y211598D01*
X758040Y211583D01*
X769192Y211583D01*
X770606Y210169D01*
X788019Y192756D01*
X789433Y191342D01*
X789433Y115457D01*
X789436Y115438D01*
X789434Y115419D01*
X789449Y115350D01*
X789455Y115276D01*
X789467Y115247D01*
X789472Y115215D01*
X789482Y115196D01*
X789486Y115179D01*
X789520Y115121D01*
X789551Y115050D01*
X789577Y115018D01*
X789588Y114997D01*
X789604Y114981D01*
X789612Y114968D01*
X789626Y114956D01*
X789656Y114919D01*
X800719Y103856D01*
X800793Y103803D01*
X800862Y103743D01*
X800893Y103731D01*
X800919Y103712D01*
X801006Y103685D01*
X801091Y103651D01*
X801132Y103647D01*
X801154Y103640D01*
X801186Y103641D01*
X801257Y103633D01*
X816760Y103633D01*
X816875Y103652D01*
X816991Y103669D01*
X816997Y103671D01*
X817003Y103672D01*
X817105Y103727D01*
X817210Y103780D01*
X817215Y103785D01*
X817220Y103788D01*
X817300Y103872D01*
X817382Y103956D01*
X817386Y103962D01*
X817389Y103966D01*
X817397Y103983D01*
X817463Y104103D01*
X818393Y106348D01*
X820752Y108707D01*
X822997Y109637D01*
X823097Y109699D01*
X823197Y109758D01*
X823201Y109763D01*
X823206Y109766D01*
X823281Y109857D01*
X823357Y109945D01*
X823359Y109951D01*
X823363Y109956D01*
X823405Y110064D01*
X823449Y110173D01*
X823450Y110181D01*
X823451Y110185D01*
X823452Y110204D01*
X823467Y110340D01*
X823467Y143660D01*
X823448Y143775D01*
X823431Y143891D01*
X823429Y143896D01*
X823428Y143903D01*
X823373Y144005D01*
X823320Y144110D01*
X823315Y144115D01*
X823312Y144120D01*
X823228Y144200D01*
X823144Y144282D01*
X823138Y144286D01*
X823134Y144289D01*
X823117Y144297D01*
X822997Y144363D01*
X820752Y145293D01*
X818393Y147652D01*
X817117Y150733D01*
X817117Y154067D01*
X818393Y157148D01*
X820752Y159507D01*
X823833Y160783D01*
X827167Y160783D01*
X830248Y159507D01*
X832607Y157148D01*
X833883Y154067D01*
X833883Y150733D01*
X832607Y147652D01*
X830248Y145293D01*
X828003Y144363D01*
X827903Y144302D01*
X827803Y144242D01*
X827799Y144237D01*
X827794Y144234D01*
X827719Y144144D01*
X827643Y144055D01*
X827641Y144049D01*
X827637Y144044D01*
X827595Y143936D01*
X827551Y143827D01*
X827550Y143819D01*
X827549Y143815D01*
X827548Y143796D01*
X827533Y143660D01*
X827533Y110340D01*
X827552Y110225D01*
X827569Y110109D01*
X827571Y110103D01*
X827572Y110097D01*
X827627Y109995D01*
X827680Y109890D01*
X827685Y109885D01*
X827688Y109880D01*
X827772Y109800D01*
X827856Y109718D01*
X827862Y109714D01*
X827866Y109711D01*
X827883Y109703D01*
X828003Y109637D01*
X830248Y108707D01*
X832607Y106348D01*
X833883Y103267D01*
X833883Y99933D01*
X832607Y96852D01*
X830248Y94493D01*
X827167Y93217D01*
X823833Y93217D01*
G37*
%LPD*%
%LPC*%
G36*
X973693Y16509D02*
X973693Y16509D01*
X970612Y17785D01*
X968253Y20144D01*
X966977Y23225D01*
X966977Y26559D01*
X968253Y29640D01*
X970612Y31999D01*
X972857Y32929D01*
X972957Y32990D01*
X973057Y33050D01*
X973061Y33055D01*
X973066Y33058D01*
X973141Y33148D01*
X973217Y33237D01*
X973219Y33243D01*
X973223Y33248D01*
X973265Y33356D01*
X973309Y33465D01*
X973310Y33473D01*
X973311Y33477D01*
X973312Y33496D01*
X973327Y33632D01*
X973327Y37164D01*
X979852Y43689D01*
X1176387Y43689D01*
X1176477Y43703D01*
X1176568Y43711D01*
X1176597Y43723D01*
X1176629Y43728D01*
X1176710Y43771D01*
X1176794Y43807D01*
X1176826Y43833D01*
X1176847Y43844D01*
X1176869Y43867D01*
X1176925Y43912D01*
X1196596Y63583D01*
X1196664Y63677D01*
X1196734Y63772D01*
X1196736Y63778D01*
X1196740Y63783D01*
X1196774Y63894D01*
X1196811Y64006D01*
X1196811Y64012D01*
X1196812Y64018D01*
X1196809Y64135D01*
X1196808Y64252D01*
X1196806Y64259D01*
X1196806Y64264D01*
X1196800Y64281D01*
X1196762Y64413D01*
X1195831Y66659D01*
X1195831Y69993D01*
X1197107Y73074D01*
X1199466Y75433D01*
X1202547Y76709D01*
X1205881Y76709D01*
X1208962Y75433D01*
X1211321Y73074D01*
X1212597Y69993D01*
X1212597Y66659D01*
X1211321Y63578D01*
X1208962Y61219D01*
X1205881Y59943D01*
X1202547Y59943D01*
X1200301Y60874D01*
X1200187Y60900D01*
X1200074Y60929D01*
X1200067Y60928D01*
X1200061Y60930D01*
X1199945Y60919D01*
X1199828Y60910D01*
X1199823Y60907D01*
X1199816Y60907D01*
X1199709Y60859D01*
X1199602Y60813D01*
X1199596Y60809D01*
X1199592Y60807D01*
X1199578Y60794D01*
X1199471Y60708D01*
X1179800Y41037D01*
X1178386Y39623D01*
X981851Y39623D01*
X981761Y39609D01*
X981670Y39601D01*
X981641Y39589D01*
X981609Y39584D01*
X981528Y39541D01*
X981444Y39505D01*
X981412Y39479D01*
X981391Y39468D01*
X981369Y39445D01*
X981313Y39400D01*
X977616Y35703D01*
X977563Y35629D01*
X977503Y35560D01*
X977491Y35529D01*
X977472Y35503D01*
X977445Y35416D01*
X977411Y35331D01*
X977407Y35290D01*
X977400Y35268D01*
X977401Y35236D01*
X977393Y35165D01*
X977393Y33632D01*
X977412Y33517D01*
X977429Y33401D01*
X977431Y33396D01*
X977432Y33389D01*
X977487Y33287D01*
X977540Y33182D01*
X977545Y33177D01*
X977548Y33172D01*
X977632Y33092D01*
X977716Y33010D01*
X977722Y33006D01*
X977726Y33003D01*
X977743Y32995D01*
X977863Y32929D01*
X980108Y31999D01*
X982467Y29640D01*
X983743Y26559D01*
X983743Y23225D01*
X982467Y20144D01*
X980108Y17785D01*
X977027Y16509D01*
X973693Y16509D01*
G37*
%LPD*%
%LPC*%
G36*
X709308Y426110D02*
X709308Y426110D01*
X706749Y427169D01*
X704791Y429127D01*
X704510Y429805D01*
X704449Y429905D01*
X704389Y430005D01*
X704384Y430009D01*
X704381Y430014D01*
X704291Y430089D01*
X704202Y430165D01*
X704196Y430167D01*
X704191Y430171D01*
X704083Y430213D01*
X703974Y430257D01*
X703966Y430258D01*
X703962Y430259D01*
X703943Y430260D01*
X703807Y430275D01*
X696642Y430275D01*
X673353Y453564D01*
X673353Y491349D01*
X673339Y491439D01*
X673331Y491530D01*
X673319Y491559D01*
X673314Y491591D01*
X673271Y491672D01*
X673235Y491756D01*
X673209Y491788D01*
X673198Y491809D01*
X673175Y491831D01*
X673130Y491887D01*
X659273Y505744D01*
X659199Y505797D01*
X659130Y505857D01*
X659099Y505869D01*
X659073Y505888D01*
X658986Y505915D01*
X658901Y505949D01*
X658860Y505953D01*
X658838Y505960D01*
X658806Y505959D01*
X658735Y505967D01*
X657210Y505967D01*
X657095Y505948D01*
X656979Y505931D01*
X656973Y505929D01*
X656967Y505928D01*
X656864Y505873D01*
X656760Y505820D01*
X656755Y505815D01*
X656750Y505812D01*
X656670Y505728D01*
X656587Y505644D01*
X656584Y505638D01*
X656580Y505634D01*
X656573Y505617D01*
X656507Y505497D01*
X655409Y502849D01*
X652851Y500291D01*
X649509Y498906D01*
X645891Y498906D01*
X642549Y500291D01*
X639991Y502849D01*
X638893Y505497D01*
X638832Y505597D01*
X638772Y505697D01*
X638767Y505701D01*
X638764Y505706D01*
X638674Y505781D01*
X638585Y505857D01*
X638579Y505859D01*
X638574Y505863D01*
X638466Y505905D01*
X638357Y505949D01*
X638349Y505950D01*
X638345Y505951D01*
X638326Y505952D01*
X638190Y505967D01*
X634887Y505967D01*
X634797Y505953D01*
X634706Y505945D01*
X634677Y505933D01*
X634645Y505928D01*
X634564Y505885D01*
X634480Y505849D01*
X634448Y505823D01*
X634427Y505812D01*
X634405Y505789D01*
X634349Y505744D01*
X613124Y484520D01*
X613057Y484425D01*
X612986Y484331D01*
X612985Y484325D01*
X612981Y484320D01*
X612947Y484209D01*
X612910Y484097D01*
X612910Y484091D01*
X612909Y484085D01*
X612912Y483968D01*
X612913Y483851D01*
X612915Y483844D01*
X612915Y483839D01*
X612921Y483822D01*
X612959Y483690D01*
X613258Y482969D01*
X613258Y480200D01*
X612199Y477641D01*
X610241Y475683D01*
X607682Y474624D01*
X604914Y474624D01*
X602355Y475683D01*
X600397Y477641D01*
X599338Y480200D01*
X599338Y482968D01*
X600009Y484588D01*
X600035Y484702D01*
X600064Y484815D01*
X600063Y484821D01*
X600065Y484828D01*
X600054Y484944D01*
X600045Y485060D01*
X600042Y485066D01*
X600042Y485072D01*
X599994Y485180D01*
X599948Y485287D01*
X599944Y485293D01*
X599942Y485297D01*
X599929Y485311D01*
X599844Y485418D01*
X592217Y493044D01*
X592143Y493097D01*
X592074Y493157D01*
X592043Y493169D01*
X592017Y493188D01*
X591930Y493215D01*
X591845Y493249D01*
X591804Y493253D01*
X591782Y493260D01*
X591750Y493259D01*
X591679Y493267D01*
X578700Y493267D01*
X578586Y493248D01*
X578470Y493231D01*
X578464Y493229D01*
X578458Y493228D01*
X578355Y493173D01*
X578250Y493120D01*
X578246Y493115D01*
X578240Y493112D01*
X578160Y493028D01*
X578078Y492944D01*
X578074Y492938D01*
X578071Y492934D01*
X578063Y492917D01*
X577997Y492797D01*
X577401Y491357D01*
X575443Y489399D01*
X572884Y488340D01*
X570116Y488340D01*
X567557Y489399D01*
X565599Y491357D01*
X564540Y493916D01*
X564540Y496684D01*
X565599Y499243D01*
X567557Y501201D01*
X570116Y502260D01*
X572884Y502260D01*
X575443Y501201D01*
X577401Y499243D01*
X577997Y497803D01*
X578059Y497703D01*
X578119Y497603D01*
X578123Y497599D01*
X578127Y497594D01*
X578217Y497519D01*
X578306Y497443D01*
X578311Y497441D01*
X578316Y497437D01*
X578425Y497395D01*
X578534Y497351D01*
X578541Y497350D01*
X578546Y497349D01*
X578564Y497348D01*
X578700Y497333D01*
X593678Y497333D01*
X602823Y488187D01*
X602917Y488120D01*
X603012Y488049D01*
X603018Y488047D01*
X603023Y488044D01*
X603134Y488010D01*
X603246Y487973D01*
X603252Y487973D01*
X603258Y487971D01*
X603375Y487974D01*
X603492Y487976D01*
X603499Y487978D01*
X603504Y487978D01*
X603522Y487984D01*
X603653Y488022D01*
X604914Y488544D01*
X607682Y488544D01*
X609841Y487650D01*
X609954Y487624D01*
X610068Y487595D01*
X610074Y487596D01*
X610080Y487594D01*
X610197Y487605D01*
X610313Y487614D01*
X610319Y487617D01*
X610325Y487617D01*
X610433Y487665D01*
X610540Y487710D01*
X610545Y487715D01*
X610550Y487717D01*
X610564Y487730D01*
X610671Y487815D01*
X631474Y508619D01*
X632888Y510033D01*
X638190Y510033D01*
X638305Y510052D01*
X638421Y510069D01*
X638427Y510071D01*
X638433Y510072D01*
X638536Y510127D01*
X638640Y510180D01*
X638645Y510185D01*
X638650Y510188D01*
X638730Y510272D01*
X638813Y510356D01*
X638816Y510362D01*
X638820Y510366D01*
X638827Y510383D01*
X638893Y510503D01*
X639991Y513151D01*
X642549Y515709D01*
X645891Y517094D01*
X649509Y517094D01*
X652851Y515709D01*
X655409Y513151D01*
X656507Y510503D01*
X656568Y510403D01*
X656628Y510303D01*
X656633Y510299D01*
X656636Y510294D01*
X656726Y510219D01*
X656815Y510143D01*
X656821Y510141D01*
X656826Y510137D01*
X656934Y510095D01*
X657043Y510051D01*
X657051Y510050D01*
X657055Y510049D01*
X657074Y510048D01*
X657210Y510033D01*
X660734Y510033D01*
X677419Y493348D01*
X677419Y455563D01*
X677433Y455473D01*
X677441Y455382D01*
X677453Y455353D01*
X677458Y455321D01*
X677501Y455240D01*
X677537Y455156D01*
X677563Y455124D01*
X677574Y455103D01*
X677597Y455081D01*
X677642Y455025D01*
X698103Y434564D01*
X698177Y434511D01*
X698246Y434451D01*
X698277Y434439D01*
X698303Y434420D01*
X698390Y434393D01*
X698475Y434359D01*
X698516Y434355D01*
X698538Y434348D01*
X698570Y434349D01*
X698641Y434341D01*
X703176Y434341D01*
X703291Y434360D01*
X703407Y434377D01*
X703412Y434379D01*
X703419Y434380D01*
X703521Y434435D01*
X703626Y434488D01*
X703631Y434493D01*
X703636Y434496D01*
X703716Y434580D01*
X703798Y434664D01*
X703802Y434670D01*
X703805Y434674D01*
X703813Y434691D01*
X703879Y434811D01*
X704791Y437013D01*
X706749Y438971D01*
X709308Y440030D01*
X712076Y440030D01*
X714635Y438971D01*
X716593Y437013D01*
X717652Y434454D01*
X717652Y431686D01*
X716593Y429127D01*
X714635Y427169D01*
X712076Y426110D01*
X709308Y426110D01*
G37*
%LPD*%
%LPC*%
G36*
X1123352Y229361D02*
X1123352Y229361D01*
X1119431Y230985D01*
X1116429Y233987D01*
X1114805Y237908D01*
X1114805Y242152D01*
X1116429Y246073D01*
X1119431Y249075D01*
X1123352Y250699D01*
X1127596Y250699D01*
X1131517Y249075D01*
X1134519Y246073D01*
X1135985Y242533D01*
X1136047Y242433D01*
X1136107Y242333D01*
X1136111Y242329D01*
X1136115Y242324D01*
X1136205Y242249D01*
X1136294Y242173D01*
X1136299Y242171D01*
X1136304Y242167D01*
X1136413Y242125D01*
X1136522Y242081D01*
X1136529Y242080D01*
X1136534Y242079D01*
X1136552Y242078D01*
X1136688Y242063D01*
X1141335Y242063D01*
X1141425Y242077D01*
X1141516Y242085D01*
X1141545Y242097D01*
X1141577Y242102D01*
X1141658Y242145D01*
X1141742Y242181D01*
X1141774Y242207D01*
X1141795Y242218D01*
X1141817Y242241D01*
X1141873Y242286D01*
X1171876Y272289D01*
X1177948Y272289D01*
X1178063Y272308D01*
X1178179Y272325D01*
X1178185Y272327D01*
X1178191Y272328D01*
X1178293Y272383D01*
X1178398Y272436D01*
X1178403Y272441D01*
X1178408Y272444D01*
X1178488Y272528D01*
X1178570Y272612D01*
X1178574Y272618D01*
X1178577Y272622D01*
X1178585Y272639D01*
X1178651Y272759D01*
X1179581Y275004D01*
X1181940Y277363D01*
X1185021Y278639D01*
X1188355Y278639D01*
X1191436Y277363D01*
X1193795Y275004D01*
X1195071Y271923D01*
X1195071Y268589D01*
X1193795Y265508D01*
X1191436Y263149D01*
X1188355Y261873D01*
X1185021Y261873D01*
X1181940Y263149D01*
X1179581Y265508D01*
X1178651Y267753D01*
X1178589Y267853D01*
X1178530Y267953D01*
X1178525Y267957D01*
X1178522Y267962D01*
X1178431Y268037D01*
X1178343Y268113D01*
X1178337Y268115D01*
X1178332Y268119D01*
X1178224Y268161D01*
X1178115Y268205D01*
X1178107Y268206D01*
X1178103Y268207D01*
X1178084Y268208D01*
X1177948Y268223D01*
X1173875Y268223D01*
X1173785Y268209D01*
X1173694Y268201D01*
X1173665Y268189D01*
X1173633Y268184D01*
X1173552Y268141D01*
X1173468Y268105D01*
X1173436Y268079D01*
X1173415Y268068D01*
X1173393Y268045D01*
X1173337Y268000D01*
X1143334Y237997D01*
X1136688Y237997D01*
X1136574Y237978D01*
X1136457Y237961D01*
X1136452Y237959D01*
X1136446Y237958D01*
X1136343Y237903D01*
X1136238Y237850D01*
X1136234Y237845D01*
X1136228Y237842D01*
X1136148Y237758D01*
X1136066Y237674D01*
X1136062Y237668D01*
X1136059Y237664D01*
X1136051Y237647D01*
X1135985Y237527D01*
X1134519Y233987D01*
X1131517Y230985D01*
X1127596Y229361D01*
X1123352Y229361D01*
G37*
%LPD*%
%LPC*%
G36*
X885076Y216052D02*
X885076Y216052D01*
X882517Y217111D01*
X880559Y219069D01*
X879500Y221628D01*
X879500Y224396D01*
X880559Y226955D01*
X882517Y228913D01*
X885076Y229972D01*
X887844Y229972D01*
X890403Y228913D01*
X892327Y226988D01*
X892343Y226977D01*
X892356Y226961D01*
X892443Y226905D01*
X892527Y226845D01*
X892546Y226839D01*
X892563Y226828D01*
X892663Y226803D01*
X892762Y226772D01*
X892782Y226773D01*
X892801Y226768D01*
X892904Y226776D01*
X893008Y226779D01*
X893027Y226786D01*
X893046Y226787D01*
X893141Y226828D01*
X893239Y226863D01*
X893254Y226876D01*
X893273Y226884D01*
X893404Y226988D01*
X941100Y274685D01*
X941153Y274759D01*
X941213Y274828D01*
X941225Y274859D01*
X941244Y274885D01*
X941271Y274972D01*
X941305Y275057D01*
X941309Y275098D01*
X941316Y275120D01*
X941315Y275152D01*
X941323Y275223D01*
X941323Y288202D01*
X941304Y288316D01*
X941287Y288432D01*
X941285Y288438D01*
X941284Y288444D01*
X941229Y288547D01*
X941176Y288652D01*
X941171Y288656D01*
X941168Y288662D01*
X941084Y288742D01*
X941000Y288824D01*
X940994Y288828D01*
X940990Y288831D01*
X940973Y288839D01*
X940853Y288905D01*
X939413Y289501D01*
X937455Y291459D01*
X936396Y294018D01*
X936396Y296786D01*
X937455Y299345D01*
X939413Y301303D01*
X941972Y302362D01*
X944740Y302362D01*
X947299Y301303D01*
X949257Y299345D01*
X950316Y296786D01*
X950316Y294018D01*
X949257Y291459D01*
X947299Y289501D01*
X945859Y288905D01*
X945759Y288843D01*
X945659Y288783D01*
X945655Y288779D01*
X945650Y288775D01*
X945575Y288685D01*
X945499Y288596D01*
X945497Y288591D01*
X945493Y288586D01*
X945451Y288477D01*
X945407Y288368D01*
X945406Y288361D01*
X945405Y288356D01*
X945404Y288338D01*
X945389Y288202D01*
X945389Y273224D01*
X893264Y221100D01*
X893226Y221047D01*
X893180Y221000D01*
X893140Y220927D01*
X893121Y220900D01*
X893115Y220881D01*
X893099Y220853D01*
X892361Y219069D01*
X890403Y217111D01*
X887844Y216052D01*
X885076Y216052D01*
G37*
%LPD*%
%LPC*%
G36*
X837578Y374802D02*
X837578Y374802D01*
X835019Y375861D01*
X833061Y377819D01*
X832002Y380378D01*
X832002Y383146D01*
X833061Y385705D01*
X835019Y387663D01*
X836459Y388259D01*
X836559Y388321D01*
X836659Y388381D01*
X836663Y388385D01*
X836668Y388389D01*
X836743Y388479D01*
X836819Y388568D01*
X836821Y388573D01*
X836825Y388578D01*
X836867Y388687D01*
X836911Y388796D01*
X836912Y388803D01*
X836913Y388808D01*
X836914Y388826D01*
X836929Y388962D01*
X836929Y398639D01*
X836923Y398680D01*
X836923Y398683D01*
X836919Y398702D01*
X836915Y398729D01*
X836907Y398820D01*
X836895Y398849D01*
X836890Y398881D01*
X836873Y398912D01*
X836871Y398924D01*
X836844Y398968D01*
X836811Y399046D01*
X836785Y399078D01*
X836774Y399099D01*
X836755Y399117D01*
X836745Y399135D01*
X836730Y399147D01*
X836706Y399177D01*
X805069Y430814D01*
X804995Y430867D01*
X804926Y430927D01*
X804895Y430939D01*
X804869Y430958D01*
X804782Y430985D01*
X804697Y431019D01*
X804656Y431023D01*
X804634Y431030D01*
X804602Y431029D01*
X804531Y431037D01*
X794092Y431037D01*
X793978Y431018D01*
X793862Y431001D01*
X793856Y430999D01*
X793850Y430998D01*
X793747Y430943D01*
X793642Y430890D01*
X793638Y430885D01*
X793632Y430882D01*
X793552Y430798D01*
X793470Y430714D01*
X793466Y430708D01*
X793463Y430704D01*
X793455Y430687D01*
X793389Y430567D01*
X792793Y429127D01*
X790835Y427169D01*
X788276Y426110D01*
X785508Y426110D01*
X782949Y427169D01*
X780991Y429127D01*
X779932Y431686D01*
X779932Y434454D01*
X780991Y437013D01*
X782949Y438971D01*
X785508Y440030D01*
X788276Y440030D01*
X790835Y438971D01*
X792793Y437013D01*
X793389Y435573D01*
X793451Y435473D01*
X793511Y435373D01*
X793515Y435369D01*
X793519Y435364D01*
X793609Y435289D01*
X793698Y435213D01*
X793703Y435211D01*
X793708Y435207D01*
X793817Y435165D01*
X793926Y435121D01*
X793933Y435120D01*
X793938Y435119D01*
X793956Y435118D01*
X794092Y435103D01*
X806530Y435103D01*
X840995Y400638D01*
X840995Y388962D01*
X841014Y388848D01*
X841031Y388732D01*
X841033Y388726D01*
X841034Y388720D01*
X841089Y388617D01*
X841142Y388512D01*
X841147Y388508D01*
X841150Y388502D01*
X841234Y388422D01*
X841318Y388340D01*
X841324Y388336D01*
X841328Y388333D01*
X841345Y388325D01*
X841465Y388259D01*
X842905Y387663D01*
X844863Y385705D01*
X845922Y383146D01*
X845922Y380378D01*
X844863Y377819D01*
X842905Y375861D01*
X840346Y374802D01*
X837578Y374802D01*
G37*
%LPD*%
%LPC*%
G36*
X970952Y330961D02*
X970952Y330961D01*
X967031Y332585D01*
X964029Y335587D01*
X962405Y339508D01*
X962405Y343752D01*
X964029Y347673D01*
X967031Y350675D01*
X970952Y352299D01*
X975196Y352299D01*
X979117Y350675D01*
X982119Y347673D01*
X983743Y343752D01*
X983743Y339508D01*
X982119Y335587D01*
X979117Y332585D01*
X975196Y330961D01*
X970952Y330961D01*
G37*
%LPD*%
%LPC*%
G36*
X1123352Y330961D02*
X1123352Y330961D01*
X1119431Y332585D01*
X1116429Y335587D01*
X1114805Y339508D01*
X1114805Y343752D01*
X1116429Y347673D01*
X1119431Y350675D01*
X1123352Y352299D01*
X1127596Y352299D01*
X1131517Y350675D01*
X1134519Y347673D01*
X1136143Y343752D01*
X1136143Y339508D01*
X1134519Y335587D01*
X1131517Y332585D01*
X1127596Y330961D01*
X1123352Y330961D01*
G37*
%LPD*%
%LPC*%
G36*
X1123352Y178561D02*
X1123352Y178561D01*
X1119431Y180185D01*
X1116429Y183187D01*
X1114805Y187108D01*
X1114805Y191352D01*
X1116429Y195273D01*
X1119431Y198275D01*
X1123352Y199899D01*
X1127596Y199899D01*
X1131517Y198275D01*
X1134519Y195273D01*
X1136143Y191352D01*
X1136143Y187108D01*
X1134519Y183187D01*
X1131517Y180185D01*
X1127596Y178561D01*
X1123352Y178561D01*
G37*
%LPD*%
%LPC*%
G36*
X1059852Y407161D02*
X1059852Y407161D01*
X1055931Y408785D01*
X1052929Y411787D01*
X1051305Y415708D01*
X1051305Y419952D01*
X1052929Y423873D01*
X1055931Y426875D01*
X1059852Y428499D01*
X1064096Y428499D01*
X1068017Y426875D01*
X1071019Y423873D01*
X1072643Y419952D01*
X1072643Y415708D01*
X1071019Y411787D01*
X1068017Y408785D01*
X1064096Y407161D01*
X1059852Y407161D01*
G37*
%LPD*%
%LPC*%
G36*
X970952Y178561D02*
X970952Y178561D01*
X967031Y180185D01*
X964029Y183187D01*
X962405Y187108D01*
X962405Y191352D01*
X964029Y195273D01*
X967031Y198275D01*
X970952Y199899D01*
X975196Y199899D01*
X979117Y198275D01*
X982119Y195273D01*
X983743Y191352D01*
X983743Y187108D01*
X982119Y183187D01*
X979117Y180185D01*
X975196Y178561D01*
X970952Y178561D01*
G37*
%LPD*%
%LPC*%
G36*
X1085252Y407161D02*
X1085252Y407161D01*
X1081331Y408785D01*
X1078329Y411787D01*
X1076705Y415708D01*
X1076705Y419952D01*
X1078329Y423873D01*
X1081331Y426875D01*
X1085252Y428499D01*
X1089496Y428499D01*
X1093417Y426875D01*
X1096419Y423873D01*
X1098043Y419952D01*
X1098043Y415708D01*
X1096419Y411787D01*
X1093417Y408785D01*
X1089496Y407161D01*
X1085252Y407161D01*
G37*
%LPD*%
%LPC*%
G36*
X1094777Y164274D02*
X1094777Y164274D01*
X1090856Y165898D01*
X1087854Y168899D01*
X1086230Y172820D01*
X1086230Y177065D01*
X1087854Y180986D01*
X1090856Y183987D01*
X1094777Y185611D01*
X1099021Y185611D01*
X1102942Y183987D01*
X1105944Y180986D01*
X1107568Y177065D01*
X1107568Y172820D01*
X1105944Y168899D01*
X1102942Y165898D01*
X1099021Y164274D01*
X1094777Y164274D01*
G37*
%LPD*%
%LPC*%
G36*
X1123352Y153161D02*
X1123352Y153161D01*
X1119431Y154785D01*
X1116429Y157787D01*
X1114805Y161708D01*
X1114805Y165952D01*
X1116429Y169873D01*
X1119431Y172875D01*
X1123352Y174499D01*
X1127596Y174499D01*
X1131517Y172875D01*
X1134519Y169873D01*
X1136143Y165952D01*
X1136143Y161708D01*
X1134519Y157787D01*
X1131517Y154785D01*
X1127596Y153161D01*
X1123352Y153161D01*
G37*
%LPD*%
%LPC*%
G36*
X1123352Y280161D02*
X1123352Y280161D01*
X1119431Y281785D01*
X1116429Y284787D01*
X1114805Y288708D01*
X1114805Y292952D01*
X1116429Y296873D01*
X1119431Y299875D01*
X1123352Y301499D01*
X1127596Y301499D01*
X1131517Y299875D01*
X1134519Y296873D01*
X1136143Y292952D01*
X1136143Y288708D01*
X1134519Y284787D01*
X1131517Y281785D01*
X1127596Y280161D01*
X1123352Y280161D01*
G37*
%LPD*%
%LPC*%
G36*
X970952Y280161D02*
X970952Y280161D01*
X967031Y281785D01*
X964029Y284787D01*
X962405Y288708D01*
X962405Y292952D01*
X964029Y296873D01*
X967031Y299875D01*
X970952Y301499D01*
X975196Y301499D01*
X979117Y299875D01*
X982119Y296873D01*
X983743Y292952D01*
X983743Y288708D01*
X982119Y284787D01*
X979117Y281785D01*
X975196Y280161D01*
X970952Y280161D01*
G37*
%LPD*%
%LPC*%
G36*
X970952Y153161D02*
X970952Y153161D01*
X967031Y154785D01*
X964029Y157787D01*
X962405Y161708D01*
X962405Y165952D01*
X964029Y169873D01*
X967031Y172875D01*
X970952Y174499D01*
X975196Y174499D01*
X979117Y172875D01*
X982119Y169873D01*
X983743Y165952D01*
X983743Y161708D01*
X982119Y157787D01*
X979117Y154785D01*
X975196Y153161D01*
X970952Y153161D01*
G37*
%LPD*%
%LPC*%
G36*
X1123352Y127761D02*
X1123352Y127761D01*
X1119431Y129385D01*
X1116429Y132387D01*
X1114805Y136308D01*
X1114805Y140552D01*
X1116429Y144473D01*
X1119431Y147475D01*
X1123352Y149099D01*
X1127596Y149099D01*
X1131517Y147475D01*
X1134519Y144473D01*
X1136143Y140552D01*
X1136143Y136308D01*
X1134519Y132387D01*
X1131517Y129385D01*
X1127596Y127761D01*
X1123352Y127761D01*
G37*
%LPD*%
%LPC*%
G36*
X970952Y203961D02*
X970952Y203961D01*
X967031Y205585D01*
X964029Y208587D01*
X962405Y212508D01*
X962405Y216752D01*
X964029Y220673D01*
X967031Y223675D01*
X970952Y225299D01*
X975196Y225299D01*
X979117Y223675D01*
X982119Y220673D01*
X983743Y216752D01*
X983743Y212508D01*
X982119Y208587D01*
X979117Y205585D01*
X975196Y203961D01*
X970952Y203961D01*
G37*
%LPD*%
%LPC*%
G36*
X970952Y127761D02*
X970952Y127761D01*
X967031Y129385D01*
X964029Y132387D01*
X962405Y136308D01*
X962405Y140552D01*
X964029Y144473D01*
X967031Y147475D01*
X970952Y149099D01*
X975196Y149099D01*
X979117Y147475D01*
X982119Y144473D01*
X983743Y140552D01*
X983743Y136308D01*
X982119Y132387D01*
X979117Y129385D01*
X975196Y127761D01*
X970952Y127761D01*
G37*
%LPD*%
%LPC*%
G36*
X970952Y229361D02*
X970952Y229361D01*
X967031Y230985D01*
X964029Y233987D01*
X962405Y237908D01*
X962405Y242152D01*
X964029Y246073D01*
X967031Y249075D01*
X970952Y250699D01*
X975196Y250699D01*
X979117Y249075D01*
X982119Y246073D01*
X983743Y242152D01*
X983743Y237908D01*
X982119Y233987D01*
X979117Y230985D01*
X975196Y229361D01*
X970952Y229361D01*
G37*
%LPD*%
%LPC*%
G36*
X1123352Y102361D02*
X1123352Y102361D01*
X1119431Y103985D01*
X1116429Y106987D01*
X1114805Y110908D01*
X1114805Y115152D01*
X1116429Y119073D01*
X1119431Y122075D01*
X1123352Y123699D01*
X1127596Y123699D01*
X1131517Y122075D01*
X1134519Y119073D01*
X1136143Y115152D01*
X1136143Y110908D01*
X1134519Y106987D01*
X1131517Y103985D01*
X1127596Y102361D01*
X1123352Y102361D01*
G37*
%LPD*%
%LPC*%
G36*
X970952Y356361D02*
X970952Y356361D01*
X967031Y357985D01*
X964029Y360987D01*
X962405Y364908D01*
X962405Y369152D01*
X964029Y373073D01*
X967031Y376075D01*
X970952Y377699D01*
X975196Y377699D01*
X979117Y376075D01*
X982119Y373073D01*
X983743Y369152D01*
X983743Y364908D01*
X982119Y360987D01*
X979117Y357985D01*
X975196Y356361D01*
X970952Y356361D01*
G37*
%LPD*%
%LPC*%
G36*
X970952Y102361D02*
X970952Y102361D01*
X967031Y103985D01*
X964029Y106987D01*
X962405Y110908D01*
X962405Y115152D01*
X964029Y119073D01*
X967031Y122075D01*
X970952Y123699D01*
X975196Y123699D01*
X979117Y122075D01*
X982119Y119073D01*
X983743Y115152D01*
X983743Y110908D01*
X982119Y106987D01*
X979117Y103985D01*
X975196Y102361D01*
X970952Y102361D01*
G37*
%LPD*%
%LPC*%
G36*
X1123352Y254761D02*
X1123352Y254761D01*
X1119431Y256385D01*
X1116429Y259387D01*
X1114805Y263308D01*
X1114805Y267552D01*
X1116429Y271473D01*
X1119431Y274475D01*
X1123352Y276099D01*
X1127596Y276099D01*
X1131517Y274475D01*
X1134519Y271473D01*
X1136143Y267552D01*
X1136143Y263308D01*
X1134519Y259387D01*
X1131517Y256385D01*
X1127596Y254761D01*
X1123352Y254761D01*
G37*
%LPD*%
%LPC*%
G36*
X805291Y499109D02*
X805291Y499109D01*
X802210Y500385D01*
X799851Y502744D01*
X798575Y505825D01*
X798575Y509159D01*
X799851Y512240D01*
X802210Y514599D01*
X805291Y515875D01*
X808625Y515875D01*
X811706Y514599D01*
X814065Y512240D01*
X815341Y509159D01*
X815341Y505825D01*
X814065Y502744D01*
X811706Y500385D01*
X808625Y499109D01*
X805291Y499109D01*
G37*
%LPD*%
%LPC*%
G36*
X906891Y499109D02*
X906891Y499109D01*
X903810Y500385D01*
X901451Y502744D01*
X900175Y505825D01*
X900175Y509159D01*
X901451Y512240D01*
X903810Y514599D01*
X906891Y515875D01*
X910225Y515875D01*
X913306Y514599D01*
X915665Y512240D01*
X916941Y509159D01*
X916941Y505825D01*
X915665Y502744D01*
X913306Y500385D01*
X910225Y499109D01*
X906891Y499109D01*
G37*
%LPD*%
%LPC*%
G36*
X932291Y499109D02*
X932291Y499109D01*
X929210Y500385D01*
X926851Y502744D01*
X925575Y505825D01*
X925575Y509159D01*
X926851Y512240D01*
X929210Y514599D01*
X932291Y515875D01*
X935625Y515875D01*
X938706Y514599D01*
X941065Y512240D01*
X942341Y509159D01*
X942341Y505825D01*
X941065Y502744D01*
X938706Y500385D01*
X935625Y499109D01*
X932291Y499109D01*
G37*
%LPD*%
%LPC*%
G36*
X957691Y499109D02*
X957691Y499109D01*
X954610Y500385D01*
X952251Y502744D01*
X950975Y505825D01*
X950975Y509159D01*
X952251Y512240D01*
X954610Y514599D01*
X957691Y515875D01*
X961025Y515875D01*
X964106Y514599D01*
X966465Y512240D01*
X967741Y509159D01*
X967741Y505825D01*
X966465Y502744D01*
X964106Y500385D01*
X961025Y499109D01*
X957691Y499109D01*
G37*
%LPD*%
%LPC*%
G36*
X779891Y499109D02*
X779891Y499109D01*
X776810Y500385D01*
X774451Y502744D01*
X773175Y505825D01*
X773175Y509159D01*
X774451Y512240D01*
X776810Y514599D01*
X779891Y515875D01*
X783225Y515875D01*
X786306Y514599D01*
X788665Y512240D01*
X789941Y509159D01*
X789941Y505825D01*
X788665Y502744D01*
X786306Y500385D01*
X783225Y499109D01*
X779891Y499109D01*
G37*
%LPD*%
%LPC*%
G36*
X856091Y499109D02*
X856091Y499109D01*
X853010Y500385D01*
X850651Y502744D01*
X849375Y505825D01*
X849375Y509159D01*
X850651Y512240D01*
X853010Y514599D01*
X856091Y515875D01*
X859425Y515875D01*
X862506Y514599D01*
X864865Y512240D01*
X866141Y509159D01*
X866141Y505825D01*
X864865Y502744D01*
X862506Y500385D01*
X859425Y499109D01*
X856091Y499109D01*
G37*
%LPD*%
%LPC*%
G36*
X881491Y499109D02*
X881491Y499109D01*
X878410Y500385D01*
X876051Y502744D01*
X874775Y505825D01*
X874775Y509159D01*
X876051Y512240D01*
X878410Y514599D01*
X881491Y515875D01*
X884825Y515875D01*
X887906Y514599D01*
X890265Y512240D01*
X891541Y509159D01*
X891541Y505825D01*
X890265Y502744D01*
X887906Y500385D01*
X884825Y499109D01*
X881491Y499109D01*
G37*
%LPD*%
%LPC*%
G36*
X1101455Y498347D02*
X1101455Y498347D01*
X1098374Y499623D01*
X1096015Y501982D01*
X1094739Y505063D01*
X1094739Y508397D01*
X1096015Y511478D01*
X1098374Y513837D01*
X1101455Y515113D01*
X1104789Y515113D01*
X1107870Y513837D01*
X1110229Y511478D01*
X1111505Y508397D01*
X1111505Y505063D01*
X1110229Y501982D01*
X1107870Y499623D01*
X1104789Y498347D01*
X1101455Y498347D01*
G37*
%LPD*%
%LPC*%
G36*
X1076055Y498347D02*
X1076055Y498347D01*
X1072974Y499623D01*
X1070615Y501982D01*
X1069339Y505063D01*
X1069339Y508397D01*
X1070615Y511478D01*
X1072974Y513837D01*
X1076055Y515113D01*
X1079389Y515113D01*
X1082470Y513837D01*
X1084829Y511478D01*
X1086105Y508397D01*
X1086105Y505063D01*
X1084829Y501982D01*
X1082470Y499623D01*
X1079389Y498347D01*
X1076055Y498347D01*
G37*
%LPD*%
%LPC*%
G36*
X1050655Y498347D02*
X1050655Y498347D01*
X1047574Y499623D01*
X1045215Y501982D01*
X1043939Y505063D01*
X1043939Y508397D01*
X1045215Y511478D01*
X1047574Y513837D01*
X1050655Y515113D01*
X1053989Y515113D01*
X1057070Y513837D01*
X1059429Y511478D01*
X1060705Y508397D01*
X1060705Y505063D01*
X1059429Y501982D01*
X1057070Y499623D01*
X1053989Y498347D01*
X1050655Y498347D01*
G37*
%LPD*%
%LPC*%
G36*
X999855Y498347D02*
X999855Y498347D01*
X996774Y499623D01*
X994415Y501982D01*
X993139Y505063D01*
X993139Y508397D01*
X994415Y511478D01*
X996774Y513837D01*
X999855Y515113D01*
X1003189Y515113D01*
X1006270Y513837D01*
X1008629Y511478D01*
X1009905Y508397D01*
X1009905Y505063D01*
X1008629Y501982D01*
X1006270Y499623D01*
X1003189Y498347D01*
X999855Y498347D01*
G37*
%LPD*%
%LPC*%
G36*
X1025255Y498347D02*
X1025255Y498347D01*
X1022174Y499623D01*
X1019815Y501982D01*
X1018539Y505063D01*
X1018539Y508397D01*
X1019815Y511478D01*
X1022174Y513837D01*
X1025255Y515113D01*
X1028589Y515113D01*
X1031670Y513837D01*
X1034029Y511478D01*
X1035305Y508397D01*
X1035305Y505063D01*
X1034029Y501982D01*
X1031670Y499623D01*
X1028589Y498347D01*
X1025255Y498347D01*
G37*
%LPD*%
%LPC*%
G36*
X1177655Y498347D02*
X1177655Y498347D01*
X1174574Y499623D01*
X1172215Y501982D01*
X1170939Y505063D01*
X1170939Y508397D01*
X1172215Y511478D01*
X1174574Y513837D01*
X1177655Y515113D01*
X1180989Y515113D01*
X1184070Y513837D01*
X1186429Y511478D01*
X1187705Y508397D01*
X1187705Y505063D01*
X1186429Y501982D01*
X1184070Y499623D01*
X1180989Y498347D01*
X1177655Y498347D01*
G37*
%LPD*%
%LPC*%
G36*
X1152255Y498347D02*
X1152255Y498347D01*
X1149174Y499623D01*
X1146815Y501982D01*
X1145539Y505063D01*
X1145539Y508397D01*
X1146815Y511478D01*
X1149174Y513837D01*
X1152255Y515113D01*
X1155589Y515113D01*
X1158670Y513837D01*
X1161029Y511478D01*
X1162305Y508397D01*
X1162305Y505063D01*
X1161029Y501982D01*
X1158670Y499623D01*
X1155589Y498347D01*
X1152255Y498347D01*
G37*
%LPD*%
%LPC*%
G36*
X1100947Y16255D02*
X1100947Y16255D01*
X1097866Y17531D01*
X1095507Y19890D01*
X1094231Y22971D01*
X1094231Y26305D01*
X1095507Y29386D01*
X1097866Y31745D01*
X1100947Y33021D01*
X1104281Y33021D01*
X1107362Y31745D01*
X1109721Y29386D01*
X1110997Y26305D01*
X1110997Y22971D01*
X1109721Y19890D01*
X1107362Y17531D01*
X1104281Y16255D01*
X1100947Y16255D01*
G37*
%LPD*%
%LPC*%
G36*
X999093Y16509D02*
X999093Y16509D01*
X996012Y17785D01*
X993653Y20144D01*
X992377Y23225D01*
X992377Y26559D01*
X993653Y29640D01*
X996012Y31999D01*
X999093Y33275D01*
X1002427Y33275D01*
X1005508Y31999D01*
X1007867Y29640D01*
X1009143Y26559D01*
X1009143Y23225D01*
X1007867Y20144D01*
X1005508Y17785D01*
X1002427Y16509D01*
X999093Y16509D01*
G37*
%LPD*%
%LPC*%
G36*
X948293Y16509D02*
X948293Y16509D01*
X945212Y17785D01*
X942853Y20144D01*
X941577Y23225D01*
X941577Y26559D01*
X942853Y29640D01*
X945212Y31999D01*
X948293Y33275D01*
X951627Y33275D01*
X954708Y31999D01*
X957067Y29640D01*
X958343Y26559D01*
X958343Y23225D01*
X957067Y20144D01*
X954708Y17785D01*
X951627Y16509D01*
X948293Y16509D01*
G37*
%LPD*%
%LPC*%
G36*
X922893Y16509D02*
X922893Y16509D01*
X919812Y17785D01*
X917453Y20144D01*
X916177Y23225D01*
X916177Y26559D01*
X917453Y29640D01*
X919812Y31999D01*
X922893Y33275D01*
X926227Y33275D01*
X929308Y31999D01*
X931667Y29640D01*
X932943Y26559D01*
X932943Y23225D01*
X931667Y20144D01*
X929308Y17785D01*
X926227Y16509D01*
X922893Y16509D01*
G37*
%LPD*%
%LPC*%
G36*
X897493Y16509D02*
X897493Y16509D01*
X894412Y17785D01*
X892053Y20144D01*
X890777Y23225D01*
X890777Y26559D01*
X892053Y29640D01*
X894412Y31999D01*
X897493Y33275D01*
X900827Y33275D01*
X903908Y31999D01*
X906267Y29640D01*
X907543Y26559D01*
X907543Y23225D01*
X906267Y20144D01*
X903908Y17785D01*
X900827Y16509D01*
X897493Y16509D01*
G37*
%LPD*%
%LPC*%
G36*
X1075547Y16255D02*
X1075547Y16255D01*
X1072466Y17531D01*
X1070107Y19890D01*
X1068831Y22971D01*
X1068831Y26305D01*
X1070107Y29386D01*
X1072466Y31745D01*
X1075547Y33021D01*
X1078881Y33021D01*
X1081962Y31745D01*
X1084321Y29386D01*
X1085597Y26305D01*
X1085597Y22971D01*
X1084321Y19890D01*
X1081962Y17531D01*
X1078881Y16255D01*
X1075547Y16255D01*
G37*
%LPD*%
%LPC*%
G36*
X1050147Y16255D02*
X1050147Y16255D01*
X1047066Y17531D01*
X1044707Y19890D01*
X1043431Y22971D01*
X1043431Y26305D01*
X1044707Y29386D01*
X1047066Y31745D01*
X1050147Y33021D01*
X1053481Y33021D01*
X1056562Y31745D01*
X1058921Y29386D01*
X1060197Y26305D01*
X1060197Y22971D01*
X1058921Y19890D01*
X1056562Y17531D01*
X1053481Y16255D01*
X1050147Y16255D01*
G37*
%LPD*%
%LPC*%
G36*
X1202547Y16255D02*
X1202547Y16255D01*
X1199466Y17531D01*
X1197107Y19890D01*
X1195831Y22971D01*
X1195831Y26305D01*
X1197107Y29386D01*
X1199466Y31745D01*
X1202547Y33021D01*
X1205881Y33021D01*
X1208962Y31745D01*
X1211321Y29386D01*
X1212597Y26305D01*
X1212597Y22971D01*
X1211321Y19890D01*
X1208962Y17531D01*
X1205881Y16255D01*
X1202547Y16255D01*
G37*
%LPD*%
%LPC*%
G36*
X1177147Y16255D02*
X1177147Y16255D01*
X1174066Y17531D01*
X1171707Y19890D01*
X1170431Y22971D01*
X1170431Y26305D01*
X1171707Y29386D01*
X1174066Y31745D01*
X1177147Y33021D01*
X1180481Y33021D01*
X1183562Y31745D01*
X1185921Y29386D01*
X1187197Y26305D01*
X1187197Y22971D01*
X1185921Y19890D01*
X1183562Y17531D01*
X1180481Y16255D01*
X1177147Y16255D01*
G37*
%LPD*%
%LPC*%
G36*
X1151747Y16255D02*
X1151747Y16255D01*
X1148666Y17531D01*
X1146307Y19890D01*
X1145031Y22971D01*
X1145031Y26305D01*
X1146307Y29386D01*
X1148666Y31745D01*
X1151747Y33021D01*
X1155081Y33021D01*
X1158162Y31745D01*
X1160521Y29386D01*
X1161797Y26305D01*
X1161797Y22971D01*
X1160521Y19890D01*
X1158162Y17531D01*
X1155081Y16255D01*
X1151747Y16255D01*
G37*
%LPD*%
%LPC*%
G36*
X1126347Y16255D02*
X1126347Y16255D01*
X1123266Y17531D01*
X1120907Y19890D01*
X1119631Y22971D01*
X1119631Y26305D01*
X1120907Y29386D01*
X1123266Y31745D01*
X1126347Y33021D01*
X1129681Y33021D01*
X1132762Y31745D01*
X1135121Y29386D01*
X1136397Y26305D01*
X1136397Y22971D01*
X1135121Y19890D01*
X1132762Y17531D01*
X1129681Y16255D01*
X1126347Y16255D01*
G37*
%LPD*%
%LPC*%
G36*
X709308Y451510D02*
X709308Y451510D01*
X706749Y452569D01*
X704791Y454527D01*
X703732Y457086D01*
X703732Y459854D01*
X704791Y462413D01*
X706749Y464371D01*
X709308Y465430D01*
X712076Y465430D01*
X714635Y464371D01*
X716593Y462413D01*
X717652Y459854D01*
X717652Y457086D01*
X716593Y454527D01*
X714635Y452569D01*
X712076Y451510D01*
X709308Y451510D01*
G37*
%LPD*%
%LPC*%
G36*
X709308Y375310D02*
X709308Y375310D01*
X706749Y376369D01*
X704791Y378327D01*
X703732Y380886D01*
X703732Y383654D01*
X704791Y386213D01*
X706749Y388171D01*
X709308Y389230D01*
X712076Y389230D01*
X714635Y388171D01*
X716593Y386213D01*
X717652Y383654D01*
X717652Y380886D01*
X716593Y378327D01*
X714635Y376369D01*
X712076Y375310D01*
X709308Y375310D01*
G37*
%LPD*%
%LPC*%
G36*
X770889Y283717D02*
X770889Y283717D01*
X770889Y297383D01*
X772935Y297059D01*
X775216Y296318D01*
X777354Y295229D01*
X779295Y293819D01*
X780991Y292123D01*
X782401Y290182D01*
X783490Y288044D01*
X784231Y285763D01*
X784555Y283717D01*
X770889Y283717D01*
G37*
%LPD*%
%LPC*%
G36*
X754177Y283717D02*
X754177Y283717D01*
X754501Y285763D01*
X755242Y288044D01*
X756331Y290182D01*
X757741Y292123D01*
X759437Y293819D01*
X761378Y295229D01*
X763516Y296318D01*
X765797Y297059D01*
X767843Y297383D01*
X767843Y283717D01*
X754177Y283717D01*
G37*
%LPD*%
%LPC*%
G36*
X770889Y280671D02*
X770889Y280671D01*
X784555Y280671D01*
X784231Y278625D01*
X783490Y276344D01*
X782401Y274206D01*
X780991Y272265D01*
X779295Y270569D01*
X777354Y269159D01*
X775216Y268070D01*
X772935Y267329D01*
X770889Y267005D01*
X770889Y280671D01*
G37*
%LPD*%
%LPC*%
G36*
X765797Y267329D02*
X765797Y267329D01*
X763516Y268070D01*
X761378Y269159D01*
X759437Y270569D01*
X757741Y272265D01*
X756331Y274206D01*
X755242Y276344D01*
X754501Y278625D01*
X754177Y280671D01*
X767843Y280671D01*
X767843Y267005D01*
X765797Y267329D01*
G37*
%LPD*%
%LPC*%
G36*
X974597Y317753D02*
X974597Y317753D01*
X974597Y328076D01*
X975870Y327875D01*
X977657Y327294D01*
X979331Y326441D01*
X980852Y325336D01*
X982180Y324008D01*
X983285Y322487D01*
X984138Y320813D01*
X984719Y319026D01*
X984920Y317753D01*
X974597Y317753D01*
G37*
%LPD*%
%LPC*%
G36*
X1126997Y368553D02*
X1126997Y368553D01*
X1126997Y378876D01*
X1128270Y378675D01*
X1130057Y378094D01*
X1131731Y377241D01*
X1133252Y376136D01*
X1134580Y374808D01*
X1135685Y373287D01*
X1136538Y371613D01*
X1137119Y369826D01*
X1137320Y368553D01*
X1126997Y368553D01*
G37*
%LPD*%
%LPC*%
G36*
X961228Y317753D02*
X961228Y317753D01*
X961429Y319026D01*
X962010Y320813D01*
X962863Y322487D01*
X963968Y324008D01*
X965296Y325336D01*
X966817Y326441D01*
X968491Y327294D01*
X970278Y327875D01*
X971551Y328076D01*
X971551Y317753D01*
X961228Y317753D01*
G37*
%LPD*%
%LPC*%
G36*
X1113628Y368553D02*
X1113628Y368553D01*
X1113829Y369826D01*
X1114410Y371613D01*
X1115263Y373287D01*
X1116368Y374808D01*
X1117696Y376136D01*
X1119217Y377241D01*
X1120891Y378094D01*
X1122678Y378675D01*
X1123951Y378876D01*
X1123951Y368553D01*
X1113628Y368553D01*
G37*
%LPD*%
%LPC*%
G36*
X974597Y314707D02*
X974597Y314707D01*
X984920Y314707D01*
X984719Y313434D01*
X984138Y311647D01*
X983285Y309973D01*
X982180Y308452D01*
X980852Y307124D01*
X979331Y306019D01*
X977657Y305166D01*
X975870Y304585D01*
X974597Y304384D01*
X974597Y314707D01*
G37*
%LPD*%
%LPC*%
G36*
X1126997Y365507D02*
X1126997Y365507D01*
X1137320Y365507D01*
X1137119Y364234D01*
X1136538Y362447D01*
X1135685Y360773D01*
X1134580Y359252D01*
X1133252Y357924D01*
X1131731Y356819D01*
X1130057Y355966D01*
X1128270Y355385D01*
X1126997Y355184D01*
X1126997Y365507D01*
G37*
%LPD*%
%LPC*%
G36*
X970278Y304585D02*
X970278Y304585D01*
X968491Y305166D01*
X966817Y306019D01*
X965296Y307124D01*
X963968Y308452D01*
X962863Y309973D01*
X962010Y311647D01*
X961429Y313434D01*
X961228Y314707D01*
X971551Y314707D01*
X971551Y304384D01*
X970278Y304585D01*
G37*
%LPD*%
%LPC*%
G36*
X1122678Y355385D02*
X1122678Y355385D01*
X1120891Y355966D01*
X1119217Y356819D01*
X1117696Y357924D01*
X1116368Y359252D01*
X1115263Y360773D01*
X1114410Y362447D01*
X1113829Y364234D01*
X1113628Y365507D01*
X1123951Y365507D01*
X1123951Y355184D01*
X1122678Y355385D01*
G37*
%LPD*%
%LPC*%
G36*
X1177797Y205485D02*
X1177797Y205485D01*
X1177797Y214780D01*
X1178832Y214616D01*
X1180467Y214084D01*
X1181999Y213304D01*
X1183390Y212293D01*
X1184605Y211078D01*
X1185616Y209687D01*
X1186396Y208155D01*
X1186928Y206520D01*
X1187092Y205485D01*
X1177797Y205485D01*
G37*
%LPD*%
%LPC*%
G36*
X1177797Y202439D02*
X1177797Y202439D01*
X1187092Y202439D01*
X1186928Y201404D01*
X1186396Y199769D01*
X1185616Y198237D01*
X1184605Y196846D01*
X1183390Y195631D01*
X1181999Y194620D01*
X1180467Y193840D01*
X1178832Y193308D01*
X1177797Y193144D01*
X1177797Y202439D01*
G37*
%LPD*%
%LPC*%
G36*
X1165456Y205485D02*
X1165456Y205485D01*
X1165620Y206520D01*
X1166152Y208155D01*
X1166932Y209687D01*
X1167943Y211078D01*
X1169158Y212293D01*
X1170549Y213304D01*
X1172081Y214084D01*
X1173716Y214616D01*
X1174751Y214780D01*
X1174751Y205485D01*
X1165456Y205485D01*
G37*
%LPD*%
%LPC*%
G36*
X1173716Y193308D02*
X1173716Y193308D01*
X1172081Y193840D01*
X1170549Y194620D01*
X1169158Y195631D01*
X1167943Y196846D01*
X1166932Y198237D01*
X1166152Y199769D01*
X1165620Y201404D01*
X1165456Y202439D01*
X1174751Y202439D01*
X1174751Y193144D01*
X1173716Y193308D01*
G37*
%LPD*%
%LPC*%
G36*
X827023Y179323D02*
X827023Y179323D01*
X827023Y187332D01*
X827760Y187215D01*
X829205Y186746D01*
X830559Y186056D01*
X831788Y185163D01*
X832863Y184088D01*
X833756Y182859D01*
X834446Y181505D01*
X834915Y180060D01*
X835032Y179323D01*
X827023Y179323D01*
G37*
%LPD*%
%LPC*%
G36*
X750823Y96773D02*
X750823Y96773D01*
X750823Y104782D01*
X751560Y104665D01*
X753005Y104196D01*
X754359Y103506D01*
X755588Y102613D01*
X756663Y101538D01*
X757556Y100309D01*
X758246Y98955D01*
X758715Y97510D01*
X758832Y96773D01*
X750823Y96773D01*
G37*
%LPD*%
%LPC*%
G36*
X827023Y77723D02*
X827023Y77723D01*
X827023Y85732D01*
X827760Y85615D01*
X829205Y85146D01*
X830559Y84456D01*
X831788Y83563D01*
X832863Y82488D01*
X833756Y81259D01*
X834446Y79905D01*
X834915Y78460D01*
X835032Y77723D01*
X827023Y77723D01*
G37*
%LPD*%
%LPC*%
G36*
X1188211Y246379D02*
X1188211Y246379D01*
X1188211Y254388D01*
X1188948Y254271D01*
X1190393Y253802D01*
X1191747Y253112D01*
X1192976Y252219D01*
X1194051Y251144D01*
X1194944Y249915D01*
X1195634Y248561D01*
X1196103Y247116D01*
X1196220Y246379D01*
X1188211Y246379D01*
G37*
%LPD*%
%LPC*%
G36*
X1179067Y342899D02*
X1179067Y342899D01*
X1179067Y350908D01*
X1179804Y350791D01*
X1181249Y350322D01*
X1182603Y349632D01*
X1183832Y348739D01*
X1184907Y347664D01*
X1185800Y346435D01*
X1186490Y345081D01*
X1186959Y343636D01*
X1187076Y342899D01*
X1179067Y342899D01*
G37*
%LPD*%
%LPC*%
G36*
X827023Y74677D02*
X827023Y74677D01*
X835032Y74677D01*
X834915Y73940D01*
X834446Y72495D01*
X833756Y71141D01*
X832863Y69912D01*
X831788Y68837D01*
X830559Y67944D01*
X829205Y67254D01*
X827760Y66785D01*
X827023Y66668D01*
X827023Y74677D01*
G37*
%LPD*%
%LPC*%
G36*
X1177156Y246379D02*
X1177156Y246379D01*
X1177273Y247116D01*
X1177742Y248561D01*
X1178432Y249915D01*
X1179325Y251144D01*
X1180400Y252219D01*
X1181629Y253112D01*
X1182983Y253802D01*
X1184428Y254271D01*
X1185165Y254388D01*
X1185165Y246379D01*
X1177156Y246379D01*
G37*
%LPD*%
%LPC*%
G36*
X750823Y93727D02*
X750823Y93727D01*
X758832Y93727D01*
X758715Y92990D01*
X758246Y91545D01*
X757556Y90191D01*
X756663Y88962D01*
X755588Y87887D01*
X754359Y86994D01*
X753005Y86304D01*
X751560Y85835D01*
X750823Y85718D01*
X750823Y93727D01*
G37*
%LPD*%
%LPC*%
G36*
X1188211Y243333D02*
X1188211Y243333D01*
X1196220Y243333D01*
X1196103Y242596D01*
X1195634Y241151D01*
X1194944Y239797D01*
X1194051Y238568D01*
X1192976Y237493D01*
X1191747Y236600D01*
X1190393Y235910D01*
X1188948Y235441D01*
X1188211Y235324D01*
X1188211Y243333D01*
G37*
%LPD*%
%LPC*%
G36*
X815968Y77723D02*
X815968Y77723D01*
X816085Y78460D01*
X816554Y79905D01*
X817244Y81259D01*
X818137Y82488D01*
X819212Y83563D01*
X820441Y84456D01*
X821795Y85146D01*
X823240Y85615D01*
X823977Y85732D01*
X823977Y77723D01*
X815968Y77723D01*
G37*
%LPD*%
%LPC*%
G36*
X815968Y179323D02*
X815968Y179323D01*
X816085Y180060D01*
X816554Y181505D01*
X817244Y182859D01*
X818137Y184088D01*
X819212Y185163D01*
X820441Y186056D01*
X821795Y186746D01*
X823240Y187215D01*
X823977Y187332D01*
X823977Y179323D01*
X815968Y179323D01*
G37*
%LPD*%
%LPC*%
G36*
X1179067Y339853D02*
X1179067Y339853D01*
X1187076Y339853D01*
X1186959Y339116D01*
X1186490Y337671D01*
X1185800Y336317D01*
X1184907Y335088D01*
X1183832Y334013D01*
X1182603Y333120D01*
X1181249Y332430D01*
X1179804Y331961D01*
X1179067Y331844D01*
X1179067Y339853D01*
G37*
%LPD*%
%LPC*%
G36*
X827023Y176277D02*
X827023Y176277D01*
X835032Y176277D01*
X834915Y175540D01*
X834446Y174095D01*
X833756Y172741D01*
X832863Y171512D01*
X831788Y170437D01*
X830559Y169544D01*
X829205Y168854D01*
X827760Y168385D01*
X827023Y168268D01*
X827023Y176277D01*
G37*
%LPD*%
%LPC*%
G36*
X1168012Y342899D02*
X1168012Y342899D01*
X1168129Y343636D01*
X1168598Y345081D01*
X1169288Y346435D01*
X1170181Y347664D01*
X1171256Y348739D01*
X1172485Y349632D01*
X1173839Y350322D01*
X1175284Y350791D01*
X1176021Y350908D01*
X1176021Y342899D01*
X1168012Y342899D01*
G37*
%LPD*%
%LPC*%
G36*
X739768Y96773D02*
X739768Y96773D01*
X739885Y97510D01*
X740354Y98955D01*
X741044Y100309D01*
X741937Y101538D01*
X743012Y102613D01*
X744241Y103506D01*
X745595Y104196D01*
X747040Y104665D01*
X747777Y104782D01*
X747777Y96773D01*
X739768Y96773D01*
G37*
%LPD*%
%LPC*%
G36*
X747040Y85835D02*
X747040Y85835D01*
X745595Y86304D01*
X744241Y86994D01*
X743012Y87887D01*
X741937Y88962D01*
X741044Y90191D01*
X740354Y91545D01*
X739885Y92990D01*
X739768Y93727D01*
X747777Y93727D01*
X747777Y85718D01*
X747040Y85835D01*
G37*
%LPD*%
%LPC*%
G36*
X1175284Y331961D02*
X1175284Y331961D01*
X1173839Y332430D01*
X1172485Y333120D01*
X1171256Y334013D01*
X1170181Y335088D01*
X1169288Y336317D01*
X1168598Y337671D01*
X1168129Y339116D01*
X1168012Y339853D01*
X1176021Y339853D01*
X1176021Y331844D01*
X1175284Y331961D01*
G37*
%LPD*%
%LPC*%
G36*
X823240Y168385D02*
X823240Y168385D01*
X821795Y168854D01*
X820441Y169544D01*
X819212Y170437D01*
X818137Y171512D01*
X817244Y172741D01*
X816554Y174095D01*
X816085Y175540D01*
X815968Y176277D01*
X823977Y176277D01*
X823977Y168268D01*
X823240Y168385D01*
G37*
%LPD*%
%LPC*%
G36*
X823240Y66785D02*
X823240Y66785D01*
X821795Y67254D01*
X820441Y67944D01*
X819212Y68837D01*
X818137Y69912D01*
X817244Y71141D01*
X816554Y72495D01*
X816085Y73940D01*
X815968Y74677D01*
X823977Y74677D01*
X823977Y66668D01*
X823240Y66785D01*
G37*
%LPD*%
%LPC*%
G36*
X1184428Y235441D02*
X1184428Y235441D01*
X1182983Y235910D01*
X1181629Y236600D01*
X1180400Y237493D01*
X1179325Y238568D01*
X1178432Y239797D01*
X1177742Y241151D01*
X1177273Y242596D01*
X1177156Y243333D01*
X1185165Y243333D01*
X1185165Y235324D01*
X1184428Y235441D01*
G37*
%LPD*%
%LPC*%
G36*
X788415Y383793D02*
X788415Y383793D01*
X788415Y390359D01*
X789293Y390184D01*
X790790Y389564D01*
X792139Y388663D01*
X793285Y387517D01*
X794186Y386168D01*
X794806Y384671D01*
X794981Y383793D01*
X788415Y383793D01*
G37*
%LPD*%
%LPC*%
G36*
X1018793Y85851D02*
X1018793Y85851D01*
X1018793Y92417D01*
X1019671Y92242D01*
X1021168Y91622D01*
X1022517Y90721D01*
X1023663Y89575D01*
X1024564Y88226D01*
X1025184Y86729D01*
X1025359Y85851D01*
X1018793Y85851D01*
G37*
%LPD*%
%LPC*%
G36*
X887983Y249935D02*
X887983Y249935D01*
X887983Y256501D01*
X888861Y256326D01*
X890358Y255706D01*
X891707Y254805D01*
X892853Y253659D01*
X893754Y252310D01*
X894374Y250813D01*
X894549Y249935D01*
X887983Y249935D01*
G37*
%LPD*%
%LPC*%
G36*
X778803Y383793D02*
X778803Y383793D01*
X778978Y384671D01*
X779598Y386168D01*
X780499Y387517D01*
X781645Y388663D01*
X782994Y389564D01*
X784491Y390184D01*
X785369Y390359D01*
X785369Y383793D01*
X778803Y383793D01*
G37*
%LPD*%
%LPC*%
G36*
X788415Y380747D02*
X788415Y380747D01*
X794981Y380747D01*
X794806Y379869D01*
X794186Y378372D01*
X793285Y377023D01*
X792139Y375877D01*
X790790Y374976D01*
X789293Y374356D01*
X788415Y374181D01*
X788415Y380747D01*
G37*
%LPD*%
%LPC*%
G36*
X1018793Y82805D02*
X1018793Y82805D01*
X1025359Y82805D01*
X1025184Y81927D01*
X1024564Y80430D01*
X1023663Y79081D01*
X1022517Y77935D01*
X1021168Y77034D01*
X1019671Y76414D01*
X1018793Y76239D01*
X1018793Y82805D01*
G37*
%LPD*%
%LPC*%
G36*
X878371Y249935D02*
X878371Y249935D01*
X878546Y250813D01*
X879166Y252310D01*
X880067Y253659D01*
X881213Y254805D01*
X882562Y255706D01*
X884059Y256326D01*
X884937Y256501D01*
X884937Y249935D01*
X878371Y249935D01*
G37*
%LPD*%
%LPC*%
G36*
X1009181Y85851D02*
X1009181Y85851D01*
X1009356Y86729D01*
X1009976Y88226D01*
X1010877Y89575D01*
X1012023Y90721D01*
X1013372Y91622D01*
X1014869Y92242D01*
X1015747Y92417D01*
X1015747Y85851D01*
X1009181Y85851D01*
G37*
%LPD*%
%LPC*%
G36*
X887983Y246889D02*
X887983Y246889D01*
X894549Y246889D01*
X894374Y246011D01*
X893754Y244514D01*
X892853Y243165D01*
X891707Y242019D01*
X890358Y241118D01*
X888861Y240498D01*
X887983Y240323D01*
X887983Y246889D01*
G37*
%LPD*%
%LPC*%
G36*
X884059Y240498D02*
X884059Y240498D01*
X882562Y241118D01*
X881213Y242019D01*
X880067Y243165D01*
X879166Y244514D01*
X878546Y246011D01*
X878371Y246889D01*
X884937Y246889D01*
X884937Y240323D01*
X884059Y240498D01*
G37*
%LPD*%
%LPC*%
G36*
X784491Y374356D02*
X784491Y374356D01*
X782994Y374976D01*
X781645Y375877D01*
X780499Y377023D01*
X779598Y378372D01*
X778978Y379869D01*
X778803Y380747D01*
X785369Y380747D01*
X785369Y374181D01*
X784491Y374356D01*
G37*
%LPD*%
%LPC*%
G36*
X1014869Y76414D02*
X1014869Y76414D01*
X1013372Y77034D01*
X1012023Y77935D01*
X1010877Y79081D01*
X1009976Y80430D01*
X1009356Y81927D01*
X1009181Y82805D01*
X1015747Y82805D01*
X1015747Y76239D01*
X1014869Y76414D01*
G37*
%LPD*%
%LPC*%
G36*
X825499Y177799D02*
X825499Y177799D01*
X825499Y177801D01*
X825501Y177801D01*
X825501Y177799D01*
X825499Y177799D01*
G37*
%LPD*%
%LPC*%
G36*
X769365Y282193D02*
X769365Y282193D01*
X769365Y282195D01*
X769367Y282195D01*
X769367Y282193D01*
X769365Y282193D01*
G37*
%LPD*%
%LPC*%
G36*
X1176273Y203961D02*
X1176273Y203961D01*
X1176273Y203963D01*
X1176275Y203963D01*
X1176275Y203961D01*
X1176273Y203961D01*
G37*
%LPD*%
%LPC*%
G36*
X1017269Y84327D02*
X1017269Y84327D01*
X1017269Y84329D01*
X1017271Y84329D01*
X1017271Y84327D01*
X1017269Y84327D01*
G37*
%LPD*%
%LPC*%
G36*
X1125473Y367029D02*
X1125473Y367029D01*
X1125473Y367031D01*
X1125475Y367031D01*
X1125475Y367029D01*
X1125473Y367029D01*
G37*
%LPD*%
%LPC*%
G36*
X973073Y316229D02*
X973073Y316229D01*
X973073Y316231D01*
X973075Y316231D01*
X973075Y316229D01*
X973073Y316229D01*
G37*
%LPD*%
%LPC*%
G36*
X786891Y382269D02*
X786891Y382269D01*
X786891Y382271D01*
X786893Y382271D01*
X786893Y382269D01*
X786891Y382269D01*
G37*
%LPD*%
%LPC*%
G36*
X749299Y95249D02*
X749299Y95249D01*
X749299Y95251D01*
X749301Y95251D01*
X749301Y95249D01*
X749299Y95249D01*
G37*
%LPD*%
%LPC*%
G36*
X1186687Y244855D02*
X1186687Y244855D01*
X1186687Y244857D01*
X1186689Y244857D01*
X1186689Y244855D01*
X1186687Y244855D01*
G37*
%LPD*%
%LPC*%
G36*
X825499Y76199D02*
X825499Y76199D01*
X825499Y76201D01*
X825501Y76201D01*
X825501Y76199D01*
X825499Y76199D01*
G37*
%LPD*%
%LPC*%
G36*
X1177543Y341375D02*
X1177543Y341375D01*
X1177543Y341377D01*
X1177545Y341377D01*
X1177545Y341375D01*
X1177543Y341375D01*
G37*
%LPD*%
%LPC*%
G36*
X886459Y248411D02*
X886459Y248411D01*
X886459Y248413D01*
X886461Y248413D01*
X886461Y248411D01*
X886459Y248411D01*
G37*
%LPD*%
D10*
X838962Y381762D03*
X838962Y457962D03*
X571500Y495300D03*
X571500Y419100D03*
D11*
X647700Y406400D03*
X647700Y508000D03*
D10*
X886460Y248412D03*
X886460Y197612D03*
X886460Y223012D03*
X875284Y382016D03*
X875284Y458216D03*
D12*
X825500Y152400D03*
X825500Y177800D03*
X825500Y203200D03*
D13*
X973074Y392430D03*
X973074Y367030D03*
X973074Y341630D03*
X973074Y316230D03*
X973074Y290830D03*
X973074Y265430D03*
X973074Y240030D03*
X973074Y214630D03*
X973074Y189230D03*
X973074Y163830D03*
X973074Y138430D03*
X973074Y113030D03*
X1125474Y113030D03*
X1125474Y138430D03*
X1125474Y163830D03*
X1125474Y189230D03*
X1125474Y214630D03*
X1125474Y240030D03*
X1125474Y265430D03*
X1125474Y290830D03*
X1125474Y316230D03*
X1125474Y341630D03*
X1125474Y367030D03*
X1125474Y392430D03*
X1096899Y174943D03*
X1096899Y200343D03*
X1096899Y305118D03*
X1096899Y279718D03*
X985774Y417830D03*
X1011174Y417830D03*
X1036574Y417830D03*
X1061974Y417830D03*
X1087374Y417830D03*
X1112774Y417830D03*
D12*
X749300Y95250D03*
X749300Y133350D03*
X749300Y171450D03*
X749300Y209550D03*
X825500Y101600D03*
X825500Y76200D03*
D14*
X769366Y332994D03*
X769366Y282194D03*
D10*
X606298Y481584D03*
X606298Y430784D03*
D11*
X914400Y368300D03*
X914400Y469900D03*
D15*
X1201674Y127762D03*
X1176274Y127762D03*
X1201674Y153162D03*
X1176274Y153162D03*
X1201674Y178562D03*
X1176274Y178562D03*
X1201674Y203962D03*
X1176274Y203962D03*
D12*
X1204214Y93726D03*
X1204214Y68326D03*
X1186688Y295656D03*
X1186688Y270256D03*
X1186688Y244856D03*
X609600Y381000D03*
X609600Y355600D03*
X1177544Y341376D03*
X1177544Y366776D03*
X1177544Y392176D03*
X1177544Y417576D03*
D10*
X710692Y458470D03*
X710692Y433070D03*
X786892Y433070D03*
X786892Y458470D03*
X710692Y407670D03*
X710692Y382270D03*
X786892Y407670D03*
X786892Y382270D03*
X867156Y295402D03*
X943356Y295402D03*
X942086Y150876D03*
X865886Y150876D03*
X1017270Y84328D03*
X1093470Y84328D03*
D12*
X781558Y507492D03*
X806958Y507492D03*
X832358Y507492D03*
X857758Y507492D03*
X883158Y507492D03*
X908558Y507492D03*
X933958Y507492D03*
X959358Y507492D03*
X1001522Y506730D03*
X1026922Y506730D03*
X1052322Y506730D03*
X1077722Y506730D03*
X1103122Y506730D03*
X1128522Y506730D03*
X1153922Y506730D03*
X1179322Y506730D03*
X1051814Y24638D03*
X1077214Y24638D03*
X1102614Y24638D03*
X1128014Y24638D03*
X1153414Y24638D03*
X1178814Y24638D03*
X1204214Y24638D03*
X873760Y24892D03*
X899160Y24892D03*
X924560Y24892D03*
X949960Y24892D03*
X975360Y24892D03*
X1000760Y24892D03*
D16*
X606298Y384302D02*
X606298Y430784D01*
X606298Y384302D02*
X609600Y381000D01*
X606298Y430784D02*
X623316Y430784D01*
X647700Y406400D01*
X648970Y407670D02*
X710692Y407670D01*
X648970Y407670D02*
X647700Y406400D01*
X671322Y381000D02*
X609600Y381000D01*
X698500Y353822D02*
X698500Y187198D01*
X714248Y171450D01*
X749300Y171450D01*
X698500Y353822D02*
X671322Y381000D01*
X609600Y355600D02*
X583184Y355600D01*
X571500Y367284D01*
X571500Y419100D01*
X609600Y355600D02*
X660654Y355600D01*
X682498Y333756D02*
X682498Y147320D01*
X696468Y133350D01*
X749300Y133350D01*
X682498Y333756D02*
X660654Y355600D01*
X786892Y433070D02*
X805688Y433070D01*
X838962Y399796D01*
X838962Y381762D01*
X805434Y407670D02*
X786892Y407670D01*
X805434Y407670D02*
X816102Y397002D01*
X816102Y377698D01*
X828548Y365252D01*
X875284Y379222D02*
X875284Y382016D01*
X875284Y379222D02*
X861314Y365252D01*
X828548Y365252D01*
X875284Y382016D02*
X875284Y403860D01*
X885952Y414528D01*
X919988Y414528D02*
X931926Y402590D01*
X919988Y414528D02*
X885952Y414528D01*
X852678Y83820D02*
X880618Y55880D01*
X1201674Y125222D02*
X1201674Y127762D01*
X1201674Y125222D02*
X1176274Y99822D01*
X1176274Y80264D01*
X1151890Y55880D01*
X880618Y55880D01*
X867156Y331216D02*
X883966Y348026D01*
X867156Y331216D02*
X867156Y295402D01*
X931926Y359664D02*
X931926Y402590D01*
X920288Y348026D02*
X883966Y348026D01*
X920288Y348026D02*
X931926Y359664D01*
X867156Y295402D02*
X852678Y280924D01*
X852678Y83820D01*
X1176274Y178562D02*
X1201674Y178562D01*
X1176274Y178562D02*
X1168400Y178562D01*
X1145540Y155702D01*
X1137426Y84328D02*
X1093470Y84328D01*
X1145540Y92442D02*
X1145540Y155702D01*
X1145540Y92442D02*
X1137426Y84328D01*
X1081532Y96266D02*
X1081532Y204470D01*
X1081532Y96266D02*
X1093470Y84328D01*
X1081532Y204470D02*
X1099058Y221996D01*
X1118108Y221996D02*
X1125474Y214630D01*
X1118108Y221996D02*
X1099058Y221996D01*
X943356Y274066D02*
X943356Y295402D01*
X943356Y274066D02*
X892302Y223012D01*
X886460Y223012D01*
X1172718Y270256D02*
X1186688Y270256D01*
X1172718Y270256D02*
X1142492Y240030D01*
X1125474Y240030D01*
X1185418Y435356D02*
X983234Y435356D01*
X1193546Y427228D02*
X1193546Y398526D01*
X1187196Y392176D02*
X1177544Y392176D01*
X1187196Y392176D02*
X1193546Y398526D01*
X1193546Y427228D02*
X1185418Y435356D01*
X1082040Y371602D02*
X1082040Y288989D01*
X1091311Y279718D02*
X1096899Y279718D01*
X1091311Y279718D02*
X1082040Y288989D01*
X1082040Y371602D02*
X1049521Y404121D01*
X978923Y404121D01*
X971811Y411233D01*
X971811Y423933D01*
X983234Y435356D01*
X768350Y209550D02*
X749300Y209550D01*
X768350Y209550D02*
X787400Y190500D01*
X800100Y101600D02*
X825500Y101600D01*
X800100Y101600D02*
X787400Y114300D01*
X787400Y190500D01*
X825500Y152400D02*
X825500Y101600D01*
X801116Y293878D02*
X769366Y325628D01*
X769366Y332994D01*
X801116Y293878D02*
X801116Y242824D01*
X824992Y218948D01*
X825500Y218948D02*
X825500Y203200D01*
X825500Y218948D02*
X824992Y218948D01*
X828040Y332994D02*
X850646Y355600D01*
X828040Y332994D02*
X769366Y332994D01*
X850646Y355600D02*
X901700Y355600D01*
X914400Y368300D01*
X592836Y495300D02*
X571500Y495300D01*
X606552Y481330D02*
X606806Y481330D01*
X606552Y481330D02*
X606298Y481584D01*
X606806Y481330D02*
X592836Y495300D01*
X607314Y481584D02*
X633730Y508000D01*
X607314Y481584D02*
X606298Y481584D01*
X633730Y508000D02*
X647700Y508000D01*
X675386Y492506D02*
X675386Y454406D01*
X697484Y432308D01*
X709930Y432308D02*
X710692Y433070D01*
X709930Y432308D02*
X697484Y432308D01*
X675386Y492506D02*
X659892Y508000D01*
X647700Y508000D01*
X886460Y197612D02*
X865886Y177038D01*
X865886Y150876D01*
X1144524Y62738D02*
X1169416Y87630D01*
X1169416Y120904D02*
X1176274Y127762D01*
X1169416Y120904D02*
X1169416Y87630D01*
X866140Y150622D02*
X865886Y150876D01*
X866140Y150622D02*
X866140Y83312D01*
X886714Y62738D01*
X1144524Y62738D01*
X1169924Y469900D02*
X914400Y469900D01*
X1169924Y469900D02*
X1197610Y442214D01*
X1197610Y386842D01*
X1177544Y366776D01*
X838454Y458470D02*
X786892Y458470D01*
X838454Y458470D02*
X838962Y457962D01*
X839216Y458216D01*
X875284Y458216D01*
X886968Y469900D01*
X914400Y469900D01*
X1148080Y316230D02*
X1148588Y316230D01*
X1148080Y316230D02*
X1125474Y316230D01*
X1169162Y295656D02*
X1186688Y295656D01*
X1169162Y295656D02*
X1148588Y316230D01*
X1166876Y366776D02*
X1177544Y366776D01*
X1166876Y366776D02*
X1148080Y347980D01*
X1148080Y316230D01*
X1176274Y153162D02*
X1201674Y153162D01*
X1206246Y153162D02*
X1215898Y162814D01*
X1206246Y153162D02*
X1201674Y153162D01*
X1215898Y162814D02*
X1215898Y195072D01*
X1207008Y203962D01*
X1201674Y203962D01*
X968248Y70358D02*
X942086Y96520D01*
X942086Y150876D01*
X1138682Y70358D02*
X1155192Y86868D01*
X1155192Y135636D01*
X1172718Y153162D02*
X1176274Y153162D01*
X1172718Y153162D02*
X1155192Y135636D01*
X1138682Y70358D02*
X968248Y70358D01*
X973074Y265430D02*
X957072Y265430D01*
X942086Y250444D02*
X942086Y150876D01*
X942086Y250444D02*
X957072Y265430D01*
X1096899Y305118D02*
X1096899Y383921D01*
X1119378Y406400D02*
X1126236Y406400D01*
X1137412Y417576D02*
X1177544Y417576D01*
X1119378Y406400D02*
X1096899Y383921D01*
X1126236Y406400D02*
X1137412Y417576D01*
X832358Y498856D02*
X832358Y507492D01*
X832358Y498856D02*
X844804Y486410D01*
X1121664Y486410D02*
X1129792Y494538D01*
X1129792Y505460D01*
X1128522Y506730D01*
X1121664Y486410D02*
X844804Y486410D01*
X1204214Y93726D02*
X1159764Y49276D01*
X879602Y49276D02*
X873506Y43180D01*
X873506Y25146D01*
X873760Y24892D01*
X879602Y49276D02*
X1159764Y49276D01*
X1177544Y41656D02*
X1204214Y68326D01*
X975360Y36322D02*
X975360Y24892D01*
X980694Y41656D02*
X1177544Y41656D01*
X980694Y41656D02*
X975360Y36322D01*
M02*
