G04 EAGLE Gerber RS-274X export*
G75*
%MOMM*%
%FSLAX34Y34*%
%LPD*%
%INSoldermask Bottom*%
%IPPOS*%
%AMOC8*
5,1,8,0,0,1.08239X$1,22.5*%
G01*
%ADD10P,2.254402X8X112.500000*%
%ADD11P,2.254402X8X292.500000*%
%ADD12C,2.387600*%
%ADD13C,2.082800*%
%ADD14C,2.286000*%
%ADD15C,2.286000*%
%ADD16C,2.794000*%
%ADD17P,3.024198X8X292.500000*%
%ADD18P,2.474344X8X112.500000*%
%ADD19P,2.254402X8X22.500000*%
%ADD20P,2.254402X8X202.500000*%


D10*
X838962Y381762D03*
X838962Y457962D03*
D11*
X571500Y495300D03*
X571500Y419100D03*
D12*
X647700Y406400D03*
X647700Y508000D03*
D13*
X877316Y248412D02*
X895604Y248412D01*
X895604Y197612D02*
X877316Y197612D01*
X877316Y223012D02*
X895604Y223012D01*
D10*
X875284Y382016D03*
X875284Y458216D03*
D14*
X835660Y152400D02*
X815340Y152400D01*
X815340Y177800D02*
X835660Y177800D01*
X835660Y203200D02*
X815340Y203200D01*
D15*
X973074Y392430D03*
X973074Y367030D03*
X973074Y341630D03*
X973074Y316230D03*
X973074Y290830D03*
X973074Y265430D03*
X973074Y240030D03*
X973074Y214630D03*
X973074Y189230D03*
X973074Y163830D03*
X973074Y138430D03*
X973074Y113030D03*
X1125474Y113030D03*
X1125474Y138430D03*
X1125474Y163830D03*
X1125474Y189230D03*
X1125474Y214630D03*
X1125474Y240030D03*
X1125474Y265430D03*
X1125474Y290830D03*
X1125474Y316230D03*
X1125474Y341630D03*
X1125474Y367030D03*
X1125474Y392430D03*
X1096899Y174943D03*
X1096899Y200343D03*
X1096899Y305118D03*
X1096899Y279718D03*
X985774Y417830D03*
X1011174Y417830D03*
X1036574Y417830D03*
X1061974Y417830D03*
X1087374Y417830D03*
X1112774Y417830D03*
D14*
X759460Y95250D02*
X739140Y95250D01*
X739140Y133350D02*
X759460Y133350D01*
X759460Y171450D02*
X739140Y171450D01*
X739140Y209550D02*
X759460Y209550D01*
D11*
X825500Y101600D03*
X825500Y76200D03*
D16*
X769366Y332994D03*
D17*
X769366Y282194D03*
D11*
X606298Y481584D03*
X606298Y430784D03*
D12*
X914400Y368300D03*
X914400Y469900D03*
D18*
X1201674Y127762D03*
X1176274Y127762D03*
X1201674Y153162D03*
X1176274Y153162D03*
X1201674Y178562D03*
X1176274Y178562D03*
X1201674Y203962D03*
X1176274Y203962D03*
D14*
X1194054Y93726D02*
X1214374Y93726D01*
X1214374Y68326D02*
X1194054Y68326D01*
X1196848Y295656D02*
X1176528Y295656D01*
X1176528Y270256D02*
X1196848Y270256D01*
X1196848Y244856D02*
X1176528Y244856D01*
X619760Y381000D02*
X599440Y381000D01*
X599440Y355600D02*
X619760Y355600D01*
X1167384Y341376D02*
X1187704Y341376D01*
X1187704Y366776D02*
X1167384Y366776D01*
X1167384Y392176D02*
X1187704Y392176D01*
X1187704Y417576D02*
X1167384Y417576D01*
D13*
X710692Y458470D02*
X692404Y458470D01*
X692404Y433070D02*
X710692Y433070D01*
X786892Y433070D02*
X805180Y433070D01*
X805180Y458470D02*
X786892Y458470D01*
X710692Y407670D02*
X692404Y407670D01*
X692404Y382270D02*
X710692Y382270D01*
X786892Y407670D02*
X805180Y407670D01*
X805180Y382270D02*
X786892Y382270D01*
D19*
X867156Y295402D03*
X943356Y295402D03*
D20*
X942086Y150876D03*
X865886Y150876D03*
D19*
X1017270Y84328D03*
X1093470Y84328D03*
D14*
X781558Y497332D02*
X781558Y517652D01*
X806958Y517652D02*
X806958Y497332D01*
X832358Y497332D02*
X832358Y517652D01*
X857758Y517652D02*
X857758Y497332D01*
X883158Y497332D02*
X883158Y517652D01*
X908558Y517652D02*
X908558Y497332D01*
X933958Y497332D02*
X933958Y517652D01*
X959358Y517652D02*
X959358Y497332D01*
X1001522Y496570D02*
X1001522Y516890D01*
X1026922Y516890D02*
X1026922Y496570D01*
X1052322Y496570D02*
X1052322Y516890D01*
X1077722Y516890D02*
X1077722Y496570D01*
X1103122Y496570D02*
X1103122Y516890D01*
X1128522Y516890D02*
X1128522Y496570D01*
X1153922Y496570D02*
X1153922Y516890D01*
X1179322Y516890D02*
X1179322Y496570D01*
X1051814Y34798D02*
X1051814Y14478D01*
X1077214Y14478D02*
X1077214Y34798D01*
X1102614Y34798D02*
X1102614Y14478D01*
X1128014Y14478D02*
X1128014Y34798D01*
X1153414Y34798D02*
X1153414Y14478D01*
X1178814Y14478D02*
X1178814Y34798D01*
X1204214Y34798D02*
X1204214Y14478D01*
X873760Y14732D02*
X873760Y35052D01*
X899160Y35052D02*
X899160Y14732D01*
X924560Y14732D02*
X924560Y35052D01*
X949960Y35052D02*
X949960Y14732D01*
X975360Y14732D02*
X975360Y35052D01*
X1000760Y35052D02*
X1000760Y14732D01*
M02*
