G04 EAGLE Gerber RS-274X export*
G75*
%MOMM*%
%FSLAX34Y34*%
%LPD*%
%INSoldermask Top*%
%IPPOS*%
%AMOC8*
5,1,8,0,0,1.08239X$1,22.5*%
G01*
%ADD10C,1.391919*%
%ADD11C,1.818638*%
%ADD12C,1.676400*%
%ADD13C,2.133600*%
%ADD14C,2.794000*%
%ADD15C,1.930400*%


D10*
X838962Y381762D03*
X838962Y457962D03*
X571500Y495300D03*
X571500Y419100D03*
D11*
X647700Y406400D03*
X647700Y508000D03*
D10*
X886460Y248412D03*
X886460Y197612D03*
X886460Y223012D03*
X875284Y382016D03*
X875284Y458216D03*
D12*
X825500Y152400D03*
X825500Y177800D03*
X825500Y203200D03*
D13*
X973074Y392430D03*
X973074Y367030D03*
X973074Y341630D03*
X973074Y316230D03*
X973074Y290830D03*
X973074Y265430D03*
X973074Y240030D03*
X973074Y214630D03*
X973074Y189230D03*
X973074Y163830D03*
X973074Y138430D03*
X973074Y113030D03*
X1125474Y113030D03*
X1125474Y138430D03*
X1125474Y163830D03*
X1125474Y189230D03*
X1125474Y214630D03*
X1125474Y240030D03*
X1125474Y265430D03*
X1125474Y290830D03*
X1125474Y316230D03*
X1125474Y341630D03*
X1125474Y367030D03*
X1125474Y392430D03*
X1096899Y174943D03*
X1096899Y200343D03*
X1096899Y305118D03*
X1096899Y279718D03*
X985774Y417830D03*
X1011174Y417830D03*
X1036574Y417830D03*
X1061974Y417830D03*
X1087374Y417830D03*
X1112774Y417830D03*
D12*
X749300Y95250D03*
X749300Y133350D03*
X749300Y171450D03*
X749300Y209550D03*
X825500Y101600D03*
X825500Y76200D03*
D14*
X769366Y332994D03*
X769366Y282194D03*
D10*
X606298Y481584D03*
X606298Y430784D03*
D11*
X914400Y368300D03*
X914400Y469900D03*
D15*
X1201674Y127762D03*
X1176274Y127762D03*
X1201674Y153162D03*
X1176274Y153162D03*
X1201674Y178562D03*
X1176274Y178562D03*
X1201674Y203962D03*
X1176274Y203962D03*
D12*
X1204214Y93726D03*
X1204214Y68326D03*
X1186688Y295656D03*
X1186688Y270256D03*
X1186688Y244856D03*
X609600Y381000D03*
X609600Y355600D03*
X1177544Y341376D03*
X1177544Y366776D03*
X1177544Y392176D03*
X1177544Y417576D03*
D10*
X710692Y458470D03*
X710692Y433070D03*
X786892Y433070D03*
X786892Y458470D03*
X710692Y407670D03*
X710692Y382270D03*
X786892Y407670D03*
X786892Y382270D03*
X867156Y295402D03*
X943356Y295402D03*
X942086Y150876D03*
X865886Y150876D03*
X1017270Y84328D03*
X1093470Y84328D03*
D12*
X781558Y507492D03*
X806958Y507492D03*
X832358Y507492D03*
X857758Y507492D03*
X883158Y507492D03*
X908558Y507492D03*
X933958Y507492D03*
X959358Y507492D03*
X1001522Y506730D03*
X1026922Y506730D03*
X1052322Y506730D03*
X1077722Y506730D03*
X1103122Y506730D03*
X1128522Y506730D03*
X1153922Y506730D03*
X1179322Y506730D03*
X1051814Y24638D03*
X1077214Y24638D03*
X1102614Y24638D03*
X1128014Y24638D03*
X1153414Y24638D03*
X1178814Y24638D03*
X1204214Y24638D03*
X873760Y24892D03*
X899160Y24892D03*
X924560Y24892D03*
X949960Y24892D03*
X975360Y24892D03*
X1000760Y24892D03*
M02*
