G04 EAGLE Gerber RS-274X export*
G75*
%MOMM*%
%FSLAX34Y34*%
%LPD*%
%INBottom Copper*%
%IPPOS*%
%AMOC8*
5,1,8,0,0,1.08239X$1,22.5*%
G01*
%ADD10P,1.704548X8X112.500000*%
%ADD11P,1.704548X8X292.500000*%
%ADD12C,1.879600*%
%ADD13C,1.574800*%
%ADD14C,1.778000*%
%ADD15C,2.540000*%
%ADD16P,2.749271X8X292.500000*%
%ADD17P,1.924489X8X112.500000*%
%ADD18P,1.704548X8X22.500000*%
%ADD19P,1.704548X8X202.500000*%
%ADD20P,1.907171X8X22.500000*%


D10*
X838962Y381762D03*
X838962Y457962D03*
D11*
X571500Y495300D03*
X571500Y419100D03*
D12*
X647700Y406400D03*
X647700Y508000D03*
D13*
X878586Y248412D02*
X894334Y248412D01*
X894334Y197612D02*
X878586Y197612D01*
X878586Y223012D02*
X894334Y223012D01*
D10*
X875284Y382016D03*
X875284Y458216D03*
D14*
X834390Y152400D02*
X816610Y152400D01*
X816610Y177800D02*
X834390Y177800D01*
X834390Y203200D02*
X816610Y203200D01*
D12*
X973074Y392430D03*
X973074Y367030D03*
X973074Y341630D03*
X973074Y316230D03*
X973074Y290830D03*
X973074Y265430D03*
X973074Y240030D03*
X973074Y214630D03*
X973074Y189230D03*
X973074Y163830D03*
X973074Y138430D03*
X973074Y113030D03*
X1125474Y113030D03*
X1125474Y138430D03*
X1125474Y163830D03*
X1125474Y189230D03*
X1125474Y214630D03*
X1125474Y240030D03*
X1125474Y265430D03*
X1125474Y290830D03*
X1125474Y316230D03*
X1125474Y341630D03*
X1125474Y367030D03*
X1125474Y392430D03*
X1096899Y174943D03*
X1096899Y200343D03*
X1096899Y305118D03*
X1096899Y279718D03*
X985774Y417830D03*
X1011174Y417830D03*
X1036574Y417830D03*
X1061974Y417830D03*
X1087374Y417830D03*
X1112774Y417830D03*
D14*
X758190Y95250D02*
X740410Y95250D01*
X740410Y133350D02*
X758190Y133350D01*
X758190Y171450D02*
X740410Y171450D01*
X740410Y209550D02*
X758190Y209550D01*
D11*
X825500Y101600D03*
X825500Y76200D03*
D15*
X769366Y332994D03*
D16*
X769366Y282194D03*
D11*
X606298Y481584D03*
X606298Y430784D03*
D12*
X914400Y368300D03*
X914400Y469900D03*
D17*
X1201674Y127762D03*
X1176274Y127762D03*
X1201674Y153162D03*
X1176274Y153162D03*
X1201674Y178562D03*
X1176274Y178562D03*
X1201674Y203962D03*
X1176274Y203962D03*
D14*
X1186688Y50800D02*
X1204468Y50800D01*
X1204468Y76200D02*
X1186688Y76200D01*
X1177798Y295656D02*
X1195578Y295656D01*
X1195578Y270256D02*
X1177798Y270256D01*
X1177798Y244856D02*
X1195578Y244856D01*
X618490Y381000D02*
X600710Y381000D01*
X600710Y355600D02*
X618490Y355600D01*
X1168654Y341376D02*
X1186434Y341376D01*
X1186434Y366776D02*
X1168654Y366776D01*
X1168654Y392176D02*
X1186434Y392176D01*
X1186434Y417576D02*
X1168654Y417576D01*
D13*
X710692Y458470D02*
X694944Y458470D01*
X694944Y433070D02*
X710692Y433070D01*
X786892Y433070D02*
X802640Y433070D01*
X802640Y458470D02*
X786892Y458470D01*
X710692Y407670D02*
X694944Y407670D01*
X694944Y382270D02*
X710692Y382270D01*
X786892Y407670D02*
X802640Y407670D01*
X802640Y382270D02*
X786892Y382270D01*
D18*
X867156Y295402D03*
X943356Y295402D03*
D19*
X942086Y150876D03*
X865886Y150876D03*
D18*
X1017270Y84328D03*
X1093470Y84328D03*
D20*
X1079500Y508000D03*
X1054100Y25400D03*
X1104900Y508000D03*
X1130300Y508000D03*
X1155700Y508000D03*
X1181100Y508000D03*
X1054100Y508000D03*
X1028700Y508000D03*
X1003300Y508000D03*
X962660Y508000D03*
X937260Y508000D03*
X911860Y508000D03*
X886460Y508000D03*
X861060Y508000D03*
X835660Y508000D03*
X810260Y508000D03*
X784860Y508000D03*
X1079500Y25400D03*
X1104900Y25400D03*
X1130300Y25400D03*
X1155700Y25400D03*
X1181100Y25400D03*
X1003300Y25400D03*
X977900Y25400D03*
X952500Y25400D03*
X927100Y25400D03*
X901700Y25400D03*
X876300Y25400D03*
X759460Y508000D03*
X734060Y508000D03*
X850900Y25400D03*
X825500Y25400D03*
M02*
