M48
;GenerationSoftware,Autodesk,EAGLE,9.4.2*%
;CreationDate,2019-08-22T18:31:11Z*%
FMAT,2
ICI,OFF
METRIC,TZ,000.000
T4C0.813
T3C1.000
T2C1.016
T1C1.118
%
G90
M71
T1
X64770Y40640
X64770Y50800
X91440Y36830
X91440Y46990
T2
X97307Y36703
X120167Y20396
X117627Y20396
X119558Y5080
X119558Y7620
X118669Y29566
X118669Y27026
X118669Y24486
X60960Y38100
X82550Y15240
X82550Y17780
X82550Y20320
X97307Y39243
X112547Y21463
X97307Y34163
X97307Y31623
X97307Y29083
X97307Y26543
X97307Y24003
X97307Y21463
X97307Y18923
X97307Y16383
X97307Y13843
X97307Y11303
X112547Y11303
X112547Y13843
X112547Y16383
X112547Y18923
X60960Y35560
X112547Y24003
X112547Y26543
X112547Y29083
X112547Y31623
X112547Y34163
X112547Y36703
X112547Y39243
X109690Y17494
X109690Y20034
X109690Y30512
X109690Y27972
X98577Y41783
X101117Y41783
X103657Y41783
X106197Y41783
X108737Y41783
X111277Y41783
X74930Y9525
X74930Y13335
X74930Y17145
X74930Y20955
X117754Y34138
X117754Y36678
X76937Y33299
X76937Y28219
X117754Y39218
X117754Y41758
X120167Y12776
X117627Y12776
X120167Y15316
X117627Y15316
X120167Y17856
X117627Y17856
T3
X118110Y50800
X105410Y50800
X102870Y50800
X100330Y50800
X93726Y50800
X91186Y50800
X88646Y50800
X96266Y50800
X86106Y50800
X83566Y50800
X81026Y50800
X78486Y50800
X107950Y2540
X110490Y2540
X113030Y2540
X115570Y2540
X118110Y2540
X100330Y2540
X97790Y2540
X92710Y2540
X90170Y2540
X87630Y2540
X110490Y50800
X75946Y50800
X73406Y50800
X85090Y2540
X82550Y2540
X107950Y50800
X105410Y2540
X95250Y2540
X113030Y50800
X115570Y50800
T4
X83896Y45796
X57150Y49530
X57150Y41910
X88646Y24841
X88646Y19761
X88646Y22301
X87528Y38202
X83896Y38176
X82550Y10160
X82550Y7620
X60630Y48158
X60630Y43078
X71069Y45847
X71069Y43307
X78689Y43307
X78689Y45847
X71069Y40767
X71069Y38227
X78689Y40767
X78689Y38227
X86716Y29540
X94209Y15088
X86589Y15088
X101727Y8433
X109347Y8433
X87528Y45822
X94336Y29540
M30