G04 EAGLE Gerber RS-274X export*
G75*
%MOMM*%
%FSLAX34Y34*%
%LPD*%
%INTop Copper*%
%IPPOS*%
%AMOC8*
5,1,8,0,0,1.08239X$1,22.5*%
G01*
%ADD10P,1.429621X8X112.500000*%
%ADD11P,1.429621X8X292.500000*%
%ADD12C,1.676400*%
%ADD13C,1.320800*%
%ADD14C,1.524000*%
%ADD15P,1.539592X8X292.500000*%
%ADD16C,2.540000*%
%ADD17P,2.749271X8X292.500000*%
%ADD18P,1.814519X8X112.500000*%
%ADD19P,1.429621X8X202.500000*%
%ADD20P,1.429621X8X382.000000*%
%ADD21P,1.814519X8X22.500000*%
%ADD22R,1.308000X1.308000*%
%ADD23C,1.308000*%
%ADD24C,0.152400*%

G36*
X679216Y5846D02*
X679216Y5846D01*
X679235Y5844D01*
X679337Y5866D01*
X679439Y5882D01*
X679456Y5892D01*
X679476Y5896D01*
X679565Y5949D01*
X679656Y5998D01*
X679670Y6012D01*
X679687Y6022D01*
X679754Y6101D01*
X679826Y6176D01*
X679834Y6194D01*
X679847Y6209D01*
X679886Y6305D01*
X679929Y6399D01*
X679931Y6419D01*
X679939Y6437D01*
X679957Y6604D01*
X679957Y526796D01*
X679954Y526816D01*
X679956Y526835D01*
X679934Y526937D01*
X679918Y527039D01*
X679908Y527056D01*
X679904Y527076D01*
X679851Y527165D01*
X679802Y527256D01*
X679788Y527270D01*
X679778Y527287D01*
X679699Y527354D01*
X679624Y527426D01*
X679606Y527434D01*
X679591Y527447D01*
X679495Y527486D01*
X679401Y527529D01*
X679381Y527531D01*
X679363Y527539D01*
X679196Y527557D01*
X6604Y527557D01*
X6584Y527554D01*
X6565Y527556D01*
X6463Y527534D01*
X6361Y527518D01*
X6344Y527508D01*
X6324Y527504D01*
X6235Y527451D01*
X6144Y527402D01*
X6130Y527388D01*
X6113Y527378D01*
X6046Y527299D01*
X5974Y527224D01*
X5966Y527206D01*
X5953Y527191D01*
X5914Y527095D01*
X5871Y527001D01*
X5869Y526981D01*
X5861Y526963D01*
X5843Y526796D01*
X5843Y298704D01*
X5846Y298684D01*
X5844Y298665D01*
X5866Y298563D01*
X5882Y298461D01*
X5892Y298444D01*
X5896Y298424D01*
X5949Y298335D01*
X5998Y298244D01*
X6012Y298230D01*
X6022Y298213D01*
X6101Y298146D01*
X6176Y298074D01*
X6194Y298066D01*
X6209Y298053D01*
X6305Y298014D01*
X6399Y297971D01*
X6419Y297969D01*
X6437Y297961D01*
X6604Y297943D01*
X116986Y297943D01*
X119134Y297053D01*
X120777Y295410D01*
X121667Y293262D01*
X121667Y6604D01*
X121670Y6584D01*
X121668Y6565D01*
X121690Y6463D01*
X121706Y6361D01*
X121716Y6344D01*
X121720Y6324D01*
X121773Y6235D01*
X121822Y6144D01*
X121836Y6130D01*
X121846Y6113D01*
X121925Y6046D01*
X122000Y5974D01*
X122018Y5966D01*
X122033Y5953D01*
X122129Y5914D01*
X122223Y5871D01*
X122243Y5869D01*
X122261Y5861D01*
X122428Y5843D01*
X679196Y5843D01*
X679216Y5846D01*
G37*
%LPC*%
G36*
X265245Y9397D02*
X265245Y9397D01*
X263905Y10737D01*
X263905Y78671D01*
X286288Y101054D01*
X286341Y101128D01*
X286401Y101198D01*
X286413Y101228D01*
X286432Y101254D01*
X286459Y101341D01*
X286493Y101426D01*
X286497Y101467D01*
X286504Y101489D01*
X286503Y101521D01*
X286511Y101593D01*
X286511Y326321D01*
X288074Y327884D01*
X296956Y336766D01*
X297210Y337020D01*
X297263Y337094D01*
X297323Y337164D01*
X297335Y337194D01*
X297354Y337220D01*
X297381Y337307D01*
X297415Y337392D01*
X297419Y337433D01*
X297426Y337455D01*
X297425Y337487D01*
X297433Y337559D01*
X297433Y339409D01*
X302195Y344171D01*
X308929Y344171D01*
X313691Y339409D01*
X313691Y338836D01*
X313694Y338816D01*
X313692Y338797D01*
X313714Y338695D01*
X313730Y338593D01*
X313740Y338576D01*
X313744Y338556D01*
X313797Y338467D01*
X313846Y338376D01*
X313860Y338362D01*
X313870Y338345D01*
X313949Y338278D01*
X314024Y338206D01*
X314042Y338198D01*
X314057Y338185D01*
X314153Y338146D01*
X314247Y338103D01*
X314267Y338101D01*
X314285Y338093D01*
X314452Y338075D01*
X354845Y338075D01*
X354936Y338089D01*
X355026Y338097D01*
X355056Y338109D01*
X355088Y338114D01*
X355169Y338157D01*
X355253Y338193D01*
X355285Y338219D01*
X355306Y338230D01*
X355328Y338253D01*
X355384Y338298D01*
X367314Y350228D01*
X367367Y350302D01*
X367427Y350372D01*
X367439Y350402D01*
X367458Y350428D01*
X367485Y350515D01*
X367519Y350600D01*
X367523Y350641D01*
X367530Y350663D01*
X367529Y350695D01*
X367537Y350767D01*
X367537Y401581D01*
X367523Y401672D01*
X367515Y401762D01*
X367503Y401792D01*
X367498Y401824D01*
X367455Y401905D01*
X367419Y401989D01*
X367393Y402021D01*
X367382Y402042D01*
X367359Y402064D01*
X367314Y402120D01*
X361988Y407446D01*
X361914Y407499D01*
X361844Y407559D01*
X361814Y407571D01*
X361788Y407590D01*
X361701Y407617D01*
X361616Y407651D01*
X361575Y407655D01*
X361553Y407662D01*
X361521Y407661D01*
X361449Y407669D01*
X335019Y407669D01*
X334928Y407655D01*
X334838Y407647D01*
X334808Y407635D01*
X334776Y407630D01*
X334695Y407587D01*
X334611Y407551D01*
X334579Y407525D01*
X334558Y407514D01*
X334536Y407491D01*
X334480Y407446D01*
X320010Y392976D01*
X319957Y392902D01*
X319897Y392832D01*
X319885Y392802D01*
X319866Y392776D01*
X319839Y392689D01*
X319805Y392604D01*
X319801Y392563D01*
X319794Y392541D01*
X319795Y392509D01*
X319787Y392437D01*
X319787Y389890D01*
X319790Y389870D01*
X319788Y389851D01*
X319810Y389749D01*
X319826Y389647D01*
X319836Y389630D01*
X319840Y389610D01*
X319893Y389521D01*
X319942Y389430D01*
X319956Y389416D01*
X319966Y389399D01*
X320045Y389332D01*
X320120Y389260D01*
X320138Y389252D01*
X320153Y389239D01*
X320249Y389200D01*
X320343Y389157D01*
X320363Y389155D01*
X320381Y389147D01*
X320548Y389129D01*
X320867Y389129D01*
X325629Y384367D01*
X325629Y377633D01*
X320867Y372871D01*
X314133Y372871D01*
X313907Y373097D01*
X313891Y373109D01*
X313879Y373124D01*
X313792Y373180D01*
X313708Y373240D01*
X313689Y373246D01*
X313672Y373257D01*
X313571Y373282D01*
X313473Y373313D01*
X313453Y373312D01*
X313433Y373317D01*
X313330Y373309D01*
X313227Y373306D01*
X313208Y373300D01*
X313188Y373298D01*
X313093Y373258D01*
X312996Y373222D01*
X312980Y373209D01*
X312962Y373202D01*
X312831Y373097D01*
X307310Y367576D01*
X305747Y366013D01*
X271341Y366013D01*
X269778Y367576D01*
X251126Y386228D01*
X251047Y386285D01*
X250972Y386347D01*
X250947Y386357D01*
X250926Y386372D01*
X250833Y386400D01*
X250742Y386435D01*
X250716Y386437D01*
X250691Y386444D01*
X250594Y386442D01*
X250496Y386446D01*
X250471Y386439D01*
X250445Y386438D01*
X250354Y386404D01*
X250260Y386377D01*
X250239Y386362D01*
X250214Y386353D01*
X250138Y386293D01*
X250058Y386237D01*
X250042Y386216D01*
X250022Y386200D01*
X249969Y386118D01*
X249911Y386040D01*
X249903Y386015D01*
X249889Y385993D01*
X249865Y385898D01*
X249835Y385806D01*
X249835Y385780D01*
X249829Y385754D01*
X249837Y385657D01*
X249837Y385560D01*
X249847Y385528D01*
X249848Y385509D01*
X249861Y385479D01*
X249884Y385399D01*
X250601Y383667D01*
X250829Y382523D01*
X230123Y382523D01*
X230123Y390145D01*
X242709Y390145D01*
X244475Y389793D01*
X246207Y389076D01*
X246302Y389054D01*
X246395Y389025D01*
X246421Y389026D01*
X246446Y389020D01*
X246543Y389029D01*
X246640Y389032D01*
X246665Y389041D01*
X246691Y389043D01*
X246780Y389083D01*
X246871Y389116D01*
X246892Y389132D01*
X246916Y389143D01*
X246988Y389209D01*
X247064Y389270D01*
X247078Y389292D01*
X247097Y389310D01*
X247144Y389395D01*
X247197Y389477D01*
X247203Y389502D01*
X247216Y389525D01*
X247233Y389621D01*
X247257Y389715D01*
X247255Y389741D01*
X247259Y389767D01*
X247245Y389864D01*
X247237Y389960D01*
X247227Y389984D01*
X247223Y390010D01*
X247179Y390097D01*
X247141Y390187D01*
X247121Y390212D01*
X247112Y390230D01*
X247088Y390253D01*
X247036Y390318D01*
X239306Y398048D01*
X239232Y398101D01*
X239162Y398161D01*
X239132Y398173D01*
X239106Y398192D01*
X239019Y398219D01*
X238934Y398253D01*
X238893Y398257D01*
X238871Y398264D01*
X238839Y398263D01*
X238767Y398271D01*
X226983Y398271D01*
X223995Y399509D01*
X221709Y401795D01*
X220471Y404783D01*
X220471Y408017D01*
X221709Y411005D01*
X223995Y413291D01*
X226983Y414529D01*
X243425Y414529D01*
X246413Y413291D01*
X248699Y411005D01*
X249937Y408017D01*
X249937Y404783D01*
X248699Y401795D01*
X246413Y399509D01*
X245981Y399330D01*
X245942Y399306D01*
X245898Y399290D01*
X245838Y399241D01*
X245772Y399200D01*
X245742Y399165D01*
X245706Y399136D01*
X245664Y399071D01*
X245615Y399011D01*
X245598Y398968D01*
X245573Y398929D01*
X245554Y398854D01*
X245527Y398781D01*
X245525Y398735D01*
X245513Y398691D01*
X245519Y398613D01*
X245516Y398535D01*
X245529Y398491D01*
X245533Y398446D01*
X245563Y398374D01*
X245585Y398299D01*
X245611Y398261D01*
X245629Y398219D01*
X245714Y398112D01*
X245725Y398097D01*
X245729Y398094D01*
X245734Y398088D01*
X273012Y370810D01*
X273086Y370757D01*
X273156Y370697D01*
X273186Y370685D01*
X273212Y370666D01*
X273299Y370639D01*
X273384Y370605D01*
X273425Y370601D01*
X273447Y370594D01*
X273479Y370595D01*
X273551Y370587D01*
X303537Y370587D01*
X303628Y370601D01*
X303718Y370609D01*
X303748Y370621D01*
X303780Y370626D01*
X303861Y370669D01*
X303945Y370705D01*
X303977Y370731D01*
X303998Y370742D01*
X304020Y370765D01*
X304076Y370810D01*
X309597Y376331D01*
X309609Y376347D01*
X309624Y376359D01*
X309680Y376447D01*
X309740Y376531D01*
X309746Y376550D01*
X309757Y376566D01*
X309782Y376667D01*
X309813Y376766D01*
X309812Y376786D01*
X309817Y376805D01*
X309809Y376908D01*
X309806Y377011D01*
X309800Y377030D01*
X309798Y377050D01*
X309758Y377145D01*
X309722Y377243D01*
X309709Y377258D01*
X309702Y377276D01*
X309597Y377407D01*
X309371Y377633D01*
X309371Y384367D01*
X314133Y389129D01*
X314452Y389129D01*
X314472Y389132D01*
X314491Y389130D01*
X314593Y389152D01*
X314695Y389168D01*
X314712Y389178D01*
X314732Y389182D01*
X314821Y389235D01*
X314912Y389284D01*
X314926Y389298D01*
X314943Y389308D01*
X315010Y389387D01*
X315082Y389462D01*
X315090Y389480D01*
X315103Y389495D01*
X315142Y389591D01*
X315185Y389685D01*
X315187Y389705D01*
X315195Y389723D01*
X315213Y389890D01*
X315213Y394647D01*
X332809Y412243D01*
X363659Y412243D01*
X372111Y403791D01*
X372111Y348557D01*
X357055Y333501D01*
X314452Y333501D01*
X314432Y333498D01*
X314413Y333500D01*
X314311Y333478D01*
X314209Y333462D01*
X314192Y333452D01*
X314172Y333448D01*
X314083Y333395D01*
X313992Y333346D01*
X313978Y333332D01*
X313961Y333322D01*
X313894Y333243D01*
X313822Y333168D01*
X313814Y333150D01*
X313801Y333135D01*
X313762Y333039D01*
X313719Y332945D01*
X313717Y332925D01*
X313709Y332907D01*
X313691Y332740D01*
X313691Y332675D01*
X308929Y327913D01*
X302195Y327913D01*
X298921Y331187D01*
X298905Y331199D01*
X298893Y331214D01*
X298806Y331270D01*
X298722Y331330D01*
X298703Y331336D01*
X298686Y331347D01*
X298585Y331372D01*
X298487Y331403D01*
X298467Y331402D01*
X298447Y331407D01*
X298344Y331399D01*
X298241Y331396D01*
X298222Y331390D01*
X298202Y331388D01*
X298107Y331348D01*
X298010Y331312D01*
X297994Y331299D01*
X297976Y331292D01*
X297845Y331187D01*
X291308Y324650D01*
X291255Y324576D01*
X291195Y324506D01*
X291183Y324476D01*
X291164Y324450D01*
X291137Y324363D01*
X291103Y324278D01*
X291099Y324237D01*
X291092Y324215D01*
X291093Y324183D01*
X291085Y324112D01*
X291085Y99383D01*
X268702Y77000D01*
X268649Y76926D01*
X268589Y76856D01*
X268577Y76826D01*
X268558Y76800D01*
X268531Y76713D01*
X268497Y76628D01*
X268493Y76587D01*
X268486Y76565D01*
X268487Y76533D01*
X268479Y76461D01*
X268479Y30327D01*
X268490Y30256D01*
X268492Y30184D01*
X268510Y30135D01*
X268518Y30084D01*
X268552Y30021D01*
X268577Y29953D01*
X268609Y29913D01*
X268634Y29867D01*
X268686Y29817D01*
X268730Y29761D01*
X268774Y29733D01*
X268812Y29697D01*
X268877Y29667D01*
X268937Y29628D01*
X268988Y29616D01*
X269035Y29594D01*
X269106Y29586D01*
X269176Y29568D01*
X269228Y29572D01*
X269279Y29567D01*
X269350Y29582D01*
X269421Y29587D01*
X269469Y29608D01*
X269520Y29619D01*
X269581Y29656D01*
X269647Y29684D01*
X269703Y29728D01*
X269731Y29745D01*
X269746Y29763D01*
X269778Y29788D01*
X275296Y35307D01*
X283504Y35307D01*
X289307Y29504D01*
X289307Y21296D01*
X283504Y15493D01*
X275296Y15493D01*
X269778Y21012D01*
X269720Y21053D01*
X269668Y21103D01*
X269621Y21125D01*
X269579Y21155D01*
X269510Y21176D01*
X269445Y21206D01*
X269393Y21212D01*
X269343Y21227D01*
X269272Y21226D01*
X269201Y21233D01*
X269150Y21222D01*
X269098Y21221D01*
X269030Y21196D01*
X268960Y21181D01*
X268915Y21154D01*
X268867Y21137D01*
X268811Y21092D01*
X268749Y21055D01*
X268715Y21015D01*
X268675Y20983D01*
X268636Y20923D01*
X268589Y20868D01*
X268570Y20820D01*
X268542Y20776D01*
X268524Y20707D01*
X268497Y20640D01*
X268489Y20569D01*
X268481Y20537D01*
X268483Y20514D01*
X268479Y20473D01*
X268479Y14732D01*
X268482Y14712D01*
X268480Y14693D01*
X268502Y14591D01*
X268518Y14489D01*
X268528Y14472D01*
X268532Y14452D01*
X268585Y14363D01*
X268634Y14272D01*
X268648Y14258D01*
X268658Y14241D01*
X268737Y14174D01*
X268812Y14102D01*
X268830Y14094D01*
X268845Y14081D01*
X268941Y14042D01*
X269035Y13999D01*
X269055Y13997D01*
X269073Y13989D01*
X269240Y13971D01*
X646438Y13971D01*
X646528Y13985D01*
X646619Y13993D01*
X646648Y14005D01*
X646680Y14010D01*
X646761Y14053D01*
X646845Y14089D01*
X646877Y14115D01*
X646898Y14126D01*
X646920Y14149D01*
X646976Y14194D01*
X664748Y31966D01*
X664793Y32028D01*
X664822Y32058D01*
X664827Y32070D01*
X664861Y32110D01*
X664873Y32140D01*
X664892Y32166D01*
X664919Y32253D01*
X664953Y32338D01*
X664957Y32379D01*
X664964Y32401D01*
X664963Y32433D01*
X664971Y32504D01*
X664971Y58173D01*
X664957Y58264D01*
X664949Y58354D01*
X664937Y58384D01*
X664932Y58416D01*
X664889Y58497D01*
X664853Y58581D01*
X664827Y58613D01*
X664816Y58634D01*
X664793Y58656D01*
X664748Y58712D01*
X664209Y59251D01*
X664209Y70319D01*
X664198Y70390D01*
X664196Y70461D01*
X664178Y70510D01*
X664170Y70562D01*
X664136Y70625D01*
X664111Y70692D01*
X664079Y70733D01*
X664054Y70779D01*
X664002Y70828D01*
X663958Y70884D01*
X663914Y70913D01*
X663876Y70948D01*
X663811Y70979D01*
X663751Y71017D01*
X663700Y71030D01*
X663653Y71052D01*
X663582Y71060D01*
X663512Y71077D01*
X663460Y71073D01*
X663409Y71079D01*
X663338Y71064D01*
X663267Y71058D01*
X663219Y71038D01*
X663168Y71027D01*
X663107Y70990D01*
X663041Y70962D01*
X662985Y70917D01*
X662957Y70901D01*
X662942Y70883D01*
X662910Y70857D01*
X660500Y68447D01*
X657139Y67055D01*
X638261Y67055D01*
X634900Y68447D01*
X632327Y71020D01*
X631324Y73443D01*
X631262Y73543D01*
X631202Y73643D01*
X631197Y73647D01*
X631194Y73652D01*
X631104Y73727D01*
X631015Y73803D01*
X631009Y73805D01*
X631005Y73809D01*
X630896Y73851D01*
X630787Y73895D01*
X630780Y73896D01*
X630775Y73897D01*
X630757Y73898D01*
X630620Y73913D01*
X616705Y73913D01*
X616614Y73899D01*
X616524Y73891D01*
X616494Y73879D01*
X616462Y73874D01*
X616381Y73831D01*
X616297Y73795D01*
X616265Y73769D01*
X616244Y73758D01*
X616222Y73735D01*
X616166Y73690D01*
X585909Y43433D01*
X427983Y43433D01*
X427892Y43419D01*
X427802Y43411D01*
X427772Y43399D01*
X427740Y43394D01*
X427659Y43351D01*
X427575Y43315D01*
X427543Y43289D01*
X427522Y43278D01*
X427500Y43255D01*
X427444Y43210D01*
X415560Y31326D01*
X415549Y31310D01*
X415533Y31298D01*
X415477Y31211D01*
X415417Y31127D01*
X415411Y31108D01*
X415400Y31091D01*
X415375Y30990D01*
X415344Y30892D01*
X415345Y30872D01*
X415340Y30852D01*
X415348Y30749D01*
X415351Y30646D01*
X415358Y30627D01*
X415359Y30607D01*
X415400Y30512D01*
X415435Y30415D01*
X415448Y30399D01*
X415456Y30381D01*
X415560Y30250D01*
X416307Y29504D01*
X416307Y21296D01*
X410504Y15493D01*
X402296Y15493D01*
X396493Y21296D01*
X396493Y29504D01*
X402296Y35307D01*
X410504Y35307D01*
X411250Y34560D01*
X411266Y34549D01*
X411279Y34533D01*
X411366Y34477D01*
X411450Y34417D01*
X411469Y34411D01*
X411485Y34400D01*
X411586Y34375D01*
X411685Y34344D01*
X411705Y34345D01*
X411724Y34340D01*
X411827Y34348D01*
X411931Y34351D01*
X411949Y34358D01*
X411969Y34359D01*
X412064Y34400D01*
X412162Y34435D01*
X412177Y34448D01*
X412195Y34456D01*
X412326Y34560D01*
X425773Y48007D01*
X583699Y48007D01*
X583790Y48021D01*
X583880Y48029D01*
X583910Y48041D01*
X583942Y48046D01*
X584023Y48089D01*
X584107Y48125D01*
X584139Y48151D01*
X584160Y48162D01*
X584182Y48185D01*
X584238Y48230D01*
X614495Y78487D01*
X630620Y78487D01*
X630735Y78506D01*
X630851Y78523D01*
X630857Y78525D01*
X630863Y78526D01*
X630966Y78581D01*
X631071Y78634D01*
X631075Y78639D01*
X631080Y78642D01*
X631160Y78726D01*
X631243Y78810D01*
X631246Y78816D01*
X631250Y78820D01*
X631258Y78837D01*
X631324Y78957D01*
X632327Y81380D01*
X634900Y83953D01*
X638261Y85345D01*
X657139Y85345D01*
X660500Y83953D01*
X662910Y81543D01*
X662968Y81501D01*
X663020Y81452D01*
X663067Y81430D01*
X663109Y81399D01*
X663178Y81378D01*
X663243Y81348D01*
X663295Y81342D01*
X663345Y81327D01*
X663416Y81329D01*
X663487Y81321D01*
X663538Y81332D01*
X663590Y81333D01*
X663658Y81358D01*
X663728Y81373D01*
X663773Y81400D01*
X663821Y81418D01*
X663877Y81463D01*
X663939Y81499D01*
X663973Y81539D01*
X664013Y81571D01*
X664052Y81632D01*
X664099Y81686D01*
X664118Y81735D01*
X664146Y81778D01*
X664164Y81848D01*
X664191Y81914D01*
X664199Y81986D01*
X664207Y82017D01*
X664205Y82040D01*
X664209Y82081D01*
X664209Y95719D01*
X664198Y95790D01*
X664196Y95861D01*
X664178Y95910D01*
X664170Y95962D01*
X664136Y96025D01*
X664111Y96092D01*
X664079Y96133D01*
X664054Y96179D01*
X664002Y96228D01*
X663958Y96284D01*
X663914Y96313D01*
X663876Y96348D01*
X663811Y96379D01*
X663751Y96417D01*
X663700Y96430D01*
X663653Y96452D01*
X663582Y96460D01*
X663512Y96477D01*
X663460Y96473D01*
X663409Y96479D01*
X663338Y96464D01*
X663267Y96458D01*
X663219Y96438D01*
X663168Y96427D01*
X663107Y96390D01*
X663041Y96362D01*
X662985Y96317D01*
X662957Y96301D01*
X662942Y96283D01*
X662910Y96257D01*
X660500Y93847D01*
X657139Y92455D01*
X638261Y92455D01*
X634900Y93847D01*
X632327Y96420D01*
X632106Y96954D01*
X632082Y96993D01*
X632067Y97036D01*
X632018Y97096D01*
X631977Y97163D01*
X631942Y97192D01*
X631913Y97228D01*
X631847Y97270D01*
X631787Y97319D01*
X631745Y97336D01*
X631706Y97361D01*
X631630Y97380D01*
X631558Y97408D01*
X631512Y97410D01*
X631467Y97421D01*
X631390Y97415D01*
X631312Y97418D01*
X631268Y97405D01*
X631222Y97402D01*
X631151Y97371D01*
X631076Y97349D01*
X631038Y97323D01*
X630996Y97305D01*
X630889Y97220D01*
X630874Y97209D01*
X630871Y97205D01*
X630865Y97201D01*
X586280Y52616D01*
X584718Y51053D01*
X359402Y51053D01*
X359312Y51039D01*
X359221Y51031D01*
X359192Y51019D01*
X359160Y51014D01*
X359079Y50971D01*
X358995Y50935D01*
X358963Y50909D01*
X358942Y50898D01*
X358920Y50875D01*
X358864Y50830D01*
X339360Y31326D01*
X339349Y31310D01*
X339333Y31298D01*
X339277Y31210D01*
X339217Y31127D01*
X339211Y31108D01*
X339200Y31091D01*
X339175Y30990D01*
X339144Y30892D01*
X339145Y30872D01*
X339140Y30852D01*
X339148Y30749D01*
X339151Y30646D01*
X339158Y30627D01*
X339159Y30607D01*
X339200Y30512D01*
X339235Y30415D01*
X339248Y30399D01*
X339256Y30381D01*
X339360Y30250D01*
X340107Y29504D01*
X340107Y21296D01*
X334304Y15493D01*
X326096Y15493D01*
X320293Y21296D01*
X320293Y29504D01*
X326096Y35307D01*
X334304Y35307D01*
X335050Y34560D01*
X335066Y34549D01*
X335079Y34533D01*
X335166Y34477D01*
X335250Y34417D01*
X335269Y34411D01*
X335285Y34400D01*
X335386Y34375D01*
X335485Y34344D01*
X335505Y34345D01*
X335524Y34340D01*
X335627Y34348D01*
X335731Y34351D01*
X335749Y34358D01*
X335769Y34359D01*
X335864Y34400D01*
X335962Y34435D01*
X335977Y34448D01*
X335995Y34456D01*
X336126Y34560D01*
X355630Y54064D01*
X357193Y55627D01*
X582508Y55627D01*
X582598Y55641D01*
X582689Y55649D01*
X582719Y55661D01*
X582751Y55666D01*
X582831Y55709D01*
X582915Y55745D01*
X582947Y55771D01*
X582968Y55782D01*
X582990Y55805D01*
X583046Y55850D01*
X631052Y103856D01*
X631087Y103904D01*
X631138Y103956D01*
X631141Y103962D01*
X631145Y103966D01*
X631152Y103983D01*
X631182Y104036D01*
X631196Y104055D01*
X631200Y104069D01*
X631218Y104103D01*
X632327Y106780D01*
X634900Y109353D01*
X638261Y110745D01*
X657139Y110745D01*
X660500Y109353D01*
X662910Y106943D01*
X662968Y106901D01*
X663020Y106852D01*
X663067Y106830D01*
X663109Y106799D01*
X663178Y106778D01*
X663243Y106748D01*
X663295Y106742D01*
X663345Y106727D01*
X663416Y106729D01*
X663487Y106721D01*
X663538Y106732D01*
X663590Y106733D01*
X663658Y106758D01*
X663728Y106773D01*
X663773Y106800D01*
X663821Y106818D01*
X663877Y106863D01*
X663939Y106899D01*
X663973Y106939D01*
X664013Y106971D01*
X664052Y107032D01*
X664099Y107086D01*
X664118Y107135D01*
X664146Y107178D01*
X664164Y107248D01*
X664191Y107314D01*
X664199Y107386D01*
X664207Y107417D01*
X664205Y107440D01*
X664209Y107481D01*
X664209Y145041D01*
X664195Y145132D01*
X664187Y145222D01*
X664175Y145252D01*
X664170Y145284D01*
X664127Y145365D01*
X664091Y145449D01*
X664065Y145481D01*
X664054Y145502D01*
X664031Y145524D01*
X663986Y145580D01*
X653626Y155940D01*
X653610Y155951D01*
X653598Y155967D01*
X653511Y156023D01*
X653427Y156083D01*
X653408Y156089D01*
X653391Y156100D01*
X653290Y156125D01*
X653192Y156156D01*
X653172Y156155D01*
X653152Y156160D01*
X653049Y156152D01*
X652946Y156149D01*
X652927Y156142D01*
X652907Y156141D01*
X652812Y156100D01*
X652715Y156065D01*
X652699Y156052D01*
X652681Y156044D01*
X652550Y155940D01*
X651804Y155193D01*
X643596Y155193D01*
X637793Y160996D01*
X637793Y169204D01*
X643596Y175007D01*
X651804Y175007D01*
X657607Y169204D01*
X657607Y160996D01*
X656860Y160250D01*
X656849Y160234D01*
X656833Y160222D01*
X656777Y160134D01*
X656717Y160050D01*
X656711Y160031D01*
X656700Y160015D01*
X656675Y159914D01*
X656644Y159815D01*
X656645Y159795D01*
X656640Y159776D01*
X656648Y159673D01*
X656651Y159569D01*
X656658Y159551D01*
X656659Y159531D01*
X656700Y159436D01*
X656735Y159338D01*
X656748Y159323D01*
X656756Y159305D01*
X656860Y159174D01*
X668783Y147251D01*
X668783Y61461D01*
X668797Y61370D01*
X668805Y61280D01*
X668817Y61250D01*
X668822Y61218D01*
X668865Y61137D01*
X668901Y61053D01*
X668927Y61021D01*
X668938Y61000D01*
X668961Y60978D01*
X669006Y60922D01*
X669545Y60383D01*
X669545Y30295D01*
X667982Y28732D01*
X650210Y10960D01*
X648647Y9397D01*
X265245Y9397D01*
G37*
%LPD*%
%LPC*%
G36*
X362019Y57657D02*
X362019Y57657D01*
X342391Y77285D01*
X342391Y167393D01*
X342377Y167484D01*
X342369Y167574D01*
X342357Y167604D01*
X342352Y167636D01*
X342309Y167717D01*
X342273Y167801D01*
X342247Y167833D01*
X342236Y167854D01*
X342213Y167876D01*
X342168Y167932D01*
X338874Y171226D01*
X338800Y171279D01*
X338730Y171339D01*
X338700Y171351D01*
X338674Y171370D01*
X338587Y171397D01*
X338502Y171431D01*
X338461Y171435D01*
X338439Y171442D01*
X338407Y171441D01*
X338336Y171449D01*
X325535Y171449D01*
X322547Y172687D01*
X320261Y174973D01*
X319495Y176821D01*
X319433Y176921D01*
X319374Y177021D01*
X319369Y177025D01*
X319366Y177030D01*
X319275Y177105D01*
X319187Y177181D01*
X319181Y177183D01*
X319176Y177187D01*
X319068Y177229D01*
X318959Y177273D01*
X318951Y177274D01*
X318947Y177275D01*
X318928Y177276D01*
X318835Y177287D01*
X318827Y177289D01*
X318821Y177288D01*
X318792Y177291D01*
X318763Y177291D01*
X318723Y177285D01*
X318701Y177286D01*
X318668Y177276D01*
X318582Y177269D01*
X318552Y177257D01*
X318520Y177252D01*
X318439Y177209D01*
X318355Y177173D01*
X318323Y177147D01*
X318302Y177136D01*
X318280Y177113D01*
X318224Y177068D01*
X303246Y162090D01*
X303193Y162016D01*
X303133Y161946D01*
X303121Y161916D01*
X303102Y161890D01*
X303075Y161803D01*
X303041Y161718D01*
X303037Y161677D01*
X303030Y161655D01*
X303031Y161623D01*
X303023Y161551D01*
X303023Y86175D01*
X299241Y82393D01*
X299229Y82377D01*
X299214Y82365D01*
X299158Y82277D01*
X299098Y82193D01*
X299092Y82174D01*
X299081Y82158D01*
X299056Y82057D01*
X299025Y81958D01*
X299026Y81938D01*
X299021Y81919D01*
X299029Y81816D01*
X299032Y81713D01*
X299038Y81694D01*
X299040Y81674D01*
X299080Y81579D01*
X299116Y81481D01*
X299129Y81466D01*
X299136Y81448D01*
X299241Y81317D01*
X299467Y81091D01*
X299467Y74357D01*
X294705Y69595D01*
X287971Y69595D01*
X283209Y74357D01*
X283209Y81091D01*
X287971Y85853D01*
X294705Y85853D01*
X294931Y85627D01*
X294947Y85615D01*
X294959Y85600D01*
X295046Y85544D01*
X295130Y85484D01*
X295149Y85478D01*
X295166Y85467D01*
X295267Y85442D01*
X295365Y85411D01*
X295385Y85412D01*
X295405Y85407D01*
X295508Y85415D01*
X295611Y85418D01*
X295630Y85424D01*
X295650Y85426D01*
X295745Y85466D01*
X295842Y85502D01*
X295858Y85514D01*
X295876Y85522D01*
X296007Y85627D01*
X298226Y87846D01*
X298279Y87920D01*
X298339Y87990D01*
X298351Y88020D01*
X298370Y88046D01*
X298397Y88133D01*
X298431Y88218D01*
X298435Y88259D01*
X298442Y88281D01*
X298441Y88313D01*
X298449Y88385D01*
X298449Y163761D01*
X316553Y181865D01*
X318792Y181865D01*
X318907Y181884D01*
X319023Y181901D01*
X319029Y181903D01*
X319035Y181904D01*
X319137Y181959D01*
X319242Y182012D01*
X319247Y182017D01*
X319252Y182020D01*
X319332Y182104D01*
X319415Y182188D01*
X319418Y182194D01*
X319422Y182198D01*
X319429Y182215D01*
X319495Y182335D01*
X320261Y184183D01*
X322547Y186469D01*
X325535Y187707D01*
X341977Y187707D01*
X344965Y186469D01*
X347251Y184183D01*
X348489Y181195D01*
X348489Y177961D01*
X347251Y174973D01*
X344961Y172683D01*
X344949Y172667D01*
X344934Y172655D01*
X344878Y172568D01*
X344818Y172484D01*
X344812Y172465D01*
X344801Y172448D01*
X344776Y172348D01*
X344745Y172249D01*
X344746Y172229D01*
X344741Y172209D01*
X344749Y172106D01*
X344752Y172003D01*
X344758Y171984D01*
X344760Y171964D01*
X344800Y171869D01*
X344836Y171772D01*
X344849Y171756D01*
X344856Y171738D01*
X344961Y171607D01*
X345402Y171166D01*
X346965Y169603D01*
X346965Y79495D01*
X346980Y79404D01*
X346987Y79314D01*
X346999Y79284D01*
X347004Y79252D01*
X347047Y79171D01*
X347083Y79087D01*
X347109Y79055D01*
X347120Y79034D01*
X347143Y79012D01*
X347188Y78956D01*
X363690Y62454D01*
X363764Y62401D01*
X363834Y62341D01*
X363864Y62329D01*
X363890Y62310D01*
X363977Y62283D01*
X364062Y62249D01*
X364103Y62245D01*
X364125Y62238D01*
X364157Y62239D01*
X364229Y62231D01*
X578182Y62231D01*
X578272Y62245D01*
X578363Y62253D01*
X578393Y62265D01*
X578425Y62270D01*
X578506Y62313D01*
X578590Y62349D01*
X578622Y62375D01*
X578643Y62386D01*
X578665Y62409D01*
X578721Y62454D01*
X579229Y62962D01*
X579271Y63020D01*
X579320Y63072D01*
X579342Y63119D01*
X579372Y63161D01*
X579393Y63230D01*
X579424Y63295D01*
X579429Y63347D01*
X579445Y63397D01*
X579443Y63468D01*
X579451Y63539D01*
X579440Y63590D01*
X579438Y63642D01*
X579414Y63710D01*
X579399Y63780D01*
X579372Y63825D01*
X579354Y63873D01*
X579309Y63929D01*
X579272Y63991D01*
X579233Y64025D01*
X579200Y64065D01*
X579140Y64104D01*
X579085Y64151D01*
X579037Y64170D01*
X578993Y64198D01*
X578924Y64216D01*
X578857Y64243D01*
X578786Y64251D01*
X578755Y64259D01*
X578731Y64257D01*
X578691Y64261D01*
X379037Y64261D01*
X372842Y70456D01*
X372826Y70468D01*
X372814Y70483D01*
X372726Y70539D01*
X372642Y70599D01*
X372623Y70605D01*
X372607Y70616D01*
X372506Y70641D01*
X372407Y70672D01*
X372387Y70671D01*
X372368Y70676D01*
X372265Y70668D01*
X372162Y70665D01*
X372143Y70659D01*
X372123Y70657D01*
X372028Y70617D01*
X371930Y70581D01*
X371915Y70568D01*
X371897Y70561D01*
X371766Y70456D01*
X370905Y69595D01*
X364171Y69595D01*
X359409Y74357D01*
X359409Y81091D01*
X364171Y85853D01*
X364744Y85853D01*
X364764Y85856D01*
X364783Y85854D01*
X364885Y85876D01*
X364987Y85892D01*
X365004Y85902D01*
X365024Y85906D01*
X365113Y85959D01*
X365204Y86008D01*
X365218Y86022D01*
X365235Y86032D01*
X365302Y86111D01*
X365374Y86186D01*
X365382Y86204D01*
X365395Y86219D01*
X365434Y86315D01*
X365477Y86409D01*
X365479Y86429D01*
X365487Y86447D01*
X365505Y86614D01*
X365505Y279585D01*
X405707Y319787D01*
X410809Y319787D01*
X410924Y319806D01*
X411040Y319823D01*
X411046Y319825D01*
X411052Y319826D01*
X411155Y319881D01*
X411260Y319934D01*
X411264Y319939D01*
X411269Y319942D01*
X411349Y320026D01*
X411432Y320110D01*
X411435Y320116D01*
X411439Y320120D01*
X411447Y320137D01*
X411513Y320257D01*
X412263Y322068D01*
X414532Y324337D01*
X417496Y325565D01*
X420704Y325565D01*
X423668Y324337D01*
X425937Y322068D01*
X427165Y319104D01*
X427165Y315896D01*
X425937Y312932D01*
X423668Y310663D01*
X420704Y309435D01*
X417496Y309435D01*
X414532Y310663D01*
X412263Y312932D01*
X411513Y314743D01*
X411451Y314843D01*
X411391Y314943D01*
X411386Y314947D01*
X411383Y314952D01*
X411293Y315027D01*
X411204Y315103D01*
X411198Y315105D01*
X411194Y315109D01*
X411085Y315151D01*
X410976Y315195D01*
X410969Y315196D01*
X410964Y315197D01*
X410946Y315198D01*
X410809Y315213D01*
X407917Y315213D01*
X407826Y315199D01*
X407736Y315191D01*
X407706Y315179D01*
X407674Y315174D01*
X407593Y315131D01*
X407509Y315095D01*
X407477Y315069D01*
X407456Y315058D01*
X407434Y315035D01*
X407378Y314990D01*
X370302Y277914D01*
X370249Y277840D01*
X370189Y277770D01*
X370177Y277740D01*
X370158Y277714D01*
X370131Y277627D01*
X370097Y277542D01*
X370093Y277501D01*
X370086Y277479D01*
X370087Y277447D01*
X370079Y277375D01*
X370079Y86614D01*
X370082Y86594D01*
X370080Y86575D01*
X370102Y86473D01*
X370118Y86371D01*
X370128Y86354D01*
X370132Y86334D01*
X370185Y86245D01*
X370234Y86154D01*
X370248Y86140D01*
X370258Y86123D01*
X370337Y86056D01*
X370412Y85984D01*
X370430Y85976D01*
X370445Y85963D01*
X370541Y85924D01*
X370635Y85881D01*
X370655Y85879D01*
X370673Y85871D01*
X370840Y85853D01*
X370905Y85853D01*
X375667Y81091D01*
X375667Y74415D01*
X375681Y74324D01*
X375689Y74234D01*
X375701Y74204D01*
X375706Y74172D01*
X375749Y74091D01*
X375785Y74007D01*
X375811Y73975D01*
X375822Y73954D01*
X375845Y73932D01*
X375890Y73876D01*
X380708Y69058D01*
X380782Y69005D01*
X380852Y68945D01*
X380882Y68933D01*
X380908Y68914D01*
X380995Y68887D01*
X381080Y68853D01*
X381121Y68849D01*
X381143Y68842D01*
X381175Y68843D01*
X381247Y68835D01*
X576552Y68835D01*
X576643Y68850D01*
X576735Y68857D01*
X576772Y68871D01*
X576794Y68874D01*
X576794Y68875D01*
X576823Y68890D01*
X576892Y68915D01*
X576949Y68957D01*
X577012Y68990D01*
X577048Y69028D01*
X577091Y69059D01*
X577133Y69117D01*
X577181Y69168D01*
X577204Y69216D01*
X577234Y69259D01*
X577255Y69327D01*
X577285Y69391D01*
X577291Y69444D01*
X577306Y69495D01*
X577304Y69565D01*
X577312Y69635D01*
X577301Y69687D01*
X577299Y69741D01*
X577275Y69807D01*
X577260Y69876D01*
X577232Y69921D01*
X577214Y69971D01*
X577170Y70026D01*
X577133Y70087D01*
X577093Y70121D01*
X577060Y70163D01*
X577000Y70201D01*
X576947Y70247D01*
X576897Y70267D01*
X576852Y70295D01*
X576784Y70312D01*
X576718Y70339D01*
X576645Y70347D01*
X576614Y70355D01*
X576591Y70353D01*
X576552Y70357D01*
X408247Y70357D01*
X389888Y88716D01*
X389888Y122630D01*
X389885Y122646D01*
X389887Y122663D01*
X389865Y122767D01*
X389848Y122873D01*
X389840Y122887D01*
X389837Y122903D01*
X389783Y122996D01*
X389733Y123090D01*
X389721Y123101D01*
X389713Y123116D01*
X389632Y123186D01*
X389555Y123259D01*
X389540Y123266D01*
X389527Y123277D01*
X389429Y123318D01*
X389332Y123363D01*
X389315Y123365D01*
X389300Y123371D01*
X389133Y123391D01*
X388737Y123394D01*
X384017Y128198D01*
X384076Y134931D01*
X388879Y139651D01*
X395612Y139593D01*
X400332Y134789D01*
X400274Y128056D01*
X395470Y123336D01*
X395229Y123338D01*
X395206Y123334D01*
X395183Y123337D01*
X395085Y123316D01*
X394986Y123300D01*
X394965Y123290D01*
X394943Y123285D01*
X394857Y123233D01*
X394768Y123187D01*
X394751Y123170D01*
X394732Y123158D01*
X394666Y123082D01*
X394597Y123010D01*
X394587Y122989D01*
X394572Y122971D01*
X394534Y122878D01*
X394491Y122788D01*
X394488Y122765D01*
X394480Y122743D01*
X394461Y122577D01*
X394461Y90926D01*
X394476Y90836D01*
X394483Y90745D01*
X394496Y90715D01*
X394501Y90683D01*
X394544Y90603D01*
X394579Y90519D01*
X394605Y90487D01*
X394616Y90466D01*
X394639Y90444D01*
X394684Y90388D01*
X409918Y75154D01*
X409992Y75101D01*
X410062Y75041D01*
X410092Y75029D01*
X410118Y75010D01*
X410205Y74983D01*
X410290Y74949D01*
X410331Y74945D01*
X410353Y74938D01*
X410385Y74939D01*
X410457Y74931D01*
X574047Y74931D01*
X574138Y74945D01*
X574228Y74953D01*
X574258Y74965D01*
X574290Y74970D01*
X574371Y75013D01*
X574455Y75049D01*
X574487Y75075D01*
X574508Y75086D01*
X574530Y75109D01*
X574586Y75154D01*
X578968Y79536D01*
X579010Y79594D01*
X579059Y79646D01*
X579081Y79693D01*
X579111Y79735D01*
X579132Y79804D01*
X579163Y79869D01*
X579168Y79921D01*
X579184Y79971D01*
X579182Y80042D01*
X579190Y80113D01*
X579179Y80164D01*
X579177Y80216D01*
X579153Y80284D01*
X579138Y80354D01*
X579111Y80399D01*
X579093Y80447D01*
X579048Y80503D01*
X579011Y80565D01*
X578972Y80599D01*
X578939Y80639D01*
X578879Y80678D01*
X578824Y80725D01*
X578776Y80744D01*
X578732Y80772D01*
X578663Y80790D01*
X578596Y80817D01*
X578525Y80825D01*
X578494Y80833D01*
X578470Y80831D01*
X578430Y80835D01*
X564328Y80835D01*
X563435Y81728D01*
X563435Y96072D01*
X564328Y96965D01*
X578672Y96965D01*
X579565Y96072D01*
X579565Y81970D01*
X579576Y81900D01*
X579578Y81828D01*
X579596Y81779D01*
X579604Y81728D01*
X579638Y81664D01*
X579663Y81597D01*
X579695Y81556D01*
X579720Y81510D01*
X579772Y81461D01*
X579816Y81405D01*
X579860Y81377D01*
X579898Y81341D01*
X579963Y81311D01*
X580023Y81272D01*
X580074Y81259D01*
X580121Y81237D01*
X580192Y81229D01*
X580262Y81212D01*
X580314Y81216D01*
X580365Y81210D01*
X580436Y81225D01*
X580507Y81231D01*
X580555Y81251D01*
X580606Y81262D01*
X580667Y81299D01*
X580733Y81327D01*
X580789Y81372D01*
X580817Y81389D01*
X580832Y81406D01*
X580864Y81432D01*
X594009Y94577D01*
X594062Y94651D01*
X594122Y94721D01*
X594134Y94751D01*
X594153Y94777D01*
X594180Y94864D01*
X594214Y94949D01*
X594218Y94990D01*
X594225Y95012D01*
X594224Y95044D01*
X594232Y95116D01*
X594232Y167132D01*
X594229Y167152D01*
X594231Y167171D01*
X594209Y167273D01*
X594193Y167375D01*
X594183Y167392D01*
X594179Y167412D01*
X594126Y167501D01*
X594077Y167592D01*
X594063Y167606D01*
X594053Y167623D01*
X593974Y167690D01*
X593899Y167762D01*
X593881Y167770D01*
X593866Y167783D01*
X593770Y167822D01*
X593676Y167865D01*
X593656Y167867D01*
X593638Y167875D01*
X593471Y167893D01*
X580211Y167893D01*
X580166Y167886D01*
X580120Y167888D01*
X580045Y167866D01*
X579969Y167854D01*
X579928Y167832D01*
X579884Y167819D01*
X579820Y167775D01*
X579751Y167738D01*
X579720Y167705D01*
X579682Y167679D01*
X579636Y167616D01*
X579582Y167560D01*
X579563Y167518D01*
X579535Y167482D01*
X579511Y167408D01*
X579478Y167337D01*
X579473Y167291D01*
X579459Y167248D01*
X579460Y167170D01*
X579451Y167093D01*
X579461Y167048D01*
X579461Y167002D01*
X579500Y166871D01*
X579504Y166852D01*
X579506Y166848D01*
X579508Y166841D01*
X579565Y166704D01*
X579565Y163496D01*
X578337Y160532D01*
X576068Y158263D01*
X573104Y157035D01*
X569896Y157035D01*
X566932Y158263D01*
X564663Y160532D01*
X563435Y163496D01*
X563435Y166704D01*
X564663Y169668D01*
X566932Y171937D01*
X569896Y173165D01*
X573104Y173165D01*
X574916Y172414D01*
X575030Y172388D01*
X575143Y172359D01*
X575149Y172360D01*
X575155Y172358D01*
X575271Y172369D01*
X575388Y172378D01*
X575394Y172381D01*
X575400Y172381D01*
X575506Y172429D01*
X575596Y172467D01*
X593471Y172467D01*
X593491Y172470D01*
X593510Y172468D01*
X593612Y172490D01*
X593714Y172506D01*
X593731Y172516D01*
X593751Y172520D01*
X593840Y172573D01*
X593931Y172622D01*
X593945Y172636D01*
X593962Y172646D01*
X594029Y172725D01*
X594101Y172800D01*
X594109Y172818D01*
X594122Y172833D01*
X594161Y172929D01*
X594204Y173023D01*
X594206Y173043D01*
X594214Y173061D01*
X594232Y173228D01*
X594232Y190312D01*
X613517Y209596D01*
X613529Y209612D01*
X613544Y209625D01*
X613600Y209712D01*
X613660Y209796D01*
X613666Y209815D01*
X613677Y209832D01*
X613702Y209932D01*
X613733Y210031D01*
X613732Y210051D01*
X613737Y210070D01*
X613729Y210173D01*
X613726Y210277D01*
X613720Y210296D01*
X613718Y210316D01*
X613678Y210410D01*
X613642Y210508D01*
X613630Y210524D01*
X613622Y210542D01*
X613517Y210673D01*
X612393Y211796D01*
X612393Y220004D01*
X618196Y225807D01*
X626404Y225807D01*
X632207Y220004D01*
X632207Y218948D01*
X632210Y218928D01*
X632208Y218909D01*
X632230Y218807D01*
X632246Y218705D01*
X632256Y218688D01*
X632260Y218668D01*
X632313Y218579D01*
X632362Y218488D01*
X632376Y218474D01*
X632386Y218457D01*
X632465Y218390D01*
X632540Y218318D01*
X632558Y218310D01*
X632573Y218297D01*
X632669Y218258D01*
X632763Y218215D01*
X632783Y218213D01*
X632801Y218205D01*
X632968Y218187D01*
X637032Y218187D01*
X637052Y218190D01*
X637071Y218188D01*
X637173Y218210D01*
X637275Y218226D01*
X637292Y218236D01*
X637312Y218240D01*
X637401Y218293D01*
X637492Y218342D01*
X637506Y218356D01*
X637523Y218366D01*
X637590Y218445D01*
X637662Y218520D01*
X637670Y218538D01*
X637683Y218553D01*
X637722Y218649D01*
X637765Y218743D01*
X637767Y218763D01*
X637775Y218781D01*
X637793Y218948D01*
X637793Y220004D01*
X643596Y225807D01*
X651804Y225807D01*
X657607Y220004D01*
X657607Y211796D01*
X651804Y205993D01*
X643596Y205993D01*
X637793Y211796D01*
X637793Y212852D01*
X637790Y212872D01*
X637792Y212891D01*
X637770Y212993D01*
X637754Y213095D01*
X637744Y213112D01*
X637740Y213132D01*
X637687Y213221D01*
X637638Y213312D01*
X637624Y213326D01*
X637614Y213343D01*
X637535Y213410D01*
X637460Y213482D01*
X637442Y213490D01*
X637427Y213503D01*
X637331Y213542D01*
X637237Y213585D01*
X637217Y213587D01*
X637199Y213595D01*
X637032Y213613D01*
X632968Y213613D01*
X632948Y213610D01*
X632929Y213612D01*
X632827Y213590D01*
X632725Y213574D01*
X632708Y213564D01*
X632688Y213560D01*
X632599Y213507D01*
X632508Y213458D01*
X632494Y213444D01*
X632477Y213434D01*
X632410Y213355D01*
X632338Y213280D01*
X632330Y213262D01*
X632317Y213247D01*
X632278Y213151D01*
X632235Y213057D01*
X632233Y213037D01*
X632225Y213019D01*
X632207Y212852D01*
X632207Y211796D01*
X626404Y205993D01*
X618197Y205993D01*
X617827Y206362D01*
X617811Y206374D01*
X617799Y206390D01*
X617712Y206446D01*
X617628Y206506D01*
X617609Y206512D01*
X617592Y206523D01*
X617491Y206548D01*
X617393Y206578D01*
X617373Y206578D01*
X617353Y206583D01*
X617250Y206575D01*
X617147Y206572D01*
X617128Y206565D01*
X617108Y206563D01*
X617013Y206523D01*
X616916Y206487D01*
X616900Y206475D01*
X616882Y206467D01*
X616751Y206362D01*
X599029Y188640D01*
X598976Y188566D01*
X598916Y188497D01*
X598904Y188467D01*
X598885Y188440D01*
X598858Y188354D01*
X598824Y188269D01*
X598820Y188228D01*
X598813Y188205D01*
X598814Y188173D01*
X598806Y188102D01*
X598806Y92611D01*
X598808Y92597D01*
X598807Y92586D01*
X598817Y92537D01*
X598819Y92469D01*
X598837Y92420D01*
X598845Y92369D01*
X598879Y92305D01*
X598904Y92238D01*
X598936Y92197D01*
X598961Y92151D01*
X599013Y92102D01*
X599057Y92046D01*
X599101Y92018D01*
X599139Y91982D01*
X599204Y91952D01*
X599264Y91913D01*
X599315Y91900D01*
X599362Y91878D01*
X599433Y91870D01*
X599503Y91853D01*
X599555Y91857D01*
X599606Y91851D01*
X599677Y91866D01*
X599748Y91872D01*
X599796Y91892D01*
X599847Y91903D01*
X599908Y91940D01*
X599974Y91968D01*
X600030Y92013D01*
X600032Y92014D01*
X600041Y92019D01*
X600042Y92020D01*
X600058Y92030D01*
X600073Y92047D01*
X600105Y92073D01*
X602010Y93978D01*
X602063Y94052D01*
X602123Y94122D01*
X602135Y94152D01*
X602154Y94178D01*
X602181Y94265D01*
X602215Y94350D01*
X602219Y94391D01*
X602226Y94413D01*
X602225Y94445D01*
X602233Y94516D01*
X602233Y180271D01*
X612170Y190208D01*
X612223Y190282D01*
X612283Y190352D01*
X612295Y190382D01*
X612314Y190408D01*
X612341Y190495D01*
X612375Y190580D01*
X612379Y190621D01*
X612386Y190643D01*
X612385Y190675D01*
X612393Y190747D01*
X612393Y194604D01*
X618196Y200407D01*
X626404Y200407D01*
X632207Y194604D01*
X632207Y193548D01*
X632210Y193528D01*
X632208Y193509D01*
X632230Y193407D01*
X632246Y193305D01*
X632256Y193288D01*
X632260Y193268D01*
X632313Y193179D01*
X632362Y193088D01*
X632376Y193074D01*
X632386Y193057D01*
X632465Y192990D01*
X632540Y192918D01*
X632558Y192910D01*
X632573Y192897D01*
X632669Y192858D01*
X632763Y192815D01*
X632783Y192813D01*
X632801Y192805D01*
X632968Y192787D01*
X637032Y192787D01*
X637052Y192790D01*
X637071Y192788D01*
X637173Y192810D01*
X637275Y192826D01*
X637292Y192836D01*
X637312Y192840D01*
X637401Y192893D01*
X637492Y192942D01*
X637506Y192956D01*
X637523Y192966D01*
X637590Y193045D01*
X637662Y193120D01*
X637670Y193138D01*
X637683Y193153D01*
X637722Y193249D01*
X637765Y193343D01*
X637767Y193363D01*
X637775Y193381D01*
X637793Y193548D01*
X637793Y194604D01*
X643596Y200407D01*
X651804Y200407D01*
X655852Y196358D01*
X655868Y196347D01*
X655881Y196331D01*
X655954Y196284D01*
X655975Y196266D01*
X655988Y196261D01*
X656052Y196215D01*
X656071Y196209D01*
X656087Y196198D01*
X656188Y196173D01*
X656287Y196142D01*
X656307Y196143D01*
X656326Y196138D01*
X656429Y196146D01*
X656533Y196149D01*
X656551Y196156D01*
X656571Y196157D01*
X656666Y196198D01*
X656764Y196233D01*
X656779Y196246D01*
X656797Y196254D01*
X656864Y196307D01*
X656870Y196310D01*
X656877Y196317D01*
X656928Y196358D01*
X663986Y203416D01*
X664039Y203490D01*
X664099Y203560D01*
X664111Y203590D01*
X664130Y203616D01*
X664157Y203703D01*
X664191Y203788D01*
X664195Y203829D01*
X664202Y203851D01*
X664201Y203883D01*
X664209Y203955D01*
X664209Y225559D01*
X664195Y225650D01*
X664187Y225740D01*
X664175Y225770D01*
X664170Y225802D01*
X664127Y225883D01*
X664091Y225967D01*
X664065Y225999D01*
X664054Y226020D01*
X664031Y226042D01*
X663986Y226098D01*
X655785Y234299D01*
X655769Y234310D01*
X655757Y234326D01*
X655670Y234382D01*
X655586Y234442D01*
X655567Y234448D01*
X655550Y234459D01*
X655449Y234484D01*
X655351Y234515D01*
X655331Y234514D01*
X655311Y234519D01*
X655208Y234511D01*
X655105Y234508D01*
X655086Y234501D01*
X655066Y234500D01*
X654971Y234459D01*
X654874Y234424D01*
X654858Y234411D01*
X654840Y234403D01*
X654709Y234299D01*
X651804Y231393D01*
X643596Y231393D01*
X637793Y237196D01*
X637793Y245404D01*
X643596Y251207D01*
X651804Y251207D01*
X657607Y245404D01*
X657607Y239260D01*
X657621Y239170D01*
X657629Y239079D01*
X657641Y239050D01*
X657646Y239018D01*
X657689Y238937D01*
X657725Y238853D01*
X657751Y238821D01*
X657762Y238800D01*
X657785Y238778D01*
X657830Y238722D01*
X668783Y227769D01*
X668783Y201745D01*
X667220Y200182D01*
X657830Y190792D01*
X657777Y190718D01*
X657717Y190648D01*
X657705Y190618D01*
X657686Y190592D01*
X657659Y190505D01*
X657625Y190420D01*
X657621Y190379D01*
X657614Y190357D01*
X657615Y190325D01*
X657607Y190254D01*
X657607Y186396D01*
X651804Y180593D01*
X643596Y180593D01*
X637793Y186396D01*
X637793Y187452D01*
X637790Y187472D01*
X637792Y187491D01*
X637770Y187593D01*
X637754Y187695D01*
X637744Y187712D01*
X637740Y187732D01*
X637687Y187821D01*
X637638Y187912D01*
X637624Y187926D01*
X637614Y187943D01*
X637535Y188010D01*
X637460Y188082D01*
X637442Y188090D01*
X637427Y188103D01*
X637331Y188142D01*
X637237Y188185D01*
X637217Y188187D01*
X637199Y188195D01*
X637032Y188213D01*
X632968Y188213D01*
X632948Y188210D01*
X632929Y188212D01*
X632827Y188190D01*
X632725Y188174D01*
X632708Y188164D01*
X632688Y188160D01*
X632599Y188107D01*
X632508Y188058D01*
X632494Y188044D01*
X632477Y188034D01*
X632410Y187955D01*
X632338Y187880D01*
X632330Y187862D01*
X632317Y187847D01*
X632278Y187751D01*
X632235Y187657D01*
X632233Y187637D01*
X632225Y187619D01*
X632207Y187452D01*
X632207Y186396D01*
X626404Y180593D01*
X618196Y180593D01*
X614148Y184642D01*
X614132Y184653D01*
X614119Y184669D01*
X614032Y184725D01*
X613948Y184785D01*
X613929Y184791D01*
X613913Y184802D01*
X613812Y184827D01*
X613713Y184858D01*
X613693Y184857D01*
X613674Y184862D01*
X613571Y184854D01*
X613467Y184851D01*
X613449Y184844D01*
X613429Y184843D01*
X613334Y184802D01*
X613236Y184767D01*
X613221Y184754D01*
X613203Y184746D01*
X613072Y184642D01*
X607030Y178600D01*
X606977Y178526D01*
X606917Y178456D01*
X606905Y178426D01*
X606886Y178400D01*
X606859Y178313D01*
X606825Y178228D01*
X606821Y178187D01*
X606814Y178165D01*
X606815Y178133D01*
X606807Y178061D01*
X606807Y92377D01*
X606818Y92307D01*
X606820Y92235D01*
X606838Y92186D01*
X606846Y92135D01*
X606880Y92071D01*
X606905Y92004D01*
X606937Y91963D01*
X606962Y91917D01*
X607014Y91868D01*
X607058Y91812D01*
X607102Y91784D01*
X607140Y91748D01*
X607205Y91718D01*
X607265Y91679D01*
X607316Y91666D01*
X607363Y91644D01*
X607434Y91636D01*
X607504Y91619D01*
X607556Y91623D01*
X607607Y91617D01*
X607678Y91632D01*
X607749Y91638D01*
X607797Y91658D01*
X607848Y91669D01*
X607909Y91706D01*
X607975Y91734D01*
X608031Y91779D01*
X608059Y91796D01*
X608074Y91813D01*
X608106Y91839D01*
X619790Y103523D01*
X619835Y103585D01*
X619864Y103616D01*
X619869Y103628D01*
X619903Y103667D01*
X619915Y103697D01*
X619934Y103723D01*
X619961Y103810D01*
X619995Y103895D01*
X619999Y103936D01*
X620006Y103958D01*
X620005Y103990D01*
X620013Y104062D01*
X620013Y154432D01*
X620010Y154452D01*
X620012Y154471D01*
X619990Y154573D01*
X619974Y154675D01*
X619964Y154692D01*
X619960Y154712D01*
X619907Y154801D01*
X619858Y154892D01*
X619844Y154906D01*
X619834Y154923D01*
X619755Y154990D01*
X619680Y155062D01*
X619662Y155070D01*
X619647Y155083D01*
X619551Y155122D01*
X619457Y155165D01*
X619437Y155167D01*
X619419Y155175D01*
X619252Y155193D01*
X618196Y155193D01*
X612393Y160996D01*
X612393Y169204D01*
X618196Y175007D01*
X626404Y175007D01*
X632207Y169204D01*
X632207Y160996D01*
X626404Y155193D01*
X625348Y155193D01*
X625328Y155190D01*
X625309Y155192D01*
X625207Y155170D01*
X625105Y155154D01*
X625088Y155144D01*
X625068Y155140D01*
X624979Y155087D01*
X624888Y155038D01*
X624874Y155024D01*
X624857Y155014D01*
X624790Y154935D01*
X624718Y154860D01*
X624710Y154842D01*
X624697Y154827D01*
X624658Y154731D01*
X624615Y154637D01*
X624613Y154617D01*
X624605Y154599D01*
X624587Y154432D01*
X624587Y101852D01*
X580392Y57657D01*
X362019Y57657D01*
G37*
%LPD*%
%LPC*%
G36*
X625561Y321055D02*
X625561Y321055D01*
X622200Y322447D01*
X619627Y325020D01*
X618235Y328381D01*
X618235Y328683D01*
X618221Y328774D01*
X618213Y328864D01*
X618201Y328894D01*
X618196Y328926D01*
X618153Y329007D01*
X618117Y329091D01*
X618091Y329123D01*
X618080Y329144D01*
X618057Y329166D01*
X618012Y329222D01*
X608114Y339120D01*
X608040Y339173D01*
X607970Y339233D01*
X607940Y339245D01*
X607914Y339264D01*
X607827Y339291D01*
X607742Y339325D01*
X607701Y339329D01*
X607679Y339336D01*
X607647Y339335D01*
X607575Y339343D01*
X607383Y339343D01*
X580936Y365790D01*
X580862Y365843D01*
X580792Y365903D01*
X580762Y365915D01*
X580736Y365934D01*
X580649Y365961D01*
X580564Y365995D01*
X580523Y365999D01*
X580501Y366006D01*
X580469Y366005D01*
X580397Y366013D01*
X579791Y366013D01*
X579676Y365994D01*
X579560Y365977D01*
X579554Y365975D01*
X579548Y365974D01*
X579445Y365919D01*
X579340Y365866D01*
X579336Y365861D01*
X579331Y365858D01*
X579251Y365774D01*
X579168Y365690D01*
X579165Y365684D01*
X579161Y365680D01*
X579153Y365663D01*
X579087Y365543D01*
X578337Y363732D01*
X576068Y361463D01*
X573104Y360235D01*
X569896Y360235D01*
X566932Y361463D01*
X564663Y363732D01*
X563435Y366696D01*
X563435Y369904D01*
X564663Y372868D01*
X566932Y375137D01*
X569896Y376365D01*
X573104Y376365D01*
X576068Y375137D01*
X578337Y372868D01*
X579087Y371057D01*
X579149Y370957D01*
X579209Y370857D01*
X579214Y370853D01*
X579217Y370848D01*
X579307Y370773D01*
X579396Y370697D01*
X579402Y370695D01*
X579406Y370691D01*
X579515Y370649D01*
X579624Y370605D01*
X579631Y370604D01*
X579636Y370603D01*
X579654Y370602D01*
X579791Y370587D01*
X580397Y370587D01*
X580488Y370601D01*
X580578Y370609D01*
X580608Y370621D01*
X580640Y370626D01*
X580721Y370669D01*
X580805Y370705D01*
X580837Y370731D01*
X580858Y370742D01*
X580880Y370765D01*
X580936Y370810D01*
X606113Y395987D01*
X617920Y395987D01*
X618035Y396006D01*
X618151Y396023D01*
X618157Y396025D01*
X618163Y396026D01*
X618266Y396081D01*
X618371Y396134D01*
X618375Y396139D01*
X618380Y396142D01*
X618460Y396226D01*
X618543Y396310D01*
X618546Y396316D01*
X618550Y396320D01*
X618558Y396337D01*
X618624Y396457D01*
X619627Y398880D01*
X622200Y401453D01*
X625561Y402845D01*
X644439Y402845D01*
X647800Y401453D01*
X650373Y398880D01*
X650914Y397573D01*
X650938Y397534D01*
X650954Y397490D01*
X651003Y397430D01*
X651044Y397364D01*
X651079Y397334D01*
X651108Y397298D01*
X651173Y397256D01*
X651233Y397207D01*
X651276Y397190D01*
X651315Y397165D01*
X651390Y397146D01*
X651463Y397119D01*
X651509Y397117D01*
X651553Y397105D01*
X651631Y397111D01*
X651709Y397108D01*
X651753Y397121D01*
X651798Y397124D01*
X651870Y397155D01*
X651945Y397177D01*
X651983Y397203D01*
X652025Y397221D01*
X652096Y397278D01*
X652100Y397280D01*
X652104Y397285D01*
X652131Y397306D01*
X652147Y397317D01*
X652150Y397321D01*
X652156Y397326D01*
X663986Y409156D01*
X664039Y409230D01*
X664099Y409300D01*
X664111Y409330D01*
X664130Y409356D01*
X664157Y409443D01*
X664191Y409528D01*
X664195Y409569D01*
X664202Y409591D01*
X664201Y409623D01*
X664209Y409695D01*
X664209Y462541D01*
X664195Y462632D01*
X664187Y462722D01*
X664175Y462752D01*
X664170Y462784D01*
X664127Y462865D01*
X664091Y462949D01*
X664065Y462981D01*
X664054Y463002D01*
X664031Y463024D01*
X663986Y463080D01*
X651294Y475772D01*
X651220Y475825D01*
X651150Y475885D01*
X651120Y475897D01*
X651094Y475916D01*
X651007Y475943D01*
X650922Y475977D01*
X650881Y475981D01*
X650859Y475988D01*
X650827Y475987D01*
X650755Y475995D01*
X366007Y475995D01*
X365916Y475981D01*
X365826Y475973D01*
X365796Y475961D01*
X365764Y475956D01*
X365683Y475913D01*
X365599Y475877D01*
X365567Y475851D01*
X365546Y475840D01*
X365524Y475817D01*
X365468Y475772D01*
X363473Y473777D01*
X363430Y473717D01*
X363393Y473678D01*
X363379Y473647D01*
X363335Y473589D01*
X363333Y473583D01*
X363330Y473578D01*
X363297Y473470D01*
X363290Y473455D01*
X363288Y473445D01*
X363259Y473355D01*
X363259Y473348D01*
X363257Y473342D01*
X363260Y473226D01*
X363261Y473109D01*
X363263Y473102D01*
X363264Y473097D01*
X363270Y473079D01*
X363308Y472948D01*
X364491Y470093D01*
X364491Y466151D01*
X362983Y462510D01*
X360196Y459723D01*
X356555Y458215D01*
X352613Y458215D01*
X348972Y459723D01*
X346185Y462510D01*
X345003Y465365D01*
X344941Y465465D01*
X344881Y465565D01*
X344877Y465569D01*
X344873Y465574D01*
X344784Y465648D01*
X344694Y465725D01*
X344689Y465727D01*
X344684Y465731D01*
X344575Y465773D01*
X344466Y465817D01*
X344459Y465818D01*
X344454Y465819D01*
X344436Y465820D01*
X344300Y465835D01*
X329685Y465835D01*
X329594Y465821D01*
X329504Y465813D01*
X329474Y465801D01*
X329442Y465796D01*
X329361Y465753D01*
X329277Y465717D01*
X329245Y465691D01*
X329224Y465680D01*
X329202Y465657D01*
X329146Y465612D01*
X325403Y461869D01*
X325391Y461853D01*
X325376Y461841D01*
X325320Y461753D01*
X325260Y461669D01*
X325254Y461650D01*
X325243Y461634D01*
X325218Y461533D01*
X325187Y461434D01*
X325188Y461414D01*
X325183Y461395D01*
X325191Y461292D01*
X325194Y461189D01*
X325200Y461170D01*
X325202Y461150D01*
X325242Y461055D01*
X325278Y460957D01*
X325291Y460942D01*
X325298Y460924D01*
X325403Y460793D01*
X325629Y460567D01*
X325629Y453833D01*
X320867Y449071D01*
X314133Y449071D01*
X309371Y453833D01*
X309371Y454152D01*
X309368Y454172D01*
X309370Y454191D01*
X309348Y454293D01*
X309332Y454395D01*
X309322Y454412D01*
X309318Y454432D01*
X309265Y454521D01*
X309216Y454612D01*
X309202Y454626D01*
X309192Y454643D01*
X309113Y454710D01*
X309038Y454782D01*
X309020Y454790D01*
X309005Y454803D01*
X308909Y454842D01*
X308815Y454885D01*
X308795Y454887D01*
X308777Y454895D01*
X308610Y454913D01*
X288290Y454913D01*
X288270Y454910D01*
X288251Y454912D01*
X288149Y454890D01*
X288047Y454874D01*
X288030Y454864D01*
X288010Y454860D01*
X287921Y454807D01*
X287830Y454758D01*
X287816Y454744D01*
X287799Y454734D01*
X287732Y454655D01*
X287660Y454580D01*
X287652Y454562D01*
X287639Y454547D01*
X287600Y454451D01*
X287557Y454357D01*
X287555Y454337D01*
X287547Y454319D01*
X287529Y454152D01*
X287529Y453833D01*
X282767Y449071D01*
X276033Y449071D01*
X271271Y453833D01*
X271271Y454152D01*
X271268Y454172D01*
X271270Y454191D01*
X271248Y454293D01*
X271232Y454395D01*
X271222Y454412D01*
X271218Y454432D01*
X271165Y454521D01*
X271116Y454612D01*
X271102Y454626D01*
X271092Y454643D01*
X271013Y454710D01*
X270938Y454782D01*
X270920Y454790D01*
X270905Y454803D01*
X270809Y454842D01*
X270715Y454885D01*
X270695Y454887D01*
X270677Y454895D01*
X270510Y454913D01*
X250168Y454913D01*
X250053Y454894D01*
X249937Y454877D01*
X249931Y454875D01*
X249925Y454874D01*
X249823Y454819D01*
X249718Y454766D01*
X249713Y454761D01*
X249708Y454758D01*
X249628Y454674D01*
X249545Y454590D01*
X249542Y454584D01*
X249538Y454580D01*
X249531Y454563D01*
X249465Y454443D01*
X248699Y452595D01*
X246413Y450309D01*
X243425Y449071D01*
X226983Y449071D01*
X223995Y450309D01*
X221709Y452595D01*
X220471Y455583D01*
X220471Y458817D01*
X221709Y461805D01*
X223995Y464091D01*
X226983Y465329D01*
X243425Y465329D01*
X246413Y464091D01*
X248699Y461805D01*
X249465Y459957D01*
X249527Y459857D01*
X249586Y459757D01*
X249591Y459753D01*
X249594Y459748D01*
X249685Y459673D01*
X249773Y459597D01*
X249779Y459595D01*
X249784Y459591D01*
X249892Y459549D01*
X250001Y459505D01*
X250009Y459504D01*
X250013Y459503D01*
X250032Y459502D01*
X250168Y459487D01*
X270510Y459487D01*
X270530Y459490D01*
X270549Y459488D01*
X270651Y459510D01*
X270753Y459526D01*
X270770Y459536D01*
X270790Y459540D01*
X270879Y459593D01*
X270970Y459642D01*
X270984Y459656D01*
X271001Y459666D01*
X271068Y459745D01*
X271140Y459820D01*
X271148Y459838D01*
X271161Y459853D01*
X271200Y459949D01*
X271243Y460043D01*
X271245Y460063D01*
X271253Y460081D01*
X271271Y460248D01*
X271271Y460567D01*
X276033Y465329D01*
X282767Y465329D01*
X287529Y460567D01*
X287529Y460248D01*
X287532Y460228D01*
X287530Y460209D01*
X287552Y460107D01*
X287568Y460005D01*
X287578Y459988D01*
X287582Y459968D01*
X287635Y459879D01*
X287684Y459788D01*
X287698Y459774D01*
X287708Y459757D01*
X287787Y459690D01*
X287862Y459618D01*
X287880Y459610D01*
X287895Y459597D01*
X287991Y459558D01*
X288085Y459515D01*
X288105Y459513D01*
X288123Y459505D01*
X288290Y459487D01*
X308610Y459487D01*
X308630Y459490D01*
X308649Y459488D01*
X308751Y459510D01*
X308853Y459526D01*
X308870Y459536D01*
X308890Y459540D01*
X308979Y459593D01*
X309070Y459642D01*
X309084Y459656D01*
X309101Y459666D01*
X309168Y459745D01*
X309240Y459820D01*
X309248Y459838D01*
X309261Y459853D01*
X309300Y459949D01*
X309343Y460043D01*
X309345Y460063D01*
X309353Y460081D01*
X309371Y460248D01*
X309371Y460567D01*
X314133Y465329D01*
X320867Y465329D01*
X321093Y465103D01*
X321109Y465091D01*
X321121Y465076D01*
X321208Y465020D01*
X321292Y464960D01*
X321311Y464954D01*
X321328Y464943D01*
X321429Y464918D01*
X321527Y464887D01*
X321547Y464888D01*
X321567Y464883D01*
X321670Y464891D01*
X321773Y464894D01*
X321792Y464900D01*
X321812Y464902D01*
X321907Y464942D01*
X322004Y464978D01*
X322020Y464990D01*
X322038Y464998D01*
X322169Y465103D01*
X325912Y468846D01*
X327475Y470409D01*
X344300Y470409D01*
X344414Y470428D01*
X344531Y470445D01*
X344536Y470447D01*
X344542Y470448D01*
X344645Y470503D01*
X344750Y470556D01*
X344754Y470561D01*
X344760Y470564D01*
X344840Y470648D01*
X344922Y470732D01*
X344926Y470738D01*
X344929Y470742D01*
X344937Y470759D01*
X345003Y470879D01*
X346185Y473734D01*
X348972Y476521D01*
X352613Y478029D01*
X356555Y478029D01*
X359410Y476846D01*
X359523Y476819D01*
X359637Y476791D01*
X359643Y476791D01*
X359649Y476790D01*
X359766Y476801D01*
X359882Y476810D01*
X359888Y476812D01*
X359894Y476813D01*
X360001Y476861D01*
X360108Y476906D01*
X360114Y476911D01*
X360119Y476913D01*
X360132Y476926D01*
X360239Y477011D01*
X363797Y480569D01*
X652965Y480569D01*
X668783Y464751D01*
X668783Y407485D01*
X652711Y391413D01*
X652080Y391413D01*
X651965Y391394D01*
X651849Y391377D01*
X651843Y391375D01*
X651837Y391374D01*
X651734Y391319D01*
X651629Y391266D01*
X651625Y391261D01*
X651620Y391258D01*
X651540Y391174D01*
X651457Y391090D01*
X651454Y391084D01*
X651450Y391080D01*
X651442Y391063D01*
X651376Y390943D01*
X650373Y388520D01*
X647800Y385947D01*
X644439Y384555D01*
X625561Y384555D01*
X622200Y385947D01*
X619627Y388520D01*
X618624Y390943D01*
X618562Y391043D01*
X618502Y391143D01*
X618497Y391147D01*
X618494Y391152D01*
X618404Y391227D01*
X618315Y391303D01*
X618309Y391305D01*
X618305Y391309D01*
X618196Y391351D01*
X618087Y391395D01*
X618080Y391396D01*
X618075Y391397D01*
X618057Y391398D01*
X617920Y391413D01*
X608323Y391413D01*
X608232Y391399D01*
X608142Y391391D01*
X608112Y391379D01*
X608080Y391374D01*
X607999Y391331D01*
X607915Y391295D01*
X607883Y391269D01*
X607862Y391258D01*
X607840Y391235D01*
X607784Y391190D01*
X586702Y370108D01*
X586690Y370091D01*
X586674Y370078D01*
X586618Y369992D01*
X586559Y369909D01*
X586553Y369889D01*
X586541Y369871D01*
X586517Y369772D01*
X586486Y369673D01*
X586487Y369653D01*
X586482Y369633D01*
X586487Y369566D01*
X586487Y369563D01*
X586487Y367136D01*
X586487Y367135D01*
X586487Y367126D01*
X586487Y367113D01*
X586482Y367094D01*
X586490Y366992D01*
X586492Y366889D01*
X586499Y366870D01*
X586501Y366849D01*
X586541Y366755D01*
X586576Y366658D01*
X586589Y366642D01*
X586597Y366623D01*
X586702Y366492D01*
X609054Y344140D01*
X609128Y344087D01*
X609198Y344027D01*
X609228Y344015D01*
X609254Y343996D01*
X609341Y343969D01*
X609426Y343935D01*
X609467Y343931D01*
X609489Y343924D01*
X609521Y343925D01*
X609593Y343917D01*
X609785Y343917D01*
X611348Y342354D01*
X618439Y335262D01*
X618477Y335236D01*
X618508Y335202D01*
X618576Y335164D01*
X618639Y335119D01*
X618683Y335105D01*
X618723Y335083D01*
X618800Y335069D01*
X618874Y335047D01*
X618920Y335048D01*
X618965Y335040D01*
X619042Y335051D01*
X619120Y335053D01*
X619163Y335069D01*
X619209Y335075D01*
X619278Y335111D01*
X619351Y335137D01*
X619387Y335166D01*
X619428Y335187D01*
X619482Y335242D01*
X619543Y335291D01*
X619552Y335304D01*
X622200Y337953D01*
X625561Y339345D01*
X644439Y339345D01*
X647800Y337953D01*
X650373Y335380D01*
X651765Y332019D01*
X651765Y328381D01*
X650373Y325020D01*
X647800Y322447D01*
X644439Y321055D01*
X625561Y321055D01*
G37*
%LPD*%
%LPC*%
G36*
X181061Y149605D02*
X181061Y149605D01*
X177700Y150997D01*
X175127Y153570D01*
X174124Y155993D01*
X174062Y156093D01*
X174002Y156193D01*
X173997Y156197D01*
X173994Y156202D01*
X173904Y156277D01*
X173815Y156353D01*
X173809Y156355D01*
X173805Y156359D01*
X173696Y156401D01*
X173587Y156445D01*
X173580Y156446D01*
X173575Y156447D01*
X173557Y156448D01*
X173420Y156463D01*
X157803Y156463D01*
X156240Y158026D01*
X137413Y176853D01*
X137413Y328937D01*
X137399Y329028D01*
X137391Y329118D01*
X137379Y329148D01*
X137374Y329180D01*
X137331Y329261D01*
X137295Y329345D01*
X137269Y329377D01*
X137258Y329398D01*
X137235Y329420D01*
X137190Y329476D01*
X113576Y353090D01*
X113502Y353143D01*
X113432Y353203D01*
X113402Y353215D01*
X113376Y353234D01*
X113289Y353261D01*
X113204Y353295D01*
X113163Y353299D01*
X113141Y353306D01*
X113109Y353305D01*
X113037Y353313D01*
X67880Y353313D01*
X67765Y353294D01*
X67649Y353277D01*
X67643Y353275D01*
X67637Y353274D01*
X67534Y353219D01*
X67429Y353166D01*
X67425Y353161D01*
X67420Y353158D01*
X67340Y353074D01*
X67257Y352990D01*
X67254Y352984D01*
X67250Y352980D01*
X67242Y352963D01*
X67176Y352843D01*
X66173Y350420D01*
X63600Y347847D01*
X60239Y346455D01*
X41361Y346455D01*
X38000Y347847D01*
X35427Y350420D01*
X34035Y353781D01*
X34035Y357419D01*
X35427Y360780D01*
X38000Y363353D01*
X41361Y364745D01*
X47752Y364745D01*
X47772Y364748D01*
X47791Y364746D01*
X47893Y364768D01*
X47995Y364784D01*
X48012Y364794D01*
X48032Y364798D01*
X48121Y364851D01*
X48212Y364900D01*
X48226Y364914D01*
X48243Y364924D01*
X48310Y365003D01*
X48382Y365078D01*
X48390Y365096D01*
X48403Y365111D01*
X48442Y365207D01*
X48485Y365301D01*
X48487Y365321D01*
X48495Y365339D01*
X48513Y365506D01*
X48513Y420047D01*
X55597Y427131D01*
X55609Y427147D01*
X55624Y427159D01*
X55680Y427247D01*
X55740Y427331D01*
X55746Y427350D01*
X55757Y427366D01*
X55782Y427467D01*
X55813Y427566D01*
X55812Y427586D01*
X55817Y427605D01*
X55809Y427708D01*
X55806Y427811D01*
X55800Y427830D01*
X55798Y427850D01*
X55758Y427945D01*
X55722Y428043D01*
X55709Y428058D01*
X55702Y428076D01*
X55597Y428207D01*
X55371Y428433D01*
X55371Y435167D01*
X60133Y439929D01*
X66867Y439929D01*
X71629Y435167D01*
X71629Y434848D01*
X71632Y434828D01*
X71630Y434809D01*
X71652Y434707D01*
X71668Y434605D01*
X71678Y434588D01*
X71682Y434568D01*
X71735Y434479D01*
X71784Y434388D01*
X71798Y434374D01*
X71808Y434357D01*
X71887Y434290D01*
X71962Y434218D01*
X71980Y434210D01*
X71995Y434197D01*
X72091Y434158D01*
X72185Y434115D01*
X72205Y434113D01*
X72223Y434105D01*
X72390Y434087D01*
X77147Y434087D01*
X95945Y415289D01*
X96039Y415222D01*
X96133Y415151D01*
X96139Y415149D01*
X96145Y415146D01*
X96255Y415111D01*
X96367Y415075D01*
X96374Y415075D01*
X96380Y415073D01*
X96496Y415076D01*
X96613Y415077D01*
X96620Y415079D01*
X96625Y415080D01*
X96643Y415086D01*
X96774Y415124D01*
X99629Y416307D01*
X103571Y416307D01*
X107212Y414799D01*
X109999Y412012D01*
X111181Y409157D01*
X111243Y409057D01*
X111303Y408957D01*
X111307Y408953D01*
X111311Y408948D01*
X111401Y408873D01*
X111490Y408797D01*
X111495Y408795D01*
X111500Y408791D01*
X111609Y408749D01*
X111718Y408705D01*
X111725Y408704D01*
X111730Y408703D01*
X111748Y408702D01*
X111884Y408687D01*
X130832Y408687D01*
X130947Y408706D01*
X131063Y408723D01*
X131069Y408725D01*
X131075Y408726D01*
X131177Y408781D01*
X131282Y408834D01*
X131287Y408839D01*
X131292Y408842D01*
X131372Y408926D01*
X131455Y409010D01*
X131458Y409016D01*
X131462Y409020D01*
X131469Y409037D01*
X131535Y409157D01*
X132301Y411005D01*
X134587Y413291D01*
X137575Y414529D01*
X154017Y414529D01*
X157005Y413291D01*
X159291Y411005D01*
X160529Y408017D01*
X160529Y404783D01*
X159291Y401795D01*
X157005Y399509D01*
X154017Y398271D01*
X137575Y398271D01*
X134587Y399509D01*
X132301Y401795D01*
X131535Y403643D01*
X131473Y403743D01*
X131414Y403843D01*
X131409Y403847D01*
X131406Y403852D01*
X131315Y403927D01*
X131227Y404003D01*
X131221Y404005D01*
X131216Y404009D01*
X131108Y404051D01*
X130999Y404095D01*
X130991Y404096D01*
X130987Y404097D01*
X130968Y404098D01*
X130832Y404113D01*
X111884Y404113D01*
X111770Y404094D01*
X111653Y404077D01*
X111648Y404075D01*
X111642Y404074D01*
X111539Y404019D01*
X111434Y403966D01*
X111430Y403961D01*
X111424Y403958D01*
X111344Y403874D01*
X111262Y403790D01*
X111258Y403784D01*
X111255Y403780D01*
X111247Y403763D01*
X111181Y403643D01*
X109999Y400788D01*
X107212Y398001D01*
X103571Y396493D01*
X99629Y396493D01*
X95988Y398001D01*
X93201Y400788D01*
X91693Y404429D01*
X91693Y408371D01*
X92876Y411226D01*
X92903Y411339D01*
X92931Y411453D01*
X92931Y411459D01*
X92932Y411465D01*
X92921Y411582D01*
X92912Y411698D01*
X92910Y411704D01*
X92909Y411710D01*
X92861Y411818D01*
X92816Y411924D01*
X92811Y411930D01*
X92809Y411935D01*
X92796Y411948D01*
X92711Y412055D01*
X75476Y429290D01*
X75402Y429343D01*
X75332Y429403D01*
X75302Y429415D01*
X75276Y429434D01*
X75189Y429461D01*
X75104Y429495D01*
X75063Y429499D01*
X75041Y429506D01*
X75009Y429505D01*
X74937Y429513D01*
X72390Y429513D01*
X72370Y429510D01*
X72351Y429512D01*
X72249Y429490D01*
X72147Y429474D01*
X72130Y429464D01*
X72110Y429460D01*
X72021Y429407D01*
X71930Y429358D01*
X71916Y429344D01*
X71899Y429334D01*
X71832Y429255D01*
X71760Y429180D01*
X71752Y429162D01*
X71739Y429147D01*
X71700Y429051D01*
X71657Y428957D01*
X71655Y428937D01*
X71647Y428919D01*
X71629Y428752D01*
X71629Y428433D01*
X66867Y423671D01*
X60133Y423671D01*
X59907Y423897D01*
X59891Y423909D01*
X59879Y423924D01*
X59792Y423980D01*
X59708Y424040D01*
X59689Y424046D01*
X59672Y424057D01*
X59571Y424082D01*
X59473Y424113D01*
X59453Y424112D01*
X59433Y424117D01*
X59330Y424109D01*
X59227Y424106D01*
X59208Y424100D01*
X59188Y424098D01*
X59093Y424058D01*
X58996Y424022D01*
X58980Y424009D01*
X58962Y424002D01*
X58831Y423897D01*
X53310Y418376D01*
X53257Y418302D01*
X53197Y418232D01*
X53185Y418202D01*
X53166Y418176D01*
X53139Y418089D01*
X53105Y418004D01*
X53101Y417963D01*
X53094Y417941D01*
X53095Y417909D01*
X53087Y417837D01*
X53087Y365506D01*
X53090Y365486D01*
X53088Y365467D01*
X53110Y365365D01*
X53126Y365263D01*
X53136Y365246D01*
X53140Y365226D01*
X53193Y365137D01*
X53242Y365046D01*
X53256Y365032D01*
X53266Y365015D01*
X53345Y364948D01*
X53420Y364876D01*
X53438Y364868D01*
X53453Y364855D01*
X53549Y364816D01*
X53643Y364773D01*
X53663Y364771D01*
X53681Y364763D01*
X53848Y364745D01*
X60239Y364745D01*
X63600Y363353D01*
X66173Y360780D01*
X67176Y358357D01*
X67238Y358257D01*
X67298Y358157D01*
X67303Y358153D01*
X67306Y358148D01*
X67396Y358073D01*
X67485Y357997D01*
X67491Y357995D01*
X67495Y357991D01*
X67604Y357949D01*
X67713Y357905D01*
X67720Y357904D01*
X67725Y357903D01*
X67743Y357902D01*
X67880Y357887D01*
X115247Y357887D01*
X141987Y331147D01*
X141987Y179063D01*
X142001Y178972D01*
X142009Y178882D01*
X142021Y178852D01*
X142026Y178820D01*
X142069Y178739D01*
X142105Y178655D01*
X142131Y178623D01*
X142142Y178602D01*
X142165Y178580D01*
X142210Y178524D01*
X159474Y161260D01*
X159548Y161207D01*
X159618Y161147D01*
X159648Y161135D01*
X159674Y161116D01*
X159761Y161089D01*
X159846Y161055D01*
X159887Y161051D01*
X159909Y161044D01*
X159941Y161045D01*
X160012Y161037D01*
X173420Y161037D01*
X173535Y161056D01*
X173651Y161073D01*
X173657Y161075D01*
X173663Y161076D01*
X173766Y161131D01*
X173871Y161184D01*
X173875Y161189D01*
X173880Y161192D01*
X173960Y161276D01*
X174043Y161360D01*
X174046Y161366D01*
X174050Y161370D01*
X174058Y161387D01*
X174124Y161507D01*
X175127Y163930D01*
X177700Y166503D01*
X181061Y167895D01*
X199939Y167895D01*
X203300Y166503D01*
X205873Y163930D01*
X207265Y160569D01*
X207265Y156931D01*
X205873Y153570D01*
X203300Y150997D01*
X199939Y149605D01*
X181061Y149605D01*
G37*
%LPD*%
%LPC*%
G36*
X181061Y111505D02*
X181061Y111505D01*
X177700Y112897D01*
X175127Y115470D01*
X174124Y117893D01*
X174062Y117993D01*
X174002Y118093D01*
X173997Y118097D01*
X173994Y118102D01*
X173904Y118177D01*
X173815Y118253D01*
X173809Y118255D01*
X173805Y118259D01*
X173696Y118301D01*
X173587Y118345D01*
X173580Y118346D01*
X173575Y118347D01*
X173557Y118348D01*
X173420Y118363D01*
X157803Y118363D01*
X128269Y147897D01*
X128269Y312681D01*
X128255Y312772D01*
X128247Y312862D01*
X128235Y312892D01*
X128230Y312924D01*
X128187Y313005D01*
X128151Y313089D01*
X128125Y313121D01*
X128114Y313142D01*
X128091Y313164D01*
X128046Y313220D01*
X113576Y327690D01*
X113502Y327743D01*
X113432Y327803D01*
X113402Y327815D01*
X113376Y327834D01*
X113289Y327861D01*
X113204Y327895D01*
X113163Y327899D01*
X113141Y327906D01*
X113109Y327905D01*
X113037Y327913D01*
X67880Y327913D01*
X67765Y327894D01*
X67649Y327877D01*
X67643Y327875D01*
X67637Y327874D01*
X67534Y327819D01*
X67429Y327766D01*
X67425Y327761D01*
X67420Y327758D01*
X67340Y327674D01*
X67257Y327590D01*
X67254Y327584D01*
X67250Y327580D01*
X67242Y327563D01*
X67176Y327443D01*
X66173Y325020D01*
X63600Y322447D01*
X60239Y321055D01*
X41361Y321055D01*
X38000Y322447D01*
X35427Y325020D01*
X34035Y328381D01*
X34035Y330715D01*
X34021Y330806D01*
X34013Y330896D01*
X34001Y330926D01*
X33996Y330958D01*
X33953Y331039D01*
X33917Y331123D01*
X33891Y331155D01*
X33880Y331176D01*
X33857Y331198D01*
X33812Y331254D01*
X23113Y341953D01*
X23113Y410210D01*
X23110Y410230D01*
X23112Y410249D01*
X23090Y410351D01*
X23074Y410453D01*
X23064Y410470D01*
X23060Y410490D01*
X23007Y410579D01*
X22958Y410670D01*
X22944Y410684D01*
X22934Y410701D01*
X22855Y410768D01*
X22780Y410840D01*
X22762Y410848D01*
X22747Y410861D01*
X22651Y410900D01*
X22557Y410943D01*
X22537Y410945D01*
X22519Y410953D01*
X22352Y410971D01*
X22033Y410971D01*
X17271Y415733D01*
X17271Y422467D01*
X22033Y427229D01*
X28767Y427229D01*
X33529Y422467D01*
X33529Y415733D01*
X28767Y410971D01*
X28448Y410971D01*
X28428Y410968D01*
X28409Y410970D01*
X28307Y410948D01*
X28205Y410932D01*
X28188Y410922D01*
X28168Y410918D01*
X28079Y410865D01*
X27988Y410816D01*
X27974Y410802D01*
X27957Y410792D01*
X27890Y410713D01*
X27818Y410638D01*
X27810Y410620D01*
X27797Y410605D01*
X27758Y410509D01*
X27715Y410415D01*
X27713Y410395D01*
X27705Y410377D01*
X27687Y410210D01*
X27687Y344163D01*
X27701Y344072D01*
X27709Y343982D01*
X27721Y343952D01*
X27726Y343920D01*
X27769Y343839D01*
X27805Y343755D01*
X27831Y343723D01*
X27842Y343702D01*
X27865Y343680D01*
X27910Y343624D01*
X35252Y336282D01*
X35269Y336270D01*
X35281Y336254D01*
X35368Y336198D01*
X35452Y336138D01*
X35471Y336132D01*
X35488Y336121D01*
X35588Y336096D01*
X35687Y336066D01*
X35707Y336066D01*
X35726Y336061D01*
X35829Y336069D01*
X35933Y336072D01*
X35952Y336079D01*
X35972Y336080D01*
X36067Y336121D01*
X36164Y336156D01*
X36180Y336169D01*
X36198Y336177D01*
X36329Y336282D01*
X38000Y337953D01*
X41361Y339345D01*
X60239Y339345D01*
X63600Y337953D01*
X66173Y335380D01*
X67176Y332957D01*
X67238Y332857D01*
X67298Y332757D01*
X67303Y332753D01*
X67306Y332748D01*
X67396Y332673D01*
X67485Y332597D01*
X67491Y332595D01*
X67495Y332591D01*
X67604Y332549D01*
X67713Y332505D01*
X67720Y332504D01*
X67725Y332503D01*
X67743Y332502D01*
X67880Y332487D01*
X115247Y332487D01*
X132843Y314891D01*
X132843Y150107D01*
X132857Y150016D01*
X132865Y149926D01*
X132877Y149896D01*
X132882Y149864D01*
X132925Y149783D01*
X132961Y149699D01*
X132987Y149667D01*
X132998Y149646D01*
X133021Y149624D01*
X133066Y149568D01*
X159474Y123160D01*
X159548Y123107D01*
X159618Y123047D01*
X159648Y123035D01*
X159674Y123016D01*
X159761Y122989D01*
X159846Y122955D01*
X159887Y122951D01*
X159909Y122944D01*
X159941Y122945D01*
X160013Y122937D01*
X173420Y122937D01*
X173535Y122956D01*
X173651Y122973D01*
X173657Y122975D01*
X173663Y122976D01*
X173766Y123031D01*
X173871Y123084D01*
X173875Y123089D01*
X173880Y123092D01*
X173960Y123176D01*
X174043Y123260D01*
X174046Y123266D01*
X174050Y123270D01*
X174058Y123287D01*
X174124Y123407D01*
X175127Y125830D01*
X177700Y128403D01*
X181061Y129795D01*
X199939Y129795D01*
X203300Y128403D01*
X205873Y125830D01*
X207265Y122469D01*
X207265Y118831D01*
X205873Y115470D01*
X203300Y112897D01*
X199939Y111505D01*
X181061Y111505D01*
G37*
%LPD*%
%LPC*%
G36*
X257261Y219455D02*
X257261Y219455D01*
X253900Y220847D01*
X251327Y223420D01*
X249935Y226781D01*
X249935Y230419D01*
X251327Y233780D01*
X253900Y236353D01*
X257261Y237745D01*
X263652Y237745D01*
X263672Y237748D01*
X263691Y237746D01*
X263793Y237768D01*
X263895Y237784D01*
X263912Y237794D01*
X263932Y237798D01*
X264021Y237851D01*
X264112Y237900D01*
X264126Y237914D01*
X264143Y237924D01*
X264210Y238003D01*
X264282Y238078D01*
X264290Y238096D01*
X264303Y238111D01*
X264342Y238207D01*
X264385Y238301D01*
X264387Y238321D01*
X264395Y238339D01*
X264413Y238506D01*
X264413Y265437D01*
X264411Y265454D01*
X264412Y265468D01*
X264398Y265534D01*
X264391Y265618D01*
X264379Y265648D01*
X264374Y265680D01*
X264361Y265704D01*
X264360Y265709D01*
X264346Y265732D01*
X264331Y265761D01*
X264295Y265845D01*
X264269Y265877D01*
X264258Y265898D01*
X264235Y265920D01*
X264190Y265976D01*
X215176Y314990D01*
X215102Y315043D01*
X215032Y315103D01*
X215002Y315115D01*
X214976Y315134D01*
X214889Y315161D01*
X214804Y315195D01*
X214763Y315199D01*
X214741Y315206D01*
X214709Y315205D01*
X214637Y315213D01*
X205458Y315213D01*
X205343Y315194D01*
X205227Y315177D01*
X205222Y315175D01*
X205215Y315174D01*
X205113Y315119D01*
X205008Y315066D01*
X205004Y315061D01*
X204998Y315058D01*
X204918Y314974D01*
X204836Y314890D01*
X204832Y314884D01*
X204829Y314880D01*
X204821Y314863D01*
X204755Y314743D01*
X202559Y309442D01*
X198558Y305441D01*
X193329Y303275D01*
X187671Y303275D01*
X182442Y305441D01*
X178441Y309442D01*
X176275Y314671D01*
X176275Y320329D01*
X178441Y325558D01*
X182442Y329559D01*
X187671Y331725D01*
X193329Y331725D01*
X198630Y329529D01*
X198744Y329502D01*
X198858Y329474D01*
X198864Y329474D01*
X198870Y329473D01*
X198987Y329484D01*
X199103Y329493D01*
X199109Y329495D01*
X199115Y329496D01*
X199222Y329544D01*
X199329Y329589D01*
X199335Y329594D01*
X199340Y329596D01*
X199353Y329609D01*
X199460Y329694D01*
X227653Y357887D01*
X342399Y357887D01*
X342490Y357901D01*
X342580Y357909D01*
X342610Y357921D01*
X342642Y357926D01*
X342723Y357969D01*
X342807Y358005D01*
X342839Y358031D01*
X342860Y358042D01*
X342882Y358065D01*
X342938Y358110D01*
X345695Y360867D01*
X345763Y360961D01*
X345833Y361055D01*
X345835Y361061D01*
X345838Y361066D01*
X345873Y361178D01*
X345909Y361289D01*
X345909Y361296D01*
X345911Y361302D01*
X345908Y361418D01*
X345907Y361535D01*
X345905Y361542D01*
X345904Y361547D01*
X345898Y361565D01*
X345860Y361696D01*
X344677Y364551D01*
X344677Y368493D01*
X346185Y372134D01*
X348972Y374921D01*
X352613Y376429D01*
X356555Y376429D01*
X360196Y374921D01*
X362983Y372134D01*
X364491Y368493D01*
X364491Y364551D01*
X362983Y360910D01*
X360196Y358123D01*
X356555Y356615D01*
X352613Y356615D01*
X349758Y357798D01*
X349645Y357825D01*
X349531Y357853D01*
X349525Y357853D01*
X349519Y357854D01*
X349402Y357843D01*
X349286Y357834D01*
X349280Y357832D01*
X349274Y357831D01*
X349167Y357783D01*
X349060Y357738D01*
X349054Y357733D01*
X349049Y357731D01*
X349036Y357718D01*
X348929Y357633D01*
X346172Y354876D01*
X344609Y353313D01*
X229863Y353313D01*
X229772Y353299D01*
X229682Y353291D01*
X229652Y353279D01*
X229620Y353274D01*
X229539Y353231D01*
X229455Y353195D01*
X229423Y353169D01*
X229402Y353158D01*
X229380Y353135D01*
X229324Y353090D01*
X202694Y326460D01*
X202626Y326365D01*
X202556Y326271D01*
X202554Y326265D01*
X202550Y326260D01*
X202516Y326150D01*
X202480Y326038D01*
X202480Y326031D01*
X202478Y326025D01*
X202481Y325908D01*
X202482Y325792D01*
X202484Y325784D01*
X202484Y325779D01*
X202491Y325762D01*
X202529Y325630D01*
X204755Y320257D01*
X204816Y320157D01*
X204876Y320057D01*
X204881Y320053D01*
X204885Y320048D01*
X204974Y319973D01*
X205063Y319897D01*
X205069Y319895D01*
X205074Y319891D01*
X205182Y319849D01*
X205291Y319805D01*
X205299Y319804D01*
X205304Y319803D01*
X205322Y319802D01*
X205458Y319787D01*
X216847Y319787D01*
X268987Y267647D01*
X268987Y238506D01*
X268990Y238486D01*
X268988Y238467D01*
X269010Y238365D01*
X269026Y238263D01*
X269036Y238246D01*
X269040Y238226D01*
X269093Y238137D01*
X269142Y238046D01*
X269156Y238032D01*
X269166Y238015D01*
X269245Y237948D01*
X269320Y237876D01*
X269338Y237868D01*
X269353Y237855D01*
X269449Y237816D01*
X269543Y237773D01*
X269563Y237771D01*
X269581Y237763D01*
X269748Y237745D01*
X276139Y237745D01*
X279500Y236353D01*
X282073Y233780D01*
X283465Y230419D01*
X283465Y226781D01*
X282073Y223420D01*
X279500Y220847D01*
X276139Y219455D01*
X257261Y219455D01*
G37*
%LPD*%
%LPC*%
G36*
X569896Y258635D02*
X569896Y258635D01*
X566932Y259863D01*
X564663Y262132D01*
X563913Y263943D01*
X563851Y264043D01*
X563791Y264143D01*
X563786Y264147D01*
X563783Y264152D01*
X563693Y264227D01*
X563604Y264303D01*
X563598Y264305D01*
X563594Y264309D01*
X563485Y264351D01*
X563376Y264395D01*
X563369Y264396D01*
X563364Y264397D01*
X563346Y264398D01*
X563209Y264413D01*
X557853Y264413D01*
X538479Y283787D01*
X538479Y452813D01*
X555821Y470155D01*
X645853Y470155D01*
X659131Y456877D01*
X659131Y431107D01*
X657568Y429544D01*
X651298Y423274D01*
X651229Y423178D01*
X651160Y423085D01*
X651158Y423079D01*
X651154Y423074D01*
X651120Y422963D01*
X651084Y422851D01*
X651084Y422845D01*
X651082Y422839D01*
X651085Y422722D01*
X651086Y422605D01*
X651088Y422598D01*
X651088Y422593D01*
X651095Y422576D01*
X651133Y422444D01*
X651765Y420919D01*
X651765Y417281D01*
X650373Y413920D01*
X647800Y411347D01*
X644439Y409955D01*
X625561Y409955D01*
X622200Y411347D01*
X619627Y413920D01*
X618235Y417281D01*
X618235Y420919D01*
X619627Y424280D01*
X622200Y426853D01*
X625561Y428245D01*
X644439Y428245D01*
X647760Y426869D01*
X647825Y426854D01*
X647878Y426832D01*
X647941Y426825D01*
X647988Y426814D01*
X647994Y426814D01*
X648000Y426813D01*
X648030Y426816D01*
X648045Y426814D01*
X648055Y426814D01*
X648112Y426823D01*
X648117Y426824D01*
X648233Y426833D01*
X648238Y426835D01*
X648245Y426836D01*
X648278Y426850D01*
X648298Y426854D01*
X648362Y426888D01*
X648459Y426929D01*
X648465Y426934D01*
X648470Y426936D01*
X648483Y426949D01*
X648496Y426959D01*
X648515Y426969D01*
X648535Y426990D01*
X648590Y427034D01*
X654334Y432778D01*
X654387Y432852D01*
X654447Y432922D01*
X654459Y432952D01*
X654478Y432978D01*
X654505Y433065D01*
X654539Y433150D01*
X654543Y433191D01*
X654550Y433213D01*
X654549Y433245D01*
X654557Y433317D01*
X654557Y454667D01*
X654543Y454758D01*
X654535Y454848D01*
X654523Y454878D01*
X654518Y454910D01*
X654475Y454991D01*
X654439Y455075D01*
X654413Y455107D01*
X654402Y455128D01*
X654379Y455150D01*
X654334Y455206D01*
X644182Y465358D01*
X644108Y465411D01*
X644038Y465471D01*
X644008Y465483D01*
X643982Y465502D01*
X643895Y465529D01*
X643810Y465563D01*
X643769Y465567D01*
X643747Y465574D01*
X643715Y465573D01*
X643643Y465581D01*
X558031Y465581D01*
X557940Y465567D01*
X557850Y465559D01*
X557820Y465547D01*
X557788Y465542D01*
X557707Y465499D01*
X557623Y465463D01*
X557591Y465437D01*
X557570Y465426D01*
X557548Y465403D01*
X557492Y465358D01*
X543276Y451142D01*
X543223Y451068D01*
X543163Y450998D01*
X543151Y450968D01*
X543132Y450942D01*
X543105Y450855D01*
X543071Y450770D01*
X543067Y450729D01*
X543060Y450707D01*
X543061Y450675D01*
X543053Y450603D01*
X543053Y285997D01*
X543067Y285906D01*
X543075Y285816D01*
X543087Y285786D01*
X543092Y285754D01*
X543135Y285673D01*
X543171Y285589D01*
X543197Y285557D01*
X543208Y285536D01*
X543231Y285514D01*
X543238Y285506D01*
X543246Y285492D01*
X543255Y285484D01*
X543276Y285458D01*
X559524Y269210D01*
X559598Y269157D01*
X559668Y269097D01*
X559698Y269085D01*
X559724Y269066D01*
X559811Y269039D01*
X559896Y269005D01*
X559937Y269001D01*
X559959Y268994D01*
X559991Y268995D01*
X560063Y268987D01*
X563209Y268987D01*
X563324Y269006D01*
X563440Y269023D01*
X563446Y269025D01*
X563452Y269026D01*
X563555Y269081D01*
X563660Y269134D01*
X563664Y269139D01*
X563669Y269142D01*
X563749Y269226D01*
X563832Y269310D01*
X563835Y269316D01*
X563839Y269320D01*
X563847Y269337D01*
X563913Y269457D01*
X564663Y271268D01*
X566932Y273537D01*
X569896Y274765D01*
X573104Y274765D01*
X576068Y273537D01*
X578337Y271268D01*
X579565Y268304D01*
X579565Y265096D01*
X578337Y262132D01*
X576068Y259863D01*
X573104Y258635D01*
X569896Y258635D01*
G37*
%LPD*%
%LPC*%
G36*
X250423Y118363D02*
X250423Y118363D01*
X245363Y123423D01*
X245363Y123952D01*
X245360Y123972D01*
X245362Y123991D01*
X245340Y124093D01*
X245324Y124195D01*
X245314Y124212D01*
X245310Y124232D01*
X245257Y124321D01*
X245208Y124412D01*
X245194Y124426D01*
X245184Y124443D01*
X245105Y124510D01*
X245030Y124582D01*
X245012Y124590D01*
X244997Y124603D01*
X244901Y124642D01*
X244807Y124685D01*
X244787Y124687D01*
X244769Y124695D01*
X244602Y124713D01*
X240353Y124713D01*
X213613Y151453D01*
X213613Y170187D01*
X213599Y170278D01*
X213591Y170368D01*
X213579Y170398D01*
X213574Y170430D01*
X213531Y170511D01*
X213495Y170595D01*
X213469Y170627D01*
X213458Y170648D01*
X213435Y170670D01*
X213390Y170726D01*
X196634Y187482D01*
X196560Y187535D01*
X196490Y187595D01*
X196460Y187607D01*
X196434Y187626D01*
X196347Y187653D01*
X196262Y187687D01*
X196221Y187691D01*
X196199Y187698D01*
X196167Y187697D01*
X196096Y187705D01*
X181061Y187705D01*
X177700Y189097D01*
X175127Y191670D01*
X173735Y195031D01*
X173735Y198669D01*
X175127Y202030D01*
X177700Y204603D01*
X181061Y205995D01*
X199939Y205995D01*
X203300Y204603D01*
X205873Y202030D01*
X207265Y198669D01*
X207265Y195031D01*
X205873Y191670D01*
X203300Y189097D01*
X203070Y189002D01*
X203031Y188978D01*
X202988Y188962D01*
X202927Y188914D01*
X202861Y188873D01*
X202832Y188837D01*
X202796Y188809D01*
X202754Y188743D01*
X202704Y188683D01*
X202688Y188640D01*
X202663Y188602D01*
X202644Y188526D01*
X202616Y188454D01*
X202614Y188408D01*
X202603Y188363D01*
X202609Y188286D01*
X202606Y188208D01*
X202619Y188164D01*
X202622Y188118D01*
X202653Y188046D01*
X202674Y187972D01*
X202700Y187934D01*
X202718Y187892D01*
X202804Y187785D01*
X202815Y187770D01*
X202819Y187767D01*
X202823Y187761D01*
X216624Y173960D01*
X218187Y172397D01*
X218187Y153663D01*
X218201Y153572D01*
X218209Y153482D01*
X218221Y153452D01*
X218226Y153420D01*
X218269Y153339D01*
X218305Y153255D01*
X218331Y153223D01*
X218342Y153202D01*
X218365Y153180D01*
X218410Y153124D01*
X242024Y129510D01*
X242098Y129457D01*
X242168Y129397D01*
X242198Y129385D01*
X242224Y129366D01*
X242311Y129339D01*
X242396Y129305D01*
X242437Y129301D01*
X242459Y129294D01*
X242491Y129295D01*
X242563Y129287D01*
X244602Y129287D01*
X244622Y129290D01*
X244641Y129288D01*
X244743Y129310D01*
X244845Y129326D01*
X244862Y129336D01*
X244882Y129340D01*
X244971Y129393D01*
X245062Y129442D01*
X245076Y129456D01*
X245093Y129466D01*
X245160Y129545D01*
X245232Y129620D01*
X245240Y129638D01*
X245253Y129653D01*
X245292Y129749D01*
X245335Y129843D01*
X245337Y129863D01*
X245345Y129881D01*
X245363Y130048D01*
X245363Y130577D01*
X250423Y135637D01*
X250952Y135637D01*
X250972Y135640D01*
X250991Y135638D01*
X251093Y135660D01*
X251195Y135676D01*
X251212Y135686D01*
X251232Y135690D01*
X251321Y135743D01*
X251412Y135792D01*
X251426Y135806D01*
X251443Y135816D01*
X251510Y135895D01*
X251582Y135970D01*
X251590Y135988D01*
X251603Y136003D01*
X251642Y136099D01*
X251685Y136193D01*
X251687Y136213D01*
X251695Y136231D01*
X251713Y136398D01*
X251713Y166047D01*
X254377Y168711D01*
X254404Y168748D01*
X254437Y168779D01*
X254475Y168847D01*
X254520Y168910D01*
X254534Y168954D01*
X254556Y168995D01*
X254570Y169071D01*
X254593Y169145D01*
X254591Y169191D01*
X254600Y169237D01*
X254588Y169314D01*
X254586Y169391D01*
X254571Y169434D01*
X254564Y169480D01*
X254529Y169549D01*
X254502Y169622D01*
X254473Y169658D01*
X254452Y169699D01*
X254397Y169754D01*
X254348Y169814D01*
X254309Y169839D01*
X254277Y169871D01*
X254157Y169937D01*
X254141Y169947D01*
X254136Y169949D01*
X254130Y169952D01*
X253900Y170047D01*
X251327Y172620D01*
X249935Y175981D01*
X249935Y179619D01*
X251327Y182980D01*
X253900Y185553D01*
X257261Y186945D01*
X276139Y186945D01*
X279500Y185553D01*
X282073Y182980D01*
X283465Y179619D01*
X283465Y175981D01*
X282073Y172620D01*
X279500Y170047D01*
X276139Y168655D01*
X261105Y168655D01*
X261014Y168641D01*
X260924Y168633D01*
X260894Y168621D01*
X260862Y168616D01*
X260781Y168573D01*
X260697Y168537D01*
X260665Y168511D01*
X260644Y168500D01*
X260622Y168477D01*
X260566Y168432D01*
X256510Y164376D01*
X256457Y164302D01*
X256397Y164232D01*
X256385Y164202D01*
X256366Y164176D01*
X256339Y164089D01*
X256305Y164004D01*
X256301Y163963D01*
X256294Y163941D01*
X256295Y163909D01*
X256287Y163837D01*
X256287Y136398D01*
X256290Y136378D01*
X256288Y136359D01*
X256310Y136257D01*
X256326Y136155D01*
X256336Y136138D01*
X256340Y136118D01*
X256393Y136029D01*
X256442Y135938D01*
X256456Y135924D01*
X256466Y135907D01*
X256545Y135840D01*
X256620Y135768D01*
X256638Y135760D01*
X256653Y135747D01*
X256749Y135708D01*
X256843Y135665D01*
X256863Y135663D01*
X256881Y135655D01*
X257048Y135637D01*
X257577Y135637D01*
X262637Y130577D01*
X262637Y123423D01*
X257577Y118363D01*
X250423Y118363D01*
G37*
%LPD*%
%LPC*%
G36*
X569896Y284035D02*
X569896Y284035D01*
X566932Y285263D01*
X564663Y287532D01*
X563435Y290496D01*
X563435Y290520D01*
X563421Y290610D01*
X563413Y290701D01*
X563401Y290730D01*
X563396Y290762D01*
X563353Y290843D01*
X563317Y290927D01*
X563291Y290959D01*
X563280Y290980D01*
X563257Y291002D01*
X563212Y291058D01*
X551980Y302290D01*
X550417Y303853D01*
X550417Y446717D01*
X564457Y460757D01*
X609023Y460757D01*
X619325Y450455D01*
X619342Y450443D01*
X619354Y450427D01*
X619441Y450371D01*
X619525Y450311D01*
X619544Y450305D01*
X619561Y450294D01*
X619661Y450269D01*
X619760Y450239D01*
X619780Y450239D01*
X619799Y450234D01*
X619902Y450242D01*
X620006Y450245D01*
X620025Y450252D01*
X620045Y450253D01*
X620139Y450294D01*
X620237Y450329D01*
X620253Y450342D01*
X620271Y450350D01*
X620402Y450455D01*
X622200Y452253D01*
X625561Y453645D01*
X644439Y453645D01*
X647800Y452253D01*
X650373Y449680D01*
X651765Y446319D01*
X651765Y442681D01*
X650373Y439320D01*
X647800Y436747D01*
X644439Y435355D01*
X625561Y435355D01*
X622200Y436747D01*
X619627Y439320D01*
X618235Y442681D01*
X618235Y444762D01*
X618221Y444852D01*
X618213Y444943D01*
X618201Y444972D01*
X618196Y445004D01*
X618153Y445085D01*
X618117Y445169D01*
X618091Y445201D01*
X618080Y445222D01*
X618057Y445244D01*
X618012Y445300D01*
X607352Y455960D01*
X607278Y456013D01*
X607208Y456073D01*
X607178Y456085D01*
X607152Y456104D01*
X607065Y456131D01*
X606980Y456165D01*
X606939Y456169D01*
X606917Y456176D01*
X606885Y456175D01*
X606813Y456183D01*
X566667Y456183D01*
X566576Y456169D01*
X566486Y456161D01*
X566456Y456149D01*
X566424Y456144D01*
X566343Y456101D01*
X566259Y456065D01*
X566227Y456039D01*
X566206Y456028D01*
X566184Y456005D01*
X566128Y455960D01*
X555214Y445046D01*
X555161Y444972D01*
X555101Y444902D01*
X555089Y444872D01*
X555070Y444846D01*
X555043Y444759D01*
X555009Y444674D01*
X555005Y444633D01*
X554998Y444611D01*
X554999Y444579D01*
X554991Y444507D01*
X554991Y306062D01*
X555005Y305972D01*
X555013Y305881D01*
X555025Y305852D01*
X555030Y305820D01*
X555073Y305739D01*
X555109Y305655D01*
X555135Y305623D01*
X555146Y305602D01*
X555169Y305580D01*
X555214Y305524D01*
X563828Y296910D01*
X563844Y296898D01*
X563857Y296883D01*
X563944Y296827D01*
X564028Y296766D01*
X564047Y296760D01*
X564064Y296750D01*
X564164Y296724D01*
X564263Y296694D01*
X564283Y296694D01*
X564302Y296690D01*
X564405Y296698D01*
X564509Y296700D01*
X564528Y296707D01*
X564547Y296709D01*
X564642Y296749D01*
X564740Y296785D01*
X564755Y296797D01*
X564774Y296805D01*
X564905Y296910D01*
X566932Y298937D01*
X569896Y300165D01*
X573104Y300165D01*
X576068Y298937D01*
X578337Y296668D01*
X579565Y293704D01*
X579565Y290496D01*
X578337Y287532D01*
X576068Y285263D01*
X573104Y284035D01*
X569896Y284035D01*
G37*
%LPD*%
%LPC*%
G36*
X137575Y423671D02*
X137575Y423671D01*
X134587Y424909D01*
X132301Y427195D01*
X131063Y430183D01*
X131063Y433417D01*
X131978Y435624D01*
X132004Y435738D01*
X132033Y435851D01*
X132032Y435857D01*
X132034Y435863D01*
X132023Y435980D01*
X132014Y436096D01*
X132011Y436102D01*
X132011Y436108D01*
X131963Y436216D01*
X131917Y436323D01*
X131913Y436328D01*
X131911Y436333D01*
X131898Y436347D01*
X131812Y436454D01*
X124713Y443553D01*
X124713Y481337D01*
X124699Y481428D01*
X124691Y481518D01*
X124679Y481548D01*
X124674Y481580D01*
X124631Y481661D01*
X124595Y481745D01*
X124569Y481777D01*
X124558Y481798D01*
X124535Y481820D01*
X124490Y481876D01*
X107255Y499111D01*
X107161Y499178D01*
X107067Y499249D01*
X107061Y499251D01*
X107055Y499254D01*
X106945Y499289D01*
X106833Y499325D01*
X106826Y499325D01*
X106820Y499327D01*
X106704Y499324D01*
X106587Y499323D01*
X106580Y499321D01*
X106575Y499320D01*
X106557Y499314D01*
X106426Y499276D01*
X103571Y498093D01*
X99629Y498093D01*
X95988Y499601D01*
X93201Y502388D01*
X92019Y505243D01*
X91957Y505343D01*
X91897Y505443D01*
X91893Y505447D01*
X91889Y505452D01*
X91799Y505527D01*
X91710Y505603D01*
X91705Y505605D01*
X91700Y505609D01*
X91591Y505651D01*
X91482Y505695D01*
X91475Y505696D01*
X91470Y505697D01*
X91452Y505698D01*
X91316Y505713D01*
X90163Y505713D01*
X90072Y505699D01*
X89982Y505691D01*
X89952Y505679D01*
X89920Y505674D01*
X89839Y505631D01*
X89755Y505595D01*
X89723Y505569D01*
X89702Y505558D01*
X89680Y505535D01*
X89624Y505490D01*
X71403Y487269D01*
X71391Y487253D01*
X71376Y487241D01*
X71320Y487153D01*
X71260Y487069D01*
X71254Y487050D01*
X71243Y487034D01*
X71218Y486933D01*
X71187Y486834D01*
X71188Y486814D01*
X71183Y486795D01*
X71191Y486692D01*
X71194Y486589D01*
X71200Y486570D01*
X71202Y486550D01*
X71242Y486455D01*
X71278Y486357D01*
X71291Y486342D01*
X71298Y486324D01*
X71403Y486193D01*
X71629Y485967D01*
X71629Y479233D01*
X66867Y474471D01*
X60133Y474471D01*
X55371Y479233D01*
X55371Y485967D01*
X55597Y486193D01*
X55609Y486209D01*
X55624Y486221D01*
X55680Y486308D01*
X55740Y486392D01*
X55746Y486411D01*
X55757Y486428D01*
X55782Y486529D01*
X55813Y486627D01*
X55812Y486647D01*
X55817Y486667D01*
X55809Y486770D01*
X55806Y486873D01*
X55800Y486892D01*
X55798Y486912D01*
X55758Y487007D01*
X55722Y487104D01*
X55709Y487120D01*
X55702Y487138D01*
X55597Y487269D01*
X50076Y492790D01*
X50002Y492843D01*
X49932Y492903D01*
X49902Y492915D01*
X49876Y492934D01*
X49789Y492961D01*
X49704Y492995D01*
X49663Y492999D01*
X49641Y493006D01*
X49609Y493005D01*
X49537Y493013D01*
X34290Y493013D01*
X34270Y493010D01*
X34251Y493012D01*
X34149Y492990D01*
X34047Y492974D01*
X34030Y492964D01*
X34010Y492960D01*
X33921Y492907D01*
X33830Y492858D01*
X33816Y492844D01*
X33799Y492834D01*
X33732Y492755D01*
X33660Y492680D01*
X33652Y492662D01*
X33639Y492647D01*
X33600Y492551D01*
X33557Y492457D01*
X33555Y492437D01*
X33547Y492419D01*
X33529Y492252D01*
X33529Y491933D01*
X28767Y487171D01*
X22033Y487171D01*
X17271Y491933D01*
X17271Y498667D01*
X22033Y503429D01*
X28767Y503429D01*
X33529Y498667D01*
X33529Y498348D01*
X33530Y498338D01*
X33530Y498332D01*
X33531Y498324D01*
X33530Y498309D01*
X33552Y498207D01*
X33568Y498105D01*
X33578Y498088D01*
X33582Y498068D01*
X33635Y497979D01*
X33684Y497888D01*
X33698Y497874D01*
X33708Y497857D01*
X33787Y497790D01*
X33862Y497718D01*
X33880Y497710D01*
X33895Y497697D01*
X33991Y497658D01*
X34085Y497615D01*
X34105Y497613D01*
X34123Y497605D01*
X34290Y497587D01*
X51747Y497587D01*
X53310Y496024D01*
X58831Y490503D01*
X58847Y490491D01*
X58859Y490476D01*
X58947Y490420D01*
X59031Y490360D01*
X59050Y490354D01*
X59066Y490343D01*
X59167Y490318D01*
X59266Y490287D01*
X59286Y490288D01*
X59305Y490283D01*
X59408Y490291D01*
X59511Y490294D01*
X59530Y490300D01*
X59550Y490302D01*
X59645Y490342D01*
X59743Y490378D01*
X59758Y490391D01*
X59776Y490398D01*
X59907Y490503D01*
X60133Y490729D01*
X66867Y490729D01*
X67093Y490503D01*
X67109Y490491D01*
X67121Y490476D01*
X67208Y490420D01*
X67292Y490360D01*
X67311Y490354D01*
X67328Y490343D01*
X67429Y490318D01*
X67527Y490287D01*
X67547Y490288D01*
X67567Y490283D01*
X67670Y490291D01*
X67773Y490294D01*
X67792Y490300D01*
X67812Y490302D01*
X67907Y490342D01*
X68004Y490378D01*
X68020Y490391D01*
X68038Y490398D01*
X68169Y490503D01*
X86390Y508724D01*
X87953Y510287D01*
X91316Y510287D01*
X91430Y510306D01*
X91547Y510323D01*
X91552Y510325D01*
X91558Y510326D01*
X91661Y510381D01*
X91766Y510434D01*
X91770Y510439D01*
X91776Y510442D01*
X91856Y510526D01*
X91938Y510610D01*
X91942Y510616D01*
X91945Y510620D01*
X91953Y510637D01*
X92019Y510757D01*
X93201Y513612D01*
X95988Y516399D01*
X99629Y517907D01*
X103571Y517907D01*
X107212Y516399D01*
X109999Y513612D01*
X111507Y509971D01*
X111507Y506029D01*
X110324Y503174D01*
X110297Y503061D01*
X110269Y502947D01*
X110269Y502941D01*
X110268Y502935D01*
X110279Y502818D01*
X110288Y502702D01*
X110290Y502696D01*
X110291Y502690D01*
X110339Y502582D01*
X110384Y502476D01*
X110389Y502470D01*
X110391Y502465D01*
X110404Y502452D01*
X110489Y502345D01*
X127724Y485110D01*
X129287Y483547D01*
X129287Y445763D01*
X129301Y445672D01*
X129309Y445582D01*
X129321Y445552D01*
X129326Y445520D01*
X129369Y445439D01*
X129405Y445355D01*
X129431Y445323D01*
X129442Y445302D01*
X129465Y445280D01*
X129510Y445224D01*
X135257Y439477D01*
X135351Y439409D01*
X135445Y439339D01*
X135451Y439337D01*
X135457Y439334D01*
X135568Y439299D01*
X135679Y439263D01*
X135686Y439263D01*
X135692Y439261D01*
X135808Y439264D01*
X135925Y439265D01*
X135933Y439267D01*
X135937Y439268D01*
X135955Y439274D01*
X136086Y439312D01*
X137575Y439929D01*
X154017Y439929D01*
X157005Y438691D01*
X159291Y436405D01*
X160529Y433417D01*
X160529Y430183D01*
X159291Y427195D01*
X157005Y424909D01*
X154017Y423671D01*
X137575Y423671D01*
G37*
%LPD*%
%LPC*%
G36*
X304615Y486663D02*
X304615Y486663D01*
X293408Y497870D01*
X293334Y497923D01*
X293264Y497983D01*
X293234Y497995D01*
X293208Y498014D01*
X293121Y498041D01*
X293036Y498075D01*
X292995Y498079D01*
X292973Y498086D01*
X292941Y498085D01*
X292869Y498093D01*
X285456Y498093D01*
X279653Y503896D01*
X279653Y512104D01*
X285456Y517907D01*
X293664Y517907D01*
X299467Y512104D01*
X299467Y503896D01*
X297196Y501626D01*
X297185Y501610D01*
X297169Y501597D01*
X297113Y501510D01*
X297053Y501426D01*
X297047Y501407D01*
X297036Y501391D01*
X297011Y501290D01*
X296980Y501191D01*
X296981Y501171D01*
X296976Y501152D01*
X296984Y501049D01*
X296987Y500945D01*
X296994Y500927D01*
X296995Y500907D01*
X297036Y500812D01*
X297071Y500714D01*
X297084Y500699D01*
X297092Y500681D01*
X297196Y500550D01*
X306286Y491460D01*
X306360Y491407D01*
X306430Y491347D01*
X306460Y491335D01*
X306486Y491316D01*
X306573Y491289D01*
X306658Y491255D01*
X306699Y491251D01*
X306721Y491244D01*
X306753Y491245D01*
X306825Y491237D01*
X500387Y491237D01*
X500478Y491251D01*
X500568Y491259D01*
X500598Y491271D01*
X500630Y491276D01*
X500711Y491319D01*
X500795Y491355D01*
X500827Y491381D01*
X500848Y491391D01*
X500870Y491415D01*
X500926Y491460D01*
X505490Y496024D01*
X505543Y496098D01*
X505603Y496168D01*
X505615Y496198D01*
X505634Y496224D01*
X505661Y496311D01*
X505695Y496396D01*
X505699Y496437D01*
X505706Y496459D01*
X505705Y496491D01*
X505713Y496562D01*
X505713Y497332D01*
X505710Y497352D01*
X505712Y497371D01*
X505690Y497473D01*
X505674Y497575D01*
X505664Y497592D01*
X505660Y497612D01*
X505607Y497701D01*
X505558Y497792D01*
X505544Y497806D01*
X505534Y497823D01*
X505455Y497890D01*
X505380Y497962D01*
X505362Y497970D01*
X505347Y497983D01*
X505251Y498022D01*
X505157Y498065D01*
X505137Y498067D01*
X505119Y498075D01*
X504952Y498093D01*
X503896Y498093D01*
X498093Y503896D01*
X498093Y512104D01*
X503896Y517907D01*
X512104Y517907D01*
X517907Y512104D01*
X517907Y503896D01*
X512104Y498093D01*
X511048Y498093D01*
X511028Y498090D01*
X511009Y498092D01*
X510907Y498070D01*
X510805Y498054D01*
X510788Y498044D01*
X510768Y498040D01*
X510679Y497987D01*
X510588Y497938D01*
X510574Y497924D01*
X510557Y497914D01*
X510490Y497835D01*
X510418Y497760D01*
X510410Y497742D01*
X510397Y497727D01*
X510358Y497631D01*
X510315Y497537D01*
X510313Y497517D01*
X510305Y497499D01*
X510287Y497332D01*
X510287Y494353D01*
X508724Y492790D01*
X502597Y486663D01*
X304615Y486663D01*
G37*
%LPD*%
%LPC*%
G36*
X569896Y182435D02*
X569896Y182435D01*
X566932Y183663D01*
X564663Y185932D01*
X563435Y188896D01*
X563435Y192104D01*
X564663Y195068D01*
X566932Y197337D01*
X569896Y198565D01*
X573104Y198565D01*
X576068Y197337D01*
X578337Y195068D01*
X579087Y193257D01*
X579149Y193157D01*
X579209Y193057D01*
X579214Y193053D01*
X579217Y193048D01*
X579307Y192973D01*
X579396Y192897D01*
X579402Y192895D01*
X579406Y192891D01*
X579515Y192849D01*
X579624Y192805D01*
X579631Y192804D01*
X579636Y192803D01*
X579654Y192802D01*
X579791Y192787D01*
X582937Y192787D01*
X583028Y192801D01*
X583118Y192809D01*
X583148Y192821D01*
X583180Y192826D01*
X583261Y192869D01*
X583345Y192905D01*
X583377Y192931D01*
X583398Y192942D01*
X583420Y192965D01*
X583476Y193010D01*
X594390Y203924D01*
X594443Y203998D01*
X594503Y204068D01*
X594515Y204098D01*
X594534Y204124D01*
X594561Y204211D01*
X594595Y204296D01*
X594599Y204337D01*
X594606Y204359D01*
X594605Y204391D01*
X594613Y204463D01*
X594613Y280347D01*
X596176Y281910D01*
X618012Y303746D01*
X618059Y303811D01*
X618072Y303825D01*
X618075Y303831D01*
X618125Y303890D01*
X618137Y303920D01*
X618156Y303946D01*
X618183Y304033D01*
X618217Y304118D01*
X618221Y304159D01*
X618228Y304181D01*
X618227Y304213D01*
X618235Y304284D01*
X618235Y306619D01*
X619627Y309980D01*
X622200Y312553D01*
X625561Y313945D01*
X644439Y313945D01*
X647800Y312553D01*
X650373Y309980D01*
X651765Y306619D01*
X651765Y302981D01*
X650373Y299620D01*
X647800Y297047D01*
X644439Y295655D01*
X625561Y295655D01*
X622200Y297047D01*
X620529Y298718D01*
X620513Y298730D01*
X620500Y298746D01*
X620428Y298792D01*
X620403Y298814D01*
X620388Y298819D01*
X620329Y298862D01*
X620310Y298868D01*
X620293Y298879D01*
X620193Y298904D01*
X620094Y298934D01*
X620074Y298934D01*
X620055Y298939D01*
X619952Y298931D01*
X619848Y298928D01*
X619829Y298921D01*
X619810Y298920D01*
X619715Y298879D01*
X619617Y298844D01*
X619602Y298831D01*
X619583Y298823D01*
X619521Y298773D01*
X619513Y298769D01*
X619505Y298760D01*
X619452Y298718D01*
X599410Y278676D01*
X599357Y278602D01*
X599297Y278532D01*
X599285Y278502D01*
X599266Y278476D01*
X599239Y278389D01*
X599205Y278304D01*
X599201Y278263D01*
X599194Y278241D01*
X599195Y278209D01*
X599187Y278137D01*
X599187Y202253D01*
X585147Y188213D01*
X579791Y188213D01*
X579676Y188194D01*
X579560Y188177D01*
X579554Y188175D01*
X579548Y188174D01*
X579445Y188119D01*
X579340Y188066D01*
X579336Y188061D01*
X579331Y188058D01*
X579251Y187974D01*
X579168Y187890D01*
X579165Y187884D01*
X579161Y187880D01*
X579153Y187863D01*
X579087Y187743D01*
X578337Y185932D01*
X576068Y183663D01*
X573104Y182435D01*
X569896Y182435D01*
G37*
%LPD*%
%LPC*%
G36*
X326713Y493013D02*
X326713Y493013D01*
X325150Y494576D01*
X320886Y498840D01*
X320870Y498851D01*
X320858Y498867D01*
X320770Y498923D01*
X320687Y498983D01*
X320668Y498989D01*
X320651Y499000D01*
X320550Y499025D01*
X320452Y499056D01*
X320432Y499055D01*
X320412Y499060D01*
X320309Y499052D01*
X320206Y499049D01*
X320187Y499042D01*
X320167Y499041D01*
X320072Y499000D01*
X319975Y498965D01*
X319959Y498952D01*
X319941Y498944D01*
X319810Y498840D01*
X319064Y498093D01*
X310856Y498093D01*
X305053Y503896D01*
X305053Y512104D01*
X310856Y517907D01*
X319064Y517907D01*
X324867Y512104D01*
X324867Y503896D01*
X324120Y503150D01*
X324109Y503134D01*
X324093Y503121D01*
X324037Y503034D01*
X323977Y502950D01*
X323971Y502931D01*
X323960Y502915D01*
X323935Y502814D01*
X323904Y502715D01*
X323905Y502695D01*
X323900Y502676D01*
X323908Y502573D01*
X323911Y502469D01*
X323918Y502451D01*
X323919Y502431D01*
X323960Y502336D01*
X323995Y502238D01*
X324008Y502223D01*
X324016Y502205D01*
X324120Y502074D01*
X328384Y497810D01*
X328458Y497757D01*
X328528Y497697D01*
X328558Y497685D01*
X328584Y497666D01*
X328671Y497639D01*
X328756Y497605D01*
X328797Y497601D01*
X328819Y497594D01*
X328851Y497595D01*
X328922Y497587D01*
X334925Y497587D01*
X334996Y497598D01*
X335068Y497600D01*
X335117Y497618D01*
X335168Y497626D01*
X335231Y497660D01*
X335299Y497685D01*
X335339Y497717D01*
X335385Y497742D01*
X335435Y497794D01*
X335491Y497838D01*
X335519Y497882D01*
X335555Y497920D01*
X335585Y497985D01*
X335624Y498045D01*
X335636Y498096D01*
X335658Y498143D01*
X335666Y498214D01*
X335684Y498284D01*
X335680Y498336D01*
X335685Y498387D01*
X335670Y498458D01*
X335665Y498529D01*
X335644Y498577D01*
X335633Y498628D01*
X335596Y498689D01*
X335568Y498755D01*
X335524Y498811D01*
X335507Y498839D01*
X335489Y498854D01*
X335486Y498858D01*
X335483Y498862D01*
X335481Y498865D01*
X335464Y498886D01*
X330453Y503896D01*
X330453Y512104D01*
X336256Y517907D01*
X344464Y517907D01*
X350267Y512104D01*
X350267Y503896D01*
X345256Y498886D01*
X345215Y498828D01*
X345165Y498776D01*
X345143Y498729D01*
X345113Y498687D01*
X345092Y498618D01*
X345062Y498553D01*
X345056Y498501D01*
X345041Y498451D01*
X345042Y498380D01*
X345035Y498309D01*
X345046Y498258D01*
X345047Y498206D01*
X345072Y498138D01*
X345087Y498068D01*
X345114Y498023D01*
X345131Y497975D01*
X345176Y497919D01*
X345213Y497857D01*
X345253Y497823D01*
X345285Y497783D01*
X345345Y497744D01*
X345400Y497697D01*
X345448Y497678D01*
X345492Y497650D01*
X345561Y497632D01*
X345628Y497605D01*
X345699Y497597D01*
X345731Y497589D01*
X345754Y497591D01*
X345795Y497587D01*
X354337Y497587D01*
X354428Y497601D01*
X354518Y497609D01*
X354548Y497621D01*
X354580Y497626D01*
X354661Y497669D01*
X354745Y497705D01*
X354777Y497731D01*
X354798Y497742D01*
X354819Y497764D01*
X354821Y497765D01*
X354825Y497769D01*
X354876Y497810D01*
X357870Y500804D01*
X357881Y500820D01*
X357897Y500832D01*
X357953Y500919D01*
X358013Y501003D01*
X358019Y501022D01*
X358030Y501039D01*
X358055Y501140D01*
X358086Y501238D01*
X358085Y501258D01*
X358090Y501278D01*
X358082Y501381D01*
X358079Y501484D01*
X358072Y501503D01*
X358071Y501523D01*
X358030Y501618D01*
X357995Y501715D01*
X357982Y501731D01*
X357974Y501749D01*
X357870Y501880D01*
X355853Y503896D01*
X355853Y512104D01*
X361656Y517907D01*
X369864Y517907D01*
X375667Y512104D01*
X375667Y503896D01*
X369864Y498093D01*
X361942Y498093D01*
X361852Y498079D01*
X361761Y498071D01*
X361732Y498059D01*
X361700Y498054D01*
X361619Y498011D01*
X361535Y497975D01*
X361503Y497949D01*
X361482Y497938D01*
X361460Y497915D01*
X361404Y497870D01*
X358110Y494576D01*
X356547Y493013D01*
X326713Y493013D01*
G37*
%LPD*%
%LPC*%
G36*
X325535Y196849D02*
X325535Y196849D01*
X322547Y198087D01*
X320261Y200373D01*
X319495Y202221D01*
X319433Y202321D01*
X319374Y202421D01*
X319369Y202425D01*
X319366Y202430D01*
X319275Y202505D01*
X319187Y202581D01*
X319181Y202583D01*
X319176Y202587D01*
X319068Y202629D01*
X318959Y202673D01*
X318951Y202674D01*
X318947Y202675D01*
X318928Y202676D01*
X318792Y202691D01*
X304615Y202691D01*
X303275Y204031D01*
X303275Y250952D01*
X303272Y250972D01*
X303274Y250991D01*
X303252Y251093D01*
X303236Y251195D01*
X303226Y251212D01*
X303222Y251232D01*
X303169Y251321D01*
X303120Y251412D01*
X303106Y251426D01*
X303096Y251443D01*
X303017Y251510D01*
X302942Y251582D01*
X302924Y251590D01*
X302909Y251603D01*
X302813Y251642D01*
X302719Y251685D01*
X302699Y251687D01*
X302681Y251695D01*
X302514Y251713D01*
X302195Y251713D01*
X297433Y256475D01*
X297433Y263209D01*
X302195Y267971D01*
X308929Y267971D01*
X313691Y263209D01*
X313691Y256475D01*
X308929Y251713D01*
X308610Y251713D01*
X308590Y251710D01*
X308571Y251712D01*
X308469Y251690D01*
X308367Y251674D01*
X308350Y251664D01*
X308330Y251660D01*
X308241Y251607D01*
X308150Y251558D01*
X308136Y251544D01*
X308119Y251534D01*
X308052Y251455D01*
X307980Y251380D01*
X307972Y251362D01*
X307959Y251347D01*
X307920Y251251D01*
X307877Y251157D01*
X307875Y251137D01*
X307867Y251119D01*
X307849Y250952D01*
X307849Y208026D01*
X307852Y208006D01*
X307850Y207987D01*
X307872Y207885D01*
X307888Y207783D01*
X307898Y207766D01*
X307902Y207746D01*
X307955Y207657D01*
X308004Y207566D01*
X308018Y207552D01*
X308028Y207535D01*
X308107Y207468D01*
X308182Y207396D01*
X308200Y207388D01*
X308215Y207375D01*
X308311Y207336D01*
X308405Y207293D01*
X308425Y207291D01*
X308443Y207283D01*
X308610Y207265D01*
X318792Y207265D01*
X318907Y207284D01*
X319023Y207301D01*
X319029Y207303D01*
X319035Y207304D01*
X319137Y207359D01*
X319242Y207412D01*
X319247Y207417D01*
X319252Y207420D01*
X319332Y207504D01*
X319415Y207588D01*
X319418Y207594D01*
X319422Y207598D01*
X319429Y207615D01*
X319495Y207735D01*
X320261Y209583D01*
X322547Y211869D01*
X325535Y213107D01*
X341977Y213107D01*
X344965Y211869D01*
X347251Y209583D01*
X348489Y206595D01*
X348489Y203361D01*
X347251Y200373D01*
X344965Y198087D01*
X341977Y196849D01*
X325535Y196849D01*
G37*
%LPD*%
%LPC*%
G36*
X276033Y372871D02*
X276033Y372871D01*
X271271Y377633D01*
X271271Y384367D01*
X276033Y389129D01*
X276352Y389129D01*
X276372Y389132D01*
X276391Y389130D01*
X276493Y389152D01*
X276595Y389168D01*
X276612Y389178D01*
X276632Y389182D01*
X276721Y389235D01*
X276812Y389284D01*
X276826Y389298D01*
X276843Y389308D01*
X276910Y389387D01*
X276982Y389462D01*
X276990Y389480D01*
X277003Y389495D01*
X277042Y389591D01*
X277085Y389685D01*
X277087Y389705D01*
X277095Y389723D01*
X277113Y389890D01*
X277113Y405137D01*
X277099Y405228D01*
X277091Y405318D01*
X277079Y405348D01*
X277074Y405380D01*
X277031Y405461D01*
X276995Y405545D01*
X276969Y405577D01*
X276958Y405598D01*
X276935Y405620D01*
X276890Y405676D01*
X253276Y429290D01*
X253202Y429343D01*
X253132Y429403D01*
X253102Y429415D01*
X253076Y429434D01*
X252989Y429461D01*
X252904Y429495D01*
X252863Y429499D01*
X252841Y429506D01*
X252809Y429505D01*
X252737Y429513D01*
X250168Y429513D01*
X250053Y429494D01*
X249937Y429477D01*
X249931Y429475D01*
X249925Y429474D01*
X249823Y429419D01*
X249718Y429366D01*
X249713Y429361D01*
X249708Y429358D01*
X249628Y429274D01*
X249545Y429190D01*
X249542Y429184D01*
X249538Y429180D01*
X249531Y429163D01*
X249465Y429043D01*
X248699Y427195D01*
X246413Y424909D01*
X243425Y423671D01*
X226983Y423671D01*
X223995Y424909D01*
X221709Y427195D01*
X220471Y430183D01*
X220471Y433417D01*
X221709Y436405D01*
X223995Y438691D01*
X226983Y439929D01*
X243425Y439929D01*
X246413Y438691D01*
X248699Y436405D01*
X249465Y434557D01*
X249527Y434457D01*
X249586Y434357D01*
X249591Y434353D01*
X249594Y434348D01*
X249685Y434273D01*
X249773Y434197D01*
X249779Y434195D01*
X249784Y434191D01*
X249892Y434149D01*
X250001Y434105D01*
X250009Y434104D01*
X250013Y434103D01*
X250032Y434102D01*
X250168Y434087D01*
X254947Y434087D01*
X281687Y407347D01*
X281687Y389890D01*
X281690Y389870D01*
X281688Y389851D01*
X281710Y389749D01*
X281726Y389647D01*
X281736Y389630D01*
X281740Y389610D01*
X281793Y389521D01*
X281842Y389430D01*
X281856Y389416D01*
X281866Y389399D01*
X281945Y389332D01*
X282020Y389260D01*
X282038Y389252D01*
X282053Y389239D01*
X282149Y389200D01*
X282243Y389157D01*
X282263Y389155D01*
X282281Y389147D01*
X282448Y389129D01*
X282767Y389129D01*
X287529Y384367D01*
X287529Y377633D01*
X282767Y372871D01*
X276033Y372871D01*
G37*
%LPD*%
%LPC*%
G36*
X137575Y449071D02*
X137575Y449071D01*
X134587Y450309D01*
X132301Y452595D01*
X131063Y455583D01*
X131063Y458817D01*
X132301Y461805D01*
X134587Y464091D01*
X137575Y465329D01*
X154017Y465329D01*
X157005Y464091D01*
X159291Y461805D01*
X160529Y458817D01*
X160529Y455583D01*
X159291Y452595D01*
X157005Y450309D01*
X154017Y449071D01*
X137575Y449071D01*
G37*
%LPD*%
%LPC*%
G36*
X137575Y372871D02*
X137575Y372871D01*
X134587Y374109D01*
X132301Y376395D01*
X131063Y379383D01*
X131063Y382617D01*
X132301Y385605D01*
X134587Y387891D01*
X137575Y389129D01*
X154017Y389129D01*
X157005Y387891D01*
X159291Y385605D01*
X160529Y382617D01*
X160529Y379383D01*
X159291Y376395D01*
X157005Y374109D01*
X154017Y372871D01*
X137575Y372871D01*
G37*
%LPD*%
%LPC*%
G36*
X183856Y498093D02*
X183856Y498093D01*
X178053Y503896D01*
X178053Y512104D01*
X183856Y517907D01*
X192064Y517907D01*
X197867Y512104D01*
X197867Y503896D01*
X192064Y498093D01*
X183856Y498093D01*
G37*
%LPD*%
%LPC*%
G36*
X234656Y498093D02*
X234656Y498093D01*
X228853Y503896D01*
X228853Y512104D01*
X234656Y517907D01*
X242864Y517907D01*
X248667Y512104D01*
X248667Y503896D01*
X242864Y498093D01*
X234656Y498093D01*
G37*
%LPD*%
%LPC*%
G36*
X605496Y15493D02*
X605496Y15493D01*
X599693Y21296D01*
X599693Y29504D01*
X605496Y35307D01*
X613704Y35307D01*
X619507Y29504D01*
X619507Y21296D01*
X613704Y15493D01*
X605496Y15493D01*
G37*
%LPD*%
%LPC*%
G36*
X630896Y15493D02*
X630896Y15493D01*
X625093Y21296D01*
X625093Y29504D01*
X630896Y35307D01*
X639104Y35307D01*
X644907Y29504D01*
X644907Y21296D01*
X639104Y15493D01*
X630896Y15493D01*
G37*
%LPD*%
%LPC*%
G36*
X630896Y498093D02*
X630896Y498093D01*
X625093Y503896D01*
X625093Y512104D01*
X630896Y517907D01*
X639104Y517907D01*
X644907Y512104D01*
X644907Y503896D01*
X639104Y498093D01*
X630896Y498093D01*
G37*
%LPD*%
%LPC*%
G36*
X554696Y15493D02*
X554696Y15493D01*
X548893Y21296D01*
X548893Y29504D01*
X554696Y35307D01*
X562904Y35307D01*
X568707Y29504D01*
X568707Y21296D01*
X562904Y15493D01*
X554696Y15493D01*
G37*
%LPD*%
%LPC*%
G36*
X580096Y15493D02*
X580096Y15493D01*
X574293Y21296D01*
X574293Y29504D01*
X580096Y35307D01*
X588304Y35307D01*
X594107Y29504D01*
X594107Y21296D01*
X588304Y15493D01*
X580096Y15493D01*
G37*
%LPD*%
%LPC*%
G36*
X209256Y498093D02*
X209256Y498093D01*
X203453Y503896D01*
X203453Y512104D01*
X209256Y517907D01*
X217464Y517907D01*
X223267Y512104D01*
X223267Y503896D01*
X217464Y498093D01*
X209256Y498093D01*
G37*
%LPD*%
%LPC*%
G36*
X478496Y498093D02*
X478496Y498093D01*
X472693Y503896D01*
X472693Y512104D01*
X478496Y517907D01*
X486704Y517907D01*
X492507Y512104D01*
X492507Y503896D01*
X486704Y498093D01*
X478496Y498093D01*
G37*
%LPD*%
%LPC*%
G36*
X300696Y15493D02*
X300696Y15493D01*
X294893Y21296D01*
X294893Y29504D01*
X300696Y35307D01*
X308904Y35307D01*
X314707Y29504D01*
X314707Y21296D01*
X308904Y15493D01*
X300696Y15493D01*
G37*
%LPD*%
%LPC*%
G36*
X605496Y498093D02*
X605496Y498093D01*
X599693Y503896D01*
X599693Y512104D01*
X605496Y517907D01*
X613704Y517907D01*
X619507Y512104D01*
X619507Y503896D01*
X613704Y498093D01*
X605496Y498093D01*
G37*
%LPD*%
%LPC*%
G36*
X580096Y498093D02*
X580096Y498093D01*
X574293Y503896D01*
X574293Y512104D01*
X580096Y517907D01*
X588304Y517907D01*
X594107Y512104D01*
X594107Y503896D01*
X588304Y498093D01*
X580096Y498093D01*
G37*
%LPD*%
%LPC*%
G36*
X554696Y498093D02*
X554696Y498093D01*
X548893Y503896D01*
X548893Y512104D01*
X554696Y517907D01*
X562904Y517907D01*
X568707Y512104D01*
X568707Y503896D01*
X562904Y498093D01*
X554696Y498093D01*
G37*
%LPD*%
%LPC*%
G36*
X376896Y15493D02*
X376896Y15493D01*
X371093Y21296D01*
X371093Y29504D01*
X376896Y35307D01*
X385104Y35307D01*
X390907Y29504D01*
X390907Y21296D01*
X385104Y15493D01*
X376896Y15493D01*
G37*
%LPD*%
%LPC*%
G36*
X351496Y15493D02*
X351496Y15493D01*
X345693Y21296D01*
X345693Y29504D01*
X351496Y35307D01*
X359704Y35307D01*
X365507Y29504D01*
X365507Y21296D01*
X359704Y15493D01*
X351496Y15493D01*
G37*
%LPD*%
%LPC*%
G36*
X529296Y498093D02*
X529296Y498093D01*
X523493Y503896D01*
X523493Y512104D01*
X529296Y517907D01*
X537504Y517907D01*
X543307Y512104D01*
X543307Y503896D01*
X537504Y498093D01*
X529296Y498093D01*
G37*
%LPD*%
%LPC*%
G36*
X453096Y498093D02*
X453096Y498093D01*
X447293Y503896D01*
X447293Y512104D01*
X453096Y517907D01*
X461304Y517907D01*
X467107Y512104D01*
X467107Y503896D01*
X461304Y498093D01*
X453096Y498093D01*
G37*
%LPD*%
%LPC*%
G36*
X412456Y498093D02*
X412456Y498093D01*
X406653Y503896D01*
X406653Y512104D01*
X412456Y517907D01*
X420664Y517907D01*
X426467Y512104D01*
X426467Y503896D01*
X420664Y498093D01*
X412456Y498093D01*
G37*
%LPD*%
%LPC*%
G36*
X529296Y15493D02*
X529296Y15493D01*
X523493Y21296D01*
X523493Y29504D01*
X529296Y35307D01*
X537504Y35307D01*
X543307Y29504D01*
X543307Y21296D01*
X537504Y15493D01*
X529296Y15493D01*
G37*
%LPD*%
%LPC*%
G36*
X387056Y498093D02*
X387056Y498093D01*
X381253Y503896D01*
X381253Y512104D01*
X387056Y517907D01*
X395264Y517907D01*
X401067Y512104D01*
X401067Y503896D01*
X395264Y498093D01*
X387056Y498093D01*
G37*
%LPD*%
%LPC*%
G36*
X427696Y15493D02*
X427696Y15493D01*
X421893Y21296D01*
X421893Y29504D01*
X427696Y35307D01*
X435904Y35307D01*
X441707Y29504D01*
X441707Y21296D01*
X435904Y15493D01*
X427696Y15493D01*
G37*
%LPD*%
%LPC*%
G36*
X453096Y15493D02*
X453096Y15493D01*
X447293Y21296D01*
X447293Y29504D01*
X453096Y35307D01*
X461304Y35307D01*
X467107Y29504D01*
X467107Y21296D01*
X461304Y15493D01*
X453096Y15493D01*
G37*
%LPD*%
%LPC*%
G36*
X503896Y15493D02*
X503896Y15493D01*
X498093Y21296D01*
X498093Y29504D01*
X503896Y35307D01*
X512104Y35307D01*
X517907Y29504D01*
X517907Y21296D01*
X512104Y15493D01*
X503896Y15493D01*
G37*
%LPD*%
%LPC*%
G36*
X417496Y106235D02*
X417496Y106235D01*
X414532Y107463D01*
X412263Y109732D01*
X411035Y112696D01*
X411035Y115904D01*
X412263Y118868D01*
X414532Y121137D01*
X417496Y122365D01*
X420704Y122365D01*
X423668Y121137D01*
X425937Y118868D01*
X427165Y115904D01*
X427165Y112696D01*
X425937Y109732D01*
X423668Y107463D01*
X420704Y106235D01*
X417496Y106235D01*
G37*
%LPD*%
%LPC*%
G36*
X417496Y80835D02*
X417496Y80835D01*
X414532Y82063D01*
X412263Y84332D01*
X411035Y87296D01*
X411035Y90504D01*
X412263Y93468D01*
X414532Y95737D01*
X417496Y96965D01*
X420704Y96965D01*
X423668Y95737D01*
X425937Y93468D01*
X427165Y90504D01*
X427165Y87296D01*
X425937Y84332D01*
X423668Y82063D01*
X420704Y80835D01*
X417496Y80835D01*
G37*
%LPD*%
%LPC*%
G36*
X569896Y106235D02*
X569896Y106235D01*
X566932Y107463D01*
X564663Y109732D01*
X563435Y112696D01*
X563435Y115904D01*
X564663Y118868D01*
X566932Y121137D01*
X569896Y122365D01*
X573104Y122365D01*
X576068Y121137D01*
X578337Y118868D01*
X579565Y115904D01*
X579565Y112696D01*
X578337Y109732D01*
X576068Y107463D01*
X573104Y106235D01*
X569896Y106235D01*
G37*
%LPD*%
%LPC*%
G36*
X417496Y258635D02*
X417496Y258635D01*
X414532Y259863D01*
X412263Y262132D01*
X411035Y265096D01*
X411035Y268304D01*
X412263Y271268D01*
X414532Y273537D01*
X417496Y274765D01*
X420704Y274765D01*
X423668Y273537D01*
X425937Y271268D01*
X427165Y268304D01*
X427165Y265096D01*
X425937Y262132D01*
X423668Y259863D01*
X420704Y258635D01*
X417496Y258635D01*
G37*
%LPD*%
%LPC*%
G36*
X417496Y284035D02*
X417496Y284035D01*
X414532Y285263D01*
X412263Y287532D01*
X411035Y290496D01*
X411035Y293704D01*
X412263Y296668D01*
X414532Y298937D01*
X417496Y300165D01*
X420704Y300165D01*
X423668Y298937D01*
X425937Y296668D01*
X427165Y293704D01*
X427165Y290496D01*
X425937Y287532D01*
X423668Y285263D01*
X420704Y284035D01*
X417496Y284035D01*
G37*
%LPD*%
%LPC*%
G36*
X417496Y131635D02*
X417496Y131635D01*
X414532Y132863D01*
X412263Y135132D01*
X411035Y138096D01*
X411035Y141304D01*
X412263Y144268D01*
X414532Y146537D01*
X417496Y147765D01*
X420704Y147765D01*
X423668Y146537D01*
X425937Y144268D01*
X427165Y141304D01*
X427165Y138096D01*
X425937Y135132D01*
X423668Y132863D01*
X420704Y131635D01*
X417496Y131635D01*
G37*
%LPD*%
%LPC*%
G36*
X569896Y233235D02*
X569896Y233235D01*
X566932Y234463D01*
X564663Y236732D01*
X563435Y239696D01*
X563435Y242904D01*
X564663Y245868D01*
X566932Y248137D01*
X569896Y249365D01*
X573104Y249365D01*
X576068Y248137D01*
X578337Y245868D01*
X579565Y242904D01*
X579565Y239696D01*
X578337Y236732D01*
X576068Y234463D01*
X573104Y233235D01*
X569896Y233235D01*
G37*
%LPD*%
%LPC*%
G36*
X417496Y233235D02*
X417496Y233235D01*
X414532Y234463D01*
X412263Y236732D01*
X411035Y239696D01*
X411035Y242904D01*
X412263Y245868D01*
X414532Y248137D01*
X417496Y249365D01*
X420704Y249365D01*
X423668Y248137D01*
X425937Y245868D01*
X427165Y242904D01*
X427165Y239696D01*
X425937Y236732D01*
X423668Y234463D01*
X420704Y233235D01*
X417496Y233235D01*
G37*
%LPD*%
%LPC*%
G36*
X569896Y207835D02*
X569896Y207835D01*
X566932Y209063D01*
X564663Y211332D01*
X563435Y214296D01*
X563435Y217504D01*
X564663Y220468D01*
X566932Y222737D01*
X569896Y223965D01*
X573104Y223965D01*
X576068Y222737D01*
X578337Y220468D01*
X579565Y217504D01*
X579565Y214296D01*
X578337Y211332D01*
X576068Y209063D01*
X573104Y207835D01*
X569896Y207835D01*
G37*
%LPD*%
%LPC*%
G36*
X569896Y436435D02*
X569896Y436435D01*
X566932Y437663D01*
X564663Y439932D01*
X563435Y442896D01*
X563435Y446104D01*
X564663Y449068D01*
X566932Y451337D01*
X569896Y452565D01*
X573104Y452565D01*
X576068Y451337D01*
X578337Y449068D01*
X579565Y446104D01*
X579565Y442896D01*
X578337Y439932D01*
X576068Y437663D01*
X573104Y436435D01*
X569896Y436435D01*
G37*
%LPD*%
%LPC*%
G36*
X417496Y436435D02*
X417496Y436435D01*
X414532Y437663D01*
X412263Y439932D01*
X411035Y442896D01*
X411035Y446104D01*
X412263Y449068D01*
X414532Y451337D01*
X417496Y452565D01*
X420704Y452565D01*
X423668Y451337D01*
X425937Y449068D01*
X427165Y446104D01*
X427165Y442896D01*
X425937Y439932D01*
X423668Y437663D01*
X420704Y436435D01*
X417496Y436435D01*
G37*
%LPD*%
%LPC*%
G36*
X417496Y207835D02*
X417496Y207835D01*
X414532Y209063D01*
X412263Y211332D01*
X411035Y214296D01*
X411035Y217504D01*
X412263Y220468D01*
X414532Y222737D01*
X417496Y223965D01*
X420704Y223965D01*
X423668Y222737D01*
X425937Y220468D01*
X427165Y217504D01*
X427165Y214296D01*
X425937Y211332D01*
X423668Y209063D01*
X420704Y207835D01*
X417496Y207835D01*
G37*
%LPD*%
%LPC*%
G36*
X417496Y182435D02*
X417496Y182435D01*
X414532Y183663D01*
X412263Y185932D01*
X411035Y188896D01*
X411035Y192104D01*
X412263Y195068D01*
X414532Y197337D01*
X417496Y198565D01*
X420704Y198565D01*
X423668Y197337D01*
X425937Y195068D01*
X427165Y192104D01*
X427165Y188896D01*
X425937Y185932D01*
X423668Y183663D01*
X420704Y182435D01*
X417496Y182435D01*
G37*
%LPD*%
%LPC*%
G36*
X417496Y411035D02*
X417496Y411035D01*
X414532Y412263D01*
X412263Y414532D01*
X411035Y417496D01*
X411035Y420704D01*
X412263Y423668D01*
X414532Y425937D01*
X417496Y427165D01*
X420704Y427165D01*
X423668Y425937D01*
X425937Y423668D01*
X427165Y420704D01*
X427165Y417496D01*
X425937Y414532D01*
X423668Y412263D01*
X420704Y411035D01*
X417496Y411035D01*
G37*
%LPD*%
%LPC*%
G36*
X417496Y157035D02*
X417496Y157035D01*
X414532Y158263D01*
X412263Y160532D01*
X411035Y163496D01*
X411035Y166704D01*
X412263Y169668D01*
X414532Y171937D01*
X417496Y173165D01*
X420704Y173165D01*
X423668Y171937D01*
X425937Y169668D01*
X427165Y166704D01*
X427165Y163496D01*
X425937Y160532D01*
X423668Y158263D01*
X420704Y157035D01*
X417496Y157035D01*
G37*
%LPD*%
%LPC*%
G36*
X569896Y131635D02*
X569896Y131635D01*
X566932Y132863D01*
X564663Y135132D01*
X563435Y138096D01*
X563435Y141304D01*
X564663Y144268D01*
X566932Y146537D01*
X569896Y147765D01*
X573104Y147765D01*
X576068Y146537D01*
X578337Y144268D01*
X579565Y141304D01*
X579565Y138096D01*
X578337Y135132D01*
X576068Y132863D01*
X573104Y131635D01*
X569896Y131635D01*
G37*
%LPD*%
%LPC*%
G36*
X417496Y385635D02*
X417496Y385635D01*
X414532Y386863D01*
X412263Y389132D01*
X411035Y392096D01*
X411035Y395304D01*
X412263Y398268D01*
X414532Y400537D01*
X417496Y401765D01*
X420704Y401765D01*
X423668Y400537D01*
X425937Y398268D01*
X427165Y395304D01*
X427165Y392096D01*
X425937Y389132D01*
X423668Y386863D01*
X420704Y385635D01*
X417496Y385635D01*
G37*
%LPD*%
%LPC*%
G36*
X569896Y385635D02*
X569896Y385635D01*
X566932Y386863D01*
X564663Y389132D01*
X563435Y392096D01*
X563435Y395304D01*
X564663Y398268D01*
X566932Y400537D01*
X569896Y401765D01*
X573104Y401765D01*
X576068Y400537D01*
X578337Y398268D01*
X579565Y395304D01*
X579565Y392096D01*
X578337Y389132D01*
X576068Y386863D01*
X573104Y385635D01*
X569896Y385635D01*
G37*
%LPD*%
%LPC*%
G36*
X569896Y334835D02*
X569896Y334835D01*
X566932Y336063D01*
X564663Y338332D01*
X563435Y341296D01*
X563435Y344504D01*
X564663Y347468D01*
X566932Y349737D01*
X569896Y350965D01*
X573104Y350965D01*
X576068Y349737D01*
X578337Y347468D01*
X579565Y344504D01*
X579565Y341296D01*
X578337Y338332D01*
X576068Y336063D01*
X573104Y334835D01*
X569896Y334835D01*
G37*
%LPD*%
%LPC*%
G36*
X417496Y334835D02*
X417496Y334835D01*
X414532Y336063D01*
X412263Y338332D01*
X411035Y341296D01*
X411035Y344504D01*
X412263Y347468D01*
X414532Y349737D01*
X417496Y350965D01*
X420704Y350965D01*
X423668Y349737D01*
X425937Y347468D01*
X427165Y344504D01*
X427165Y341296D01*
X425937Y338332D01*
X423668Y336063D01*
X420704Y334835D01*
X417496Y334835D01*
G37*
%LPD*%
%LPC*%
G36*
X569896Y309435D02*
X569896Y309435D01*
X566932Y310663D01*
X564663Y312932D01*
X563435Y315896D01*
X563435Y319104D01*
X564663Y322068D01*
X566932Y324337D01*
X569896Y325565D01*
X573104Y325565D01*
X576068Y324337D01*
X578337Y322068D01*
X579565Y319104D01*
X579565Y315896D01*
X578337Y312932D01*
X576068Y310663D01*
X573104Y309435D01*
X569896Y309435D01*
G37*
%LPD*%
%LPC*%
G36*
X192023Y268223D02*
X192023Y268223D01*
X192023Y281941D01*
X196813Y281941D01*
X205741Y273013D01*
X205741Y268223D01*
X192023Y268223D01*
G37*
%LPD*%
%LPC*%
G36*
X192023Y265177D02*
X192023Y265177D01*
X205741Y265177D01*
X205741Y260387D01*
X196813Y251459D01*
X192023Y251459D01*
X192023Y265177D01*
G37*
%LPD*%
%LPC*%
G36*
X175259Y268223D02*
X175259Y268223D01*
X175259Y273013D01*
X184187Y281941D01*
X188977Y281941D01*
X188977Y268223D01*
X175259Y268223D01*
G37*
%LPD*%
%LPC*%
G36*
X184187Y251459D02*
X184187Y251459D01*
X175259Y260387D01*
X175259Y265177D01*
X188977Y265177D01*
X188977Y251459D01*
X184187Y251459D01*
G37*
%LPD*%
%LPC*%
G36*
X230123Y371855D02*
X230123Y371855D01*
X230123Y379477D01*
X250829Y379477D01*
X250601Y378333D01*
X249912Y376668D01*
X248911Y375170D01*
X247638Y373897D01*
X246140Y372896D01*
X244475Y372207D01*
X242709Y371855D01*
X230123Y371855D01*
G37*
%LPD*%
%LPC*%
G36*
X636523Y369823D02*
X636523Y369823D01*
X636523Y378461D01*
X643420Y378461D01*
X644999Y378211D01*
X646520Y377716D01*
X647945Y376990D01*
X649239Y376050D01*
X650370Y374919D01*
X651310Y373625D01*
X652036Y372200D01*
X652531Y370679D01*
X652666Y369823D01*
X636523Y369823D01*
G37*
%LPD*%
%LPC*%
G36*
X636523Y280923D02*
X636523Y280923D01*
X636523Y289561D01*
X643420Y289561D01*
X644999Y289311D01*
X646520Y288816D01*
X647945Y288090D01*
X649239Y287150D01*
X650370Y286019D01*
X651310Y284725D01*
X652036Y283300D01*
X652531Y281779D01*
X652666Y280923D01*
X636523Y280923D01*
G37*
%LPD*%
%LPC*%
G36*
X192023Y84073D02*
X192023Y84073D01*
X192023Y92711D01*
X198920Y92711D01*
X200499Y92461D01*
X202020Y91966D01*
X203445Y91240D01*
X204739Y90300D01*
X205870Y89169D01*
X206810Y87875D01*
X207536Y86450D01*
X208031Y84929D01*
X208166Y84073D01*
X192023Y84073D01*
G37*
%LPD*%
%LPC*%
G36*
X268223Y204723D02*
X268223Y204723D01*
X268223Y213361D01*
X275120Y213361D01*
X276699Y213111D01*
X278220Y212616D01*
X279645Y211890D01*
X280939Y210950D01*
X282070Y209819D01*
X283010Y208525D01*
X283736Y207100D01*
X284231Y205579D01*
X284366Y204723D01*
X268223Y204723D01*
G37*
%LPD*%
%LPC*%
G36*
X617334Y369823D02*
X617334Y369823D01*
X617469Y370679D01*
X617964Y372200D01*
X618690Y373625D01*
X619630Y374919D01*
X620761Y376050D01*
X622055Y376990D01*
X623480Y377716D01*
X625001Y378211D01*
X626580Y378461D01*
X633477Y378461D01*
X633477Y369823D01*
X617334Y369823D01*
G37*
%LPD*%
%LPC*%
G36*
X172834Y84073D02*
X172834Y84073D01*
X172969Y84929D01*
X173464Y86450D01*
X174190Y87875D01*
X175130Y89169D01*
X176261Y90300D01*
X177555Y91240D01*
X178980Y91966D01*
X180501Y92461D01*
X182080Y92711D01*
X188977Y92711D01*
X188977Y84073D01*
X172834Y84073D01*
G37*
%LPD*%
%LPC*%
G36*
X617334Y280923D02*
X617334Y280923D01*
X617469Y281779D01*
X617964Y283300D01*
X618690Y284725D01*
X619630Y286019D01*
X620761Y287150D01*
X622055Y288090D01*
X623480Y288816D01*
X625001Y289311D01*
X626580Y289561D01*
X633477Y289561D01*
X633477Y280923D01*
X617334Y280923D01*
G37*
%LPD*%
%LPC*%
G36*
X249034Y204723D02*
X249034Y204723D01*
X249169Y205579D01*
X249664Y207100D01*
X250390Y208525D01*
X251330Y209819D01*
X252461Y210950D01*
X253755Y211890D01*
X255180Y212616D01*
X256701Y213111D01*
X258280Y213361D01*
X265177Y213361D01*
X265177Y204723D01*
X249034Y204723D01*
G37*
%LPD*%
%LPC*%
G36*
X636523Y358139D02*
X636523Y358139D01*
X636523Y366777D01*
X652666Y366777D01*
X652531Y365921D01*
X652036Y364400D01*
X651310Y362975D01*
X650370Y361681D01*
X649239Y360550D01*
X647945Y359610D01*
X646520Y358884D01*
X644999Y358389D01*
X643420Y358139D01*
X636523Y358139D01*
G37*
%LPD*%
%LPC*%
G36*
X268223Y193039D02*
X268223Y193039D01*
X268223Y201677D01*
X284366Y201677D01*
X284231Y200821D01*
X283736Y199300D01*
X283010Y197875D01*
X282070Y196581D01*
X280939Y195450D01*
X279645Y194510D01*
X278220Y193784D01*
X276699Y193289D01*
X275120Y193039D01*
X268223Y193039D01*
G37*
%LPD*%
%LPC*%
G36*
X636523Y269239D02*
X636523Y269239D01*
X636523Y277877D01*
X652666Y277877D01*
X652531Y277021D01*
X652036Y275500D01*
X651310Y274075D01*
X650370Y272781D01*
X649239Y271650D01*
X647945Y270710D01*
X646520Y269984D01*
X644999Y269489D01*
X643420Y269239D01*
X636523Y269239D01*
G37*
%LPD*%
%LPC*%
G36*
X192023Y72389D02*
X192023Y72389D01*
X192023Y81027D01*
X208166Y81027D01*
X208031Y80171D01*
X207536Y78650D01*
X206810Y77225D01*
X205870Y75931D01*
X204739Y74800D01*
X203445Y73860D01*
X202020Y73134D01*
X200499Y72639D01*
X198920Y72389D01*
X192023Y72389D01*
G37*
%LPD*%
%LPC*%
G36*
X626580Y358139D02*
X626580Y358139D01*
X625001Y358389D01*
X623480Y358884D01*
X622055Y359610D01*
X620761Y360550D01*
X619630Y361681D01*
X618690Y362975D01*
X617964Y364400D01*
X617469Y365921D01*
X617334Y366777D01*
X633477Y366777D01*
X633477Y358139D01*
X626580Y358139D01*
G37*
%LPD*%
%LPC*%
G36*
X258280Y193039D02*
X258280Y193039D01*
X256701Y193289D01*
X255180Y193784D01*
X253755Y194510D01*
X252461Y195450D01*
X251330Y196581D01*
X250390Y197875D01*
X249664Y199300D01*
X249169Y200821D01*
X249034Y201677D01*
X265177Y201677D01*
X265177Y193039D01*
X258280Y193039D01*
G37*
%LPD*%
%LPC*%
G36*
X182080Y72389D02*
X182080Y72389D01*
X180501Y72639D01*
X178980Y73134D01*
X177555Y73860D01*
X176261Y74800D01*
X175130Y75931D01*
X174190Y77225D01*
X173464Y78650D01*
X172969Y80171D01*
X172834Y81027D01*
X188977Y81027D01*
X188977Y72389D01*
X182080Y72389D01*
G37*
%LPD*%
%LPC*%
G36*
X626580Y269239D02*
X626580Y269239D01*
X625001Y269489D01*
X623480Y269984D01*
X622055Y270710D01*
X620761Y271650D01*
X619630Y272781D01*
X618690Y274075D01*
X617964Y275500D01*
X617469Y277021D01*
X617334Y277877D01*
X633477Y277877D01*
X633477Y269239D01*
X626580Y269239D01*
G37*
%LPD*%
%LPC*%
G36*
X335279Y231901D02*
X335279Y231901D01*
X335279Y239523D01*
X341261Y239523D01*
X343027Y239171D01*
X344692Y238482D01*
X346190Y237481D01*
X347463Y236208D01*
X348464Y234710D01*
X349153Y233045D01*
X349381Y231901D01*
X335279Y231901D01*
G37*
%LPD*%
%LPC*%
G36*
X318131Y231901D02*
X318131Y231901D01*
X318359Y233045D01*
X319048Y234710D01*
X320049Y236208D01*
X321322Y237481D01*
X322820Y238482D01*
X324485Y239171D01*
X326251Y239523D01*
X332233Y239523D01*
X332233Y231901D01*
X318131Y231901D01*
G37*
%LPD*%
%LPC*%
G36*
X335279Y221233D02*
X335279Y221233D01*
X335279Y228855D01*
X349381Y228855D01*
X349153Y227711D01*
X348464Y226046D01*
X347463Y224548D01*
X346190Y223275D01*
X344692Y222274D01*
X343027Y221585D01*
X341261Y221233D01*
X335279Y221233D01*
G37*
%LPD*%
%LPC*%
G36*
X326251Y221233D02*
X326251Y221233D01*
X324485Y221585D01*
X322820Y222274D01*
X321322Y223275D01*
X320049Y224548D01*
X319048Y226046D01*
X318359Y227711D01*
X318131Y228855D01*
X332233Y228855D01*
X332233Y221233D01*
X326251Y221233D01*
G37*
%LPD*%
%LPC*%
G36*
X265683Y509523D02*
X265683Y509523D01*
X265683Y518923D01*
X268684Y518923D01*
X275083Y512524D01*
X275083Y509523D01*
X265683Y509523D01*
G37*
%LPD*%
%LPC*%
G36*
X623823Y242823D02*
X623823Y242823D01*
X623823Y252223D01*
X626824Y252223D01*
X633223Y245824D01*
X633223Y242823D01*
X623823Y242823D01*
G37*
%LPD*%
%LPC*%
G36*
X253237Y509523D02*
X253237Y509523D01*
X253237Y512524D01*
X259636Y518923D01*
X262637Y518923D01*
X262637Y509523D01*
X253237Y509523D01*
G37*
%LPD*%
%LPC*%
G36*
X611377Y242823D02*
X611377Y242823D01*
X611377Y245824D01*
X617776Y252223D01*
X620777Y252223D01*
X620777Y242823D01*
X611377Y242823D01*
G37*
%LPD*%
%LPC*%
G36*
X265683Y497077D02*
X265683Y497077D01*
X265683Y506477D01*
X275083Y506477D01*
X275083Y503476D01*
X268684Y497077D01*
X265683Y497077D01*
G37*
%LPD*%
%LPC*%
G36*
X623823Y230377D02*
X623823Y230377D01*
X623823Y239777D01*
X633223Y239777D01*
X633223Y236776D01*
X626824Y230377D01*
X623823Y230377D01*
G37*
%LPD*%
%LPC*%
G36*
X259636Y497077D02*
X259636Y497077D01*
X253237Y503476D01*
X253237Y506477D01*
X262637Y506477D01*
X262637Y497077D01*
X259636Y497077D01*
G37*
%LPD*%
%LPC*%
G36*
X617776Y230377D02*
X617776Y230377D01*
X611377Y236776D01*
X611377Y239777D01*
X620777Y239777D01*
X620777Y230377D01*
X617776Y230377D01*
G37*
%LPD*%
%LPC*%
G36*
X255523Y103123D02*
X255523Y103123D01*
X255523Y111253D01*
X257998Y111253D01*
X263653Y105598D01*
X263653Y103123D01*
X255523Y103123D01*
G37*
%LPD*%
%LPC*%
G36*
X244347Y103123D02*
X244347Y103123D01*
X244347Y105598D01*
X250002Y111253D01*
X252477Y111253D01*
X252477Y103123D01*
X244347Y103123D01*
G37*
%LPD*%
%LPC*%
G36*
X255523Y91947D02*
X255523Y91947D01*
X255523Y100077D01*
X263653Y100077D01*
X263653Y97602D01*
X257998Y91947D01*
X255523Y91947D01*
G37*
%LPD*%
%LPC*%
G36*
X250002Y91947D02*
X250002Y91947D01*
X244347Y97602D01*
X244347Y100077D01*
X252477Y100077D01*
X252477Y91947D01*
X250002Y91947D01*
G37*
%LPD*%
%LPC*%
G36*
X317514Y133668D02*
X317514Y133668D01*
X317580Y141290D01*
X319845Y141270D01*
X325155Y135866D01*
X325135Y133602D01*
X317514Y133668D01*
G37*
%LPD*%
%LPC*%
G36*
X306846Y133761D02*
X306846Y133761D01*
X306866Y136026D01*
X312270Y141336D01*
X314534Y141316D01*
X314468Y133695D01*
X306846Y133761D01*
G37*
%LPD*%
%LPC*%
G36*
X317421Y123001D02*
X317421Y123001D01*
X317487Y130622D01*
X325109Y130556D01*
X325089Y128291D01*
X319685Y122981D01*
X317421Y123001D01*
G37*
%LPD*%
%LPC*%
G36*
X312110Y123047D02*
X312110Y123047D01*
X306800Y128451D01*
X306820Y130715D01*
X314441Y130649D01*
X314374Y123027D01*
X312110Y123047D01*
G37*
%LPD*%
%LPC*%
G36*
X219579Y382523D02*
X219579Y382523D01*
X219807Y383667D01*
X220496Y385332D01*
X221497Y386830D01*
X222770Y388103D01*
X224268Y389104D01*
X225933Y389793D01*
X227077Y390021D01*
X227077Y382523D01*
X219579Y382523D01*
G37*
%LPD*%
%LPC*%
G36*
X225933Y372207D02*
X225933Y372207D01*
X224268Y372896D01*
X222770Y373897D01*
X221497Y375170D01*
X220496Y376668D01*
X219807Y378333D01*
X219579Y379477D01*
X227077Y379477D01*
X227077Y371979D01*
X225933Y372207D01*
G37*
%LPD*%
%LPC*%
G36*
X420623Y369823D02*
X420623Y369823D01*
X420623Y377256D01*
X421749Y377032D01*
X423401Y376347D01*
X424889Y375353D01*
X426153Y374089D01*
X427147Y372601D01*
X427832Y370949D01*
X428056Y369823D01*
X420623Y369823D01*
G37*
%LPD*%
%LPC*%
G36*
X573023Y420623D02*
X573023Y420623D01*
X573023Y428056D01*
X574149Y427832D01*
X575801Y427147D01*
X577289Y426153D01*
X578553Y424889D01*
X579547Y423401D01*
X580232Y421749D01*
X580456Y420623D01*
X573023Y420623D01*
G37*
%LPD*%
%LPC*%
G36*
X420623Y366777D02*
X420623Y366777D01*
X428056Y366777D01*
X427832Y365651D01*
X427147Y363999D01*
X426153Y362511D01*
X424889Y361247D01*
X423401Y360253D01*
X421749Y359568D01*
X420623Y359344D01*
X420623Y366777D01*
G37*
%LPD*%
%LPC*%
G36*
X573023Y417577D02*
X573023Y417577D01*
X580456Y417577D01*
X580232Y416451D01*
X579547Y414799D01*
X578553Y413311D01*
X577289Y412047D01*
X575801Y411053D01*
X574149Y410368D01*
X573023Y410144D01*
X573023Y417577D01*
G37*
%LPD*%
%LPC*%
G36*
X410144Y369823D02*
X410144Y369823D01*
X410368Y370949D01*
X411053Y372601D01*
X412047Y374089D01*
X413311Y375353D01*
X414799Y376347D01*
X416451Y377032D01*
X417577Y377256D01*
X417577Y369823D01*
X410144Y369823D01*
G37*
%LPD*%
%LPC*%
G36*
X562544Y420623D02*
X562544Y420623D01*
X562768Y421749D01*
X563453Y423401D01*
X564447Y424889D01*
X565711Y426153D01*
X567199Y427147D01*
X568851Y427832D01*
X569977Y428056D01*
X569977Y420623D01*
X562544Y420623D01*
G37*
%LPD*%
%LPC*%
G36*
X416451Y359568D02*
X416451Y359568D01*
X414799Y360253D01*
X413311Y361247D01*
X412047Y362511D01*
X411053Y363999D01*
X410368Y365651D01*
X410144Y366777D01*
X417577Y366777D01*
X417577Y359344D01*
X416451Y359568D01*
G37*
%LPD*%
%LPC*%
G36*
X568851Y410368D02*
X568851Y410368D01*
X567199Y411053D01*
X565711Y412047D01*
X564447Y413311D01*
X563453Y414799D01*
X562768Y416451D01*
X562544Y417577D01*
X569977Y417577D01*
X569977Y410144D01*
X568851Y410368D01*
G37*
%LPD*%
%LPC*%
G36*
X634999Y279399D02*
X634999Y279399D01*
X634999Y279401D01*
X635001Y279401D01*
X635001Y279399D01*
X634999Y279399D01*
G37*
%LPD*%
%LPC*%
G36*
X419099Y368299D02*
X419099Y368299D01*
X419099Y368301D01*
X419101Y368301D01*
X419101Y368299D01*
X419099Y368299D01*
G37*
%LPD*%
%LPC*%
G36*
X266699Y203199D02*
X266699Y203199D01*
X266699Y203201D01*
X266701Y203201D01*
X266701Y203199D01*
X266699Y203199D01*
G37*
%LPD*%
%LPC*%
G36*
X190499Y266699D02*
X190499Y266699D01*
X190499Y266701D01*
X190501Y266701D01*
X190501Y266699D01*
X190499Y266699D01*
G37*
%LPD*%
%LPC*%
G36*
X571499Y419099D02*
X571499Y419099D01*
X571499Y419101D01*
X571501Y419101D01*
X571501Y419099D01*
X571499Y419099D01*
G37*
%LPD*%
%LPC*%
G36*
X253999Y101599D02*
X253999Y101599D01*
X253999Y101601D01*
X254001Y101601D01*
X254001Y101599D01*
X253999Y101599D01*
G37*
%LPD*%
%LPC*%
G36*
X333755Y230377D02*
X333755Y230377D01*
X333755Y230379D01*
X333757Y230379D01*
X333757Y230377D01*
X333755Y230377D01*
G37*
%LPD*%
%LPC*%
G36*
X264159Y507999D02*
X264159Y507999D01*
X264159Y508001D01*
X264161Y508001D01*
X264161Y507999D01*
X264159Y507999D01*
G37*
%LPD*%
%LPC*%
G36*
X228599Y380999D02*
X228599Y380999D01*
X228599Y381001D01*
X228601Y381001D01*
X228601Y380999D01*
X228599Y380999D01*
G37*
%LPD*%
%LPC*%
G36*
X190499Y82549D02*
X190499Y82549D01*
X190499Y82551D01*
X190501Y82551D01*
X190501Y82549D01*
X190499Y82549D01*
G37*
%LPD*%
%LPC*%
G36*
X622299Y241299D02*
X622299Y241299D01*
X622299Y241301D01*
X622301Y241301D01*
X622301Y241299D01*
X622299Y241299D01*
G37*
%LPD*%
%LPC*%
G36*
X634999Y368299D02*
X634999Y368299D01*
X634999Y368301D01*
X635001Y368301D01*
X635001Y368299D01*
X634999Y368299D01*
G37*
%LPD*%
%LPC*%
G36*
X315977Y132158D02*
X315977Y132158D01*
X315977Y132159D01*
X315978Y132159D01*
X315978Y132158D01*
X315977Y132158D01*
G37*
%LPD*%
D10*
X279400Y381000D03*
X279400Y457200D03*
D11*
X25400Y495300D03*
X25400Y419100D03*
D12*
X101600Y406400D03*
X101600Y508000D03*
D13*
X327152Y230378D02*
X340360Y230378D01*
X340360Y179578D02*
X327152Y179578D01*
X327152Y204978D02*
X340360Y204978D01*
D10*
X317500Y381000D03*
X317500Y457200D03*
D14*
X274320Y177800D02*
X259080Y177800D01*
X259080Y203200D02*
X274320Y203200D01*
X274320Y228600D02*
X259080Y228600D01*
X198120Y82550D02*
X182880Y82550D01*
X182880Y120650D02*
X198120Y120650D01*
X198120Y158750D02*
X182880Y158750D01*
X182880Y196850D02*
X198120Y196850D01*
D15*
X254000Y127000D03*
X254000Y101600D03*
D16*
X190500Y317500D03*
D17*
X190500Y266700D03*
D11*
X63500Y482600D03*
X63500Y431800D03*
D12*
X354584Y366522D03*
X354584Y468122D03*
D18*
X647700Y165100D03*
X622300Y165100D03*
X647700Y190500D03*
X622300Y190500D03*
X647700Y215900D03*
X622300Y215900D03*
X647700Y241300D03*
X622300Y241300D03*
D14*
X640080Y76200D02*
X655320Y76200D01*
X655320Y101600D02*
X640080Y101600D01*
X642620Y330200D02*
X627380Y330200D01*
X627380Y304800D02*
X642620Y304800D01*
X642620Y279400D02*
X627380Y279400D01*
X58420Y355600D02*
X43180Y355600D01*
X43180Y330200D02*
X58420Y330200D01*
X627380Y368300D02*
X642620Y368300D01*
X642620Y393700D02*
X627380Y393700D01*
X627380Y419100D02*
X642620Y419100D01*
X642620Y444500D02*
X627380Y444500D01*
D13*
X152400Y457200D02*
X139192Y457200D01*
X139192Y431800D02*
X152400Y431800D01*
X228600Y431800D02*
X241808Y431800D01*
X241808Y457200D02*
X228600Y457200D01*
X152400Y406400D02*
X139192Y406400D01*
X139192Y381000D02*
X152400Y381000D01*
X228600Y406400D02*
X241808Y406400D01*
X241808Y381000D02*
X228600Y381000D01*
D11*
X305562Y336042D03*
X305562Y259842D03*
D19*
X367538Y77724D03*
X291338Y77724D03*
D20*
X315977Y132158D03*
X392175Y131494D03*
D21*
X533400Y508000D03*
X508000Y25400D03*
X558800Y508000D03*
X584200Y508000D03*
X609600Y508000D03*
X635000Y508000D03*
X508000Y508000D03*
X482600Y508000D03*
X457200Y508000D03*
X416560Y508000D03*
X391160Y508000D03*
X365760Y508000D03*
X340360Y508000D03*
X314960Y508000D03*
X289560Y508000D03*
X264160Y508000D03*
X238760Y508000D03*
X533400Y25400D03*
X558800Y25400D03*
X584200Y25400D03*
X609600Y25400D03*
X635000Y25400D03*
X457200Y25400D03*
X431800Y25400D03*
X406400Y25400D03*
X381000Y25400D03*
X355600Y25400D03*
X330200Y25400D03*
X213360Y508000D03*
X187960Y508000D03*
X304800Y25400D03*
X279400Y25400D03*
D22*
X571500Y88900D03*
D23*
X571500Y114300D03*
X571500Y139700D03*
X571500Y165100D03*
X571500Y190500D03*
X571500Y215900D03*
X571500Y241300D03*
X571500Y266700D03*
X571500Y292100D03*
X571500Y317500D03*
X571500Y342900D03*
X571500Y368300D03*
X571500Y393700D03*
X571500Y419100D03*
X571500Y444500D03*
X419100Y444500D03*
X419100Y419100D03*
X419100Y393700D03*
X419100Y368300D03*
X419100Y342900D03*
X419100Y317500D03*
X419100Y292100D03*
X419100Y266700D03*
X419100Y241300D03*
X419100Y215900D03*
X419100Y190500D03*
X419100Y165100D03*
X419100Y139700D03*
X419100Y114300D03*
X419100Y88900D03*
D24*
X114300Y355600D02*
X50800Y355600D01*
X114300Y355600D02*
X139700Y330200D01*
X139700Y177800D01*
X158750Y158750D01*
X190500Y158750D01*
X50800Y355600D02*
X50800Y419100D01*
X63500Y431800D01*
X76200Y431800D01*
X101600Y406400D01*
X152400Y406400D01*
X50800Y330200D02*
X38100Y330200D01*
X25400Y342900D01*
X25400Y419100D01*
X50800Y330200D02*
X114300Y330200D01*
X130556Y313944D01*
X158750Y120650D02*
X190500Y120650D01*
X130556Y148844D02*
X130556Y313944D01*
X130556Y148844D02*
X158750Y120650D01*
X228600Y431800D02*
X254000Y431800D01*
X279400Y406400D01*
X279400Y381000D01*
X272288Y368300D02*
X234188Y406400D01*
X228600Y406400D01*
X304800Y368300D02*
X317500Y381000D01*
X304800Y368300D02*
X272288Y368300D01*
X317500Y381000D02*
X317500Y393700D01*
X333756Y409956D01*
X362712Y409956D01*
X369824Y402844D01*
X369824Y349504D01*
X356108Y335788D01*
X305816Y335788D01*
X305562Y336042D01*
X299466Y336042D01*
X647700Y165100D02*
X666496Y146304D01*
X666496Y60198D02*
X667258Y59436D01*
X667258Y31242D01*
X647700Y11684D02*
X266192Y11684D01*
X288798Y325374D02*
X299466Y336042D01*
X666496Y146304D02*
X666496Y60198D01*
X667258Y31242D02*
X647700Y11684D01*
X266192Y11684D02*
X266192Y77724D01*
X288798Y100330D01*
X288798Y325374D01*
X305562Y204978D02*
X333756Y204978D01*
X305562Y204978D02*
X305562Y259842D01*
X622300Y304800D02*
X635000Y304800D01*
X622300Y304800D02*
X596900Y279400D01*
X596900Y203200D02*
X584200Y190500D01*
X571500Y190500D01*
X596900Y203200D02*
X596900Y279400D01*
X571500Y266700D02*
X558800Y266700D01*
X540766Y284734D01*
X540766Y451866D01*
X556768Y467868D01*
X643890Y419100D02*
X656844Y432054D01*
X643890Y419100D02*
X635000Y419100D01*
X656844Y455930D02*
X644906Y467868D01*
X656844Y455930D02*
X656844Y432054D01*
X644906Y467868D02*
X556768Y467868D01*
X215900Y171450D02*
X190500Y196850D01*
X215900Y171450D02*
X215900Y152400D01*
X241300Y127000D01*
X254000Y127000D01*
X254000Y165100D01*
X266700Y177800D01*
X190500Y317500D02*
X228600Y355600D01*
X343662Y355600D02*
X354584Y366522D01*
X343662Y355600D02*
X228600Y355600D01*
X215900Y317500D02*
X266700Y266700D01*
X215900Y317500D02*
X190500Y317500D01*
X266700Y266700D02*
X266700Y228600D01*
X305562Y488950D02*
X289560Y504952D01*
X289560Y508000D01*
X305562Y488950D02*
X501650Y488950D01*
X508000Y495300D01*
X508000Y508000D01*
X327660Y495300D02*
X314960Y508000D01*
X355600Y495300D02*
X365760Y505460D01*
X365760Y508000D01*
X355600Y495300D02*
X327660Y495300D01*
X63500Y482600D02*
X50800Y495300D01*
X25400Y495300D01*
X63500Y482600D02*
X88900Y508000D01*
X101600Y508000D01*
X127000Y482600D01*
X127000Y444500D01*
X139700Y431800D01*
X152400Y431800D01*
X228600Y457200D02*
X279400Y457200D01*
X317500Y457200D01*
X328422Y468122D01*
X354584Y468122D01*
X652018Y478282D02*
X666496Y463804D01*
X652018Y478282D02*
X364744Y478282D01*
X354584Y468122D01*
X581660Y368300D02*
X584200Y368300D01*
X582930Y367030D01*
X581660Y368300D02*
X607060Y393700D01*
X635000Y393700D01*
X666496Y408432D02*
X666496Y463804D01*
X666496Y408432D02*
X651764Y393700D01*
X635000Y393700D01*
X635000Y330200D02*
X620268Y330200D01*
X608838Y341630D01*
X608330Y341630D01*
X582930Y367030D01*
X581660Y368300D02*
X571500Y368300D01*
X581660Y368300D02*
X582930Y367030D01*
X583770Y53340D02*
X358140Y53340D01*
X647446Y101346D02*
X647700Y101600D01*
X647446Y101346D02*
X631776Y101346D01*
X583770Y53340D01*
X358140Y53340D02*
X330200Y25400D01*
X615442Y76200D02*
X647700Y76200D01*
X615442Y76200D02*
X584962Y45720D01*
X426720Y45720D01*
X406400Y25400D01*
X622300Y190500D02*
X647700Y190500D01*
X654304Y190500D01*
X666496Y202692D01*
X666496Y226822D01*
X652018Y241300D01*
X647700Y241300D01*
X368808Y77724D02*
X367538Y77724D01*
X379984Y66548D02*
X577814Y66548D01*
X604520Y93254D01*
X604520Y179324D01*
X615696Y190500D01*
X622300Y190500D01*
X419100Y317500D02*
X406654Y317500D01*
X367792Y278638D01*
X367792Y77978D01*
X367538Y77724D01*
X368808Y77724D02*
X379984Y66548D01*
X622300Y215900D02*
X647700Y215900D01*
X392175Y131494D02*
X392175Y89663D01*
X409194Y72644D02*
X575310Y72644D01*
X596519Y93853D01*
X596519Y170180D01*
X596519Y189364D01*
X622300Y215145D02*
X622300Y215900D01*
X622300Y215145D02*
X596519Y189364D01*
X409194Y72644D02*
X392175Y89663D01*
X576580Y170180D02*
X596519Y170180D01*
X576580Y170180D02*
X571500Y165100D01*
X571500Y292100D02*
X565404Y292100D01*
X552704Y304800D01*
X552704Y445770D01*
X622046Y444500D02*
X635000Y444500D01*
X565404Y458470D02*
X552704Y445770D01*
X565404Y458470D02*
X608076Y458470D01*
X622046Y444500D01*
X300736Y162814D02*
X300736Y87122D01*
X291338Y77724D01*
X300736Y162814D02*
X317500Y179578D01*
X333756Y179578D01*
X344678Y168656D01*
X344678Y78232D01*
X362966Y59944D01*
X579445Y59944D01*
X622300Y102799D02*
X622300Y165100D01*
X622300Y102799D02*
X579445Y59944D01*
M02*
