M48
;GenerationSoftware,Autodesk,EAGLE,9.4.2*%
;CreationDate,2019-08-22T18:33:20Z*%
FMAT,2
ICI,OFF
METRIC,TZ,000.000
T5C0.800
T4C0.813
T3C1.000
T2C1.016
T1C1.118
%
G90
M71
T1
X10160Y40640
X10160Y50800
X35458Y36652
X35458Y46812
T2
X19050Y12065
X64770Y24130
X62230Y24130
X64770Y7620
X64770Y10160
X63500Y33020
X63500Y30480
X63500Y27940
X5080Y35560
X26670Y17780
X26670Y20320
X26670Y22860
X19050Y8255
X64770Y21590
X19050Y15875
X19050Y19685
X5080Y33020
X63500Y36830
X19050Y31750
X19050Y26670
X63500Y39370
X63500Y41910
X64770Y16510
X62230Y16510
X64770Y19050
X62230Y19050
X63500Y44450
X62230Y21590
T3
X63500Y50800
X50800Y50800
X48260Y50800
X45720Y50800
X41656Y50800
X39116Y50800
X36576Y50800
X34036Y50800
X31496Y50800
X28956Y50800
X26416Y50800
X53340Y2540
X55880Y2540
X50800Y2540
X58420Y2540
X60960Y2540
X63500Y2540
X45720Y2540
X43180Y2540
X40640Y2540
X38100Y2540
X35560Y2540
X33020Y2540
X21336Y50800
X18796Y50800
X30480Y2540
X27940Y2540
X53340Y50800
X23876Y50800
X55880Y50800
X58420Y50800
X60960Y50800
T4
X27940Y45720
X2540Y49530
X2540Y41910
X33376Y23038
X33376Y17958
X33376Y20498
X31750Y38100
X31750Y45720
X25400Y12700
X25400Y10160
X6350Y48260
X6350Y43180
X27940Y38100
X15240Y43180
X22860Y43180
X22860Y45720
X15240Y40640
X15240Y38100
X22860Y40640
X22860Y38100
X30556Y33604
X30556Y25984
X36754Y7772
X29134Y7772
X31598Y13216
X39217Y13149
X15240Y45720
T5
X57150Y8890
X57150Y11430
X57150Y13970
X57150Y16510
X57150Y19050
X57150Y21590
X57150Y24130
X57150Y26670
X57150Y29210
X57150Y31750
X57150Y34290
X57150Y36830
X57150Y39370
X57150Y41910
X57150Y44450
X41910Y44450
X41910Y41910
X41910Y39370
X41910Y36830
X41910Y34290
X41910Y31750
X41910Y29210
X41910Y26670
X41910Y24130
X41910Y21590
X41910Y19050
X41910Y16510
X41910Y13970
X41910Y11430
X41910Y8890
M30