M48
;GenerationSoftware,Autodesk,EAGLE,9.4.2*%
;CreationDate,2019-08-22T18:36:21Z*%
FMAT,2
ICI,OFF
METRIC,TZ,000.000
T4C0.800
T3C0.813
T2C1.016
T1C1.118
%
G90
M71
T1
X64770Y40640
X64770Y50800
X91440Y36830
X91440Y46990
T2
X74930Y9525
X83236Y50749
X85776Y50749
X88316Y50749
X90856Y50749
X93396Y50749
X95936Y50749
X100152Y50673
X102692Y50673
X82550Y15240
X82550Y17780
X82550Y20320
X120167Y15316
X74930Y13335
X74930Y17145
X74930Y20955
X105232Y50673
X107772Y50673
X76937Y33299
X76937Y28219
X110312Y50673
X112852Y50673
X120167Y12776
X117627Y12776
X117932Y50673
X117627Y15316
X120167Y17856
X117627Y17856
X120167Y20396
X117627Y20396
X120421Y9373
X120421Y6833
X118669Y29566
X118669Y27026
X118669Y24486
X60960Y38100
X60960Y35560
X117754Y34138
X117754Y36678
X117754Y39218
X117754Y41758
X78156Y50749
X105181Y2464
X107721Y2464
X110261Y2464
X112801Y2464
X115341Y2464
X117881Y2464
X120421Y2464
X87376Y2489
X89916Y2489
X92456Y2489
X94996Y2489
X97536Y2489
X100076Y2489
X115392Y50673
X80696Y50749
T3
X83896Y45796
X57150Y49530
X57150Y41910
X88646Y24841
X88646Y19761
X88646Y22301
X87528Y38202
X87528Y45822
X82550Y10160
X82550Y7620
X60630Y48158
X60630Y43078
X83896Y38176
X71069Y43307
X78689Y43307
X78689Y45847
X71069Y40767
X71069Y38227
X78689Y40767
X78689Y38227
X86716Y29540
X94336Y29540
X93853Y11024
X86233Y11024
X87274Y15951
X94894Y15951
X71069Y45847
T4
X112547Y9373
X112547Y11913
X112547Y14453
X112547Y16993
X112547Y19533
X112547Y22073
X112547Y24613
X112547Y27153
X112547Y29693
X112547Y32233
X112547Y34773
X112547Y37313
X112547Y39853
X112547Y42393
X112547Y44933
X97307Y44933
X97307Y42393
X97307Y39853
X97307Y37313
X97307Y34773
X97307Y32233
X97307Y29693
X97307Y27153
X97307Y24613
X97307Y22073
X97307Y19533
X97307Y16993
X97307Y14453
X97307Y11913
X97307Y9373
M30